<?xml version="1.0" encoding="utf-8" standalone="no"?>
<!DOCTYPE svg PUBLIC "-//W3C//DTD SVG 1.1//EN"
  "http://www.w3.org/Graphics/SVG/1.1/DTD/svg11.dtd">
<!-- Created with matplotlib (https://matplotlib.org/) -->
<svg height="432pt" version="1.1" viewBox="0 0 432 432" width="432pt" xmlns="http://www.w3.org/2000/svg" xmlns:xlink="http://www.w3.org/1999/xlink">
 <defs>
  <style type="text/css">
*{stroke-linecap:butt;stroke-linejoin:round;}
  </style>
 </defs>
 <g id="figure_1">
  <g id="patch_1">
   <path d="M 0 432 
L 432 432 
L 432 0 
L 0 0 
z
" style="fill:#ffffff;"/>
  </g>
  <g id="axes_1">
   <g id="patch_2">
    <path d="M 54 278.64 
L 388.8 278.64 
L 388.8 51.84 
L 54 51.84 
z
" style="fill:#ffffff;"/>
   </g>
   <g id="matplotlib.axis_1">
    <g id="xtick_1">
     <g id="line2d_1">
      <defs>
       <path d="M 0 0 
L 0 3.5 
" id="mb33f3309ec" style="stroke:#000000;stroke-width:0.8;"/>
      </defs>
      <g>
       <use style="stroke:#000000;stroke-width:0.8;" x="54" xlink:href="#mb33f3309ec" y="278.64"/>
      </g>
     </g>
     <g id="text_1">
      <!-- 0 -->
      <defs>
       <path d="M 31.78125 66.40625 
Q 24.171875 66.40625 20.328125 58.90625 
Q 16.5 51.421875 16.5 36.375 
Q 16.5 21.390625 20.328125 13.890625 
Q 24.171875 6.390625 31.78125 6.390625 
Q 39.453125 6.390625 43.28125 13.890625 
Q 47.125 21.390625 47.125 36.375 
Q 47.125 51.421875 43.28125 58.90625 
Q 39.453125 66.40625 31.78125 66.40625 
z
M 31.78125 74.21875 
Q 44.046875 74.21875 50.515625 64.515625 
Q 56.984375 54.828125 56.984375 36.375 
Q 56.984375 17.96875 50.515625 8.265625 
Q 44.046875 -1.421875 31.78125 -1.421875 
Q 19.53125 -1.421875 13.0625 8.265625 
Q 6.59375 17.96875 6.59375 36.375 
Q 6.59375 54.828125 13.0625 64.515625 
Q 19.53125 74.21875 31.78125 74.21875 
z
" id="DejaVuSans-48"/>
      </defs>
      <g transform="translate(50.81875 293.238437)scale(0.1 -0.1)">
       <use xlink:href="#DejaVuSans-48"/>
      </g>
     </g>
    </g>
    <g id="xtick_2">
     <g id="line2d_2">
      <g>
       <use style="stroke:#000000;stroke-width:0.8;" x="102.662791" xlink:href="#mb33f3309ec" y="278.64"/>
      </g>
     </g>
     <g id="text_2">
      <!-- 50 -->
      <defs>
       <path d="M 10.796875 72.90625 
L 49.515625 72.90625 
L 49.515625 64.59375 
L 19.828125 64.59375 
L 19.828125 46.734375 
Q 21.96875 47.46875 24.109375 47.828125 
Q 26.265625 48.1875 28.421875 48.1875 
Q 40.625 48.1875 47.75 41.5 
Q 54.890625 34.8125 54.890625 23.390625 
Q 54.890625 11.625 47.5625 5.09375 
Q 40.234375 -1.421875 26.90625 -1.421875 
Q 22.3125 -1.421875 17.546875 -0.640625 
Q 12.796875 0.140625 7.71875 1.703125 
L 7.71875 11.625 
Q 12.109375 9.234375 16.796875 8.0625 
Q 21.484375 6.890625 26.703125 6.890625 
Q 35.15625 6.890625 40.078125 11.328125 
Q 45.015625 15.765625 45.015625 23.390625 
Q 45.015625 31 40.078125 35.4375 
Q 35.15625 39.890625 26.703125 39.890625 
Q 22.75 39.890625 18.8125 39.015625 
Q 14.890625 38.140625 10.796875 36.28125 
z
" id="DejaVuSans-53"/>
      </defs>
      <g transform="translate(96.300291 293.238437)scale(0.1 -0.1)">
       <use xlink:href="#DejaVuSans-53"/>
       <use x="63.623047" xlink:href="#DejaVuSans-48"/>
      </g>
     </g>
    </g>
    <g id="xtick_3">
     <g id="line2d_3">
      <g>
       <use style="stroke:#000000;stroke-width:0.8;" x="151.325581" xlink:href="#mb33f3309ec" y="278.64"/>
      </g>
     </g>
     <g id="text_3">
      <!-- 100 -->
      <defs>
       <path d="M 12.40625 8.296875 
L 28.515625 8.296875 
L 28.515625 63.921875 
L 10.984375 60.40625 
L 10.984375 69.390625 
L 28.421875 72.90625 
L 38.28125 72.90625 
L 38.28125 8.296875 
L 54.390625 8.296875 
L 54.390625 0 
L 12.40625 0 
z
" id="DejaVuSans-49"/>
      </defs>
      <g transform="translate(141.781831 293.238437)scale(0.1 -0.1)">
       <use xlink:href="#DejaVuSans-49"/>
       <use x="63.623047" xlink:href="#DejaVuSans-48"/>
       <use x="127.246094" xlink:href="#DejaVuSans-48"/>
      </g>
     </g>
    </g>
    <g id="xtick_4">
     <g id="line2d_4">
      <g>
       <use style="stroke:#000000;stroke-width:0.8;" x="199.988372" xlink:href="#mb33f3309ec" y="278.64"/>
      </g>
     </g>
     <g id="text_4">
      <!-- 150 -->
      <g transform="translate(190.444622 293.238437)scale(0.1 -0.1)">
       <use xlink:href="#DejaVuSans-49"/>
       <use x="63.623047" xlink:href="#DejaVuSans-53"/>
       <use x="127.246094" xlink:href="#DejaVuSans-48"/>
      </g>
     </g>
    </g>
    <g id="xtick_5">
     <g id="line2d_5">
      <g>
       <use style="stroke:#000000;stroke-width:0.8;" x="248.651163" xlink:href="#mb33f3309ec" y="278.64"/>
      </g>
     </g>
     <g id="text_5">
      <!-- 200 -->
      <defs>
       <path d="M 19.1875 8.296875 
L 53.609375 8.296875 
L 53.609375 0 
L 7.328125 0 
L 7.328125 8.296875 
Q 12.9375 14.109375 22.625 23.890625 
Q 32.328125 33.6875 34.8125 36.53125 
Q 39.546875 41.84375 41.421875 45.53125 
Q 43.3125 49.21875 43.3125 52.78125 
Q 43.3125 58.59375 39.234375 62.25 
Q 35.15625 65.921875 28.609375 65.921875 
Q 23.96875 65.921875 18.8125 64.3125 
Q 13.671875 62.703125 7.8125 59.421875 
L 7.8125 69.390625 
Q 13.765625 71.78125 18.9375 73 
Q 24.125 74.21875 28.421875 74.21875 
Q 39.75 74.21875 46.484375 68.546875 
Q 53.21875 62.890625 53.21875 53.421875 
Q 53.21875 48.921875 51.53125 44.890625 
Q 49.859375 40.875 45.40625 35.40625 
Q 44.1875 33.984375 37.640625 27.21875 
Q 31.109375 20.453125 19.1875 8.296875 
z
" id="DejaVuSans-50"/>
      </defs>
      <g transform="translate(239.107413 293.238437)scale(0.1 -0.1)">
       <use xlink:href="#DejaVuSans-50"/>
       <use x="63.623047" xlink:href="#DejaVuSans-48"/>
       <use x="127.246094" xlink:href="#DejaVuSans-48"/>
      </g>
     </g>
    </g>
    <g id="xtick_6">
     <g id="line2d_6">
      <g>
       <use style="stroke:#000000;stroke-width:0.8;" x="297.313953" xlink:href="#mb33f3309ec" y="278.64"/>
      </g>
     </g>
     <g id="text_6">
      <!-- 250 -->
      <g transform="translate(287.770203 293.238437)scale(0.1 -0.1)">
       <use xlink:href="#DejaVuSans-50"/>
       <use x="63.623047" xlink:href="#DejaVuSans-53"/>
       <use x="127.246094" xlink:href="#DejaVuSans-48"/>
      </g>
     </g>
    </g>
    <g id="xtick_7">
     <g id="line2d_7">
      <g>
       <use style="stroke:#000000;stroke-width:0.8;" x="345.976744" xlink:href="#mb33f3309ec" y="278.64"/>
      </g>
     </g>
     <g id="text_7">
      <!-- 300 -->
      <defs>
       <path d="M 40.578125 39.3125 
Q 47.65625 37.796875 51.625 33 
Q 55.609375 28.21875 55.609375 21.1875 
Q 55.609375 10.40625 48.1875 4.484375 
Q 40.765625 -1.421875 27.09375 -1.421875 
Q 22.515625 -1.421875 17.65625 -0.515625 
Q 12.796875 0.390625 7.625 2.203125 
L 7.625 11.71875 
Q 11.71875 9.328125 16.59375 8.109375 
Q 21.484375 6.890625 26.8125 6.890625 
Q 36.078125 6.890625 40.9375 10.546875 
Q 45.796875 14.203125 45.796875 21.1875 
Q 45.796875 27.640625 41.28125 31.265625 
Q 36.765625 34.90625 28.71875 34.90625 
L 20.21875 34.90625 
L 20.21875 43.015625 
L 29.109375 43.015625 
Q 36.375 43.015625 40.234375 45.921875 
Q 44.09375 48.828125 44.09375 54.296875 
Q 44.09375 59.90625 40.109375 62.90625 
Q 36.140625 65.921875 28.71875 65.921875 
Q 24.65625 65.921875 20.015625 65.03125 
Q 15.375 64.15625 9.8125 62.3125 
L 9.8125 71.09375 
Q 15.4375 72.65625 20.34375 73.4375 
Q 25.25 74.21875 29.59375 74.21875 
Q 40.828125 74.21875 47.359375 69.109375 
Q 53.90625 64.015625 53.90625 55.328125 
Q 53.90625 49.265625 50.4375 45.09375 
Q 46.96875 40.921875 40.578125 39.3125 
z
" id="DejaVuSans-51"/>
      </defs>
      <g transform="translate(336.432994 293.238437)scale(0.1 -0.1)">
       <use xlink:href="#DejaVuSans-51"/>
       <use x="63.623047" xlink:href="#DejaVuSans-48"/>
       <use x="127.246094" xlink:href="#DejaVuSans-48"/>
      </g>
     </g>
    </g>
   </g>
   <g id="matplotlib.axis_2">
    <g id="ytick_1">
     <g id="line2d_8">
      <defs>
       <path d="M 0 0 
L -3.5 0 
" id="m7fa81a6e85" style="stroke:#000000;stroke-width:0.8;"/>
      </defs>
      <g>
       <use style="stroke:#000000;stroke-width:0.8;" x="54" xlink:href="#m7fa81a6e85" y="278.64"/>
      </g>
     </g>
     <g id="text_8">
      <!-- 0 -->
      <g transform="translate(40.6375 282.439219)scale(0.1 -0.1)">
       <use xlink:href="#DejaVuSans-48"/>
      </g>
     </g>
    </g>
    <g id="ytick_2">
     <g id="line2d_9">
      <g>
       <use style="stroke:#000000;stroke-width:0.8;" x="54" xlink:href="#m7fa81a6e85" y="235.467693"/>
      </g>
     </g>
     <g id="text_9">
      <!-- 5000 -->
      <g transform="translate(21.55 239.266911)scale(0.1 -0.1)">
       <use xlink:href="#DejaVuSans-53"/>
       <use x="63.623047" xlink:href="#DejaVuSans-48"/>
       <use x="127.246094" xlink:href="#DejaVuSans-48"/>
       <use x="190.869141" xlink:href="#DejaVuSans-48"/>
      </g>
     </g>
    </g>
    <g id="ytick_3">
     <g id="line2d_10">
      <g>
       <use style="stroke:#000000;stroke-width:0.8;" x="54" xlink:href="#m7fa81a6e85" y="192.295385"/>
      </g>
     </g>
     <g id="text_10">
      <!-- 10000 -->
      <g transform="translate(15.1875 196.094604)scale(0.1 -0.1)">
       <use xlink:href="#DejaVuSans-49"/>
       <use x="63.623047" xlink:href="#DejaVuSans-48"/>
       <use x="127.246094" xlink:href="#DejaVuSans-48"/>
       <use x="190.869141" xlink:href="#DejaVuSans-48"/>
       <use x="254.492188" xlink:href="#DejaVuSans-48"/>
      </g>
     </g>
    </g>
    <g id="ytick_4">
     <g id="line2d_11">
      <g>
       <use style="stroke:#000000;stroke-width:0.8;" x="54" xlink:href="#m7fa81a6e85" y="149.123078"/>
      </g>
     </g>
     <g id="text_11">
      <!-- 15000 -->
      <g transform="translate(15.1875 152.922297)scale(0.1 -0.1)">
       <use xlink:href="#DejaVuSans-49"/>
       <use x="63.623047" xlink:href="#DejaVuSans-53"/>
       <use x="127.246094" xlink:href="#DejaVuSans-48"/>
       <use x="190.869141" xlink:href="#DejaVuSans-48"/>
       <use x="254.492188" xlink:href="#DejaVuSans-48"/>
      </g>
     </g>
    </g>
    <g id="ytick_5">
     <g id="line2d_12">
      <g>
       <use style="stroke:#000000;stroke-width:0.8;" x="54" xlink:href="#m7fa81a6e85" y="105.95077"/>
      </g>
     </g>
     <g id="text_12">
      <!-- 20000 -->
      <g transform="translate(15.1875 109.749989)scale(0.1 -0.1)">
       <use xlink:href="#DejaVuSans-50"/>
       <use x="63.623047" xlink:href="#DejaVuSans-48"/>
       <use x="127.246094" xlink:href="#DejaVuSans-48"/>
       <use x="190.869141" xlink:href="#DejaVuSans-48"/>
       <use x="254.492188" xlink:href="#DejaVuSans-48"/>
      </g>
     </g>
    </g>
    <g id="ytick_6">
     <g id="line2d_13">
      <g>
       <use style="stroke:#000000;stroke-width:0.8;" x="54" xlink:href="#m7fa81a6e85" y="62.778463"/>
      </g>
     </g>
     <g id="text_13">
      <!-- 25000 -->
      <g transform="translate(15.1875 66.577682)scale(0.1 -0.1)">
       <use xlink:href="#DejaVuSans-50"/>
       <use x="63.623047" xlink:href="#DejaVuSans-53"/>
       <use x="127.246094" xlink:href="#DejaVuSans-48"/>
       <use x="190.869141" xlink:href="#DejaVuSans-48"/>
       <use x="254.492188" xlink:href="#DejaVuSans-48"/>
      </g>
     </g>
    </g>
    <g id="text_14">
     <!-- RUL -->
     <defs>
      <path d="M 44.390625 34.1875 
Q 47.5625 33.109375 50.5625 29.59375 
Q 53.5625 26.078125 56.59375 19.921875 
L 66.609375 0 
L 56 0 
L 46.6875 18.703125 
Q 43.0625 26.03125 39.671875 28.421875 
Q 36.28125 30.8125 30.421875 30.8125 
L 19.671875 30.8125 
L 19.671875 0 
L 9.8125 0 
L 9.8125 72.90625 
L 32.078125 72.90625 
Q 44.578125 72.90625 50.734375 67.671875 
Q 56.890625 62.453125 56.890625 51.90625 
Q 56.890625 45.015625 53.6875 40.46875 
Q 50.484375 35.9375 44.390625 34.1875 
z
M 19.671875 64.796875 
L 19.671875 38.921875 
L 32.078125 38.921875 
Q 39.203125 38.921875 42.84375 42.21875 
Q 46.484375 45.515625 46.484375 51.90625 
Q 46.484375 58.296875 42.84375 61.546875 
Q 39.203125 64.796875 32.078125 64.796875 
z
" id="DejaVuSans-82"/>
      <path d="M 8.6875 72.90625 
L 18.609375 72.90625 
L 18.609375 28.609375 
Q 18.609375 16.890625 22.84375 11.734375 
Q 27.09375 6.59375 36.625 6.59375 
Q 46.09375 6.59375 50.34375 11.734375 
Q 54.59375 16.890625 54.59375 28.609375 
L 54.59375 72.90625 
L 64.5 72.90625 
L 64.5 27.390625 
Q 64.5 13.140625 57.4375 5.859375 
Q 50.390625 -1.421875 36.625 -1.421875 
Q 22.796875 -1.421875 15.734375 5.859375 
Q 8.6875 13.140625 8.6875 27.390625 
z
" id="DejaVuSans-85"/>
      <path d="M 9.8125 72.90625 
L 19.671875 72.90625 
L 19.671875 8.296875 
L 55.171875 8.296875 
L 55.171875 0 
L 9.8125 0 
z
" id="DejaVuSans-76"/>
     </defs>
     <g transform="translate(9.107812 175.159531)rotate(-90)scale(0.1 -0.1)">
      <use xlink:href="#DejaVuSans-82"/>
      <use x="69.482422" xlink:href="#DejaVuSans-85"/>
      <use x="142.675781" xlink:href="#DejaVuSans-76"/>
     </g>
    </g>
   </g>
   <g id="line2d_14">
    <path clip-path="url(#p0c56f7147c)" d="M 54.973256 278.553655 
L 388.8 248.937453 
L 388.8 248.937453 
" style="fill:none;stroke:#1f77b4;stroke-linecap:square;stroke-width:1.5;"/>
   </g>
   <g id="line2d_15">
    <path clip-path="url(#p0c56f7147c)" d="M 54.973256 279.705203 
L 55.946512 279.364034 
L 56.919767 280.314731 
L 57.893023 280.526699 
L 58.866279 279.615396 
L 59.839535 280.135921 
L 60.812791 278.993978 
L 61.786047 278.071152 
L 63.732558 274.827066 
L 64.705814 272.627258 
L 65.67907 269.29761 
L 66.652326 269.924126 
L 69.572093 255.913629 
L 70.545349 245.448692 
L 71.518605 239.647295 
L 72.49186 223.639037 
L 73.465116 213.875 
L 74.438372 216.036984 
L 75.411628 202.021895 
L 76.384884 172.404908 
L 77.35814 158.943074 
L 78.331395 166.714958 
L 79.304651 140.523146 
L 80.277907 120.432246 
L 81.251163 125.237358 
L 82.224419 112.626525 
L 83.197674 107.366434 
L 84.17093 104.232732 
L 85.144186 103.726216 
L 86.117442 105.910887 
L 87.090698 107.299669 
L 88.063953 105.513313 
L 89.037209 95.103829 
L 90.010465 102.982303 
L 90.983721 109.461606 
L 91.956977 115.021542 
L 92.930233 115.925395 
L 93.903488 113.285341 
L 94.876744 119.646493 
L 95.85 124.954309 
L 96.823256 126.93489 
L 97.796512 124.364754 
L 99.743023 130.312279 
L 100.716279 123.920383 
L 101.689535 126.614099 
L 102.662791 128.603348 
L 103.636047 126.539306 
L 104.609302 130.822455 
L 105.582558 141.695324 
L 106.555814 148.391484 
L 107.52907 137.144095 
L 108.502326 152.971594 
L 109.475581 161.63577 
L 110.448837 153.6829 
L 111.422093 147.513434 
L 112.395349 143.846629 
L 113.368605 148.918979 
L 114.34186 152.53025 
L 115.315116 147.732609 
L 116.288372 140.831162 
L 117.261628 140.273817 
L 118.234884 135.492585 
L 119.20814 113.514424 
L 121.154651 104.219358 
L 122.127907 97.442487 
L 124.074419 115.763364 
L 125.047674 95.527542 
L 126.02093 95.022004 
L 126.994186 97.234062 
L 127.967442 93.716228 
L 128.940698 90.736006 
L 129.913953 96.092172 
L 130.887209 94.184074 
L 131.860465 96.900371 
L 132.833721 88.75718 
L 133.806977 77.274105 
L 135.753488 72.928728 
L 136.726744 72.703237 
L 137.7 80.721414 
L 138.673256 76.152148 
L 139.646512 72.559453 
L 140.619767 73.625691 
L 141.593023 82.272244 
L 142.566279 87.920059 
L 143.539535 91.075684 
L 144.512791 103.87484 
L 145.486047 104.573051 
L 146.459302 102.325426 
L 147.432558 105.462485 
L 148.405814 112.503467 
L 149.37907 117.753843 
L 150.352326 116.994415 
L 151.325581 120.646843 
L 152.298837 118.781125 
L 153.272093 124.471471 
L 154.245349 123.311131 
L 155.218605 106.860745 
L 156.19186 106.367366 
L 157.165116 103.842714 
L 158.138372 97.566961 
L 159.111628 92.150557 
L 160.084884 98.15913 
L 161.05814 95.120795 
L 162.031395 89.823553 
L 163.004651 90.054018 
L 163.977907 89.089337 
L 165.924419 80.113983 
L 166.897674 75.625597 
L 167.87093 80.669624 
L 168.844186 84.096932 
L 169.817442 83.703861 
L 170.790698 74.568618 
L 171.763953 69.20601 
L 172.737209 65.279202 
L 173.710465 57.740862 
L 174.683721 57.645984 
L 175.656977 52.912967 
L 176.630233 52.1317 
L 177.603488 51.84 
L 178.576744 53.832166 
L 179.55 54.447776 
L 180.523256 57.135522 
L 181.496512 58.531303 
L 182.469767 66.464096 
L 184.416279 78.756214 
L 185.389535 78.442708 
L 186.362791 81.205011 
L 187.336047 88.712068 
L 188.309302 86.901985 
L 189.282558 88.148332 
L 190.255814 91.317584 
L 191.22907 93.049047 
L 192.202326 96.878043 
L 193.175581 96.762236 
L 194.148837 98.770929 
L 195.122093 100.082322 
L 196.095349 97.91696 
L 197.068605 98.531576 
L 199.988372 105.667874 
L 200.961628 102.333454 
L 201.934884 103.514891 
L 202.90814 109.255273 
L 203.881395 108.662362 
L 204.854651 109.222894 
L 205.827907 111.005792 
L 206.801163 110.918098 
L 207.774419 113.09513 
L 208.747674 113.188523 
L 209.72093 118.040585 
L 210.694186 119.597452 
L 211.667442 125.107655 
L 212.640698 129.159579 
L 213.613953 131.261294 
L 214.587209 131.728938 
L 215.560465 131.064152 
L 216.533721 131.288446 
L 217.506977 134.130887 
L 218.480233 135.93522 
L 219.453488 134.233809 
L 220.426744 135.489752 
L 221.4 137.520141 
L 222.373256 135.153936 
L 223.346512 134.540181 
L 224.319767 135.605171 
L 225.293023 137.45378 
L 226.266279 138.946969 
L 227.239535 140.220965 
L 228.212791 145.915763 
L 229.186047 153.567802 
L 230.159302 148.561619 
L 231.132558 149.745602 
L 232.105814 151.299906 
L 233.07907 149.421658 
L 235.025581 155.151677 
L 235.998837 160.904472 
L 236.972093 156.335214 
L 237.945349 161.545884 
L 238.918605 164.965308 
L 239.89186 165.472591 
L 240.865116 169.783278 
L 242.811628 173.229786 
L 244.75814 181.559663 
L 245.731395 180.539077 
L 246.704651 183.237894 
L 247.677907 187.646866 
L 248.651163 189.442455 
L 249.624419 194.709147 
L 251.57093 198.885537 
L 252.544186 199.432467 
L 253.517442 201.38195 
L 254.490698 206.131494 
L 255.463953 208.127724 
L 256.437209 208.757155 
L 257.410465 215.491444 
L 258.383721 214.978078 
L 259.356977 216.674724 
L 260.330233 219.828288 
L 261.303488 223.711401 
L 262.276744 226.417268 
L 264.223256 233.244989 
L 265.196512 234.215788 
L 266.169767 234.972278 
L 267.143023 236.104375 
L 268.116279 238.374407 
L 271.036047 242.573041 
L 272.009302 243.456374 
L 272.982558 245.909571 
L 273.955814 247.134678 
L 274.92907 249.433698 
L 276.875581 252.596225 
L 277.848837 254.487809 
L 278.822093 255.031945 
L 279.795349 254.842897 
L 280.768605 254.485903 
L 281.74186 256.559631 
L 282.715116 258.989802 
L 283.688372 260.470378 
L 284.661628 261.645771 
L 285.634884 262.218297 
L 286.60814 263.120439 
L 287.581395 263.294195 
L 288.554651 262.302107 
L 289.527907 263.674843 
L 290.501163 263.617548 
L 291.474419 265.366597 
L 292.447674 265.22912 
L 293.42093 266.038662 
L 294.394186 266.680416 
L 295.367442 265.811874 
L 296.340698 266.52292 
L 297.313953 267.718148 
L 298.287209 266.757729 
L 299.260465 266.049261 
L 300.233721 266.946873 
L 301.206977 268.27434 
L 302.180233 269.100418 
L 303.153488 270.191614 
L 304.126744 271.765176 
L 305.1 272.004502 
L 306.073256 273.155896 
L 307.046512 273.615205 
L 308.019767 274.703192 
L 308.993023 274.54227 
L 309.966279 275.176564 
L 310.939535 275.201979 
L 311.912791 275.741177 
L 312.886047 275.782457 
L 313.859302 276.193618 
L 314.832558 276.069216 
L 316.77907 276.882122 
L 317.752326 277.550122 
L 318.725581 277.728313 
L 319.698837 278.251423 
L 322.618605 279.084383 
L 324.565116 278.529237 
L 326.511628 277.489018 
L 327.484884 277.756591 
L 330.404651 277.713629 
L 331.377907 277.065503 
L 334.297674 277.0214 
L 335.27093 277.383675 
L 337.217442 276.036223 
L 338.190698 275.912206 
L 339.163953 275.318152 
L 340.137209 275.165699 
L 341.110465 275.391244 
L 342.083721 274.973145 
L 343.056977 275.085218 
L 344.030233 275.916225 
L 345.003488 276.192543 
L 345.976744 275.970887 
L 346.95 275.447871 
L 347.923256 275.861485 
L 348.896512 275.739647 
L 350.843023 276.761791 
L 351.816279 276.749938 
L 352.789535 276.944212 
L 353.762791 276.965788 
L 354.736047 277.14696 
L 355.709302 277.874457 
L 357.655814 277.008997 
L 358.62907 276.401963 
L 359.602326 276.205208 
L 361.548837 276.084182 
L 362.522093 275.644766 
L 363.495349 275.852133 
L 364.468605 275.69123 
L 366.415116 274.402992 
L 367.388372 273.963746 
L 368.361628 272.779538 
L 369.334884 272.929845 
L 370.30814 272.892099 
L 371.281395 272.460234 
L 372.254651 272.825913 
L 373.227907 272.666822 
L 374.201163 273.277881 
L 375.174419 273.66489 
L 376.147674 274.35697 
L 377.12093 275.44437 
L 378.094186 275.180299 
L 379.067442 276.266484 
L 380.040698 276.764903 
L 381.987209 274.430805 
L 382.960465 272.730485 
L 383.933721 271.84773 
L 385.880233 261.596457 
L 386.853488 258.151498 
L 387.826744 248.263387 
L 388.8 234.762677 
L 388.8 234.762677 
" style="fill:none;stroke:#ff0000;stroke-linecap:square;stroke-width:0.5;"/>
    <defs>
     <path d="M 0 1 
C 0.265203 1 0.51958 0.894634 0.707107 0.707107 
C 0.894634 0.51958 1 0.265203 1 0 
C 1 -0.265203 0.894634 -0.51958 0.707107 -0.707107 
C 0.51958 -0.894634 0.265203 -1 0 -1 
C -0.265203 -1 -0.51958 -0.894634 -0.707107 -0.707107 
C -0.894634 -0.51958 -1 -0.265203 -1 0 
C -1 0.265203 -0.894634 0.51958 -0.707107 0.707107 
C -0.51958 0.894634 -0.265203 1 0 1 
z
" id="ma4197451bc" style="stroke:#ff0000;"/>
    </defs>
    <g clip-path="url(#p0c56f7147c)">
     <use style="fill:#ff0000;stroke:#ff0000;" x="54.973256" xlink:href="#ma4197451bc" y="279.705203"/>
     <use style="fill:#ff0000;stroke:#ff0000;" x="55.946512" xlink:href="#ma4197451bc" y="279.364034"/>
     <use style="fill:#ff0000;stroke:#ff0000;" x="56.919767" xlink:href="#ma4197451bc" y="280.314731"/>
     <use style="fill:#ff0000;stroke:#ff0000;" x="57.893023" xlink:href="#ma4197451bc" y="280.526699"/>
     <use style="fill:#ff0000;stroke:#ff0000;" x="58.866279" xlink:href="#ma4197451bc" y="279.615396"/>
     <use style="fill:#ff0000;stroke:#ff0000;" x="59.839535" xlink:href="#ma4197451bc" y="280.135921"/>
     <use style="fill:#ff0000;stroke:#ff0000;" x="60.812791" xlink:href="#ma4197451bc" y="278.993978"/>
     <use style="fill:#ff0000;stroke:#ff0000;" x="61.786047" xlink:href="#ma4197451bc" y="278.071152"/>
     <use style="fill:#ff0000;stroke:#ff0000;" x="62.759302" xlink:href="#ma4197451bc" y="276.355994"/>
     <use style="fill:#ff0000;stroke:#ff0000;" x="63.732558" xlink:href="#ma4197451bc" y="274.827066"/>
     <use style="fill:#ff0000;stroke:#ff0000;" x="64.705814" xlink:href="#ma4197451bc" y="272.627258"/>
     <use style="fill:#ff0000;stroke:#ff0000;" x="65.67907" xlink:href="#ma4197451bc" y="269.29761"/>
     <use style="fill:#ff0000;stroke:#ff0000;" x="66.652326" xlink:href="#ma4197451bc" y="269.924126"/>
     <use style="fill:#ff0000;stroke:#ff0000;" x="67.625581" xlink:href="#ma4197451bc" y="265.079384"/>
     <use style="fill:#ff0000;stroke:#ff0000;" x="68.598837" xlink:href="#ma4197451bc" y="260.495076"/>
     <use style="fill:#ff0000;stroke:#ff0000;" x="69.572093" xlink:href="#ma4197451bc" y="255.913629"/>
     <use style="fill:#ff0000;stroke:#ff0000;" x="70.545349" xlink:href="#ma4197451bc" y="245.448692"/>
     <use style="fill:#ff0000;stroke:#ff0000;" x="71.518605" xlink:href="#ma4197451bc" y="239.647295"/>
     <use style="fill:#ff0000;stroke:#ff0000;" x="72.49186" xlink:href="#ma4197451bc" y="223.639037"/>
     <use style="fill:#ff0000;stroke:#ff0000;" x="73.465116" xlink:href="#ma4197451bc" y="213.875"/>
     <use style="fill:#ff0000;stroke:#ff0000;" x="74.438372" xlink:href="#ma4197451bc" y="216.036984"/>
     <use style="fill:#ff0000;stroke:#ff0000;" x="75.411628" xlink:href="#ma4197451bc" y="202.021895"/>
     <use style="fill:#ff0000;stroke:#ff0000;" x="76.384884" xlink:href="#ma4197451bc" y="172.404908"/>
     <use style="fill:#ff0000;stroke:#ff0000;" x="77.35814" xlink:href="#ma4197451bc" y="158.943074"/>
     <use style="fill:#ff0000;stroke:#ff0000;" x="78.331395" xlink:href="#ma4197451bc" y="166.714958"/>
     <use style="fill:#ff0000;stroke:#ff0000;" x="79.304651" xlink:href="#ma4197451bc" y="140.523146"/>
     <use style="fill:#ff0000;stroke:#ff0000;" x="80.277907" xlink:href="#ma4197451bc" y="120.432246"/>
     <use style="fill:#ff0000;stroke:#ff0000;" x="81.251163" xlink:href="#ma4197451bc" y="125.237358"/>
     <use style="fill:#ff0000;stroke:#ff0000;" x="82.224419" xlink:href="#ma4197451bc" y="112.626525"/>
     <use style="fill:#ff0000;stroke:#ff0000;" x="83.197674" xlink:href="#ma4197451bc" y="107.366434"/>
     <use style="fill:#ff0000;stroke:#ff0000;" x="84.17093" xlink:href="#ma4197451bc" y="104.232732"/>
     <use style="fill:#ff0000;stroke:#ff0000;" x="85.144186" xlink:href="#ma4197451bc" y="103.726216"/>
     <use style="fill:#ff0000;stroke:#ff0000;" x="86.117442" xlink:href="#ma4197451bc" y="105.910887"/>
     <use style="fill:#ff0000;stroke:#ff0000;" x="87.090698" xlink:href="#ma4197451bc" y="107.299669"/>
     <use style="fill:#ff0000;stroke:#ff0000;" x="88.063953" xlink:href="#ma4197451bc" y="105.513313"/>
     <use style="fill:#ff0000;stroke:#ff0000;" x="89.037209" xlink:href="#ma4197451bc" y="95.103829"/>
     <use style="fill:#ff0000;stroke:#ff0000;" x="90.010465" xlink:href="#ma4197451bc" y="102.982303"/>
     <use style="fill:#ff0000;stroke:#ff0000;" x="90.983721" xlink:href="#ma4197451bc" y="109.461606"/>
     <use style="fill:#ff0000;stroke:#ff0000;" x="91.956977" xlink:href="#ma4197451bc" y="115.021542"/>
     <use style="fill:#ff0000;stroke:#ff0000;" x="92.930233" xlink:href="#ma4197451bc" y="115.925395"/>
     <use style="fill:#ff0000;stroke:#ff0000;" x="93.903488" xlink:href="#ma4197451bc" y="113.285341"/>
     <use style="fill:#ff0000;stroke:#ff0000;" x="94.876744" xlink:href="#ma4197451bc" y="119.646493"/>
     <use style="fill:#ff0000;stroke:#ff0000;" x="95.85" xlink:href="#ma4197451bc" y="124.954309"/>
     <use style="fill:#ff0000;stroke:#ff0000;" x="96.823256" xlink:href="#ma4197451bc" y="126.93489"/>
     <use style="fill:#ff0000;stroke:#ff0000;" x="97.796512" xlink:href="#ma4197451bc" y="124.364754"/>
     <use style="fill:#ff0000;stroke:#ff0000;" x="98.769767" xlink:href="#ma4197451bc" y="127.373105"/>
     <use style="fill:#ff0000;stroke:#ff0000;" x="99.743023" xlink:href="#ma4197451bc" y="130.312279"/>
     <use style="fill:#ff0000;stroke:#ff0000;" x="100.716279" xlink:href="#ma4197451bc" y="123.920383"/>
     <use style="fill:#ff0000;stroke:#ff0000;" x="101.689535" xlink:href="#ma4197451bc" y="126.614099"/>
     <use style="fill:#ff0000;stroke:#ff0000;" x="102.662791" xlink:href="#ma4197451bc" y="128.603348"/>
     <use style="fill:#ff0000;stroke:#ff0000;" x="103.636047" xlink:href="#ma4197451bc" y="126.539306"/>
     <use style="fill:#ff0000;stroke:#ff0000;" x="104.609302" xlink:href="#ma4197451bc" y="130.822455"/>
     <use style="fill:#ff0000;stroke:#ff0000;" x="105.582558" xlink:href="#ma4197451bc" y="141.695324"/>
     <use style="fill:#ff0000;stroke:#ff0000;" x="106.555814" xlink:href="#ma4197451bc" y="148.391484"/>
     <use style="fill:#ff0000;stroke:#ff0000;" x="107.52907" xlink:href="#ma4197451bc" y="137.144095"/>
     <use style="fill:#ff0000;stroke:#ff0000;" x="108.502326" xlink:href="#ma4197451bc" y="152.971594"/>
     <use style="fill:#ff0000;stroke:#ff0000;" x="109.475581" xlink:href="#ma4197451bc" y="161.63577"/>
     <use style="fill:#ff0000;stroke:#ff0000;" x="110.448837" xlink:href="#ma4197451bc" y="153.6829"/>
     <use style="fill:#ff0000;stroke:#ff0000;" x="111.422093" xlink:href="#ma4197451bc" y="147.513434"/>
     <use style="fill:#ff0000;stroke:#ff0000;" x="112.395349" xlink:href="#ma4197451bc" y="143.846629"/>
     <use style="fill:#ff0000;stroke:#ff0000;" x="113.368605" xlink:href="#ma4197451bc" y="148.918979"/>
     <use style="fill:#ff0000;stroke:#ff0000;" x="114.34186" xlink:href="#ma4197451bc" y="152.53025"/>
     <use style="fill:#ff0000;stroke:#ff0000;" x="115.315116" xlink:href="#ma4197451bc" y="147.732609"/>
     <use style="fill:#ff0000;stroke:#ff0000;" x="116.288372" xlink:href="#ma4197451bc" y="140.831162"/>
     <use style="fill:#ff0000;stroke:#ff0000;" x="117.261628" xlink:href="#ma4197451bc" y="140.273817"/>
     <use style="fill:#ff0000;stroke:#ff0000;" x="118.234884" xlink:href="#ma4197451bc" y="135.492585"/>
     <use style="fill:#ff0000;stroke:#ff0000;" x="119.20814" xlink:href="#ma4197451bc" y="113.514424"/>
     <use style="fill:#ff0000;stroke:#ff0000;" x="120.181395" xlink:href="#ma4197451bc" y="108.723613"/>
     <use style="fill:#ff0000;stroke:#ff0000;" x="121.154651" xlink:href="#ma4197451bc" y="104.219358"/>
     <use style="fill:#ff0000;stroke:#ff0000;" x="122.127907" xlink:href="#ma4197451bc" y="97.442487"/>
     <use style="fill:#ff0000;stroke:#ff0000;" x="123.101163" xlink:href="#ma4197451bc" y="107.056808"/>
     <use style="fill:#ff0000;stroke:#ff0000;" x="124.074419" xlink:href="#ma4197451bc" y="115.763364"/>
     <use style="fill:#ff0000;stroke:#ff0000;" x="125.047674" xlink:href="#ma4197451bc" y="95.527542"/>
     <use style="fill:#ff0000;stroke:#ff0000;" x="126.02093" xlink:href="#ma4197451bc" y="95.022004"/>
     <use style="fill:#ff0000;stroke:#ff0000;" x="126.994186" xlink:href="#ma4197451bc" y="97.234062"/>
     <use style="fill:#ff0000;stroke:#ff0000;" x="127.967442" xlink:href="#ma4197451bc" y="93.716228"/>
     <use style="fill:#ff0000;stroke:#ff0000;" x="128.940698" xlink:href="#ma4197451bc" y="90.736006"/>
     <use style="fill:#ff0000;stroke:#ff0000;" x="129.913953" xlink:href="#ma4197451bc" y="96.092172"/>
     <use style="fill:#ff0000;stroke:#ff0000;" x="130.887209" xlink:href="#ma4197451bc" y="94.184074"/>
     <use style="fill:#ff0000;stroke:#ff0000;" x="131.860465" xlink:href="#ma4197451bc" y="96.900371"/>
     <use style="fill:#ff0000;stroke:#ff0000;" x="132.833721" xlink:href="#ma4197451bc" y="88.75718"/>
     <use style="fill:#ff0000;stroke:#ff0000;" x="133.806977" xlink:href="#ma4197451bc" y="77.274105"/>
     <use style="fill:#ff0000;stroke:#ff0000;" x="134.780233" xlink:href="#ma4197451bc" y="75.040865"/>
     <use style="fill:#ff0000;stroke:#ff0000;" x="135.753488" xlink:href="#ma4197451bc" y="72.928728"/>
     <use style="fill:#ff0000;stroke:#ff0000;" x="136.726744" xlink:href="#ma4197451bc" y="72.703237"/>
     <use style="fill:#ff0000;stroke:#ff0000;" x="137.7" xlink:href="#ma4197451bc" y="80.721414"/>
     <use style="fill:#ff0000;stroke:#ff0000;" x="138.673256" xlink:href="#ma4197451bc" y="76.152148"/>
     <use style="fill:#ff0000;stroke:#ff0000;" x="139.646512" xlink:href="#ma4197451bc" y="72.559453"/>
     <use style="fill:#ff0000;stroke:#ff0000;" x="140.619767" xlink:href="#ma4197451bc" y="73.625691"/>
     <use style="fill:#ff0000;stroke:#ff0000;" x="141.593023" xlink:href="#ma4197451bc" y="82.272244"/>
     <use style="fill:#ff0000;stroke:#ff0000;" x="142.566279" xlink:href="#ma4197451bc" y="87.920059"/>
     <use style="fill:#ff0000;stroke:#ff0000;" x="143.539535" xlink:href="#ma4197451bc" y="91.075684"/>
     <use style="fill:#ff0000;stroke:#ff0000;" x="144.512791" xlink:href="#ma4197451bc" y="103.87484"/>
     <use style="fill:#ff0000;stroke:#ff0000;" x="145.486047" xlink:href="#ma4197451bc" y="104.573051"/>
     <use style="fill:#ff0000;stroke:#ff0000;" x="146.459302" xlink:href="#ma4197451bc" y="102.325426"/>
     <use style="fill:#ff0000;stroke:#ff0000;" x="147.432558" xlink:href="#ma4197451bc" y="105.462485"/>
     <use style="fill:#ff0000;stroke:#ff0000;" x="148.405814" xlink:href="#ma4197451bc" y="112.503467"/>
     <use style="fill:#ff0000;stroke:#ff0000;" x="149.37907" xlink:href="#ma4197451bc" y="117.753843"/>
     <use style="fill:#ff0000;stroke:#ff0000;" x="150.352326" xlink:href="#ma4197451bc" y="116.994415"/>
     <use style="fill:#ff0000;stroke:#ff0000;" x="151.325581" xlink:href="#ma4197451bc" y="120.646843"/>
     <use style="fill:#ff0000;stroke:#ff0000;" x="152.298837" xlink:href="#ma4197451bc" y="118.781125"/>
     <use style="fill:#ff0000;stroke:#ff0000;" x="153.272093" xlink:href="#ma4197451bc" y="124.471471"/>
     <use style="fill:#ff0000;stroke:#ff0000;" x="154.245349" xlink:href="#ma4197451bc" y="123.311131"/>
     <use style="fill:#ff0000;stroke:#ff0000;" x="155.218605" xlink:href="#ma4197451bc" y="106.860745"/>
     <use style="fill:#ff0000;stroke:#ff0000;" x="156.19186" xlink:href="#ma4197451bc" y="106.367366"/>
     <use style="fill:#ff0000;stroke:#ff0000;" x="157.165116" xlink:href="#ma4197451bc" y="103.842714"/>
     <use style="fill:#ff0000;stroke:#ff0000;" x="158.138372" xlink:href="#ma4197451bc" y="97.566961"/>
     <use style="fill:#ff0000;stroke:#ff0000;" x="159.111628" xlink:href="#ma4197451bc" y="92.150557"/>
     <use style="fill:#ff0000;stroke:#ff0000;" x="160.084884" xlink:href="#ma4197451bc" y="98.15913"/>
     <use style="fill:#ff0000;stroke:#ff0000;" x="161.05814" xlink:href="#ma4197451bc" y="95.120795"/>
     <use style="fill:#ff0000;stroke:#ff0000;" x="162.031395" xlink:href="#ma4197451bc" y="89.823553"/>
     <use style="fill:#ff0000;stroke:#ff0000;" x="163.004651" xlink:href="#ma4197451bc" y="90.054018"/>
     <use style="fill:#ff0000;stroke:#ff0000;" x="163.977907" xlink:href="#ma4197451bc" y="89.089337"/>
     <use style="fill:#ff0000;stroke:#ff0000;" x="164.951163" xlink:href="#ma4197451bc" y="84.829107"/>
     <use style="fill:#ff0000;stroke:#ff0000;" x="165.924419" xlink:href="#ma4197451bc" y="80.113983"/>
     <use style="fill:#ff0000;stroke:#ff0000;" x="166.897674" xlink:href="#ma4197451bc" y="75.625597"/>
     <use style="fill:#ff0000;stroke:#ff0000;" x="167.87093" xlink:href="#ma4197451bc" y="80.669624"/>
     <use style="fill:#ff0000;stroke:#ff0000;" x="168.844186" xlink:href="#ma4197451bc" y="84.096932"/>
     <use style="fill:#ff0000;stroke:#ff0000;" x="169.817442" xlink:href="#ma4197451bc" y="83.703861"/>
     <use style="fill:#ff0000;stroke:#ff0000;" x="170.790698" xlink:href="#ma4197451bc" y="74.568618"/>
     <use style="fill:#ff0000;stroke:#ff0000;" x="171.763953" xlink:href="#ma4197451bc" y="69.20601"/>
     <use style="fill:#ff0000;stroke:#ff0000;" x="172.737209" xlink:href="#ma4197451bc" y="65.279202"/>
     <use style="fill:#ff0000;stroke:#ff0000;" x="173.710465" xlink:href="#ma4197451bc" y="57.740862"/>
     <use style="fill:#ff0000;stroke:#ff0000;" x="174.683721" xlink:href="#ma4197451bc" y="57.645984"/>
     <use style="fill:#ff0000;stroke:#ff0000;" x="175.656977" xlink:href="#ma4197451bc" y="52.912967"/>
     <use style="fill:#ff0000;stroke:#ff0000;" x="176.630233" xlink:href="#ma4197451bc" y="52.1317"/>
     <use style="fill:#ff0000;stroke:#ff0000;" x="177.603488" xlink:href="#ma4197451bc" y="51.84"/>
     <use style="fill:#ff0000;stroke:#ff0000;" x="178.576744" xlink:href="#ma4197451bc" y="53.832166"/>
     <use style="fill:#ff0000;stroke:#ff0000;" x="179.55" xlink:href="#ma4197451bc" y="54.447776"/>
     <use style="fill:#ff0000;stroke:#ff0000;" x="180.523256" xlink:href="#ma4197451bc" y="57.135522"/>
     <use style="fill:#ff0000;stroke:#ff0000;" x="181.496512" xlink:href="#ma4197451bc" y="58.531303"/>
     <use style="fill:#ff0000;stroke:#ff0000;" x="182.469767" xlink:href="#ma4197451bc" y="66.464096"/>
     <use style="fill:#ff0000;stroke:#ff0000;" x="183.443023" xlink:href="#ma4197451bc" y="72.493716"/>
     <use style="fill:#ff0000;stroke:#ff0000;" x="184.416279" xlink:href="#ma4197451bc" y="78.756214"/>
     <use style="fill:#ff0000;stroke:#ff0000;" x="185.389535" xlink:href="#ma4197451bc" y="78.442708"/>
     <use style="fill:#ff0000;stroke:#ff0000;" x="186.362791" xlink:href="#ma4197451bc" y="81.205011"/>
     <use style="fill:#ff0000;stroke:#ff0000;" x="187.336047" xlink:href="#ma4197451bc" y="88.712068"/>
     <use style="fill:#ff0000;stroke:#ff0000;" x="188.309302" xlink:href="#ma4197451bc" y="86.901985"/>
     <use style="fill:#ff0000;stroke:#ff0000;" x="189.282558" xlink:href="#ma4197451bc" y="88.148332"/>
     <use style="fill:#ff0000;stroke:#ff0000;" x="190.255814" xlink:href="#ma4197451bc" y="91.317584"/>
     <use style="fill:#ff0000;stroke:#ff0000;" x="191.22907" xlink:href="#ma4197451bc" y="93.049047"/>
     <use style="fill:#ff0000;stroke:#ff0000;" x="192.202326" xlink:href="#ma4197451bc" y="96.878043"/>
     <use style="fill:#ff0000;stroke:#ff0000;" x="193.175581" xlink:href="#ma4197451bc" y="96.762236"/>
     <use style="fill:#ff0000;stroke:#ff0000;" x="194.148837" xlink:href="#ma4197451bc" y="98.770929"/>
     <use style="fill:#ff0000;stroke:#ff0000;" x="195.122093" xlink:href="#ma4197451bc" y="100.082322"/>
     <use style="fill:#ff0000;stroke:#ff0000;" x="196.095349" xlink:href="#ma4197451bc" y="97.91696"/>
     <use style="fill:#ff0000;stroke:#ff0000;" x="197.068605" xlink:href="#ma4197451bc" y="98.531576"/>
     <use style="fill:#ff0000;stroke:#ff0000;" x="198.04186" xlink:href="#ma4197451bc" y="100.849052"/>
     <use style="fill:#ff0000;stroke:#ff0000;" x="199.015116" xlink:href="#ma4197451bc" y="103.147505"/>
     <use style="fill:#ff0000;stroke:#ff0000;" x="199.988372" xlink:href="#ma4197451bc" y="105.667874"/>
     <use style="fill:#ff0000;stroke:#ff0000;" x="200.961628" xlink:href="#ma4197451bc" y="102.333454"/>
     <use style="fill:#ff0000;stroke:#ff0000;" x="201.934884" xlink:href="#ma4197451bc" y="103.514891"/>
     <use style="fill:#ff0000;stroke:#ff0000;" x="202.90814" xlink:href="#ma4197451bc" y="109.255273"/>
     <use style="fill:#ff0000;stroke:#ff0000;" x="203.881395" xlink:href="#ma4197451bc" y="108.662362"/>
     <use style="fill:#ff0000;stroke:#ff0000;" x="204.854651" xlink:href="#ma4197451bc" y="109.222894"/>
     <use style="fill:#ff0000;stroke:#ff0000;" x="205.827907" xlink:href="#ma4197451bc" y="111.005792"/>
     <use style="fill:#ff0000;stroke:#ff0000;" x="206.801163" xlink:href="#ma4197451bc" y="110.918098"/>
     <use style="fill:#ff0000;stroke:#ff0000;" x="207.774419" xlink:href="#ma4197451bc" y="113.09513"/>
     <use style="fill:#ff0000;stroke:#ff0000;" x="208.747674" xlink:href="#ma4197451bc" y="113.188523"/>
     <use style="fill:#ff0000;stroke:#ff0000;" x="209.72093" xlink:href="#ma4197451bc" y="118.040585"/>
     <use style="fill:#ff0000;stroke:#ff0000;" x="210.694186" xlink:href="#ma4197451bc" y="119.597452"/>
     <use style="fill:#ff0000;stroke:#ff0000;" x="211.667442" xlink:href="#ma4197451bc" y="125.107655"/>
     <use style="fill:#ff0000;stroke:#ff0000;" x="212.640698" xlink:href="#ma4197451bc" y="129.159579"/>
     <use style="fill:#ff0000;stroke:#ff0000;" x="213.613953" xlink:href="#ma4197451bc" y="131.261294"/>
     <use style="fill:#ff0000;stroke:#ff0000;" x="214.587209" xlink:href="#ma4197451bc" y="131.728938"/>
     <use style="fill:#ff0000;stroke:#ff0000;" x="215.560465" xlink:href="#ma4197451bc" y="131.064152"/>
     <use style="fill:#ff0000;stroke:#ff0000;" x="216.533721" xlink:href="#ma4197451bc" y="131.288446"/>
     <use style="fill:#ff0000;stroke:#ff0000;" x="217.506977" xlink:href="#ma4197451bc" y="134.130887"/>
     <use style="fill:#ff0000;stroke:#ff0000;" x="218.480233" xlink:href="#ma4197451bc" y="135.93522"/>
     <use style="fill:#ff0000;stroke:#ff0000;" x="219.453488" xlink:href="#ma4197451bc" y="134.233809"/>
     <use style="fill:#ff0000;stroke:#ff0000;" x="220.426744" xlink:href="#ma4197451bc" y="135.489752"/>
     <use style="fill:#ff0000;stroke:#ff0000;" x="221.4" xlink:href="#ma4197451bc" y="137.520141"/>
     <use style="fill:#ff0000;stroke:#ff0000;" x="222.373256" xlink:href="#ma4197451bc" y="135.153936"/>
     <use style="fill:#ff0000;stroke:#ff0000;" x="223.346512" xlink:href="#ma4197451bc" y="134.540181"/>
     <use style="fill:#ff0000;stroke:#ff0000;" x="224.319767" xlink:href="#ma4197451bc" y="135.605171"/>
     <use style="fill:#ff0000;stroke:#ff0000;" x="225.293023" xlink:href="#ma4197451bc" y="137.45378"/>
     <use style="fill:#ff0000;stroke:#ff0000;" x="226.266279" xlink:href="#ma4197451bc" y="138.946969"/>
     <use style="fill:#ff0000;stroke:#ff0000;" x="227.239535" xlink:href="#ma4197451bc" y="140.220965"/>
     <use style="fill:#ff0000;stroke:#ff0000;" x="228.212791" xlink:href="#ma4197451bc" y="145.915763"/>
     <use style="fill:#ff0000;stroke:#ff0000;" x="229.186047" xlink:href="#ma4197451bc" y="153.567802"/>
     <use style="fill:#ff0000;stroke:#ff0000;" x="230.159302" xlink:href="#ma4197451bc" y="148.561619"/>
     <use style="fill:#ff0000;stroke:#ff0000;" x="231.132558" xlink:href="#ma4197451bc" y="149.745602"/>
     <use style="fill:#ff0000;stroke:#ff0000;" x="232.105814" xlink:href="#ma4197451bc" y="151.299906"/>
     <use style="fill:#ff0000;stroke:#ff0000;" x="233.07907" xlink:href="#ma4197451bc" y="149.421658"/>
     <use style="fill:#ff0000;stroke:#ff0000;" x="234.052326" xlink:href="#ma4197451bc" y="152.21263"/>
     <use style="fill:#ff0000;stroke:#ff0000;" x="235.025581" xlink:href="#ma4197451bc" y="155.151677"/>
     <use style="fill:#ff0000;stroke:#ff0000;" x="235.998837" xlink:href="#ma4197451bc" y="160.904472"/>
     <use style="fill:#ff0000;stroke:#ff0000;" x="236.972093" xlink:href="#ma4197451bc" y="156.335214"/>
     <use style="fill:#ff0000;stroke:#ff0000;" x="237.945349" xlink:href="#ma4197451bc" y="161.545884"/>
     <use style="fill:#ff0000;stroke:#ff0000;" x="238.918605" xlink:href="#ma4197451bc" y="164.965308"/>
     <use style="fill:#ff0000;stroke:#ff0000;" x="239.89186" xlink:href="#ma4197451bc" y="165.472591"/>
     <use style="fill:#ff0000;stroke:#ff0000;" x="240.865116" xlink:href="#ma4197451bc" y="169.783278"/>
     <use style="fill:#ff0000;stroke:#ff0000;" x="241.838372" xlink:href="#ma4197451bc" y="171.585604"/>
     <use style="fill:#ff0000;stroke:#ff0000;" x="242.811628" xlink:href="#ma4197451bc" y="173.229786"/>
     <use style="fill:#ff0000;stroke:#ff0000;" x="243.784884" xlink:href="#ma4197451bc" y="177.634205"/>
     <use style="fill:#ff0000;stroke:#ff0000;" x="244.75814" xlink:href="#ma4197451bc" y="181.559663"/>
     <use style="fill:#ff0000;stroke:#ff0000;" x="245.731395" xlink:href="#ma4197451bc" y="180.539077"/>
     <use style="fill:#ff0000;stroke:#ff0000;" x="246.704651" xlink:href="#ma4197451bc" y="183.237894"/>
     <use style="fill:#ff0000;stroke:#ff0000;" x="247.677907" xlink:href="#ma4197451bc" y="187.646866"/>
     <use style="fill:#ff0000;stroke:#ff0000;" x="248.651163" xlink:href="#ma4197451bc" y="189.442455"/>
     <use style="fill:#ff0000;stroke:#ff0000;" x="249.624419" xlink:href="#ma4197451bc" y="194.709147"/>
     <use style="fill:#ff0000;stroke:#ff0000;" x="250.597674" xlink:href="#ma4197451bc" y="196.726407"/>
     <use style="fill:#ff0000;stroke:#ff0000;" x="251.57093" xlink:href="#ma4197451bc" y="198.885537"/>
     <use style="fill:#ff0000;stroke:#ff0000;" x="252.544186" xlink:href="#ma4197451bc" y="199.432467"/>
     <use style="fill:#ff0000;stroke:#ff0000;" x="253.517442" xlink:href="#ma4197451bc" y="201.38195"/>
     <use style="fill:#ff0000;stroke:#ff0000;" x="254.490698" xlink:href="#ma4197451bc" y="206.131494"/>
     <use style="fill:#ff0000;stroke:#ff0000;" x="255.463953" xlink:href="#ma4197451bc" y="208.127724"/>
     <use style="fill:#ff0000;stroke:#ff0000;" x="256.437209" xlink:href="#ma4197451bc" y="208.757155"/>
     <use style="fill:#ff0000;stroke:#ff0000;" x="257.410465" xlink:href="#ma4197451bc" y="215.491444"/>
     <use style="fill:#ff0000;stroke:#ff0000;" x="258.383721" xlink:href="#ma4197451bc" y="214.978078"/>
     <use style="fill:#ff0000;stroke:#ff0000;" x="259.356977" xlink:href="#ma4197451bc" y="216.674724"/>
     <use style="fill:#ff0000;stroke:#ff0000;" x="260.330233" xlink:href="#ma4197451bc" y="219.828288"/>
     <use style="fill:#ff0000;stroke:#ff0000;" x="261.303488" xlink:href="#ma4197451bc" y="223.711401"/>
     <use style="fill:#ff0000;stroke:#ff0000;" x="262.276744" xlink:href="#ma4197451bc" y="226.417268"/>
     <use style="fill:#ff0000;stroke:#ff0000;" x="263.25" xlink:href="#ma4197451bc" y="229.804553"/>
     <use style="fill:#ff0000;stroke:#ff0000;" x="264.223256" xlink:href="#ma4197451bc" y="233.244989"/>
     <use style="fill:#ff0000;stroke:#ff0000;" x="265.196512" xlink:href="#ma4197451bc" y="234.215788"/>
     <use style="fill:#ff0000;stroke:#ff0000;" x="266.169767" xlink:href="#ma4197451bc" y="234.972278"/>
     <use style="fill:#ff0000;stroke:#ff0000;" x="267.143023" xlink:href="#ma4197451bc" y="236.104375"/>
     <use style="fill:#ff0000;stroke:#ff0000;" x="268.116279" xlink:href="#ma4197451bc" y="238.374407"/>
     <use style="fill:#ff0000;stroke:#ff0000;" x="269.089535" xlink:href="#ma4197451bc" y="239.777377"/>
     <use style="fill:#ff0000;stroke:#ff0000;" x="270.062791" xlink:href="#ma4197451bc" y="241.268971"/>
     <use style="fill:#ff0000;stroke:#ff0000;" x="271.036047" xlink:href="#ma4197451bc" y="242.573041"/>
     <use style="fill:#ff0000;stroke:#ff0000;" x="272.009302" xlink:href="#ma4197451bc" y="243.456374"/>
     <use style="fill:#ff0000;stroke:#ff0000;" x="272.982558" xlink:href="#ma4197451bc" y="245.909571"/>
     <use style="fill:#ff0000;stroke:#ff0000;" x="273.955814" xlink:href="#ma4197451bc" y="247.134678"/>
     <use style="fill:#ff0000;stroke:#ff0000;" x="274.92907" xlink:href="#ma4197451bc" y="249.433698"/>
     <use style="fill:#ff0000;stroke:#ff0000;" x="275.902326" xlink:href="#ma4197451bc" y="250.976836"/>
     <use style="fill:#ff0000;stroke:#ff0000;" x="276.875581" xlink:href="#ma4197451bc" y="252.596225"/>
     <use style="fill:#ff0000;stroke:#ff0000;" x="277.848837" xlink:href="#ma4197451bc" y="254.487809"/>
     <use style="fill:#ff0000;stroke:#ff0000;" x="278.822093" xlink:href="#ma4197451bc" y="255.031945"/>
     <use style="fill:#ff0000;stroke:#ff0000;" x="279.795349" xlink:href="#ma4197451bc" y="254.842897"/>
     <use style="fill:#ff0000;stroke:#ff0000;" x="280.768605" xlink:href="#ma4197451bc" y="254.485903"/>
     <use style="fill:#ff0000;stroke:#ff0000;" x="281.74186" xlink:href="#ma4197451bc" y="256.559631"/>
     <use style="fill:#ff0000;stroke:#ff0000;" x="282.715116" xlink:href="#ma4197451bc" y="258.989802"/>
     <use style="fill:#ff0000;stroke:#ff0000;" x="283.688372" xlink:href="#ma4197451bc" y="260.470378"/>
     <use style="fill:#ff0000;stroke:#ff0000;" x="284.661628" xlink:href="#ma4197451bc" y="261.645771"/>
     <use style="fill:#ff0000;stroke:#ff0000;" x="285.634884" xlink:href="#ma4197451bc" y="262.218297"/>
     <use style="fill:#ff0000;stroke:#ff0000;" x="286.60814" xlink:href="#ma4197451bc" y="263.120439"/>
     <use style="fill:#ff0000;stroke:#ff0000;" x="287.581395" xlink:href="#ma4197451bc" y="263.294195"/>
     <use style="fill:#ff0000;stroke:#ff0000;" x="288.554651" xlink:href="#ma4197451bc" y="262.302107"/>
     <use style="fill:#ff0000;stroke:#ff0000;" x="289.527907" xlink:href="#ma4197451bc" y="263.674843"/>
     <use style="fill:#ff0000;stroke:#ff0000;" x="290.501163" xlink:href="#ma4197451bc" y="263.617548"/>
     <use style="fill:#ff0000;stroke:#ff0000;" x="291.474419" xlink:href="#ma4197451bc" y="265.366597"/>
     <use style="fill:#ff0000;stroke:#ff0000;" x="292.447674" xlink:href="#ma4197451bc" y="265.22912"/>
     <use style="fill:#ff0000;stroke:#ff0000;" x="293.42093" xlink:href="#ma4197451bc" y="266.038662"/>
     <use style="fill:#ff0000;stroke:#ff0000;" x="294.394186" xlink:href="#ma4197451bc" y="266.680416"/>
     <use style="fill:#ff0000;stroke:#ff0000;" x="295.367442" xlink:href="#ma4197451bc" y="265.811874"/>
     <use style="fill:#ff0000;stroke:#ff0000;" x="296.340698" xlink:href="#ma4197451bc" y="266.52292"/>
     <use style="fill:#ff0000;stroke:#ff0000;" x="297.313953" xlink:href="#ma4197451bc" y="267.718148"/>
     <use style="fill:#ff0000;stroke:#ff0000;" x="298.287209" xlink:href="#ma4197451bc" y="266.757729"/>
     <use style="fill:#ff0000;stroke:#ff0000;" x="299.260465" xlink:href="#ma4197451bc" y="266.049261"/>
     <use style="fill:#ff0000;stroke:#ff0000;" x="300.233721" xlink:href="#ma4197451bc" y="266.946873"/>
     <use style="fill:#ff0000;stroke:#ff0000;" x="301.206977" xlink:href="#ma4197451bc" y="268.27434"/>
     <use style="fill:#ff0000;stroke:#ff0000;" x="302.180233" xlink:href="#ma4197451bc" y="269.100418"/>
     <use style="fill:#ff0000;stroke:#ff0000;" x="303.153488" xlink:href="#ma4197451bc" y="270.191614"/>
     <use style="fill:#ff0000;stroke:#ff0000;" x="304.126744" xlink:href="#ma4197451bc" y="271.765176"/>
     <use style="fill:#ff0000;stroke:#ff0000;" x="305.1" xlink:href="#ma4197451bc" y="272.004502"/>
     <use style="fill:#ff0000;stroke:#ff0000;" x="306.073256" xlink:href="#ma4197451bc" y="273.155896"/>
     <use style="fill:#ff0000;stroke:#ff0000;" x="307.046512" xlink:href="#ma4197451bc" y="273.615205"/>
     <use style="fill:#ff0000;stroke:#ff0000;" x="308.019767" xlink:href="#ma4197451bc" y="274.703192"/>
     <use style="fill:#ff0000;stroke:#ff0000;" x="308.993023" xlink:href="#ma4197451bc" y="274.54227"/>
     <use style="fill:#ff0000;stroke:#ff0000;" x="309.966279" xlink:href="#ma4197451bc" y="275.176564"/>
     <use style="fill:#ff0000;stroke:#ff0000;" x="310.939535" xlink:href="#ma4197451bc" y="275.201979"/>
     <use style="fill:#ff0000;stroke:#ff0000;" x="311.912791" xlink:href="#ma4197451bc" y="275.741177"/>
     <use style="fill:#ff0000;stroke:#ff0000;" x="312.886047" xlink:href="#ma4197451bc" y="275.782457"/>
     <use style="fill:#ff0000;stroke:#ff0000;" x="313.859302" xlink:href="#ma4197451bc" y="276.193618"/>
     <use style="fill:#ff0000;stroke:#ff0000;" x="314.832558" xlink:href="#ma4197451bc" y="276.069216"/>
     <use style="fill:#ff0000;stroke:#ff0000;" x="315.805814" xlink:href="#ma4197451bc" y="276.50458"/>
     <use style="fill:#ff0000;stroke:#ff0000;" x="316.77907" xlink:href="#ma4197451bc" y="276.882122"/>
     <use style="fill:#ff0000;stroke:#ff0000;" x="317.752326" xlink:href="#ma4197451bc" y="277.550122"/>
     <use style="fill:#ff0000;stroke:#ff0000;" x="318.725581" xlink:href="#ma4197451bc" y="277.728313"/>
     <use style="fill:#ff0000;stroke:#ff0000;" x="319.698837" xlink:href="#ma4197451bc" y="278.251423"/>
     <use style="fill:#ff0000;stroke:#ff0000;" x="320.672093" xlink:href="#ma4197451bc" y="278.506299"/>
     <use style="fill:#ff0000;stroke:#ff0000;" x="321.645349" xlink:href="#ma4197451bc" y="278.720699"/>
     <use style="fill:#ff0000;stroke:#ff0000;" x="322.618605" xlink:href="#ma4197451bc" y="279.084383"/>
     <use style="fill:#ff0000;stroke:#ff0000;" x="323.59186" xlink:href="#ma4197451bc" y="278.781321"/>
     <use style="fill:#ff0000;stroke:#ff0000;" x="324.565116" xlink:href="#ma4197451bc" y="278.529237"/>
     <use style="fill:#ff0000;stroke:#ff0000;" x="325.538372" xlink:href="#ma4197451bc" y="278.033614"/>
     <use style="fill:#ff0000;stroke:#ff0000;" x="326.511628" xlink:href="#ma4197451bc" y="277.489018"/>
     <use style="fill:#ff0000;stroke:#ff0000;" x="327.484884" xlink:href="#ma4197451bc" y="277.756591"/>
     <use style="fill:#ff0000;stroke:#ff0000;" x="328.45814" xlink:href="#ma4197451bc" y="277.771524"/>
     <use style="fill:#ff0000;stroke:#ff0000;" x="329.431395" xlink:href="#ma4197451bc" y="277.810436"/>
     <use style="fill:#ff0000;stroke:#ff0000;" x="330.404651" xlink:href="#ma4197451bc" y="277.713629"/>
     <use style="fill:#ff0000;stroke:#ff0000;" x="331.377907" xlink:href="#ma4197451bc" y="277.065503"/>
     <use style="fill:#ff0000;stroke:#ff0000;" x="332.351163" xlink:href="#ma4197451bc" y="277.082587"/>
     <use style="fill:#ff0000;stroke:#ff0000;" x="333.324419" xlink:href="#ma4197451bc" y="277.170314"/>
     <use style="fill:#ff0000;stroke:#ff0000;" x="334.297674" xlink:href="#ma4197451bc" y="277.0214"/>
     <use style="fill:#ff0000;stroke:#ff0000;" x="335.27093" xlink:href="#ma4197451bc" y="277.383675"/>
     <use style="fill:#ff0000;stroke:#ff0000;" x="336.244186" xlink:href="#ma4197451bc" y="276.76934"/>
     <use style="fill:#ff0000;stroke:#ff0000;" x="337.217442" xlink:href="#ma4197451bc" y="276.036223"/>
     <use style="fill:#ff0000;stroke:#ff0000;" x="338.190698" xlink:href="#ma4197451bc" y="275.912206"/>
     <use style="fill:#ff0000;stroke:#ff0000;" x="339.163953" xlink:href="#ma4197451bc" y="275.318152"/>
     <use style="fill:#ff0000;stroke:#ff0000;" x="340.137209" xlink:href="#ma4197451bc" y="275.165699"/>
     <use style="fill:#ff0000;stroke:#ff0000;" x="341.110465" xlink:href="#ma4197451bc" y="275.391244"/>
     <use style="fill:#ff0000;stroke:#ff0000;" x="342.083721" xlink:href="#ma4197451bc" y="274.973145"/>
     <use style="fill:#ff0000;stroke:#ff0000;" x="343.056977" xlink:href="#ma4197451bc" y="275.085218"/>
     <use style="fill:#ff0000;stroke:#ff0000;" x="344.030233" xlink:href="#ma4197451bc" y="275.916225"/>
     <use style="fill:#ff0000;stroke:#ff0000;" x="345.003488" xlink:href="#ma4197451bc" y="276.192543"/>
     <use style="fill:#ff0000;stroke:#ff0000;" x="345.976744" xlink:href="#ma4197451bc" y="275.970887"/>
     <use style="fill:#ff0000;stroke:#ff0000;" x="346.95" xlink:href="#ma4197451bc" y="275.447871"/>
     <use style="fill:#ff0000;stroke:#ff0000;" x="347.923256" xlink:href="#ma4197451bc" y="275.861485"/>
     <use style="fill:#ff0000;stroke:#ff0000;" x="348.896512" xlink:href="#ma4197451bc" y="275.739647"/>
     <use style="fill:#ff0000;stroke:#ff0000;" x="349.869767" xlink:href="#ma4197451bc" y="276.277675"/>
     <use style="fill:#ff0000;stroke:#ff0000;" x="350.843023" xlink:href="#ma4197451bc" y="276.761791"/>
     <use style="fill:#ff0000;stroke:#ff0000;" x="351.816279" xlink:href="#ma4197451bc" y="276.749938"/>
     <use style="fill:#ff0000;stroke:#ff0000;" x="352.789535" xlink:href="#ma4197451bc" y="276.944212"/>
     <use style="fill:#ff0000;stroke:#ff0000;" x="353.762791" xlink:href="#ma4197451bc" y="276.965788"/>
     <use style="fill:#ff0000;stroke:#ff0000;" x="354.736047" xlink:href="#ma4197451bc" y="277.14696"/>
     <use style="fill:#ff0000;stroke:#ff0000;" x="355.709302" xlink:href="#ma4197451bc" y="277.874457"/>
     <use style="fill:#ff0000;stroke:#ff0000;" x="356.682558" xlink:href="#ma4197451bc" y="277.457521"/>
     <use style="fill:#ff0000;stroke:#ff0000;" x="357.655814" xlink:href="#ma4197451bc" y="277.008997"/>
     <use style="fill:#ff0000;stroke:#ff0000;" x="358.62907" xlink:href="#ma4197451bc" y="276.401963"/>
     <use style="fill:#ff0000;stroke:#ff0000;" x="359.602326" xlink:href="#ma4197451bc" y="276.205208"/>
     <use style="fill:#ff0000;stroke:#ff0000;" x="360.575581" xlink:href="#ma4197451bc" y="276.165734"/>
     <use style="fill:#ff0000;stroke:#ff0000;" x="361.548837" xlink:href="#ma4197451bc" y="276.084182"/>
     <use style="fill:#ff0000;stroke:#ff0000;" x="362.522093" xlink:href="#ma4197451bc" y="275.644766"/>
     <use style="fill:#ff0000;stroke:#ff0000;" x="363.495349" xlink:href="#ma4197451bc" y="275.852133"/>
     <use style="fill:#ff0000;stroke:#ff0000;" x="364.468605" xlink:href="#ma4197451bc" y="275.69123"/>
     <use style="fill:#ff0000;stroke:#ff0000;" x="365.44186" xlink:href="#ma4197451bc" y="275.033512"/>
     <use style="fill:#ff0000;stroke:#ff0000;" x="366.415116" xlink:href="#ma4197451bc" y="274.402992"/>
     <use style="fill:#ff0000;stroke:#ff0000;" x="367.388372" xlink:href="#ma4197451bc" y="273.963746"/>
     <use style="fill:#ff0000;stroke:#ff0000;" x="368.361628" xlink:href="#ma4197451bc" y="272.779538"/>
     <use style="fill:#ff0000;stroke:#ff0000;" x="369.334884" xlink:href="#ma4197451bc" y="272.929845"/>
     <use style="fill:#ff0000;stroke:#ff0000;" x="370.30814" xlink:href="#ma4197451bc" y="272.892099"/>
     <use style="fill:#ff0000;stroke:#ff0000;" x="371.281395" xlink:href="#ma4197451bc" y="272.460234"/>
     <use style="fill:#ff0000;stroke:#ff0000;" x="372.254651" xlink:href="#ma4197451bc" y="272.825913"/>
     <use style="fill:#ff0000;stroke:#ff0000;" x="373.227907" xlink:href="#ma4197451bc" y="272.666822"/>
     <use style="fill:#ff0000;stroke:#ff0000;" x="374.201163" xlink:href="#ma4197451bc" y="273.277881"/>
     <use style="fill:#ff0000;stroke:#ff0000;" x="375.174419" xlink:href="#ma4197451bc" y="273.66489"/>
     <use style="fill:#ff0000;stroke:#ff0000;" x="376.147674" xlink:href="#ma4197451bc" y="274.35697"/>
     <use style="fill:#ff0000;stroke:#ff0000;" x="377.12093" xlink:href="#ma4197451bc" y="275.44437"/>
     <use style="fill:#ff0000;stroke:#ff0000;" x="378.094186" xlink:href="#ma4197451bc" y="275.180299"/>
     <use style="fill:#ff0000;stroke:#ff0000;" x="379.067442" xlink:href="#ma4197451bc" y="276.266484"/>
     <use style="fill:#ff0000;stroke:#ff0000;" x="380.040698" xlink:href="#ma4197451bc" y="276.764903"/>
     <use style="fill:#ff0000;stroke:#ff0000;" x="381.013953" xlink:href="#ma4197451bc" y="275.509426"/>
     <use style="fill:#ff0000;stroke:#ff0000;" x="381.987209" xlink:href="#ma4197451bc" y="274.430805"/>
     <use style="fill:#ff0000;stroke:#ff0000;" x="382.960465" xlink:href="#ma4197451bc" y="272.730485"/>
     <use style="fill:#ff0000;stroke:#ff0000;" x="383.933721" xlink:href="#ma4197451bc" y="271.84773"/>
     <use style="fill:#ff0000;stroke:#ff0000;" x="384.906977" xlink:href="#ma4197451bc" y="266.436115"/>
     <use style="fill:#ff0000;stroke:#ff0000;" x="385.880233" xlink:href="#ma4197451bc" y="261.596457"/>
     <use style="fill:#ff0000;stroke:#ff0000;" x="386.853488" xlink:href="#ma4197451bc" y="258.151498"/>
     <use style="fill:#ff0000;stroke:#ff0000;" x="387.826744" xlink:href="#ma4197451bc" y="248.263387"/>
     <use style="fill:#ff0000;stroke:#ff0000;" x="388.8" xlink:href="#ma4197451bc" y="234.762677"/>
    </g>
   </g>
   <g id="patch_3">
    <path d="M 54 278.64 
L 54 51.84 
" style="fill:none;stroke:#000000;stroke-linecap:square;stroke-linejoin:miter;stroke-width:0.8;"/>
   </g>
   <g id="patch_4">
    <path d="M 388.8 278.64 
L 388.8 51.84 
" style="fill:none;stroke:#000000;stroke-linecap:square;stroke-linejoin:miter;stroke-width:0.8;"/>
   </g>
   <g id="patch_5">
    <path d="M 54 278.64 
L 388.8 278.64 
" style="fill:none;stroke:#000000;stroke-linecap:square;stroke-linejoin:miter;stroke-width:0.8;"/>
   </g>
   <g id="patch_6">
    <path d="M 54 51.84 
L 388.8 51.84 
" style="fill:none;stroke:#000000;stroke-linecap:square;stroke-linejoin:miter;stroke-width:0.8;"/>
   </g>
   <g id="legend_1">
    <g id="patch_7">
     <path d="M 279.842188 89.19625 
L 381.8 89.19625 
Q 383.8 89.19625 383.8 87.19625 
L 383.8 58.84 
Q 383.8 56.84 381.8 56.84 
L 279.842188 56.84 
Q 277.842188 56.84 277.842188 58.84 
L 277.842188 87.19625 
Q 277.842188 89.19625 279.842188 89.19625 
z
" style="fill:#ffffff;opacity:0.8;stroke:#cccccc;stroke-linejoin:miter;"/>
    </g>
    <g id="line2d_16">
     <path d="M 281.842188 64.938437 
L 301.842188 64.938437 
" style="fill:none;stroke:#1f77b4;stroke-linecap:square;stroke-width:1.5;"/>
    </g>
    <g id="line2d_17"/>
    <g id="text_15">
     <!-- True RUL -->
     <defs>
      <path d="M -0.296875 72.90625 
L 61.375 72.90625 
L 61.375 64.59375 
L 35.5 64.59375 
L 35.5 0 
L 25.59375 0 
L 25.59375 64.59375 
L -0.296875 64.59375 
z
" id="DejaVuSans-84"/>
      <path d="M 41.109375 46.296875 
Q 39.59375 47.171875 37.8125 47.578125 
Q 36.03125 48 33.890625 48 
Q 26.265625 48 22.1875 43.046875 
Q 18.109375 38.09375 18.109375 28.8125 
L 18.109375 0 
L 9.078125 0 
L 9.078125 54.6875 
L 18.109375 54.6875 
L 18.109375 46.1875 
Q 20.953125 51.171875 25.484375 53.578125 
Q 30.03125 56 36.53125 56 
Q 37.453125 56 38.578125 55.875 
Q 39.703125 55.765625 41.0625 55.515625 
z
" id="DejaVuSans-114"/>
      <path d="M 8.5 21.578125 
L 8.5 54.6875 
L 17.484375 54.6875 
L 17.484375 21.921875 
Q 17.484375 14.15625 20.5 10.265625 
Q 23.53125 6.390625 29.59375 6.390625 
Q 36.859375 6.390625 41.078125 11.03125 
Q 45.3125 15.671875 45.3125 23.6875 
L 45.3125 54.6875 
L 54.296875 54.6875 
L 54.296875 0 
L 45.3125 0 
L 45.3125 8.40625 
Q 42.046875 3.421875 37.71875 1 
Q 33.40625 -1.421875 27.6875 -1.421875 
Q 18.265625 -1.421875 13.375 4.4375 
Q 8.5 10.296875 8.5 21.578125 
z
M 31.109375 56 
z
" id="DejaVuSans-117"/>
      <path d="M 56.203125 29.59375 
L 56.203125 25.203125 
L 14.890625 25.203125 
Q 15.484375 15.921875 20.484375 11.0625 
Q 25.484375 6.203125 34.421875 6.203125 
Q 39.59375 6.203125 44.453125 7.46875 
Q 49.3125 8.734375 54.109375 11.28125 
L 54.109375 2.78125 
Q 49.265625 0.734375 44.1875 -0.34375 
Q 39.109375 -1.421875 33.890625 -1.421875 
Q 20.796875 -1.421875 13.15625 6.1875 
Q 5.515625 13.8125 5.515625 26.8125 
Q 5.515625 40.234375 12.765625 48.109375 
Q 20.015625 56 32.328125 56 
Q 43.359375 56 49.78125 48.890625 
Q 56.203125 41.796875 56.203125 29.59375 
z
M 47.21875 32.234375 
Q 47.125 39.59375 43.09375 43.984375 
Q 39.0625 48.390625 32.421875 48.390625 
Q 24.90625 48.390625 20.390625 44.140625 
Q 15.875 39.890625 15.1875 32.171875 
z
" id="DejaVuSans-101"/>
      <path id="DejaVuSans-32"/>
     </defs>
     <g transform="translate(309.842188 68.438437)scale(0.1 -0.1)">
      <use xlink:href="#DejaVuSans-84"/>
      <use x="46.333984" xlink:href="#DejaVuSans-114"/>
      <use x="87.447266" xlink:href="#DejaVuSans-117"/>
      <use x="150.826172" xlink:href="#DejaVuSans-101"/>
      <use x="212.349609" xlink:href="#DejaVuSans-32"/>
      <use x="244.136719" xlink:href="#DejaVuSans-82"/>
      <use x="313.619141" xlink:href="#DejaVuSans-85"/>
      <use x="386.8125" xlink:href="#DejaVuSans-76"/>
     </g>
    </g>
    <g id="line2d_18">
     <path d="M 281.842188 79.616562 
L 301.842188 79.616562 
" style="fill:none;stroke:#ff0000;stroke-linecap:square;stroke-width:0.5;"/>
    </g>
    <g id="line2d_19">
     <g>
      <use style="fill:#ff0000;stroke:#ff0000;" x="291.842188" xlink:href="#ma4197451bc" y="79.616562"/>
     </g>
    </g>
    <g id="text_16">
     <!-- Predicted RUL -->
     <defs>
      <path d="M 19.671875 64.796875 
L 19.671875 37.40625 
L 32.078125 37.40625 
Q 38.96875 37.40625 42.71875 40.96875 
Q 46.484375 44.53125 46.484375 51.125 
Q 46.484375 57.671875 42.71875 61.234375 
Q 38.96875 64.796875 32.078125 64.796875 
z
M 9.8125 72.90625 
L 32.078125 72.90625 
Q 44.34375 72.90625 50.609375 67.359375 
Q 56.890625 61.8125 56.890625 51.125 
Q 56.890625 40.328125 50.609375 34.8125 
Q 44.34375 29.296875 32.078125 29.296875 
L 19.671875 29.296875 
L 19.671875 0 
L 9.8125 0 
z
" id="DejaVuSans-80"/>
      <path d="M 45.40625 46.390625 
L 45.40625 75.984375 
L 54.390625 75.984375 
L 54.390625 0 
L 45.40625 0 
L 45.40625 8.203125 
Q 42.578125 3.328125 38.25 0.953125 
Q 33.9375 -1.421875 27.875 -1.421875 
Q 17.96875 -1.421875 11.734375 6.484375 
Q 5.515625 14.40625 5.515625 27.296875 
Q 5.515625 40.1875 11.734375 48.09375 
Q 17.96875 56 27.875 56 
Q 33.9375 56 38.25 53.625 
Q 42.578125 51.265625 45.40625 46.390625 
z
M 14.796875 27.296875 
Q 14.796875 17.390625 18.875 11.75 
Q 22.953125 6.109375 30.078125 6.109375 
Q 37.203125 6.109375 41.296875 11.75 
Q 45.40625 17.390625 45.40625 27.296875 
Q 45.40625 37.203125 41.296875 42.84375 
Q 37.203125 48.484375 30.078125 48.484375 
Q 22.953125 48.484375 18.875 42.84375 
Q 14.796875 37.203125 14.796875 27.296875 
z
" id="DejaVuSans-100"/>
      <path d="M 9.421875 54.6875 
L 18.40625 54.6875 
L 18.40625 0 
L 9.421875 0 
z
M 9.421875 75.984375 
L 18.40625 75.984375 
L 18.40625 64.59375 
L 9.421875 64.59375 
z
" id="DejaVuSans-105"/>
      <path d="M 48.78125 52.59375 
L 48.78125 44.1875 
Q 44.96875 46.296875 41.140625 47.34375 
Q 37.3125 48.390625 33.40625 48.390625 
Q 24.65625 48.390625 19.8125 42.84375 
Q 14.984375 37.3125 14.984375 27.296875 
Q 14.984375 17.28125 19.8125 11.734375 
Q 24.65625 6.203125 33.40625 6.203125 
Q 37.3125 6.203125 41.140625 7.25 
Q 44.96875 8.296875 48.78125 10.40625 
L 48.78125 2.09375 
Q 45.015625 0.34375 40.984375 -0.53125 
Q 36.96875 -1.421875 32.421875 -1.421875 
Q 20.0625 -1.421875 12.78125 6.34375 
Q 5.515625 14.109375 5.515625 27.296875 
Q 5.515625 40.671875 12.859375 48.328125 
Q 20.21875 56 33.015625 56 
Q 37.15625 56 41.109375 55.140625 
Q 45.0625 54.296875 48.78125 52.59375 
z
" id="DejaVuSans-99"/>
      <path d="M 18.3125 70.21875 
L 18.3125 54.6875 
L 36.8125 54.6875 
L 36.8125 47.703125 
L 18.3125 47.703125 
L 18.3125 18.015625 
Q 18.3125 11.328125 20.140625 9.421875 
Q 21.96875 7.515625 27.59375 7.515625 
L 36.8125 7.515625 
L 36.8125 0 
L 27.59375 0 
Q 17.1875 0 13.234375 3.875 
Q 9.28125 7.765625 9.28125 18.015625 
L 9.28125 47.703125 
L 2.6875 47.703125 
L 2.6875 54.6875 
L 9.28125 54.6875 
L 9.28125 70.21875 
z
" id="DejaVuSans-116"/>
     </defs>
     <g transform="translate(309.842188 83.116562)scale(0.1 -0.1)">
      <use xlink:href="#DejaVuSans-80"/>
      <use x="58.552734" xlink:href="#DejaVuSans-114"/>
      <use x="97.416016" xlink:href="#DejaVuSans-101"/>
      <use x="158.939453" xlink:href="#DejaVuSans-100"/>
      <use x="222.416016" xlink:href="#DejaVuSans-105"/>
      <use x="250.199219" xlink:href="#DejaVuSans-99"/>
      <use x="305.179688" xlink:href="#DejaVuSans-116"/>
      <use x="344.388672" xlink:href="#DejaVuSans-101"/>
      <use x="405.912109" xlink:href="#DejaVuSans-100"/>
      <use x="469.388672" xlink:href="#DejaVuSans-32"/>
      <use x="501.175781" xlink:href="#DejaVuSans-82"/>
      <use x="570.658203" xlink:href="#DejaVuSans-85"/>
      <use x="643.851562" xlink:href="#DejaVuSans-76"/>
     </g>
    </g>
   </g>
  </g>
  <g id="axes_2">
   <g id="patch_8">
    <path d="M 54 384.48 
L 388.8 384.48 
L 388.8 308.88 
L 54 308.88 
z
" style="fill:#ffffff;"/>
   </g>
   <g id="matplotlib.axis_3">
    <g id="xtick_8">
     <g id="line2d_20">
      <g>
       <use style="stroke:#000000;stroke-width:0.8;" x="54" xlink:href="#mb33f3309ec" y="384.48"/>
      </g>
     </g>
     <g id="text_17">
      <!-- 0 -->
      <g transform="translate(50.81875 399.078437)scale(0.1 -0.1)">
       <use xlink:href="#DejaVuSans-48"/>
      </g>
     </g>
    </g>
    <g id="xtick_9">
     <g id="line2d_21">
      <g>
       <use style="stroke:#000000;stroke-width:0.8;" x="102.662791" xlink:href="#mb33f3309ec" y="384.48"/>
      </g>
     </g>
     <g id="text_18">
      <!-- 50 -->
      <g transform="translate(96.300291 399.078437)scale(0.1 -0.1)">
       <use xlink:href="#DejaVuSans-53"/>
       <use x="63.623047" xlink:href="#DejaVuSans-48"/>
      </g>
     </g>
    </g>
    <g id="xtick_10">
     <g id="line2d_22">
      <g>
       <use style="stroke:#000000;stroke-width:0.8;" x="151.325581" xlink:href="#mb33f3309ec" y="384.48"/>
      </g>
     </g>
     <g id="text_19">
      <!-- 100 -->
      <g transform="translate(141.781831 399.078437)scale(0.1 -0.1)">
       <use xlink:href="#DejaVuSans-49"/>
       <use x="63.623047" xlink:href="#DejaVuSans-48"/>
       <use x="127.246094" xlink:href="#DejaVuSans-48"/>
      </g>
     </g>
    </g>
    <g id="xtick_11">
     <g id="line2d_23">
      <g>
       <use style="stroke:#000000;stroke-width:0.8;" x="199.988372" xlink:href="#mb33f3309ec" y="384.48"/>
      </g>
     </g>
     <g id="text_20">
      <!-- 150 -->
      <g transform="translate(190.444622 399.078437)scale(0.1 -0.1)">
       <use xlink:href="#DejaVuSans-49"/>
       <use x="63.623047" xlink:href="#DejaVuSans-53"/>
       <use x="127.246094" xlink:href="#DejaVuSans-48"/>
      </g>
     </g>
    </g>
    <g id="xtick_12">
     <g id="line2d_24">
      <g>
       <use style="stroke:#000000;stroke-width:0.8;" x="248.651163" xlink:href="#mb33f3309ec" y="384.48"/>
      </g>
     </g>
     <g id="text_21">
      <!-- 200 -->
      <g transform="translate(239.107413 399.078437)scale(0.1 -0.1)">
       <use xlink:href="#DejaVuSans-50"/>
       <use x="63.623047" xlink:href="#DejaVuSans-48"/>
       <use x="127.246094" xlink:href="#DejaVuSans-48"/>
      </g>
     </g>
    </g>
    <g id="xtick_13">
     <g id="line2d_25">
      <g>
       <use style="stroke:#000000;stroke-width:0.8;" x="297.313953" xlink:href="#mb33f3309ec" y="384.48"/>
      </g>
     </g>
     <g id="text_22">
      <!-- 250 -->
      <g transform="translate(287.770203 399.078437)scale(0.1 -0.1)">
       <use xlink:href="#DejaVuSans-50"/>
       <use x="63.623047" xlink:href="#DejaVuSans-53"/>
       <use x="127.246094" xlink:href="#DejaVuSans-48"/>
      </g>
     </g>
    </g>
    <g id="xtick_14">
     <g id="line2d_26">
      <g>
       <use style="stroke:#000000;stroke-width:0.8;" x="345.976744" xlink:href="#mb33f3309ec" y="384.48"/>
      </g>
     </g>
     <g id="text_23">
      <!-- 300 -->
      <g transform="translate(336.432994 399.078437)scale(0.1 -0.1)">
       <use xlink:href="#DejaVuSans-51"/>
       <use x="63.623047" xlink:href="#DejaVuSans-48"/>
       <use x="127.246094" xlink:href="#DejaVuSans-48"/>
      </g>
     </g>
    </g>
    <g id="text_24">
     <!-- Operating time -->
     <defs>
      <path d="M 39.40625 66.21875 
Q 28.65625 66.21875 22.328125 58.203125 
Q 16.015625 50.203125 16.015625 36.375 
Q 16.015625 22.609375 22.328125 14.59375 
Q 28.65625 6.59375 39.40625 6.59375 
Q 50.140625 6.59375 56.421875 14.59375 
Q 62.703125 22.609375 62.703125 36.375 
Q 62.703125 50.203125 56.421875 58.203125 
Q 50.140625 66.21875 39.40625 66.21875 
z
M 39.40625 74.21875 
Q 54.734375 74.21875 63.90625 63.9375 
Q 73.09375 53.65625 73.09375 36.375 
Q 73.09375 19.140625 63.90625 8.859375 
Q 54.734375 -1.421875 39.40625 -1.421875 
Q 24.03125 -1.421875 14.8125 8.828125 
Q 5.609375 19.09375 5.609375 36.375 
Q 5.609375 53.65625 14.8125 63.9375 
Q 24.03125 74.21875 39.40625 74.21875 
z
" id="DejaVuSans-79"/>
      <path d="M 18.109375 8.203125 
L 18.109375 -20.796875 
L 9.078125 -20.796875 
L 9.078125 54.6875 
L 18.109375 54.6875 
L 18.109375 46.390625 
Q 20.953125 51.265625 25.265625 53.625 
Q 29.59375 56 35.59375 56 
Q 45.5625 56 51.78125 48.09375 
Q 58.015625 40.1875 58.015625 27.296875 
Q 58.015625 14.40625 51.78125 6.484375 
Q 45.5625 -1.421875 35.59375 -1.421875 
Q 29.59375 -1.421875 25.265625 0.953125 
Q 20.953125 3.328125 18.109375 8.203125 
z
M 48.6875 27.296875 
Q 48.6875 37.203125 44.609375 42.84375 
Q 40.53125 48.484375 33.40625 48.484375 
Q 26.265625 48.484375 22.1875 42.84375 
Q 18.109375 37.203125 18.109375 27.296875 
Q 18.109375 17.390625 22.1875 11.75 
Q 26.265625 6.109375 33.40625 6.109375 
Q 40.53125 6.109375 44.609375 11.75 
Q 48.6875 17.390625 48.6875 27.296875 
z
" id="DejaVuSans-112"/>
      <path d="M 34.28125 27.484375 
Q 23.390625 27.484375 19.1875 25 
Q 14.984375 22.515625 14.984375 16.5 
Q 14.984375 11.71875 18.140625 8.90625 
Q 21.296875 6.109375 26.703125 6.109375 
Q 34.1875 6.109375 38.703125 11.40625 
Q 43.21875 16.703125 43.21875 25.484375 
L 43.21875 27.484375 
z
M 52.203125 31.203125 
L 52.203125 0 
L 43.21875 0 
L 43.21875 8.296875 
Q 40.140625 3.328125 35.546875 0.953125 
Q 30.953125 -1.421875 24.3125 -1.421875 
Q 15.921875 -1.421875 10.953125 3.296875 
Q 6 8.015625 6 15.921875 
Q 6 25.140625 12.171875 29.828125 
Q 18.359375 34.515625 30.609375 34.515625 
L 43.21875 34.515625 
L 43.21875 35.40625 
Q 43.21875 41.609375 39.140625 45 
Q 35.0625 48.390625 27.6875 48.390625 
Q 23 48.390625 18.546875 47.265625 
Q 14.109375 46.140625 10.015625 43.890625 
L 10.015625 52.203125 
Q 14.9375 54.109375 19.578125 55.046875 
Q 24.21875 56 28.609375 56 
Q 40.484375 56 46.34375 49.84375 
Q 52.203125 43.703125 52.203125 31.203125 
z
" id="DejaVuSans-97"/>
      <path d="M 54.890625 33.015625 
L 54.890625 0 
L 45.90625 0 
L 45.90625 32.71875 
Q 45.90625 40.484375 42.875 44.328125 
Q 39.84375 48.1875 33.796875 48.1875 
Q 26.515625 48.1875 22.3125 43.546875 
Q 18.109375 38.921875 18.109375 30.90625 
L 18.109375 0 
L 9.078125 0 
L 9.078125 54.6875 
L 18.109375 54.6875 
L 18.109375 46.1875 
Q 21.34375 51.125 25.703125 53.5625 
Q 30.078125 56 35.796875 56 
Q 45.21875 56 50.046875 50.171875 
Q 54.890625 44.34375 54.890625 33.015625 
z
" id="DejaVuSans-110"/>
      <path d="M 45.40625 27.984375 
Q 45.40625 37.75 41.375 43.109375 
Q 37.359375 48.484375 30.078125 48.484375 
Q 22.859375 48.484375 18.828125 43.109375 
Q 14.796875 37.75 14.796875 27.984375 
Q 14.796875 18.265625 18.828125 12.890625 
Q 22.859375 7.515625 30.078125 7.515625 
Q 37.359375 7.515625 41.375 12.890625 
Q 45.40625 18.265625 45.40625 27.984375 
z
M 54.390625 6.78125 
Q 54.390625 -7.171875 48.1875 -13.984375 
Q 42 -20.796875 29.203125 -20.796875 
Q 24.46875 -20.796875 20.265625 -20.09375 
Q 16.0625 -19.390625 12.109375 -17.921875 
L 12.109375 -9.1875 
Q 16.0625 -11.328125 19.921875 -12.34375 
Q 23.78125 -13.375 27.78125 -13.375 
Q 36.625 -13.375 41.015625 -8.765625 
Q 45.40625 -4.15625 45.40625 5.171875 
L 45.40625 9.625 
Q 42.625 4.78125 38.28125 2.390625 
Q 33.9375 0 27.875 0 
Q 17.828125 0 11.671875 7.65625 
Q 5.515625 15.328125 5.515625 27.984375 
Q 5.515625 40.671875 11.671875 48.328125 
Q 17.828125 56 27.875 56 
Q 33.9375 56 38.28125 53.609375 
Q 42.625 51.21875 45.40625 46.390625 
L 45.40625 54.6875 
L 54.390625 54.6875 
z
" id="DejaVuSans-103"/>
      <path d="M 52 44.1875 
Q 55.375 50.25 60.0625 53.125 
Q 64.75 56 71.09375 56 
Q 79.640625 56 84.28125 50.015625 
Q 88.921875 44.046875 88.921875 33.015625 
L 88.921875 0 
L 79.890625 0 
L 79.890625 32.71875 
Q 79.890625 40.578125 77.09375 44.375 
Q 74.3125 48.1875 68.609375 48.1875 
Q 61.625 48.1875 57.5625 43.546875 
Q 53.515625 38.921875 53.515625 30.90625 
L 53.515625 0 
L 44.484375 0 
L 44.484375 32.71875 
Q 44.484375 40.625 41.703125 44.40625 
Q 38.921875 48.1875 33.109375 48.1875 
Q 26.21875 48.1875 22.15625 43.53125 
Q 18.109375 38.875 18.109375 30.90625 
L 18.109375 0 
L 9.078125 0 
L 9.078125 54.6875 
L 18.109375 54.6875 
L 18.109375 46.1875 
Q 21.1875 51.21875 25.484375 53.609375 
Q 29.78125 56 35.6875 56 
Q 41.65625 56 45.828125 52.96875 
Q 50 49.953125 52 44.1875 
z
" id="DejaVuSans-109"/>
     </defs>
     <g transform="translate(183.516406 412.756562)scale(0.1 -0.1)">
      <use xlink:href="#DejaVuSans-79"/>
      <use x="78.710938" xlink:href="#DejaVuSans-112"/>
      <use x="142.1875" xlink:href="#DejaVuSans-101"/>
      <use x="203.710938" xlink:href="#DejaVuSans-114"/>
      <use x="244.824219" xlink:href="#DejaVuSans-97"/>
      <use x="306.103516" xlink:href="#DejaVuSans-116"/>
      <use x="345.3125" xlink:href="#DejaVuSans-105"/>
      <use x="373.095703" xlink:href="#DejaVuSans-110"/>
      <use x="436.474609" xlink:href="#DejaVuSans-103"/>
      <use x="499.951172" xlink:href="#DejaVuSans-32"/>
      <use x="531.738281" xlink:href="#DejaVuSans-116"/>
      <use x="570.947266" xlink:href="#DejaVuSans-105"/>
      <use x="598.730469" xlink:href="#DejaVuSans-109"/>
      <use x="696.142578" xlink:href="#DejaVuSans-101"/>
     </g>
    </g>
   </g>
   <g id="matplotlib.axis_4">
    <g id="ytick_7">
     <g id="line2d_27">
      <g>
       <use style="stroke:#000000;stroke-width:0.8;" x="54" xlink:href="#m7fa81a6e85" y="381.082477"/>
      </g>
     </g>
     <g id="text_25">
      <!-- 0 -->
      <g transform="translate(40.6375 384.881696)scale(0.1 -0.1)">
       <use xlink:href="#DejaVuSans-48"/>
      </g>
     </g>
    </g>
    <g id="ytick_8">
     <g id="line2d_28">
      <g>
       <use style="stroke:#000000;stroke-width:0.8;" x="54" xlink:href="#m7fa81a6e85" y="353.572552"/>
      </g>
     </g>
     <g id="text_26">
      <!-- 10000 -->
      <g transform="translate(15.1875 357.371771)scale(0.1 -0.1)">
       <use xlink:href="#DejaVuSans-49"/>
       <use x="63.623047" xlink:href="#DejaVuSans-48"/>
       <use x="127.246094" xlink:href="#DejaVuSans-48"/>
       <use x="190.869141" xlink:href="#DejaVuSans-48"/>
       <use x="254.492188" xlink:href="#DejaVuSans-48"/>
      </g>
     </g>
    </g>
    <g id="ytick_9">
     <g id="line2d_29">
      <g>
       <use style="stroke:#000000;stroke-width:0.8;" x="54" xlink:href="#m7fa81a6e85" y="326.062627"/>
      </g>
     </g>
     <g id="text_27">
      <!-- 20000 -->
      <g transform="translate(15.1875 329.861846)scale(0.1 -0.1)">
       <use xlink:href="#DejaVuSans-50"/>
       <use x="63.623047" xlink:href="#DejaVuSans-48"/>
       <use x="127.246094" xlink:href="#DejaVuSans-48"/>
       <use x="190.869141" xlink:href="#DejaVuSans-48"/>
       <use x="254.492188" xlink:href="#DejaVuSans-48"/>
      </g>
     </g>
    </g>
    <g id="text_28">
     <!-- Absolute error -->
     <defs>
      <path d="M 34.1875 63.1875 
L 20.796875 26.90625 
L 47.609375 26.90625 
z
M 28.609375 72.90625 
L 39.796875 72.90625 
L 67.578125 0 
L 57.328125 0 
L 50.6875 18.703125 
L 17.828125 18.703125 
L 11.1875 0 
L 0.78125 0 
z
" id="DejaVuSans-65"/>
      <path d="M 48.6875 27.296875 
Q 48.6875 37.203125 44.609375 42.84375 
Q 40.53125 48.484375 33.40625 48.484375 
Q 26.265625 48.484375 22.1875 42.84375 
Q 18.109375 37.203125 18.109375 27.296875 
Q 18.109375 17.390625 22.1875 11.75 
Q 26.265625 6.109375 33.40625 6.109375 
Q 40.53125 6.109375 44.609375 11.75 
Q 48.6875 17.390625 48.6875 27.296875 
z
M 18.109375 46.390625 
Q 20.953125 51.265625 25.265625 53.625 
Q 29.59375 56 35.59375 56 
Q 45.5625 56 51.78125 48.09375 
Q 58.015625 40.1875 58.015625 27.296875 
Q 58.015625 14.40625 51.78125 6.484375 
Q 45.5625 -1.421875 35.59375 -1.421875 
Q 29.59375 -1.421875 25.265625 0.953125 
Q 20.953125 3.328125 18.109375 8.203125 
L 18.109375 0 
L 9.078125 0 
L 9.078125 75.984375 
L 18.109375 75.984375 
z
" id="DejaVuSans-98"/>
      <path d="M 44.28125 53.078125 
L 44.28125 44.578125 
Q 40.484375 46.53125 36.375 47.5 
Q 32.28125 48.484375 27.875 48.484375 
Q 21.1875 48.484375 17.84375 46.4375 
Q 14.5 44.390625 14.5 40.28125 
Q 14.5 37.15625 16.890625 35.375 
Q 19.28125 33.59375 26.515625 31.984375 
L 29.59375 31.296875 
Q 39.15625 29.25 43.1875 25.515625 
Q 47.21875 21.78125 47.21875 15.09375 
Q 47.21875 7.46875 41.1875 3.015625 
Q 35.15625 -1.421875 24.609375 -1.421875 
Q 20.21875 -1.421875 15.453125 -0.5625 
Q 10.6875 0.296875 5.421875 2 
L 5.421875 11.28125 
Q 10.40625 8.6875 15.234375 7.390625 
Q 20.0625 6.109375 24.8125 6.109375 
Q 31.15625 6.109375 34.5625 8.28125 
Q 37.984375 10.453125 37.984375 14.40625 
Q 37.984375 18.0625 35.515625 20.015625 
Q 33.0625 21.96875 24.703125 23.78125 
L 21.578125 24.515625 
Q 13.234375 26.265625 9.515625 29.90625 
Q 5.8125 33.546875 5.8125 39.890625 
Q 5.8125 47.609375 11.28125 51.796875 
Q 16.75 56 26.8125 56 
Q 31.78125 56 36.171875 55.265625 
Q 40.578125 54.546875 44.28125 53.078125 
z
" id="DejaVuSans-115"/>
      <path d="M 30.609375 48.390625 
Q 23.390625 48.390625 19.1875 42.75 
Q 14.984375 37.109375 14.984375 27.296875 
Q 14.984375 17.484375 19.15625 11.84375 
Q 23.34375 6.203125 30.609375 6.203125 
Q 37.796875 6.203125 41.984375 11.859375 
Q 46.1875 17.53125 46.1875 27.296875 
Q 46.1875 37.015625 41.984375 42.703125 
Q 37.796875 48.390625 30.609375 48.390625 
z
M 30.609375 56 
Q 42.328125 56 49.015625 48.375 
Q 55.71875 40.765625 55.71875 27.296875 
Q 55.71875 13.875 49.015625 6.21875 
Q 42.328125 -1.421875 30.609375 -1.421875 
Q 18.84375 -1.421875 12.171875 6.21875 
Q 5.515625 13.875 5.515625 27.296875 
Q 5.515625 40.765625 12.171875 48.375 
Q 18.84375 56 30.609375 56 
z
" id="DejaVuSans-111"/>
      <path d="M 9.421875 75.984375 
L 18.40625 75.984375 
L 18.40625 0 
L 9.421875 0 
z
" id="DejaVuSans-108"/>
     </defs>
     <g transform="translate(9.107812 382.224531)rotate(-90)scale(0.1 -0.1)">
      <use xlink:href="#DejaVuSans-65"/>
      <use x="68.408203" xlink:href="#DejaVuSans-98"/>
      <use x="131.884766" xlink:href="#DejaVuSans-115"/>
      <use x="183.984375" xlink:href="#DejaVuSans-111"/>
      <use x="245.166016" xlink:href="#DejaVuSans-108"/>
      <use x="272.949219" xlink:href="#DejaVuSans-117"/>
      <use x="336.328125" xlink:href="#DejaVuSans-116"/>
      <use x="375.537109" xlink:href="#DejaVuSans-101"/>
      <use x="437.060547" xlink:href="#DejaVuSans-32"/>
      <use x="468.847656" xlink:href="#DejaVuSans-101"/>
      <use x="530.371094" xlink:href="#DejaVuSans-114"/>
      <use x="569.734375" xlink:href="#DejaVuSans-114"/>
      <use x="608.597656" xlink:href="#DejaVuSans-111"/>
      <use x="669.779297" xlink:href="#DejaVuSans-114"/>
     </g>
    </g>
   </g>
   <g id="line2d_30">
    <path clip-path="url(#p757d6c2737)" d="M 54.973256 380.715587 
L 55.946512 380.796776 
L 56.919767 380.466368 
L 57.893023 380.371323 
L 58.866279 380.63416 
L 59.839535 380.440808 
L 61.786047 381.043636 
L 63.732558 380.142752 
L 64.705814 379.46939 
L 65.67907 378.436053 
L 66.652326 378.663175 
L 69.572093 374.281875 
L 70.545349 370.975191 
L 71.518605 369.15434 
L 72.49186 364.081521 
L 73.465116 360.998149 
L 74.438372 361.71448 
L 75.411628 357.276696 
L 76.384884 347.868052 
L 77.35814 343.606539 
L 78.331395 346.110219 
L 79.304651 337.792857 
L 80.277907 331.419282 
L 81.251163 332.97773 
L 82.224419 328.987351 
L 83.197674 327.338964 
L 84.17093 326.368057 
L 85.144186 326.234188 
L 86.117442 326.957747 
L 87.090698 327.427732 
L 88.063953 326.886098 
L 89.037209 323.597082 
L 90.010465 326.134723 
L 90.983721 328.226578 
L 91.956977 330.025518 
L 92.930233 330.341001 
L 93.903488 329.527373 
L 94.876744 331.581586 
L 95.85 333.300198 
L 96.823256 333.958733 
L 97.796512 333.167382 
L 99.743023 335.11732 
L 100.716279 333.108333 
L 101.689535 333.994077 
L 102.662791 334.655374 
L 103.636047 334.025268 
L 104.609302 335.417415 
L 105.582558 338.909088 
L 106.555814 341.070035 
L 107.52907 337.514058 
L 108.502326 342.584306 
L 109.475581 345.372276 
L 110.448837 342.865953 
L 111.422093 340.927833 
L 112.395349 339.787076 
L 113.368605 341.430668 
L 114.34186 342.608751 
L 115.315116 341.107703 
L 116.288372 338.936369 
L 117.261628 338.786306 
L 118.234884 337.290486 
L 119.20814 330.315619 
L 121.154651 327.409174 
L 122.127907 325.27753 
L 124.074419 331.169694 
L 125.047674 324.749947 
L 126.02093 324.61639 
L 126.994186 325.348675 
L 127.967442 324.255381 
L 128.940698 323.333374 
L 129.913953 325.067391 
L 130.887209 324.486969 
L 131.860465 325.379908 
L 132.833721 322.812947 
L 133.806977 319.181879 
L 135.753488 317.852435 
L 136.726744 317.808102 
L 137.7 320.390253 
L 138.673256 318.961966 
L 139.646512 317.844822 
L 140.619767 318.212041 
L 141.593023 320.994396 
L 142.566279 322.821335 
L 143.539535 323.854246 
L 144.512791 327.959646 
L 145.486047 328.20961 
L 146.459302 327.521013 
L 147.432558 328.548009 
L 148.405814 330.818819 
L 149.37907 332.519131 
L 150.352326 332.304683 
L 151.325581 333.495879 
L 152.298837 332.928959 
L 153.272093 334.769449 
L 154.245349 334.427267 
L 155.218605 329.213583 
L 156.19186 329.083899 
L 157.165116 328.307039 
L 158.138372 326.335056 
L 159.111628 324.636866 
L 160.084884 326.578745 
L 161.05814 325.638222 
L 162.031395 323.977998 
L 163.004651 324.078936 
L 163.977907 323.799092 
L 165.924419 320.994509 
L 166.897674 319.591992 
L 167.87093 321.22656 
L 168.844186 322.346031 
L 169.817442 322.248306 
L 170.790698 319.365271 
L 171.763953 317.684222 
L 172.737209 316.460626 
L 173.710465 314.086375 
L 174.683721 314.083656 
L 175.656977 312.603198 
L 176.630233 312.381791 
L 177.603488 312.316364 
L 178.576744 312.97859 
L 179.55 313.202237 
L 180.523256 314.086079 
L 181.496512 314.558294 
L 182.469767 317.11324 
L 184.416279 321.084604 
L 185.389535 321.012229 
L 186.362791 321.919826 
L 187.336047 324.33913 
L 188.309302 323.789937 
L 189.282558 324.214541 
L 190.255814 325.251794 
L 191.22907 325.830958 
L 192.202326 327.07841 
L 193.175581 327.069023 
L 194.148837 327.736515 
L 195.122093 328.181842 
L 196.095349 327.519455 
L 197.068605 327.742785 
L 199.988372 330.098983 
L 200.961628 329.064127 
L 201.934884 329.46805 
L 202.90814 331.324481 
L 203.881395 331.163085 
L 204.854651 331.369184 
L 205.827907 331.964737 
L 206.801163 331.964307 
L 207.774419 332.685432 
L 208.747674 332.742698 
L 209.72093 334.316104 
L 210.694186 334.839642 
L 211.667442 336.622736 
L 212.640698 337.941214 
L 213.613953 338.638343 
L 214.587209 338.814848 
L 215.560465 338.630553 
L 216.533721 338.729524 
L 217.506977 339.662653 
L 218.480233 340.265034 
L 219.453488 339.750464 
L 220.426744 340.178126 
L 221.4 340.85253 
L 222.373256 340.126152 
L 223.346512 339.958116 
L 224.319767 340.324938 
L 226.266279 341.444675 
L 227.239535 341.878088 
L 228.212791 343.719996 
L 229.186047 346.185493 
L 230.159302 344.618002 
L 232.105814 345.545457 
L 233.07907 344.974545 
L 235.025581 346.855185 
L 235.998837 348.71557 
L 236.972093 347.287287 
L 237.945349 348.974948 
L 238.918605 350.091907 
L 239.89186 350.281041 
L 240.865116 351.681962 
L 242.811628 352.835061 
L 244.75814 355.544031 
L 245.731395 355.246375 
L 246.704651 356.133745 
L 247.677907 357.56598 
L 248.651163 358.165576 
L 249.624419 359.871087 
L 251.57093 361.25673 
L 252.544186 361.458495 
L 253.517442 362.107122 
L 254.490698 363.647866 
L 255.463953 364.311387 
L 256.437209 364.539438 
L 257.410465 366.712534 
L 258.383721 366.576482 
L 259.356977 367.144554 
L 260.330233 368.176808 
L 261.303488 369.441502 
L 262.276744 370.331118 
L 264.223256 372.561491 
L 267.143023 373.555039 
L 268.116279 374.305795 
L 271.036047 375.726036 
L 272.009302 376.034981 
L 272.982558 376.844094 
L 273.955814 377.261931 
L 274.92907 378.021923 
L 276.875581 379.084543 
L 277.848837 379.714723 
L 278.822093 379.915598 
L 280.768605 379.796646 
L 281.74186 380.484858 
L 282.715116 380.878319 
L 284.661628 379.977091 
L 287.581395 379.369363 
L 288.554651 379.657938 
L 289.527907 379.193066 
L 290.501163 379.183811 
L 291.474419 378.599043 
L 292.447674 378.615334 
L 294.394186 378.097923 
L 295.367442 378.347136 
L 296.340698 378.093082 
L 297.313953 377.684765 
L 299.260465 378.161463 
L 300.233721 377.847968 
L 301.206977 377.397519 
L 303.153488 376.731644 
L 304.126744 376.202788 
L 305.1 376.099027 
L 306.073256 375.704676 
L 307.046512 375.530827 
L 308.019767 375.156678 
L 308.993023 375.180439 
L 309.966279 374.950839 
L 310.939535 374.915231 
L 311.912791 374.71593 
L 312.886047 374.675268 
L 313.859302 374.51676 
L 314.832558 374.528885 
L 320.672093 373.587356 
L 322.618605 373.348155 
L 325.538372 373.600406 
L 326.511628 373.746408 
L 328.45814 373.60138 
L 330.404651 373.564806 
L 331.377907 373.743793 
L 335.27093 373.532382 
L 337.217442 373.906668 
L 338.190698 373.918671 
L 339.163953 374.08043 
L 340.137209 374.101493 
L 341.110465 374.002123 
L 342.083721 374.107822 
L 343.056977 374.044605 
L 344.030233 373.752331 
L 345.003488 373.636785 
L 347.923256 373.659732 
L 348.896512 373.67104 
L 350.843023 373.290359 
L 353.762791 373.142834 
L 354.736047 373.057602 
L 355.709302 372.798307 
L 359.602326 373.2201 
L 361.548837 373.20364 
L 362.522093 373.316131 
L 363.495349 373.222553 
L 364.468605 373.246307 
L 368.361628 374.06395 
L 370.30814 373.973068 
L 371.281395 374.083153 
L 372.254651 373.939136 
L 373.227907 373.962313 
L 377.12093 372.96733 
L 378.094186 373.023954 
L 379.067442 372.650379 
L 380.040698 372.46407 
L 383.933721 373.920672 
L 385.880233 377.13177 
L 386.853488 378.201845 
L 387.826744 380.840206 
L 388.8 376.566307 
L 388.8 376.566307 
" style="fill:none;stroke:#000000;stroke-linecap:square;stroke-width:0.5;"/>
   </g>
   <g id="patch_9">
    <path d="M 54 384.48 
L 54 308.88 
" style="fill:none;stroke:#000000;stroke-linecap:square;stroke-linejoin:miter;stroke-width:0.8;"/>
   </g>
   <g id="patch_10">
    <path d="M 388.8 384.48 
L 388.8 308.88 
" style="fill:none;stroke:#000000;stroke-linecap:square;stroke-linejoin:miter;stroke-width:0.8;"/>
   </g>
   <g id="patch_11">
    <path d="M 54 384.48 
L 388.8 384.48 
" style="fill:none;stroke:#000000;stroke-linecap:square;stroke-linejoin:miter;stroke-width:0.8;"/>
   </g>
   <g id="patch_12">
    <path d="M 54 308.88 
L 388.8 308.88 
" style="fill:none;stroke:#000000;stroke-linecap:square;stroke-linejoin:miter;stroke-width:0.8;"/>
   </g>
  </g>
 </g>
 <defs>
  <clipPath id="p0c56f7147c">
   <rect height="226.8" width="334.8" x="54" y="51.84"/>
  </clipPath>
  <clipPath id="p757d6c2737">
   <rect height="75.6" width="334.8" x="54" y="308.88"/>
  </clipPath>
 </defs>
</svg>
