<?xml version="1.0" encoding="utf-8" standalone="no"?>
<!DOCTYPE svg PUBLIC "-//W3C//DTD SVG 1.1//EN"
  "http://www.w3.org/Graphics/SVG/1.1/DTD/svg11.dtd">
<!-- Created with matplotlib (https://matplotlib.org/) -->
<svg height="432pt" version="1.1" viewBox="0 0 432 432" width="432pt" xmlns="http://www.w3.org/2000/svg" xmlns:xlink="http://www.w3.org/1999/xlink">
 <defs>
  <style type="text/css">
*{stroke-linecap:butt;stroke-linejoin:round;}
  </style>
 </defs>
 <g id="figure_1">
  <g id="patch_1">
   <path d="M 0 432 
L 432 432 
L 432 0 
L 0 0 
z
" style="fill:#ffffff;"/>
  </g>
  <g id="axes_1">
   <g id="patch_2">
    <path d="M 54 278.64 
L 388.8 278.64 
L 388.8 51.84 
L 54 51.84 
z
" style="fill:#ffffff;"/>
   </g>
   <g id="matplotlib.axis_1">
    <g id="xtick_1">
     <g id="line2d_1">
      <defs>
       <path d="M 0 0 
L 0 3.5 
" id="m2dae298409" style="stroke:#000000;stroke-width:0.8;"/>
      </defs>
      <g>
       <use style="stroke:#000000;stroke-width:0.8;" x="54" xlink:href="#m2dae298409" y="278.64"/>
      </g>
     </g>
     <g id="text_1">
      <!-- 0 -->
      <defs>
       <path d="M 31.78125 66.40625 
Q 24.171875 66.40625 20.328125 58.90625 
Q 16.5 51.421875 16.5 36.375 
Q 16.5 21.390625 20.328125 13.890625 
Q 24.171875 6.390625 31.78125 6.390625 
Q 39.453125 6.390625 43.28125 13.890625 
Q 47.125 21.390625 47.125 36.375 
Q 47.125 51.421875 43.28125 58.90625 
Q 39.453125 66.40625 31.78125 66.40625 
z
M 31.78125 74.21875 
Q 44.046875 74.21875 50.515625 64.515625 
Q 56.984375 54.828125 56.984375 36.375 
Q 56.984375 17.96875 50.515625 8.265625 
Q 44.046875 -1.421875 31.78125 -1.421875 
Q 19.53125 -1.421875 13.0625 8.265625 
Q 6.59375 17.96875 6.59375 36.375 
Q 6.59375 54.828125 13.0625 64.515625 
Q 19.53125 74.21875 31.78125 74.21875 
z
" id="DejaVuSans-48"/>
      </defs>
      <g transform="translate(50.81875 293.238437)scale(0.1 -0.1)">
       <use xlink:href="#DejaVuSans-48"/>
      </g>
     </g>
    </g>
    <g id="xtick_2">
     <g id="line2d_2">
      <g>
       <use style="stroke:#000000;stroke-width:0.8;" x="100.629526" xlink:href="#m2dae298409" y="278.64"/>
      </g>
     </g>
     <g id="text_2">
      <!-- 50 -->
      <defs>
       <path d="M 10.796875 72.90625 
L 49.515625 72.90625 
L 49.515625 64.59375 
L 19.828125 64.59375 
L 19.828125 46.734375 
Q 21.96875 47.46875 24.109375 47.828125 
Q 26.265625 48.1875 28.421875 48.1875 
Q 40.625 48.1875 47.75 41.5 
Q 54.890625 34.8125 54.890625 23.390625 
Q 54.890625 11.625 47.5625 5.09375 
Q 40.234375 -1.421875 26.90625 -1.421875 
Q 22.3125 -1.421875 17.546875 -0.640625 
Q 12.796875 0.140625 7.71875 1.703125 
L 7.71875 11.625 
Q 12.109375 9.234375 16.796875 8.0625 
Q 21.484375 6.890625 26.703125 6.890625 
Q 35.15625 6.890625 40.078125 11.328125 
Q 45.015625 15.765625 45.015625 23.390625 
Q 45.015625 31 40.078125 35.4375 
Q 35.15625 39.890625 26.703125 39.890625 
Q 22.75 39.890625 18.8125 39.015625 
Q 14.890625 38.140625 10.796875 36.28125 
z
" id="DejaVuSans-53"/>
      </defs>
      <g transform="translate(94.267026 293.238437)scale(0.1 -0.1)">
       <use xlink:href="#DejaVuSans-53"/>
       <use x="63.623047" xlink:href="#DejaVuSans-48"/>
      </g>
     </g>
    </g>
    <g id="xtick_3">
     <g id="line2d_3">
      <g>
       <use style="stroke:#000000;stroke-width:0.8;" x="147.259053" xlink:href="#m2dae298409" y="278.64"/>
      </g>
     </g>
     <g id="text_3">
      <!-- 100 -->
      <defs>
       <path d="M 12.40625 8.296875 
L 28.515625 8.296875 
L 28.515625 63.921875 
L 10.984375 60.40625 
L 10.984375 69.390625 
L 28.421875 72.90625 
L 38.28125 72.90625 
L 38.28125 8.296875 
L 54.390625 8.296875 
L 54.390625 0 
L 12.40625 0 
z
" id="DejaVuSans-49"/>
      </defs>
      <g transform="translate(137.715303 293.238437)scale(0.1 -0.1)">
       <use xlink:href="#DejaVuSans-49"/>
       <use x="63.623047" xlink:href="#DejaVuSans-48"/>
       <use x="127.246094" xlink:href="#DejaVuSans-48"/>
      </g>
     </g>
    </g>
    <g id="xtick_4">
     <g id="line2d_4">
      <g>
       <use style="stroke:#000000;stroke-width:0.8;" x="193.888579" xlink:href="#m2dae298409" y="278.64"/>
      </g>
     </g>
     <g id="text_4">
      <!-- 150 -->
      <g transform="translate(184.344829 293.238437)scale(0.1 -0.1)">
       <use xlink:href="#DejaVuSans-49"/>
       <use x="63.623047" xlink:href="#DejaVuSans-53"/>
       <use x="127.246094" xlink:href="#DejaVuSans-48"/>
      </g>
     </g>
    </g>
    <g id="xtick_5">
     <g id="line2d_5">
      <g>
       <use style="stroke:#000000;stroke-width:0.8;" x="240.518106" xlink:href="#m2dae298409" y="278.64"/>
      </g>
     </g>
     <g id="text_5">
      <!-- 200 -->
      <defs>
       <path d="M 19.1875 8.296875 
L 53.609375 8.296875 
L 53.609375 0 
L 7.328125 0 
L 7.328125 8.296875 
Q 12.9375 14.109375 22.625 23.890625 
Q 32.328125 33.6875 34.8125 36.53125 
Q 39.546875 41.84375 41.421875 45.53125 
Q 43.3125 49.21875 43.3125 52.78125 
Q 43.3125 58.59375 39.234375 62.25 
Q 35.15625 65.921875 28.609375 65.921875 
Q 23.96875 65.921875 18.8125 64.3125 
Q 13.671875 62.703125 7.8125 59.421875 
L 7.8125 69.390625 
Q 13.765625 71.78125 18.9375 73 
Q 24.125 74.21875 28.421875 74.21875 
Q 39.75 74.21875 46.484375 68.546875 
Q 53.21875 62.890625 53.21875 53.421875 
Q 53.21875 48.921875 51.53125 44.890625 
Q 49.859375 40.875 45.40625 35.40625 
Q 44.1875 33.984375 37.640625 27.21875 
Q 31.109375 20.453125 19.1875 8.296875 
z
" id="DejaVuSans-50"/>
      </defs>
      <g transform="translate(230.974356 293.238437)scale(0.1 -0.1)">
       <use xlink:href="#DejaVuSans-50"/>
       <use x="63.623047" xlink:href="#DejaVuSans-48"/>
       <use x="127.246094" xlink:href="#DejaVuSans-48"/>
      </g>
     </g>
    </g>
    <g id="xtick_6">
     <g id="line2d_6">
      <g>
       <use style="stroke:#000000;stroke-width:0.8;" x="287.147632" xlink:href="#m2dae298409" y="278.64"/>
      </g>
     </g>
     <g id="text_6">
      <!-- 250 -->
      <g transform="translate(277.603882 293.238437)scale(0.1 -0.1)">
       <use xlink:href="#DejaVuSans-50"/>
       <use x="63.623047" xlink:href="#DejaVuSans-53"/>
       <use x="127.246094" xlink:href="#DejaVuSans-48"/>
      </g>
     </g>
    </g>
    <g id="xtick_7">
     <g id="line2d_7">
      <g>
       <use style="stroke:#000000;stroke-width:0.8;" x="333.777159" xlink:href="#m2dae298409" y="278.64"/>
      </g>
     </g>
     <g id="text_7">
      <!-- 300 -->
      <defs>
       <path d="M 40.578125 39.3125 
Q 47.65625 37.796875 51.625 33 
Q 55.609375 28.21875 55.609375 21.1875 
Q 55.609375 10.40625 48.1875 4.484375 
Q 40.765625 -1.421875 27.09375 -1.421875 
Q 22.515625 -1.421875 17.65625 -0.515625 
Q 12.796875 0.390625 7.625 2.203125 
L 7.625 11.71875 
Q 11.71875 9.328125 16.59375 8.109375 
Q 21.484375 6.890625 26.8125 6.890625 
Q 36.078125 6.890625 40.9375 10.546875 
Q 45.796875 14.203125 45.796875 21.1875 
Q 45.796875 27.640625 41.28125 31.265625 
Q 36.765625 34.90625 28.71875 34.90625 
L 20.21875 34.90625 
L 20.21875 43.015625 
L 29.109375 43.015625 
Q 36.375 43.015625 40.234375 45.921875 
Q 44.09375 48.828125 44.09375 54.296875 
Q 44.09375 59.90625 40.109375 62.90625 
Q 36.140625 65.921875 28.71875 65.921875 
Q 24.65625 65.921875 20.015625 65.03125 
Q 15.375 64.15625 9.8125 62.3125 
L 9.8125 71.09375 
Q 15.4375 72.65625 20.34375 73.4375 
Q 25.25 74.21875 29.59375 74.21875 
Q 40.828125 74.21875 47.359375 69.109375 
Q 53.90625 64.015625 53.90625 55.328125 
Q 53.90625 49.265625 50.4375 45.09375 
Q 46.96875 40.921875 40.578125 39.3125 
z
" id="DejaVuSans-51"/>
      </defs>
      <g transform="translate(324.233409 293.238437)scale(0.1 -0.1)">
       <use xlink:href="#DejaVuSans-51"/>
       <use x="63.623047" xlink:href="#DejaVuSans-48"/>
       <use x="127.246094" xlink:href="#DejaVuSans-48"/>
      </g>
     </g>
    </g>
    <g id="xtick_8">
     <g id="line2d_8">
      <g>
       <use style="stroke:#000000;stroke-width:0.8;" x="380.406685" xlink:href="#m2dae298409" y="278.64"/>
      </g>
     </g>
     <g id="text_8">
      <!-- 350 -->
      <g transform="translate(370.862935 293.238437)scale(0.1 -0.1)">
       <use xlink:href="#DejaVuSans-51"/>
       <use x="63.623047" xlink:href="#DejaVuSans-53"/>
       <use x="127.246094" xlink:href="#DejaVuSans-48"/>
      </g>
     </g>
    </g>
   </g>
   <g id="matplotlib.axis_2">
    <g id="ytick_1">
     <g id="line2d_9">
      <defs>
       <path d="M 0 0 
L -3.5 0 
" id="mbfdf4b4113" style="stroke:#000000;stroke-width:0.8;"/>
      </defs>
      <g>
       <use style="stroke:#000000;stroke-width:0.8;" x="54" xlink:href="#mbfdf4b4113" y="278.64"/>
      </g>
     </g>
     <g id="text_9">
      <!-- 0 -->
      <g transform="translate(40.6375 282.439219)scale(0.1 -0.1)">
       <use xlink:href="#DejaVuSans-48"/>
      </g>
     </g>
    </g>
    <g id="ytick_2">
     <g id="line2d_10">
      <g>
       <use style="stroke:#000000;stroke-width:0.8;" x="54" xlink:href="#mbfdf4b4113" y="250.428267"/>
      </g>
     </g>
     <g id="text_10">
      <!-- 2000 -->
      <g transform="translate(21.55 254.227486)scale(0.1 -0.1)">
       <use xlink:href="#DejaVuSans-50"/>
       <use x="63.623047" xlink:href="#DejaVuSans-48"/>
       <use x="127.246094" xlink:href="#DejaVuSans-48"/>
       <use x="190.869141" xlink:href="#DejaVuSans-48"/>
      </g>
     </g>
    </g>
    <g id="ytick_3">
     <g id="line2d_11">
      <g>
       <use style="stroke:#000000;stroke-width:0.8;" x="54" xlink:href="#mbfdf4b4113" y="222.216535"/>
      </g>
     </g>
     <g id="text_11">
      <!-- 4000 -->
      <defs>
       <path d="M 37.796875 64.3125 
L 12.890625 25.390625 
L 37.796875 25.390625 
z
M 35.203125 72.90625 
L 47.609375 72.90625 
L 47.609375 25.390625 
L 58.015625 25.390625 
L 58.015625 17.1875 
L 47.609375 17.1875 
L 47.609375 0 
L 37.796875 0 
L 37.796875 17.1875 
L 4.890625 17.1875 
L 4.890625 26.703125 
z
" id="DejaVuSans-52"/>
      </defs>
      <g transform="translate(21.55 226.015754)scale(0.1 -0.1)">
       <use xlink:href="#DejaVuSans-52"/>
       <use x="63.623047" xlink:href="#DejaVuSans-48"/>
       <use x="127.246094" xlink:href="#DejaVuSans-48"/>
       <use x="190.869141" xlink:href="#DejaVuSans-48"/>
      </g>
     </g>
    </g>
    <g id="ytick_4">
     <g id="line2d_12">
      <g>
       <use style="stroke:#000000;stroke-width:0.8;" x="54" xlink:href="#mbfdf4b4113" y="194.004802"/>
      </g>
     </g>
     <g id="text_12">
      <!-- 6000 -->
      <defs>
       <path d="M 33.015625 40.375 
Q 26.375 40.375 22.484375 35.828125 
Q 18.609375 31.296875 18.609375 23.390625 
Q 18.609375 15.53125 22.484375 10.953125 
Q 26.375 6.390625 33.015625 6.390625 
Q 39.65625 6.390625 43.53125 10.953125 
Q 47.40625 15.53125 47.40625 23.390625 
Q 47.40625 31.296875 43.53125 35.828125 
Q 39.65625 40.375 33.015625 40.375 
z
M 52.59375 71.296875 
L 52.59375 62.3125 
Q 48.875 64.0625 45.09375 64.984375 
Q 41.3125 65.921875 37.59375 65.921875 
Q 27.828125 65.921875 22.671875 59.328125 
Q 17.53125 52.734375 16.796875 39.40625 
Q 19.671875 43.65625 24.015625 45.921875 
Q 28.375 48.1875 33.59375 48.1875 
Q 44.578125 48.1875 50.953125 41.515625 
Q 57.328125 34.859375 57.328125 23.390625 
Q 57.328125 12.15625 50.6875 5.359375 
Q 44.046875 -1.421875 33.015625 -1.421875 
Q 20.359375 -1.421875 13.671875 8.265625 
Q 6.984375 17.96875 6.984375 36.375 
Q 6.984375 53.65625 15.1875 63.9375 
Q 23.390625 74.21875 37.203125 74.21875 
Q 40.921875 74.21875 44.703125 73.484375 
Q 48.484375 72.75 52.59375 71.296875 
z
" id="DejaVuSans-54"/>
      </defs>
      <g transform="translate(21.55 197.804021)scale(0.1 -0.1)">
       <use xlink:href="#DejaVuSans-54"/>
       <use x="63.623047" xlink:href="#DejaVuSans-48"/>
       <use x="127.246094" xlink:href="#DejaVuSans-48"/>
       <use x="190.869141" xlink:href="#DejaVuSans-48"/>
      </g>
     </g>
    </g>
    <g id="ytick_5">
     <g id="line2d_13">
      <g>
       <use style="stroke:#000000;stroke-width:0.8;" x="54" xlink:href="#mbfdf4b4113" y="165.79307"/>
      </g>
     </g>
     <g id="text_13">
      <!-- 8000 -->
      <defs>
       <path d="M 31.78125 34.625 
Q 24.75 34.625 20.71875 30.859375 
Q 16.703125 27.09375 16.703125 20.515625 
Q 16.703125 13.921875 20.71875 10.15625 
Q 24.75 6.390625 31.78125 6.390625 
Q 38.8125 6.390625 42.859375 10.171875 
Q 46.921875 13.96875 46.921875 20.515625 
Q 46.921875 27.09375 42.890625 30.859375 
Q 38.875 34.625 31.78125 34.625 
z
M 21.921875 38.8125 
Q 15.578125 40.375 12.03125 44.71875 
Q 8.5 49.078125 8.5 55.328125 
Q 8.5 64.0625 14.71875 69.140625 
Q 20.953125 74.21875 31.78125 74.21875 
Q 42.671875 74.21875 48.875 69.140625 
Q 55.078125 64.0625 55.078125 55.328125 
Q 55.078125 49.078125 51.53125 44.71875 
Q 48 40.375 41.703125 38.8125 
Q 48.828125 37.15625 52.796875 32.3125 
Q 56.78125 27.484375 56.78125 20.515625 
Q 56.78125 9.90625 50.3125 4.234375 
Q 43.84375 -1.421875 31.78125 -1.421875 
Q 19.734375 -1.421875 13.25 4.234375 
Q 6.78125 9.90625 6.78125 20.515625 
Q 6.78125 27.484375 10.78125 32.3125 
Q 14.796875 37.15625 21.921875 38.8125 
z
M 18.3125 54.390625 
Q 18.3125 48.734375 21.84375 45.5625 
Q 25.390625 42.390625 31.78125 42.390625 
Q 38.140625 42.390625 41.71875 45.5625 
Q 45.3125 48.734375 45.3125 54.390625 
Q 45.3125 60.0625 41.71875 63.234375 
Q 38.140625 66.40625 31.78125 66.40625 
Q 25.390625 66.40625 21.84375 63.234375 
Q 18.3125 60.0625 18.3125 54.390625 
z
" id="DejaVuSans-56"/>
      </defs>
      <g transform="translate(21.55 169.592289)scale(0.1 -0.1)">
       <use xlink:href="#DejaVuSans-56"/>
       <use x="63.623047" xlink:href="#DejaVuSans-48"/>
       <use x="127.246094" xlink:href="#DejaVuSans-48"/>
       <use x="190.869141" xlink:href="#DejaVuSans-48"/>
      </g>
     </g>
    </g>
    <g id="ytick_6">
     <g id="line2d_14">
      <g>
       <use style="stroke:#000000;stroke-width:0.8;" x="54" xlink:href="#mbfdf4b4113" y="137.581337"/>
      </g>
     </g>
     <g id="text_14">
      <!-- 10000 -->
      <g transform="translate(15.1875 141.380556)scale(0.1 -0.1)">
       <use xlink:href="#DejaVuSans-49"/>
       <use x="63.623047" xlink:href="#DejaVuSans-48"/>
       <use x="127.246094" xlink:href="#DejaVuSans-48"/>
       <use x="190.869141" xlink:href="#DejaVuSans-48"/>
       <use x="254.492188" xlink:href="#DejaVuSans-48"/>
      </g>
     </g>
    </g>
    <g id="ytick_7">
     <g id="line2d_15">
      <g>
       <use style="stroke:#000000;stroke-width:0.8;" x="54" xlink:href="#mbfdf4b4113" y="109.369605"/>
      </g>
     </g>
     <g id="text_15">
      <!-- 12000 -->
      <g transform="translate(15.1875 113.168823)scale(0.1 -0.1)">
       <use xlink:href="#DejaVuSans-49"/>
       <use x="63.623047" xlink:href="#DejaVuSans-50"/>
       <use x="127.246094" xlink:href="#DejaVuSans-48"/>
       <use x="190.869141" xlink:href="#DejaVuSans-48"/>
       <use x="254.492188" xlink:href="#DejaVuSans-48"/>
      </g>
     </g>
    </g>
    <g id="ytick_8">
     <g id="line2d_16">
      <g>
       <use style="stroke:#000000;stroke-width:0.8;" x="54" xlink:href="#mbfdf4b4113" y="81.157872"/>
      </g>
     </g>
     <g id="text_16">
      <!-- 14000 -->
      <g transform="translate(15.1875 84.957091)scale(0.1 -0.1)">
       <use xlink:href="#DejaVuSans-49"/>
       <use x="63.623047" xlink:href="#DejaVuSans-52"/>
       <use x="127.246094" xlink:href="#DejaVuSans-48"/>
       <use x="190.869141" xlink:href="#DejaVuSans-48"/>
       <use x="254.492188" xlink:href="#DejaVuSans-48"/>
      </g>
     </g>
    </g>
    <g id="ytick_9">
     <g id="line2d_17">
      <g>
       <use style="stroke:#000000;stroke-width:0.8;" x="54" xlink:href="#mbfdf4b4113" y="52.94614"/>
      </g>
     </g>
     <g id="text_17">
      <!-- 16000 -->
      <g transform="translate(15.1875 56.745358)scale(0.1 -0.1)">
       <use xlink:href="#DejaVuSans-49"/>
       <use x="63.623047" xlink:href="#DejaVuSans-54"/>
       <use x="127.246094" xlink:href="#DejaVuSans-48"/>
       <use x="190.869141" xlink:href="#DejaVuSans-48"/>
       <use x="254.492188" xlink:href="#DejaVuSans-48"/>
      </g>
     </g>
    </g>
    <g id="text_18">
     <!-- RUL -->
     <defs>
      <path d="M 44.390625 34.1875 
Q 47.5625 33.109375 50.5625 29.59375 
Q 53.5625 26.078125 56.59375 19.921875 
L 66.609375 0 
L 56 0 
L 46.6875 18.703125 
Q 43.0625 26.03125 39.671875 28.421875 
Q 36.28125 30.8125 30.421875 30.8125 
L 19.671875 30.8125 
L 19.671875 0 
L 9.8125 0 
L 9.8125 72.90625 
L 32.078125 72.90625 
Q 44.578125 72.90625 50.734375 67.671875 
Q 56.890625 62.453125 56.890625 51.90625 
Q 56.890625 45.015625 53.6875 40.46875 
Q 50.484375 35.9375 44.390625 34.1875 
z
M 19.671875 64.796875 
L 19.671875 38.921875 
L 32.078125 38.921875 
Q 39.203125 38.921875 42.84375 42.21875 
Q 46.484375 45.515625 46.484375 51.90625 
Q 46.484375 58.296875 42.84375 61.546875 
Q 39.203125 64.796875 32.078125 64.796875 
z
" id="DejaVuSans-82"/>
      <path d="M 8.6875 72.90625 
L 18.609375 72.90625 
L 18.609375 28.609375 
Q 18.609375 16.890625 22.84375 11.734375 
Q 27.09375 6.59375 36.625 6.59375 
Q 46.09375 6.59375 50.34375 11.734375 
Q 54.59375 16.890625 54.59375 28.609375 
L 54.59375 72.90625 
L 64.5 72.90625 
L 64.5 27.390625 
Q 64.5 13.140625 57.4375 5.859375 
Q 50.390625 -1.421875 36.625 -1.421875 
Q 22.796875 -1.421875 15.734375 5.859375 
Q 8.6875 13.140625 8.6875 27.390625 
z
" id="DejaVuSans-85"/>
      <path d="M 9.8125 72.90625 
L 19.671875 72.90625 
L 19.671875 8.296875 
L 55.171875 8.296875 
L 55.171875 0 
L 9.8125 0 
z
" id="DejaVuSans-76"/>
     </defs>
     <g transform="translate(9.107812 175.159531)rotate(-90)scale(0.1 -0.1)">
      <use xlink:href="#DejaVuSans-82"/>
      <use x="69.482422" xlink:href="#DejaVuSans-85"/>
      <use x="142.675781" xlink:href="#DejaVuSans-76"/>
     </g>
    </g>
   </g>
   <g id="line2d_18">
    <path clip-path="url(#p02dce94267)" d="M 54.932591 278.498941 
L 388.8 227.99994 
L 388.8 227.99994 
" style="fill:none;stroke:#1f77b4;stroke-linecap:square;stroke-width:1.5;"/>
   </g>
   <g id="line2d_19">
    <path clip-path="url(#p02dce94267)" d="M 54.932591 231.935973 
L 55.865181 216.549296 
L 56.797772 190.553452 
L 57.730362 174.068516 
L 58.662953 172.591588 
L 60.528134 154.879207 
L 61.460724 150.660671 
L 62.393315 162.877908 
L 63.325905 167.864111 
L 64.258496 171.234373 
L 65.191086 170.583658 
L 66.123677 178.656566 
L 67.056267 180.873729 
L 67.988858 184.704842 
L 68.921448 187.419615 
L 69.854039 191.791214 
L 71.71922 194.773062 
L 72.651811 193.715281 
L 74.516992 190.406911 
L 75.449582 188.018226 
L 76.382173 186.10073 
L 78.247354 182.875301 
L 79.179944 182.736543 
L 80.112535 179.804025 
L 81.045125 178.213781 
L 81.977716 175.957965 
L 82.910306 178.903508 
L 83.842897 181.417838 
L 84.775487 179.180432 
L 85.708078 176.612786 
L 86.640669 166.200301 
L 87.573259 167.08988 
L 88.50585 165.604528 
L 89.43844 162.152034 
L 90.371031 166.874614 
L 91.303621 165.688337 
L 92.236212 158.628268 
L 93.168802 155.843365 
L 94.101393 147.497871 
L 95.033983 151.319101 
L 95.966574 148.727024 
L 96.899164 153.594099 
L 97.831755 155.502703 
L 98.764345 160.197642 
L 99.696936 162.553597 
L 100.629526 160.186319 
L 101.562117 166.084782 
L 102.494708 167.40543 
L 103.427298 167.702837 
L 104.359889 165.179403 
L 105.292479 156.653612 
L 106.22507 151.846514 
L 107.15766 148.577315 
L 108.090251 140.956965 
L 109.022841 138.236861 
L 109.955432 138.022972 
L 110.888022 139.217204 
L 111.820613 136.155846 
L 112.753203 139.929413 
L 113.685794 144.443414 
L 114.618384 146.564859 
L 115.550975 147.070604 
L 116.483565 147.99115 
L 117.416156 139.672504 
L 118.348747 143.183901 
L 119.281337 137.003066 
L 120.213928 140.06284 
L 121.146518 138.514735 
L 122.079109 134.749957 
L 123.011699 136.986508 
L 123.94429 132.756346 
L 124.87688 129.650851 
L 125.809471 133.896524 
L 126.742061 134.068756 
L 127.674652 131.841186 
L 128.607242 135.996425 
L 129.539833 138.436092 
L 130.472423 143.899429 
L 131.405014 141.208542 
L 132.337604 145.005954 
L 133.270195 147.045657 
L 135.135376 155.469201 
L 136.067967 160.643161 
L 137.000557 162.235554 
L 137.933148 155.210681 
L 138.865738 151.602141 
L 139.798329 150.081077 
L 140.730919 152.634514 
L 141.66351 141.218722 
L 142.5961 136.602977 
L 143.528691 138.930156 
L 144.461281 133.97671 
L 145.393872 143.040735 
L 146.326462 139.105157 
L 147.259053 147.14185 
L 148.191643 149.310117 
L 149.124234 155.339824 
L 150.989415 159.811852 
L 151.922006 160.578955 
L 152.854596 164.368887 
L 153.787187 162.68044 
L 154.719777 166.318424 
L 155.652368 168.17827 
L 156.584958 164.851641 
L 157.517549 164.913919 
L 159.38273 168.428394 
L 160.31532 168.503435 
L 161.247911 174.022266 
L 162.180501 172.705626 
L 164.045682 158.397656 
L 164.978273 158.834814 
L 165.910864 156.609076 
L 166.843454 152.721739 
L 167.776045 147.281476 
L 168.708635 146.964011 
L 169.641226 146.263856 
L 170.573816 153.343141 
L 171.506407 153.451112 
L 172.438997 156.062653 
L 173.371588 151.927692 
L 174.304178 151.087126 
L 175.236769 151.991168 
L 176.169359 148.319745 
L 177.10195 146.820666 
L 178.03454 145.917036 
L 178.967131 146.552599 
L 179.899721 143.359329 
L 180.832312 143.654422 
L 181.764903 142.59016 
L 182.697493 143.97511 
L 183.630084 144.088867 
L 184.562674 148.019279 
L 185.495265 145.762574 
L 186.427855 147.708082 
L 187.360446 144.384759 
L 188.293036 153.34569 
L 189.225627 153.373488 
L 190.158217 154.03105 
L 191.090808 150.210454 
L 192.023398 144.712362 
L 192.955989 141.901438 
L 193.888579 142.685264 
L 194.82117 145.878287 
L 195.75376 140.118038 
L 196.686351 140.657628 
L 197.618942 138.240112 
L 198.551532 133.50864 
L 199.484123 132.791445 
L 200.416713 133.85473 
L 201.349304 137.535672 
L 202.281894 132.719676 
L 203.214485 134.251333 
L 204.147075 131.842178 
L 205.079666 130.769995 
L 206.012256 135.744641 
L 206.944847 133.732103 
L 207.877437 134.817979 
L 208.810028 134.623197 
L 209.742618 136.50166 
L 210.675209 134.502704 
L 211.607799 123.835157 
L 212.54039 117.666416 
L 213.472981 109.791155 
L 214.405571 107.461979 
L 215.338162 109.513997 
L 216.270752 107.419634 
L 217.203343 101.994193 
L 218.135933 105.432043 
L 219.068524 100.922037 
L 220.001114 99.342083 
L 220.933705 96.083477 
L 221.866295 99.891523 
L 222.798886 101.87348 
L 224.664067 110.978707 
L 225.596657 112.988021 
L 226.529248 111.093303 
L 227.461838 110.432545 
L 228.394429 114.008479 
L 229.327019 103.175655 
L 230.25961 100.194675 
L 231.192201 98.431993 
L 232.124791 102.022473 
L 233.057382 109.08436 
L 233.989972 109.47938 
L 234.922563 109.151473 
L 235.855153 111.25165 
L 236.787744 110.383698 
L 237.720334 112.70494 
L 238.652925 107.514986 
L 239.585515 104.825918 
L 241.450696 109.641322 
L 242.383287 109.647837 
L 243.315877 113.605194 
L 245.181058 115.093776 
L 246.113649 118.447749 
L 247.04624 112.195103 
L 247.97883 110.041713 
L 248.911421 114.31192 
L 249.844011 110.86203 
L 250.776602 106.439442 
L 251.709192 109.518295 
L 252.641783 108.987327 
L 253.574373 102.700808 
L 254.506964 100.219829 
L 255.439554 98.713243 
L 256.372145 96.506446 
L 257.304735 99.392694 
L 258.237326 100.28387 
L 259.169916 97.368956 
L 260.102507 93.306288 
L 261.035097 85.328181 
L 261.967688 90.150996 
L 262.900279 91.936173 
L 263.832869 91.220245 
L 264.76546 94.660644 
L 265.69805 100.512815 
L 266.630641 99.367719 
L 267.563231 96.954817 
L 268.495822 98.008652 
L 269.428412 93.680396 
L 270.361003 100.088647 
L 271.293593 96.079096 
L 272.226184 93.237026 
L 273.158774 94.406132 
L 274.091365 93.190851 
L 275.023955 96.832437 
L 275.956546 95.971869 
L 276.889136 94.076945 
L 277.821727 96.103409 
L 278.754318 99.046549 
L 279.686908 92.399462 
L 280.619499 94.479141 
L 281.552089 98.25016 
L 282.48468 99.020073 
L 283.41727 98.081454 
L 284.349861 98.126733 
L 285.282451 98.308154 
L 286.215042 95.540208 
L 287.147632 102.103045 
L 288.080223 103.530754 
L 289.012813 105.436603 
L 290.877994 106.982462 
L 291.810585 109.521477 
L 293.675766 98.925836 
L 294.608357 101.198906 
L 295.540947 104.45922 
L 296.473538 102.182266 
L 297.406128 107.215416 
L 298.338719 109.920464 
L 299.271309 117.476758 
L 300.2039 121.304793 
L 301.13649 122.151407 
L 302.069081 120.36353 
L 303.001671 122.264515 
L 303.934262 117.030936 
L 304.866852 117.173413 
L 305.799443 119.819434 
L 307.664624 113.29751 
L 308.597214 111.938098 
L 309.529805 111.260108 
L 310.462396 105.512284 
L 311.394986 109.07334 
L 312.327577 103.728649 
L 313.260167 101.002002 
L 314.192758 101.511246 
L 315.125348 91.922659 
L 316.057939 92.366181 
L 316.990529 94.238046 
L 317.92312 93.759163 
L 318.85571 98.676435 
L 319.788301 98.062472 
L 320.720891 96.520621 
L 321.653482 99.701314 
L 322.586072 100.611928 
L 323.518663 104.916779 
L 324.451253 97.315715 
L 325.383844 96.586122 
L 326.316435 93.878457 
L 327.249025 94.033704 
L 328.181616 93.300709 
L 329.114206 95.198292 
L 330.046797 83.074341 
L 330.979387 80.330337 
L 331.911978 82.379614 
L 332.844568 74.71539 
L 333.777159 72.257608 
L 334.709749 75.566549 
L 335.64234 75.537222 
L 336.57493 76.283923 
L 337.507521 76.0251 
L 338.440111 75.071039 
L 339.372702 73.386311 
L 340.305292 75.179781 
L 341.237883 77.33262 
L 342.170474 83.526335 
L 343.103064 87.952767 
L 344.035655 84.119856 
L 344.968245 79.757562 
L 345.900836 80.960831 
L 346.833426 76.818982 
L 347.766017 78.630553 
L 348.698607 75.113812 
L 349.631198 74.319682 
L 350.563788 73.947254 
L 351.496379 78.888274 
L 352.428969 82.165216 
L 353.36156 79.412023 
L 354.29415 83.269482 
L 356.159331 91.903222 
L 357.091922 94.082317 
L 358.024513 86.231989 
L 358.957103 86.241067 
L 359.889694 85.732801 
L 360.822284 76.518172 
L 361.754875 70.415167 
L 362.687465 67.384747 
L 363.620056 68.865243 
L 364.552646 67.093772 
L 365.485237 67.53414 
L 367.350418 60.711708 
L 368.283008 60.861032 
L 369.215599 58.463834 
L 370.148189 51.84 
L 371.08078 53.515733 
L 372.01337 58.405248 
L 372.945961 61.779938 
L 373.878552 64.500249 
L 374.811142 67.670791 
L 375.743733 71.563431 
L 376.676323 76.402983 
L 377.608914 84.80377 
L 378.541504 85.264429 
L 379.474095 76.684949 
L 380.406685 75.353308 
L 381.339276 72.763187 
L 382.271866 73.541352 
L 383.204457 71.468354 
L 384.137047 73.101838 
L 385.069638 81.344734 
L 386.002228 81.847655 
L 386.934819 90.127729 
L 387.867409 89.724817 
L 388.8 87.344824 
L 388.8 87.344824 
" style="fill:none;stroke:#ff0000;stroke-linecap:square;stroke-width:0.5;"/>
    <defs>
     <path d="M 0 1 
C 0.265203 1 0.51958 0.894634 0.707107 0.707107 
C 0.894634 0.51958 1 0.265203 1 0 
C 1 -0.265203 0.894634 -0.51958 0.707107 -0.707107 
C 0.51958 -0.894634 0.265203 -1 0 -1 
C -0.265203 -1 -0.51958 -0.894634 -0.707107 -0.707107 
C -0.894634 -0.51958 -1 -0.265203 -1 0 
C -1 0.265203 -0.894634 0.51958 -0.707107 0.707107 
C -0.51958 0.894634 -0.265203 1 0 1 
z
" id="md712772716" style="stroke:#ff0000;"/>
    </defs>
    <g clip-path="url(#p02dce94267)">
     <use style="fill:#ff0000;stroke:#ff0000;" x="54.932591" xlink:href="#md712772716" y="231.935973"/>
     <use style="fill:#ff0000;stroke:#ff0000;" x="55.865181" xlink:href="#md712772716" y="216.549296"/>
     <use style="fill:#ff0000;stroke:#ff0000;" x="56.797772" xlink:href="#md712772716" y="190.553452"/>
     <use style="fill:#ff0000;stroke:#ff0000;" x="57.730362" xlink:href="#md712772716" y="174.068516"/>
     <use style="fill:#ff0000;stroke:#ff0000;" x="58.662953" xlink:href="#md712772716" y="172.591588"/>
     <use style="fill:#ff0000;stroke:#ff0000;" x="59.595543" xlink:href="#md712772716" y="163.67626"/>
     <use style="fill:#ff0000;stroke:#ff0000;" x="60.528134" xlink:href="#md712772716" y="154.879207"/>
     <use style="fill:#ff0000;stroke:#ff0000;" x="61.460724" xlink:href="#md712772716" y="150.660671"/>
     <use style="fill:#ff0000;stroke:#ff0000;" x="62.393315" xlink:href="#md712772716" y="162.877908"/>
     <use style="fill:#ff0000;stroke:#ff0000;" x="63.325905" xlink:href="#md712772716" y="167.864111"/>
     <use style="fill:#ff0000;stroke:#ff0000;" x="64.258496" xlink:href="#md712772716" y="171.234373"/>
     <use style="fill:#ff0000;stroke:#ff0000;" x="65.191086" xlink:href="#md712772716" y="170.583658"/>
     <use style="fill:#ff0000;stroke:#ff0000;" x="66.123677" xlink:href="#md712772716" y="178.656566"/>
     <use style="fill:#ff0000;stroke:#ff0000;" x="67.056267" xlink:href="#md712772716" y="180.873729"/>
     <use style="fill:#ff0000;stroke:#ff0000;" x="67.988858" xlink:href="#md712772716" y="184.704842"/>
     <use style="fill:#ff0000;stroke:#ff0000;" x="68.921448" xlink:href="#md712772716" y="187.419615"/>
     <use style="fill:#ff0000;stroke:#ff0000;" x="69.854039" xlink:href="#md712772716" y="191.791214"/>
     <use style="fill:#ff0000;stroke:#ff0000;" x="70.78663" xlink:href="#md712772716" y="193.215473"/>
     <use style="fill:#ff0000;stroke:#ff0000;" x="71.71922" xlink:href="#md712772716" y="194.773062"/>
     <use style="fill:#ff0000;stroke:#ff0000;" x="72.651811" xlink:href="#md712772716" y="193.715281"/>
     <use style="fill:#ff0000;stroke:#ff0000;" x="73.584401" xlink:href="#md712772716" y="191.96386"/>
     <use style="fill:#ff0000;stroke:#ff0000;" x="74.516992" xlink:href="#md712772716" y="190.406911"/>
     <use style="fill:#ff0000;stroke:#ff0000;" x="75.449582" xlink:href="#md712772716" y="188.018226"/>
     <use style="fill:#ff0000;stroke:#ff0000;" x="76.382173" xlink:href="#md712772716" y="186.10073"/>
     <use style="fill:#ff0000;stroke:#ff0000;" x="77.314763" xlink:href="#md712772716" y="184.490444"/>
     <use style="fill:#ff0000;stroke:#ff0000;" x="78.247354" xlink:href="#md712772716" y="182.875301"/>
     <use style="fill:#ff0000;stroke:#ff0000;" x="79.179944" xlink:href="#md712772716" y="182.736543"/>
     <use style="fill:#ff0000;stroke:#ff0000;" x="80.112535" xlink:href="#md712772716" y="179.804025"/>
     <use style="fill:#ff0000;stroke:#ff0000;" x="81.045125" xlink:href="#md712772716" y="178.213781"/>
     <use style="fill:#ff0000;stroke:#ff0000;" x="81.977716" xlink:href="#md712772716" y="175.957965"/>
     <use style="fill:#ff0000;stroke:#ff0000;" x="82.910306" xlink:href="#md712772716" y="178.903508"/>
     <use style="fill:#ff0000;stroke:#ff0000;" x="83.842897" xlink:href="#md712772716" y="181.417838"/>
     <use style="fill:#ff0000;stroke:#ff0000;" x="84.775487" xlink:href="#md712772716" y="179.180432"/>
     <use style="fill:#ff0000;stroke:#ff0000;" x="85.708078" xlink:href="#md712772716" y="176.612786"/>
     <use style="fill:#ff0000;stroke:#ff0000;" x="86.640669" xlink:href="#md712772716" y="166.200301"/>
     <use style="fill:#ff0000;stroke:#ff0000;" x="87.573259" xlink:href="#md712772716" y="167.08988"/>
     <use style="fill:#ff0000;stroke:#ff0000;" x="88.50585" xlink:href="#md712772716" y="165.604528"/>
     <use style="fill:#ff0000;stroke:#ff0000;" x="89.43844" xlink:href="#md712772716" y="162.152034"/>
     <use style="fill:#ff0000;stroke:#ff0000;" x="90.371031" xlink:href="#md712772716" y="166.874614"/>
     <use style="fill:#ff0000;stroke:#ff0000;" x="91.303621" xlink:href="#md712772716" y="165.688337"/>
     <use style="fill:#ff0000;stroke:#ff0000;" x="92.236212" xlink:href="#md712772716" y="158.628268"/>
     <use style="fill:#ff0000;stroke:#ff0000;" x="93.168802" xlink:href="#md712772716" y="155.843365"/>
     <use style="fill:#ff0000;stroke:#ff0000;" x="94.101393" xlink:href="#md712772716" y="147.497871"/>
     <use style="fill:#ff0000;stroke:#ff0000;" x="95.033983" xlink:href="#md712772716" y="151.319101"/>
     <use style="fill:#ff0000;stroke:#ff0000;" x="95.966574" xlink:href="#md712772716" y="148.727024"/>
     <use style="fill:#ff0000;stroke:#ff0000;" x="96.899164" xlink:href="#md712772716" y="153.594099"/>
     <use style="fill:#ff0000;stroke:#ff0000;" x="97.831755" xlink:href="#md712772716" y="155.502703"/>
     <use style="fill:#ff0000;stroke:#ff0000;" x="98.764345" xlink:href="#md712772716" y="160.197642"/>
     <use style="fill:#ff0000;stroke:#ff0000;" x="99.696936" xlink:href="#md712772716" y="162.553597"/>
     <use style="fill:#ff0000;stroke:#ff0000;" x="100.629526" xlink:href="#md712772716" y="160.186319"/>
     <use style="fill:#ff0000;stroke:#ff0000;" x="101.562117" xlink:href="#md712772716" y="166.084782"/>
     <use style="fill:#ff0000;stroke:#ff0000;" x="102.494708" xlink:href="#md712772716" y="167.40543"/>
     <use style="fill:#ff0000;stroke:#ff0000;" x="103.427298" xlink:href="#md712772716" y="167.702837"/>
     <use style="fill:#ff0000;stroke:#ff0000;" x="104.359889" xlink:href="#md712772716" y="165.179403"/>
     <use style="fill:#ff0000;stroke:#ff0000;" x="105.292479" xlink:href="#md712772716" y="156.653612"/>
     <use style="fill:#ff0000;stroke:#ff0000;" x="106.22507" xlink:href="#md712772716" y="151.846514"/>
     <use style="fill:#ff0000;stroke:#ff0000;" x="107.15766" xlink:href="#md712772716" y="148.577315"/>
     <use style="fill:#ff0000;stroke:#ff0000;" x="108.090251" xlink:href="#md712772716" y="140.956965"/>
     <use style="fill:#ff0000;stroke:#ff0000;" x="109.022841" xlink:href="#md712772716" y="138.236861"/>
     <use style="fill:#ff0000;stroke:#ff0000;" x="109.955432" xlink:href="#md712772716" y="138.022972"/>
     <use style="fill:#ff0000;stroke:#ff0000;" x="110.888022" xlink:href="#md712772716" y="139.217204"/>
     <use style="fill:#ff0000;stroke:#ff0000;" x="111.820613" xlink:href="#md712772716" y="136.155846"/>
     <use style="fill:#ff0000;stroke:#ff0000;" x="112.753203" xlink:href="#md712772716" y="139.929413"/>
     <use style="fill:#ff0000;stroke:#ff0000;" x="113.685794" xlink:href="#md712772716" y="144.443414"/>
     <use style="fill:#ff0000;stroke:#ff0000;" x="114.618384" xlink:href="#md712772716" y="146.564859"/>
     <use style="fill:#ff0000;stroke:#ff0000;" x="115.550975" xlink:href="#md712772716" y="147.070604"/>
     <use style="fill:#ff0000;stroke:#ff0000;" x="116.483565" xlink:href="#md712772716" y="147.99115"/>
     <use style="fill:#ff0000;stroke:#ff0000;" x="117.416156" xlink:href="#md712772716" y="139.672504"/>
     <use style="fill:#ff0000;stroke:#ff0000;" x="118.348747" xlink:href="#md712772716" y="143.183901"/>
     <use style="fill:#ff0000;stroke:#ff0000;" x="119.281337" xlink:href="#md712772716" y="137.003066"/>
     <use style="fill:#ff0000;stroke:#ff0000;" x="120.213928" xlink:href="#md712772716" y="140.06284"/>
     <use style="fill:#ff0000;stroke:#ff0000;" x="121.146518" xlink:href="#md712772716" y="138.514735"/>
     <use style="fill:#ff0000;stroke:#ff0000;" x="122.079109" xlink:href="#md712772716" y="134.749957"/>
     <use style="fill:#ff0000;stroke:#ff0000;" x="123.011699" xlink:href="#md712772716" y="136.986508"/>
     <use style="fill:#ff0000;stroke:#ff0000;" x="123.94429" xlink:href="#md712772716" y="132.756346"/>
     <use style="fill:#ff0000;stroke:#ff0000;" x="124.87688" xlink:href="#md712772716" y="129.650851"/>
     <use style="fill:#ff0000;stroke:#ff0000;" x="125.809471" xlink:href="#md712772716" y="133.896524"/>
     <use style="fill:#ff0000;stroke:#ff0000;" x="126.742061" xlink:href="#md712772716" y="134.068756"/>
     <use style="fill:#ff0000;stroke:#ff0000;" x="127.674652" xlink:href="#md712772716" y="131.841186"/>
     <use style="fill:#ff0000;stroke:#ff0000;" x="128.607242" xlink:href="#md712772716" y="135.996425"/>
     <use style="fill:#ff0000;stroke:#ff0000;" x="129.539833" xlink:href="#md712772716" y="138.436092"/>
     <use style="fill:#ff0000;stroke:#ff0000;" x="130.472423" xlink:href="#md712772716" y="143.899429"/>
     <use style="fill:#ff0000;stroke:#ff0000;" x="131.405014" xlink:href="#md712772716" y="141.208542"/>
     <use style="fill:#ff0000;stroke:#ff0000;" x="132.337604" xlink:href="#md712772716" y="145.005954"/>
     <use style="fill:#ff0000;stroke:#ff0000;" x="133.270195" xlink:href="#md712772716" y="147.045657"/>
     <use style="fill:#ff0000;stroke:#ff0000;" x="134.202786" xlink:href="#md712772716" y="151.254454"/>
     <use style="fill:#ff0000;stroke:#ff0000;" x="135.135376" xlink:href="#md712772716" y="155.469201"/>
     <use style="fill:#ff0000;stroke:#ff0000;" x="136.067967" xlink:href="#md712772716" y="160.643161"/>
     <use style="fill:#ff0000;stroke:#ff0000;" x="137.000557" xlink:href="#md712772716" y="162.235554"/>
     <use style="fill:#ff0000;stroke:#ff0000;" x="137.933148" xlink:href="#md712772716" y="155.210681"/>
     <use style="fill:#ff0000;stroke:#ff0000;" x="138.865738" xlink:href="#md712772716" y="151.602141"/>
     <use style="fill:#ff0000;stroke:#ff0000;" x="139.798329" xlink:href="#md712772716" y="150.081077"/>
     <use style="fill:#ff0000;stroke:#ff0000;" x="140.730919" xlink:href="#md712772716" y="152.634514"/>
     <use style="fill:#ff0000;stroke:#ff0000;" x="141.66351" xlink:href="#md712772716" y="141.218722"/>
     <use style="fill:#ff0000;stroke:#ff0000;" x="142.5961" xlink:href="#md712772716" y="136.602977"/>
     <use style="fill:#ff0000;stroke:#ff0000;" x="143.528691" xlink:href="#md712772716" y="138.930156"/>
     <use style="fill:#ff0000;stroke:#ff0000;" x="144.461281" xlink:href="#md712772716" y="133.97671"/>
     <use style="fill:#ff0000;stroke:#ff0000;" x="145.393872" xlink:href="#md712772716" y="143.040735"/>
     <use style="fill:#ff0000;stroke:#ff0000;" x="146.326462" xlink:href="#md712772716" y="139.105157"/>
     <use style="fill:#ff0000;stroke:#ff0000;" x="147.259053" xlink:href="#md712772716" y="147.14185"/>
     <use style="fill:#ff0000;stroke:#ff0000;" x="148.191643" xlink:href="#md712772716" y="149.310117"/>
     <use style="fill:#ff0000;stroke:#ff0000;" x="149.124234" xlink:href="#md712772716" y="155.339824"/>
     <use style="fill:#ff0000;stroke:#ff0000;" x="150.056825" xlink:href="#md712772716" y="157.541744"/>
     <use style="fill:#ff0000;stroke:#ff0000;" x="150.989415" xlink:href="#md712772716" y="159.811852"/>
     <use style="fill:#ff0000;stroke:#ff0000;" x="151.922006" xlink:href="#md712772716" y="160.578955"/>
     <use style="fill:#ff0000;stroke:#ff0000;" x="152.854596" xlink:href="#md712772716" y="164.368887"/>
     <use style="fill:#ff0000;stroke:#ff0000;" x="153.787187" xlink:href="#md712772716" y="162.68044"/>
     <use style="fill:#ff0000;stroke:#ff0000;" x="154.719777" xlink:href="#md712772716" y="166.318424"/>
     <use style="fill:#ff0000;stroke:#ff0000;" x="155.652368" xlink:href="#md712772716" y="168.17827"/>
     <use style="fill:#ff0000;stroke:#ff0000;" x="156.584958" xlink:href="#md712772716" y="164.851641"/>
     <use style="fill:#ff0000;stroke:#ff0000;" x="157.517549" xlink:href="#md712772716" y="164.913919"/>
     <use style="fill:#ff0000;stroke:#ff0000;" x="158.450139" xlink:href="#md712772716" y="166.593605"/>
     <use style="fill:#ff0000;stroke:#ff0000;" x="159.38273" xlink:href="#md712772716" y="168.428394"/>
     <use style="fill:#ff0000;stroke:#ff0000;" x="160.31532" xlink:href="#md712772716" y="168.503435"/>
     <use style="fill:#ff0000;stroke:#ff0000;" x="161.247911" xlink:href="#md712772716" y="174.022266"/>
     <use style="fill:#ff0000;stroke:#ff0000;" x="162.180501" xlink:href="#md712772716" y="172.705626"/>
     <use style="fill:#ff0000;stroke:#ff0000;" x="163.113092" xlink:href="#md712772716" y="165.386417"/>
     <use style="fill:#ff0000;stroke:#ff0000;" x="164.045682" xlink:href="#md712772716" y="158.397656"/>
     <use style="fill:#ff0000;stroke:#ff0000;" x="164.978273" xlink:href="#md712772716" y="158.834814"/>
     <use style="fill:#ff0000;stroke:#ff0000;" x="165.910864" xlink:href="#md712772716" y="156.609076"/>
     <use style="fill:#ff0000;stroke:#ff0000;" x="166.843454" xlink:href="#md712772716" y="152.721739"/>
     <use style="fill:#ff0000;stroke:#ff0000;" x="167.776045" xlink:href="#md712772716" y="147.281476"/>
     <use style="fill:#ff0000;stroke:#ff0000;" x="168.708635" xlink:href="#md712772716" y="146.964011"/>
     <use style="fill:#ff0000;stroke:#ff0000;" x="169.641226" xlink:href="#md712772716" y="146.263856"/>
     <use style="fill:#ff0000;stroke:#ff0000;" x="170.573816" xlink:href="#md712772716" y="153.343141"/>
     <use style="fill:#ff0000;stroke:#ff0000;" x="171.506407" xlink:href="#md712772716" y="153.451112"/>
     <use style="fill:#ff0000;stroke:#ff0000;" x="172.438997" xlink:href="#md712772716" y="156.062653"/>
     <use style="fill:#ff0000;stroke:#ff0000;" x="173.371588" xlink:href="#md712772716" y="151.927692"/>
     <use style="fill:#ff0000;stroke:#ff0000;" x="174.304178" xlink:href="#md712772716" y="151.087126"/>
     <use style="fill:#ff0000;stroke:#ff0000;" x="175.236769" xlink:href="#md712772716" y="151.991168"/>
     <use style="fill:#ff0000;stroke:#ff0000;" x="176.169359" xlink:href="#md712772716" y="148.319745"/>
     <use style="fill:#ff0000;stroke:#ff0000;" x="177.10195" xlink:href="#md712772716" y="146.820666"/>
     <use style="fill:#ff0000;stroke:#ff0000;" x="178.03454" xlink:href="#md712772716" y="145.917036"/>
     <use style="fill:#ff0000;stroke:#ff0000;" x="178.967131" xlink:href="#md712772716" y="146.552599"/>
     <use style="fill:#ff0000;stroke:#ff0000;" x="179.899721" xlink:href="#md712772716" y="143.359329"/>
     <use style="fill:#ff0000;stroke:#ff0000;" x="180.832312" xlink:href="#md712772716" y="143.654422"/>
     <use style="fill:#ff0000;stroke:#ff0000;" x="181.764903" xlink:href="#md712772716" y="142.59016"/>
     <use style="fill:#ff0000;stroke:#ff0000;" x="182.697493" xlink:href="#md712772716" y="143.97511"/>
     <use style="fill:#ff0000;stroke:#ff0000;" x="183.630084" xlink:href="#md712772716" y="144.088867"/>
     <use style="fill:#ff0000;stroke:#ff0000;" x="184.562674" xlink:href="#md712772716" y="148.019279"/>
     <use style="fill:#ff0000;stroke:#ff0000;" x="185.495265" xlink:href="#md712772716" y="145.762574"/>
     <use style="fill:#ff0000;stroke:#ff0000;" x="186.427855" xlink:href="#md712772716" y="147.708082"/>
     <use style="fill:#ff0000;stroke:#ff0000;" x="187.360446" xlink:href="#md712772716" y="144.384759"/>
     <use style="fill:#ff0000;stroke:#ff0000;" x="188.293036" xlink:href="#md712772716" y="153.34569"/>
     <use style="fill:#ff0000;stroke:#ff0000;" x="189.225627" xlink:href="#md712772716" y="153.373488"/>
     <use style="fill:#ff0000;stroke:#ff0000;" x="190.158217" xlink:href="#md712772716" y="154.03105"/>
     <use style="fill:#ff0000;stroke:#ff0000;" x="191.090808" xlink:href="#md712772716" y="150.210454"/>
     <use style="fill:#ff0000;stroke:#ff0000;" x="192.023398" xlink:href="#md712772716" y="144.712362"/>
     <use style="fill:#ff0000;stroke:#ff0000;" x="192.955989" xlink:href="#md712772716" y="141.901438"/>
     <use style="fill:#ff0000;stroke:#ff0000;" x="193.888579" xlink:href="#md712772716" y="142.685264"/>
     <use style="fill:#ff0000;stroke:#ff0000;" x="194.82117" xlink:href="#md712772716" y="145.878287"/>
     <use style="fill:#ff0000;stroke:#ff0000;" x="195.75376" xlink:href="#md712772716" y="140.118038"/>
     <use style="fill:#ff0000;stroke:#ff0000;" x="196.686351" xlink:href="#md712772716" y="140.657628"/>
     <use style="fill:#ff0000;stroke:#ff0000;" x="197.618942" xlink:href="#md712772716" y="138.240112"/>
     <use style="fill:#ff0000;stroke:#ff0000;" x="198.551532" xlink:href="#md712772716" y="133.50864"/>
     <use style="fill:#ff0000;stroke:#ff0000;" x="199.484123" xlink:href="#md712772716" y="132.791445"/>
     <use style="fill:#ff0000;stroke:#ff0000;" x="200.416713" xlink:href="#md712772716" y="133.85473"/>
     <use style="fill:#ff0000;stroke:#ff0000;" x="201.349304" xlink:href="#md712772716" y="137.535672"/>
     <use style="fill:#ff0000;stroke:#ff0000;" x="202.281894" xlink:href="#md712772716" y="132.719676"/>
     <use style="fill:#ff0000;stroke:#ff0000;" x="203.214485" xlink:href="#md712772716" y="134.251333"/>
     <use style="fill:#ff0000;stroke:#ff0000;" x="204.147075" xlink:href="#md712772716" y="131.842178"/>
     <use style="fill:#ff0000;stroke:#ff0000;" x="205.079666" xlink:href="#md712772716" y="130.769995"/>
     <use style="fill:#ff0000;stroke:#ff0000;" x="206.012256" xlink:href="#md712772716" y="135.744641"/>
     <use style="fill:#ff0000;stroke:#ff0000;" x="206.944847" xlink:href="#md712772716" y="133.732103"/>
     <use style="fill:#ff0000;stroke:#ff0000;" x="207.877437" xlink:href="#md712772716" y="134.817979"/>
     <use style="fill:#ff0000;stroke:#ff0000;" x="208.810028" xlink:href="#md712772716" y="134.623197"/>
     <use style="fill:#ff0000;stroke:#ff0000;" x="209.742618" xlink:href="#md712772716" y="136.50166"/>
     <use style="fill:#ff0000;stroke:#ff0000;" x="210.675209" xlink:href="#md712772716" y="134.502704"/>
     <use style="fill:#ff0000;stroke:#ff0000;" x="211.607799" xlink:href="#md712772716" y="123.835157"/>
     <use style="fill:#ff0000;stroke:#ff0000;" x="212.54039" xlink:href="#md712772716" y="117.666416"/>
     <use style="fill:#ff0000;stroke:#ff0000;" x="213.472981" xlink:href="#md712772716" y="109.791155"/>
     <use style="fill:#ff0000;stroke:#ff0000;" x="214.405571" xlink:href="#md712772716" y="107.461979"/>
     <use style="fill:#ff0000;stroke:#ff0000;" x="215.338162" xlink:href="#md712772716" y="109.513997"/>
     <use style="fill:#ff0000;stroke:#ff0000;" x="216.270752" xlink:href="#md712772716" y="107.419634"/>
     <use style="fill:#ff0000;stroke:#ff0000;" x="217.203343" xlink:href="#md712772716" y="101.994193"/>
     <use style="fill:#ff0000;stroke:#ff0000;" x="218.135933" xlink:href="#md712772716" y="105.432043"/>
     <use style="fill:#ff0000;stroke:#ff0000;" x="219.068524" xlink:href="#md712772716" y="100.922037"/>
     <use style="fill:#ff0000;stroke:#ff0000;" x="220.001114" xlink:href="#md712772716" y="99.342083"/>
     <use style="fill:#ff0000;stroke:#ff0000;" x="220.933705" xlink:href="#md712772716" y="96.083477"/>
     <use style="fill:#ff0000;stroke:#ff0000;" x="221.866295" xlink:href="#md712772716" y="99.891523"/>
     <use style="fill:#ff0000;stroke:#ff0000;" x="222.798886" xlink:href="#md712772716" y="101.87348"/>
     <use style="fill:#ff0000;stroke:#ff0000;" x="223.731476" xlink:href="#md712772716" y="106.580748"/>
     <use style="fill:#ff0000;stroke:#ff0000;" x="224.664067" xlink:href="#md712772716" y="110.978707"/>
     <use style="fill:#ff0000;stroke:#ff0000;" x="225.596657" xlink:href="#md712772716" y="112.988021"/>
     <use style="fill:#ff0000;stroke:#ff0000;" x="226.529248" xlink:href="#md712772716" y="111.093303"/>
     <use style="fill:#ff0000;stroke:#ff0000;" x="227.461838" xlink:href="#md712772716" y="110.432545"/>
     <use style="fill:#ff0000;stroke:#ff0000;" x="228.394429" xlink:href="#md712772716" y="114.008479"/>
     <use style="fill:#ff0000;stroke:#ff0000;" x="229.327019" xlink:href="#md712772716" y="103.175655"/>
     <use style="fill:#ff0000;stroke:#ff0000;" x="230.25961" xlink:href="#md712772716" y="100.194675"/>
     <use style="fill:#ff0000;stroke:#ff0000;" x="231.192201" xlink:href="#md712772716" y="98.431993"/>
     <use style="fill:#ff0000;stroke:#ff0000;" x="232.124791" xlink:href="#md712772716" y="102.022473"/>
     <use style="fill:#ff0000;stroke:#ff0000;" x="233.057382" xlink:href="#md712772716" y="109.08436"/>
     <use style="fill:#ff0000;stroke:#ff0000;" x="233.989972" xlink:href="#md712772716" y="109.47938"/>
     <use style="fill:#ff0000;stroke:#ff0000;" x="234.922563" xlink:href="#md712772716" y="109.151473"/>
     <use style="fill:#ff0000;stroke:#ff0000;" x="235.855153" xlink:href="#md712772716" y="111.25165"/>
     <use style="fill:#ff0000;stroke:#ff0000;" x="236.787744" xlink:href="#md712772716" y="110.383698"/>
     <use style="fill:#ff0000;stroke:#ff0000;" x="237.720334" xlink:href="#md712772716" y="112.70494"/>
     <use style="fill:#ff0000;stroke:#ff0000;" x="238.652925" xlink:href="#md712772716" y="107.514986"/>
     <use style="fill:#ff0000;stroke:#ff0000;" x="239.585515" xlink:href="#md712772716" y="104.825918"/>
     <use style="fill:#ff0000;stroke:#ff0000;" x="240.518106" xlink:href="#md712772716" y="107.322904"/>
     <use style="fill:#ff0000;stroke:#ff0000;" x="241.450696" xlink:href="#md712772716" y="109.641322"/>
     <use style="fill:#ff0000;stroke:#ff0000;" x="242.383287" xlink:href="#md712772716" y="109.647837"/>
     <use style="fill:#ff0000;stroke:#ff0000;" x="243.315877" xlink:href="#md712772716" y="113.605194"/>
     <use style="fill:#ff0000;stroke:#ff0000;" x="244.248468" xlink:href="#md712772716" y="114.390742"/>
     <use style="fill:#ff0000;stroke:#ff0000;" x="245.181058" xlink:href="#md712772716" y="115.093776"/>
     <use style="fill:#ff0000;stroke:#ff0000;" x="246.113649" xlink:href="#md712772716" y="118.447749"/>
     <use style="fill:#ff0000;stroke:#ff0000;" x="247.04624" xlink:href="#md712772716" y="112.195103"/>
     <use style="fill:#ff0000;stroke:#ff0000;" x="247.97883" xlink:href="#md712772716" y="110.041713"/>
     <use style="fill:#ff0000;stroke:#ff0000;" x="248.911421" xlink:href="#md712772716" y="114.31192"/>
     <use style="fill:#ff0000;stroke:#ff0000;" x="249.844011" xlink:href="#md712772716" y="110.86203"/>
     <use style="fill:#ff0000;stroke:#ff0000;" x="250.776602" xlink:href="#md712772716" y="106.439442"/>
     <use style="fill:#ff0000;stroke:#ff0000;" x="251.709192" xlink:href="#md712772716" y="109.518295"/>
     <use style="fill:#ff0000;stroke:#ff0000;" x="252.641783" xlink:href="#md712772716" y="108.987327"/>
     <use style="fill:#ff0000;stroke:#ff0000;" x="253.574373" xlink:href="#md712772716" y="102.700808"/>
     <use style="fill:#ff0000;stroke:#ff0000;" x="254.506964" xlink:href="#md712772716" y="100.219829"/>
     <use style="fill:#ff0000;stroke:#ff0000;" x="255.439554" xlink:href="#md712772716" y="98.713243"/>
     <use style="fill:#ff0000;stroke:#ff0000;" x="256.372145" xlink:href="#md712772716" y="96.506446"/>
     <use style="fill:#ff0000;stroke:#ff0000;" x="257.304735" xlink:href="#md712772716" y="99.392694"/>
     <use style="fill:#ff0000;stroke:#ff0000;" x="258.237326" xlink:href="#md712772716" y="100.28387"/>
     <use style="fill:#ff0000;stroke:#ff0000;" x="259.169916" xlink:href="#md712772716" y="97.368956"/>
     <use style="fill:#ff0000;stroke:#ff0000;" x="260.102507" xlink:href="#md712772716" y="93.306288"/>
     <use style="fill:#ff0000;stroke:#ff0000;" x="261.035097" xlink:href="#md712772716" y="85.328181"/>
     <use style="fill:#ff0000;stroke:#ff0000;" x="261.967688" xlink:href="#md712772716" y="90.150996"/>
     <use style="fill:#ff0000;stroke:#ff0000;" x="262.900279" xlink:href="#md712772716" y="91.936173"/>
     <use style="fill:#ff0000;stroke:#ff0000;" x="263.832869" xlink:href="#md712772716" y="91.220245"/>
     <use style="fill:#ff0000;stroke:#ff0000;" x="264.76546" xlink:href="#md712772716" y="94.660644"/>
     <use style="fill:#ff0000;stroke:#ff0000;" x="265.69805" xlink:href="#md712772716" y="100.512815"/>
     <use style="fill:#ff0000;stroke:#ff0000;" x="266.630641" xlink:href="#md712772716" y="99.367719"/>
     <use style="fill:#ff0000;stroke:#ff0000;" x="267.563231" xlink:href="#md712772716" y="96.954817"/>
     <use style="fill:#ff0000;stroke:#ff0000;" x="268.495822" xlink:href="#md712772716" y="98.008652"/>
     <use style="fill:#ff0000;stroke:#ff0000;" x="269.428412" xlink:href="#md712772716" y="93.680396"/>
     <use style="fill:#ff0000;stroke:#ff0000;" x="270.361003" xlink:href="#md712772716" y="100.088647"/>
     <use style="fill:#ff0000;stroke:#ff0000;" x="271.293593" xlink:href="#md712772716" y="96.079096"/>
     <use style="fill:#ff0000;stroke:#ff0000;" x="272.226184" xlink:href="#md712772716" y="93.237026"/>
     <use style="fill:#ff0000;stroke:#ff0000;" x="273.158774" xlink:href="#md712772716" y="94.406132"/>
     <use style="fill:#ff0000;stroke:#ff0000;" x="274.091365" xlink:href="#md712772716" y="93.190851"/>
     <use style="fill:#ff0000;stroke:#ff0000;" x="275.023955" xlink:href="#md712772716" y="96.832437"/>
     <use style="fill:#ff0000;stroke:#ff0000;" x="275.956546" xlink:href="#md712772716" y="95.971869"/>
     <use style="fill:#ff0000;stroke:#ff0000;" x="276.889136" xlink:href="#md712772716" y="94.076945"/>
     <use style="fill:#ff0000;stroke:#ff0000;" x="277.821727" xlink:href="#md712772716" y="96.103409"/>
     <use style="fill:#ff0000;stroke:#ff0000;" x="278.754318" xlink:href="#md712772716" y="99.046549"/>
     <use style="fill:#ff0000;stroke:#ff0000;" x="279.686908" xlink:href="#md712772716" y="92.399462"/>
     <use style="fill:#ff0000;stroke:#ff0000;" x="280.619499" xlink:href="#md712772716" y="94.479141"/>
     <use style="fill:#ff0000;stroke:#ff0000;" x="281.552089" xlink:href="#md712772716" y="98.25016"/>
     <use style="fill:#ff0000;stroke:#ff0000;" x="282.48468" xlink:href="#md712772716" y="99.020073"/>
     <use style="fill:#ff0000;stroke:#ff0000;" x="283.41727" xlink:href="#md712772716" y="98.081454"/>
     <use style="fill:#ff0000;stroke:#ff0000;" x="284.349861" xlink:href="#md712772716" y="98.126733"/>
     <use style="fill:#ff0000;stroke:#ff0000;" x="285.282451" xlink:href="#md712772716" y="98.308154"/>
     <use style="fill:#ff0000;stroke:#ff0000;" x="286.215042" xlink:href="#md712772716" y="95.540208"/>
     <use style="fill:#ff0000;stroke:#ff0000;" x="287.147632" xlink:href="#md712772716" y="102.103045"/>
     <use style="fill:#ff0000;stroke:#ff0000;" x="288.080223" xlink:href="#md712772716" y="103.530754"/>
     <use style="fill:#ff0000;stroke:#ff0000;" x="289.012813" xlink:href="#md712772716" y="105.436603"/>
     <use style="fill:#ff0000;stroke:#ff0000;" x="289.945404" xlink:href="#md712772716" y="106.223253"/>
     <use style="fill:#ff0000;stroke:#ff0000;" x="290.877994" xlink:href="#md712772716" y="106.982462"/>
     <use style="fill:#ff0000;stroke:#ff0000;" x="291.810585" xlink:href="#md712772716" y="109.521477"/>
     <use style="fill:#ff0000;stroke:#ff0000;" x="292.743175" xlink:href="#md712772716" y="104.262317"/>
     <use style="fill:#ff0000;stroke:#ff0000;" x="293.675766" xlink:href="#md712772716" y="98.925836"/>
     <use style="fill:#ff0000;stroke:#ff0000;" x="294.608357" xlink:href="#md712772716" y="101.198906"/>
     <use style="fill:#ff0000;stroke:#ff0000;" x="295.540947" xlink:href="#md712772716" y="104.45922"/>
     <use style="fill:#ff0000;stroke:#ff0000;" x="296.473538" xlink:href="#md712772716" y="102.182266"/>
     <use style="fill:#ff0000;stroke:#ff0000;" x="297.406128" xlink:href="#md712772716" y="107.215416"/>
     <use style="fill:#ff0000;stroke:#ff0000;" x="298.338719" xlink:href="#md712772716" y="109.920464"/>
     <use style="fill:#ff0000;stroke:#ff0000;" x="299.271309" xlink:href="#md712772716" y="117.476758"/>
     <use style="fill:#ff0000;stroke:#ff0000;" x="300.2039" xlink:href="#md712772716" y="121.304793"/>
     <use style="fill:#ff0000;stroke:#ff0000;" x="301.13649" xlink:href="#md712772716" y="122.151407"/>
     <use style="fill:#ff0000;stroke:#ff0000;" x="302.069081" xlink:href="#md712772716" y="120.36353"/>
     <use style="fill:#ff0000;stroke:#ff0000;" x="303.001671" xlink:href="#md712772716" y="122.264515"/>
     <use style="fill:#ff0000;stroke:#ff0000;" x="303.934262" xlink:href="#md712772716" y="117.030936"/>
     <use style="fill:#ff0000;stroke:#ff0000;" x="304.866852" xlink:href="#md712772716" y="117.173413"/>
     <use style="fill:#ff0000;stroke:#ff0000;" x="305.799443" xlink:href="#md712772716" y="119.819434"/>
     <use style="fill:#ff0000;stroke:#ff0000;" x="306.732033" xlink:href="#md712772716" y="116.684943"/>
     <use style="fill:#ff0000;stroke:#ff0000;" x="307.664624" xlink:href="#md712772716" y="113.29751"/>
     <use style="fill:#ff0000;stroke:#ff0000;" x="308.597214" xlink:href="#md712772716" y="111.938098"/>
     <use style="fill:#ff0000;stroke:#ff0000;" x="309.529805" xlink:href="#md712772716" y="111.260108"/>
     <use style="fill:#ff0000;stroke:#ff0000;" x="310.462396" xlink:href="#md712772716" y="105.512284"/>
     <use style="fill:#ff0000;stroke:#ff0000;" x="311.394986" xlink:href="#md712772716" y="109.07334"/>
     <use style="fill:#ff0000;stroke:#ff0000;" x="312.327577" xlink:href="#md712772716" y="103.728649"/>
     <use style="fill:#ff0000;stroke:#ff0000;" x="313.260167" xlink:href="#md712772716" y="101.002002"/>
     <use style="fill:#ff0000;stroke:#ff0000;" x="314.192758" xlink:href="#md712772716" y="101.511246"/>
     <use style="fill:#ff0000;stroke:#ff0000;" x="315.125348" xlink:href="#md712772716" y="91.922659"/>
     <use style="fill:#ff0000;stroke:#ff0000;" x="316.057939" xlink:href="#md712772716" y="92.366181"/>
     <use style="fill:#ff0000;stroke:#ff0000;" x="316.990529" xlink:href="#md712772716" y="94.238046"/>
     <use style="fill:#ff0000;stroke:#ff0000;" x="317.92312" xlink:href="#md712772716" y="93.759163"/>
     <use style="fill:#ff0000;stroke:#ff0000;" x="318.85571" xlink:href="#md712772716" y="98.676435"/>
     <use style="fill:#ff0000;stroke:#ff0000;" x="319.788301" xlink:href="#md712772716" y="98.062472"/>
     <use style="fill:#ff0000;stroke:#ff0000;" x="320.720891" xlink:href="#md712772716" y="96.520621"/>
     <use style="fill:#ff0000;stroke:#ff0000;" x="321.653482" xlink:href="#md712772716" y="99.701314"/>
     <use style="fill:#ff0000;stroke:#ff0000;" x="322.586072" xlink:href="#md712772716" y="100.611928"/>
     <use style="fill:#ff0000;stroke:#ff0000;" x="323.518663" xlink:href="#md712772716" y="104.916779"/>
     <use style="fill:#ff0000;stroke:#ff0000;" x="324.451253" xlink:href="#md712772716" y="97.315715"/>
     <use style="fill:#ff0000;stroke:#ff0000;" x="325.383844" xlink:href="#md712772716" y="96.586122"/>
     <use style="fill:#ff0000;stroke:#ff0000;" x="326.316435" xlink:href="#md712772716" y="93.878457"/>
     <use style="fill:#ff0000;stroke:#ff0000;" x="327.249025" xlink:href="#md712772716" y="94.033704"/>
     <use style="fill:#ff0000;stroke:#ff0000;" x="328.181616" xlink:href="#md712772716" y="93.300709"/>
     <use style="fill:#ff0000;stroke:#ff0000;" x="329.114206" xlink:href="#md712772716" y="95.198292"/>
     <use style="fill:#ff0000;stroke:#ff0000;" x="330.046797" xlink:href="#md712772716" y="83.074341"/>
     <use style="fill:#ff0000;stroke:#ff0000;" x="330.979387" xlink:href="#md712772716" y="80.330337"/>
     <use style="fill:#ff0000;stroke:#ff0000;" x="331.911978" xlink:href="#md712772716" y="82.379614"/>
     <use style="fill:#ff0000;stroke:#ff0000;" x="332.844568" xlink:href="#md712772716" y="74.71539"/>
     <use style="fill:#ff0000;stroke:#ff0000;" x="333.777159" xlink:href="#md712772716" y="72.257608"/>
     <use style="fill:#ff0000;stroke:#ff0000;" x="334.709749" xlink:href="#md712772716" y="75.566549"/>
     <use style="fill:#ff0000;stroke:#ff0000;" x="335.64234" xlink:href="#md712772716" y="75.537222"/>
     <use style="fill:#ff0000;stroke:#ff0000;" x="336.57493" xlink:href="#md712772716" y="76.283923"/>
     <use style="fill:#ff0000;stroke:#ff0000;" x="337.507521" xlink:href="#md712772716" y="76.0251"/>
     <use style="fill:#ff0000;stroke:#ff0000;" x="338.440111" xlink:href="#md712772716" y="75.071039"/>
     <use style="fill:#ff0000;stroke:#ff0000;" x="339.372702" xlink:href="#md712772716" y="73.386311"/>
     <use style="fill:#ff0000;stroke:#ff0000;" x="340.305292" xlink:href="#md712772716" y="75.179781"/>
     <use style="fill:#ff0000;stroke:#ff0000;" x="341.237883" xlink:href="#md712772716" y="77.33262"/>
     <use style="fill:#ff0000;stroke:#ff0000;" x="342.170474" xlink:href="#md712772716" y="83.526335"/>
     <use style="fill:#ff0000;stroke:#ff0000;" x="343.103064" xlink:href="#md712772716" y="87.952767"/>
     <use style="fill:#ff0000;stroke:#ff0000;" x="344.035655" xlink:href="#md712772716" y="84.119856"/>
     <use style="fill:#ff0000;stroke:#ff0000;" x="344.968245" xlink:href="#md712772716" y="79.757562"/>
     <use style="fill:#ff0000;stroke:#ff0000;" x="345.900836" xlink:href="#md712772716" y="80.960831"/>
     <use style="fill:#ff0000;stroke:#ff0000;" x="346.833426" xlink:href="#md712772716" y="76.818982"/>
     <use style="fill:#ff0000;stroke:#ff0000;" x="347.766017" xlink:href="#md712772716" y="78.630553"/>
     <use style="fill:#ff0000;stroke:#ff0000;" x="348.698607" xlink:href="#md712772716" y="75.113812"/>
     <use style="fill:#ff0000;stroke:#ff0000;" x="349.631198" xlink:href="#md712772716" y="74.319682"/>
     <use style="fill:#ff0000;stroke:#ff0000;" x="350.563788" xlink:href="#md712772716" y="73.947254"/>
     <use style="fill:#ff0000;stroke:#ff0000;" x="351.496379" xlink:href="#md712772716" y="78.888274"/>
     <use style="fill:#ff0000;stroke:#ff0000;" x="352.428969" xlink:href="#md712772716" y="82.165216"/>
     <use style="fill:#ff0000;stroke:#ff0000;" x="353.36156" xlink:href="#md712772716" y="79.412023"/>
     <use style="fill:#ff0000;stroke:#ff0000;" x="354.29415" xlink:href="#md712772716" y="83.269482"/>
     <use style="fill:#ff0000;stroke:#ff0000;" x="355.226741" xlink:href="#md712772716" y="87.71648"/>
     <use style="fill:#ff0000;stroke:#ff0000;" x="356.159331" xlink:href="#md712772716" y="91.903222"/>
     <use style="fill:#ff0000;stroke:#ff0000;" x="357.091922" xlink:href="#md712772716" y="94.082317"/>
     <use style="fill:#ff0000;stroke:#ff0000;" x="358.024513" xlink:href="#md712772716" y="86.231989"/>
     <use style="fill:#ff0000;stroke:#ff0000;" x="358.957103" xlink:href="#md712772716" y="86.241067"/>
     <use style="fill:#ff0000;stroke:#ff0000;" x="359.889694" xlink:href="#md712772716" y="85.732801"/>
     <use style="fill:#ff0000;stroke:#ff0000;" x="360.822284" xlink:href="#md712772716" y="76.518172"/>
     <use style="fill:#ff0000;stroke:#ff0000;" x="361.754875" xlink:href="#md712772716" y="70.415167"/>
     <use style="fill:#ff0000;stroke:#ff0000;" x="362.687465" xlink:href="#md712772716" y="67.384747"/>
     <use style="fill:#ff0000;stroke:#ff0000;" x="363.620056" xlink:href="#md712772716" y="68.865243"/>
     <use style="fill:#ff0000;stroke:#ff0000;" x="364.552646" xlink:href="#md712772716" y="67.093772"/>
     <use style="fill:#ff0000;stroke:#ff0000;" x="365.485237" xlink:href="#md712772716" y="67.53414"/>
     <use style="fill:#ff0000;stroke:#ff0000;" x="366.417827" xlink:href="#md712772716" y="63.911398"/>
     <use style="fill:#ff0000;stroke:#ff0000;" x="367.350418" xlink:href="#md712772716" y="60.711708"/>
     <use style="fill:#ff0000;stroke:#ff0000;" x="368.283008" xlink:href="#md712772716" y="60.861032"/>
     <use style="fill:#ff0000;stroke:#ff0000;" x="369.215599" xlink:href="#md712772716" y="58.463834"/>
     <use style="fill:#ff0000;stroke:#ff0000;" x="370.148189" xlink:href="#md712772716" y="51.84"/>
     <use style="fill:#ff0000;stroke:#ff0000;" x="371.08078" xlink:href="#md712772716" y="53.515733"/>
     <use style="fill:#ff0000;stroke:#ff0000;" x="372.01337" xlink:href="#md712772716" y="58.405248"/>
     <use style="fill:#ff0000;stroke:#ff0000;" x="372.945961" xlink:href="#md712772716" y="61.779938"/>
     <use style="fill:#ff0000;stroke:#ff0000;" x="373.878552" xlink:href="#md712772716" y="64.500249"/>
     <use style="fill:#ff0000;stroke:#ff0000;" x="374.811142" xlink:href="#md712772716" y="67.670791"/>
     <use style="fill:#ff0000;stroke:#ff0000;" x="375.743733" xlink:href="#md712772716" y="71.563431"/>
     <use style="fill:#ff0000;stroke:#ff0000;" x="376.676323" xlink:href="#md712772716" y="76.402983"/>
     <use style="fill:#ff0000;stroke:#ff0000;" x="377.608914" xlink:href="#md712772716" y="84.80377"/>
     <use style="fill:#ff0000;stroke:#ff0000;" x="378.541504" xlink:href="#md712772716" y="85.264429"/>
     <use style="fill:#ff0000;stroke:#ff0000;" x="379.474095" xlink:href="#md712772716" y="76.684949"/>
     <use style="fill:#ff0000;stroke:#ff0000;" x="380.406685" xlink:href="#md712772716" y="75.353308"/>
     <use style="fill:#ff0000;stroke:#ff0000;" x="381.339276" xlink:href="#md712772716" y="72.763187"/>
     <use style="fill:#ff0000;stroke:#ff0000;" x="382.271866" xlink:href="#md712772716" y="73.541352"/>
     <use style="fill:#ff0000;stroke:#ff0000;" x="383.204457" xlink:href="#md712772716" y="71.468354"/>
     <use style="fill:#ff0000;stroke:#ff0000;" x="384.137047" xlink:href="#md712772716" y="73.101838"/>
     <use style="fill:#ff0000;stroke:#ff0000;" x="385.069638" xlink:href="#md712772716" y="81.344734"/>
     <use style="fill:#ff0000;stroke:#ff0000;" x="386.002228" xlink:href="#md712772716" y="81.847655"/>
     <use style="fill:#ff0000;stroke:#ff0000;" x="386.934819" xlink:href="#md712772716" y="90.127729"/>
     <use style="fill:#ff0000;stroke:#ff0000;" x="387.867409" xlink:href="#md712772716" y="89.724817"/>
     <use style="fill:#ff0000;stroke:#ff0000;" x="388.8" xlink:href="#md712772716" y="87.344824"/>
    </g>
   </g>
   <g id="patch_3">
    <path d="M 54 278.64 
L 54 51.84 
" style="fill:none;stroke:#000000;stroke-linecap:square;stroke-linejoin:miter;stroke-width:0.8;"/>
   </g>
   <g id="patch_4">
    <path d="M 388.8 278.64 
L 388.8 51.84 
" style="fill:none;stroke:#000000;stroke-linecap:square;stroke-linejoin:miter;stroke-width:0.8;"/>
   </g>
   <g id="patch_5">
    <path d="M 54 278.64 
L 388.8 278.64 
" style="fill:none;stroke:#000000;stroke-linecap:square;stroke-linejoin:miter;stroke-width:0.8;"/>
   </g>
   <g id="patch_6">
    <path d="M 54 51.84 
L 388.8 51.84 
" style="fill:none;stroke:#000000;stroke-linecap:square;stroke-linejoin:miter;stroke-width:0.8;"/>
   </g>
   <g id="legend_1">
    <g id="patch_7">
     <path d="M 61 89.19625 
L 162.957812 89.19625 
Q 164.957812 89.19625 164.957812 87.19625 
L 164.957812 58.84 
Q 164.957812 56.84 162.957812 56.84 
L 61 56.84 
Q 59 56.84 59 58.84 
L 59 87.19625 
Q 59 89.19625 61 89.19625 
z
" style="fill:#ffffff;opacity:0.8;stroke:#cccccc;stroke-linejoin:miter;"/>
    </g>
    <g id="line2d_20">
     <path d="M 63 64.938437 
L 83 64.938437 
" style="fill:none;stroke:#1f77b4;stroke-linecap:square;stroke-width:1.5;"/>
    </g>
    <g id="line2d_21"/>
    <g id="text_19">
     <!-- True RUL -->
     <defs>
      <path d="M -0.296875 72.90625 
L 61.375 72.90625 
L 61.375 64.59375 
L 35.5 64.59375 
L 35.5 0 
L 25.59375 0 
L 25.59375 64.59375 
L -0.296875 64.59375 
z
" id="DejaVuSans-84"/>
      <path d="M 41.109375 46.296875 
Q 39.59375 47.171875 37.8125 47.578125 
Q 36.03125 48 33.890625 48 
Q 26.265625 48 22.1875 43.046875 
Q 18.109375 38.09375 18.109375 28.8125 
L 18.109375 0 
L 9.078125 0 
L 9.078125 54.6875 
L 18.109375 54.6875 
L 18.109375 46.1875 
Q 20.953125 51.171875 25.484375 53.578125 
Q 30.03125 56 36.53125 56 
Q 37.453125 56 38.578125 55.875 
Q 39.703125 55.765625 41.0625 55.515625 
z
" id="DejaVuSans-114"/>
      <path d="M 8.5 21.578125 
L 8.5 54.6875 
L 17.484375 54.6875 
L 17.484375 21.921875 
Q 17.484375 14.15625 20.5 10.265625 
Q 23.53125 6.390625 29.59375 6.390625 
Q 36.859375 6.390625 41.078125 11.03125 
Q 45.3125 15.671875 45.3125 23.6875 
L 45.3125 54.6875 
L 54.296875 54.6875 
L 54.296875 0 
L 45.3125 0 
L 45.3125 8.40625 
Q 42.046875 3.421875 37.71875 1 
Q 33.40625 -1.421875 27.6875 -1.421875 
Q 18.265625 -1.421875 13.375 4.4375 
Q 8.5 10.296875 8.5 21.578125 
z
M 31.109375 56 
z
" id="DejaVuSans-117"/>
      <path d="M 56.203125 29.59375 
L 56.203125 25.203125 
L 14.890625 25.203125 
Q 15.484375 15.921875 20.484375 11.0625 
Q 25.484375 6.203125 34.421875 6.203125 
Q 39.59375 6.203125 44.453125 7.46875 
Q 49.3125 8.734375 54.109375 11.28125 
L 54.109375 2.78125 
Q 49.265625 0.734375 44.1875 -0.34375 
Q 39.109375 -1.421875 33.890625 -1.421875 
Q 20.796875 -1.421875 13.15625 6.1875 
Q 5.515625 13.8125 5.515625 26.8125 
Q 5.515625 40.234375 12.765625 48.109375 
Q 20.015625 56 32.328125 56 
Q 43.359375 56 49.78125 48.890625 
Q 56.203125 41.796875 56.203125 29.59375 
z
M 47.21875 32.234375 
Q 47.125 39.59375 43.09375 43.984375 
Q 39.0625 48.390625 32.421875 48.390625 
Q 24.90625 48.390625 20.390625 44.140625 
Q 15.875 39.890625 15.1875 32.171875 
z
" id="DejaVuSans-101"/>
      <path id="DejaVuSans-32"/>
     </defs>
     <g transform="translate(91 68.438437)scale(0.1 -0.1)">
      <use xlink:href="#DejaVuSans-84"/>
      <use x="46.333984" xlink:href="#DejaVuSans-114"/>
      <use x="87.447266" xlink:href="#DejaVuSans-117"/>
      <use x="150.826172" xlink:href="#DejaVuSans-101"/>
      <use x="212.349609" xlink:href="#DejaVuSans-32"/>
      <use x="244.136719" xlink:href="#DejaVuSans-82"/>
      <use x="313.619141" xlink:href="#DejaVuSans-85"/>
      <use x="386.8125" xlink:href="#DejaVuSans-76"/>
     </g>
    </g>
    <g id="line2d_22">
     <path d="M 63 79.616562 
L 83 79.616562 
" style="fill:none;stroke:#ff0000;stroke-linecap:square;stroke-width:0.5;"/>
    </g>
    <g id="line2d_23">
     <g>
      <use style="fill:#ff0000;stroke:#ff0000;" x="73" xlink:href="#md712772716" y="79.616562"/>
     </g>
    </g>
    <g id="text_20">
     <!-- Predicted RUL -->
     <defs>
      <path d="M 19.671875 64.796875 
L 19.671875 37.40625 
L 32.078125 37.40625 
Q 38.96875 37.40625 42.71875 40.96875 
Q 46.484375 44.53125 46.484375 51.125 
Q 46.484375 57.671875 42.71875 61.234375 
Q 38.96875 64.796875 32.078125 64.796875 
z
M 9.8125 72.90625 
L 32.078125 72.90625 
Q 44.34375 72.90625 50.609375 67.359375 
Q 56.890625 61.8125 56.890625 51.125 
Q 56.890625 40.328125 50.609375 34.8125 
Q 44.34375 29.296875 32.078125 29.296875 
L 19.671875 29.296875 
L 19.671875 0 
L 9.8125 0 
z
" id="DejaVuSans-80"/>
      <path d="M 45.40625 46.390625 
L 45.40625 75.984375 
L 54.390625 75.984375 
L 54.390625 0 
L 45.40625 0 
L 45.40625 8.203125 
Q 42.578125 3.328125 38.25 0.953125 
Q 33.9375 -1.421875 27.875 -1.421875 
Q 17.96875 -1.421875 11.734375 6.484375 
Q 5.515625 14.40625 5.515625 27.296875 
Q 5.515625 40.1875 11.734375 48.09375 
Q 17.96875 56 27.875 56 
Q 33.9375 56 38.25 53.625 
Q 42.578125 51.265625 45.40625 46.390625 
z
M 14.796875 27.296875 
Q 14.796875 17.390625 18.875 11.75 
Q 22.953125 6.109375 30.078125 6.109375 
Q 37.203125 6.109375 41.296875 11.75 
Q 45.40625 17.390625 45.40625 27.296875 
Q 45.40625 37.203125 41.296875 42.84375 
Q 37.203125 48.484375 30.078125 48.484375 
Q 22.953125 48.484375 18.875 42.84375 
Q 14.796875 37.203125 14.796875 27.296875 
z
" id="DejaVuSans-100"/>
      <path d="M 9.421875 54.6875 
L 18.40625 54.6875 
L 18.40625 0 
L 9.421875 0 
z
M 9.421875 75.984375 
L 18.40625 75.984375 
L 18.40625 64.59375 
L 9.421875 64.59375 
z
" id="DejaVuSans-105"/>
      <path d="M 48.78125 52.59375 
L 48.78125 44.1875 
Q 44.96875 46.296875 41.140625 47.34375 
Q 37.3125 48.390625 33.40625 48.390625 
Q 24.65625 48.390625 19.8125 42.84375 
Q 14.984375 37.3125 14.984375 27.296875 
Q 14.984375 17.28125 19.8125 11.734375 
Q 24.65625 6.203125 33.40625 6.203125 
Q 37.3125 6.203125 41.140625 7.25 
Q 44.96875 8.296875 48.78125 10.40625 
L 48.78125 2.09375 
Q 45.015625 0.34375 40.984375 -0.53125 
Q 36.96875 -1.421875 32.421875 -1.421875 
Q 20.0625 -1.421875 12.78125 6.34375 
Q 5.515625 14.109375 5.515625 27.296875 
Q 5.515625 40.671875 12.859375 48.328125 
Q 20.21875 56 33.015625 56 
Q 37.15625 56 41.109375 55.140625 
Q 45.0625 54.296875 48.78125 52.59375 
z
" id="DejaVuSans-99"/>
      <path d="M 18.3125 70.21875 
L 18.3125 54.6875 
L 36.8125 54.6875 
L 36.8125 47.703125 
L 18.3125 47.703125 
L 18.3125 18.015625 
Q 18.3125 11.328125 20.140625 9.421875 
Q 21.96875 7.515625 27.59375 7.515625 
L 36.8125 7.515625 
L 36.8125 0 
L 27.59375 0 
Q 17.1875 0 13.234375 3.875 
Q 9.28125 7.765625 9.28125 18.015625 
L 9.28125 47.703125 
L 2.6875 47.703125 
L 2.6875 54.6875 
L 9.28125 54.6875 
L 9.28125 70.21875 
z
" id="DejaVuSans-116"/>
     </defs>
     <g transform="translate(91 83.116562)scale(0.1 -0.1)">
      <use xlink:href="#DejaVuSans-80"/>
      <use x="58.552734" xlink:href="#DejaVuSans-114"/>
      <use x="97.416016" xlink:href="#DejaVuSans-101"/>
      <use x="158.939453" xlink:href="#DejaVuSans-100"/>
      <use x="222.416016" xlink:href="#DejaVuSans-105"/>
      <use x="250.199219" xlink:href="#DejaVuSans-99"/>
      <use x="305.179688" xlink:href="#DejaVuSans-116"/>
      <use x="344.388672" xlink:href="#DejaVuSans-101"/>
      <use x="405.912109" xlink:href="#DejaVuSans-100"/>
      <use x="469.388672" xlink:href="#DejaVuSans-32"/>
      <use x="501.175781" xlink:href="#DejaVuSans-82"/>
      <use x="570.658203" xlink:href="#DejaVuSans-85"/>
      <use x="643.851562" xlink:href="#DejaVuSans-76"/>
     </g>
    </g>
   </g>
  </g>
  <g id="axes_2">
   <g id="patch_8">
    <path d="M 54 384.48 
L 388.8 384.48 
L 388.8 308.88 
L 54 308.88 
z
" style="fill:#ffffff;"/>
   </g>
   <g id="matplotlib.axis_3">
    <g id="xtick_9">
     <g id="line2d_24">
      <g>
       <use style="stroke:#000000;stroke-width:0.8;" x="54" xlink:href="#m2dae298409" y="384.48"/>
      </g>
     </g>
     <g id="text_21">
      <!-- 0 -->
      <g transform="translate(50.81875 399.078437)scale(0.1 -0.1)">
       <use xlink:href="#DejaVuSans-48"/>
      </g>
     </g>
    </g>
    <g id="xtick_10">
     <g id="line2d_25">
      <g>
       <use style="stroke:#000000;stroke-width:0.8;" x="100.629526" xlink:href="#m2dae298409" y="384.48"/>
      </g>
     </g>
     <g id="text_22">
      <!-- 50 -->
      <g transform="translate(94.267026 399.078437)scale(0.1 -0.1)">
       <use xlink:href="#DejaVuSans-53"/>
       <use x="63.623047" xlink:href="#DejaVuSans-48"/>
      </g>
     </g>
    </g>
    <g id="xtick_11">
     <g id="line2d_26">
      <g>
       <use style="stroke:#000000;stroke-width:0.8;" x="147.259053" xlink:href="#m2dae298409" y="384.48"/>
      </g>
     </g>
     <g id="text_23">
      <!-- 100 -->
      <g transform="translate(137.715303 399.078437)scale(0.1 -0.1)">
       <use xlink:href="#DejaVuSans-49"/>
       <use x="63.623047" xlink:href="#DejaVuSans-48"/>
       <use x="127.246094" xlink:href="#DejaVuSans-48"/>
      </g>
     </g>
    </g>
    <g id="xtick_12">
     <g id="line2d_27">
      <g>
       <use style="stroke:#000000;stroke-width:0.8;" x="193.888579" xlink:href="#m2dae298409" y="384.48"/>
      </g>
     </g>
     <g id="text_24">
      <!-- 150 -->
      <g transform="translate(184.344829 399.078437)scale(0.1 -0.1)">
       <use xlink:href="#DejaVuSans-49"/>
       <use x="63.623047" xlink:href="#DejaVuSans-53"/>
       <use x="127.246094" xlink:href="#DejaVuSans-48"/>
      </g>
     </g>
    </g>
    <g id="xtick_13">
     <g id="line2d_28">
      <g>
       <use style="stroke:#000000;stroke-width:0.8;" x="240.518106" xlink:href="#m2dae298409" y="384.48"/>
      </g>
     </g>
     <g id="text_25">
      <!-- 200 -->
      <g transform="translate(230.974356 399.078437)scale(0.1 -0.1)">
       <use xlink:href="#DejaVuSans-50"/>
       <use x="63.623047" xlink:href="#DejaVuSans-48"/>
       <use x="127.246094" xlink:href="#DejaVuSans-48"/>
      </g>
     </g>
    </g>
    <g id="xtick_14">
     <g id="line2d_29">
      <g>
       <use style="stroke:#000000;stroke-width:0.8;" x="287.147632" xlink:href="#m2dae298409" y="384.48"/>
      </g>
     </g>
     <g id="text_26">
      <!-- 250 -->
      <g transform="translate(277.603882 399.078437)scale(0.1 -0.1)">
       <use xlink:href="#DejaVuSans-50"/>
       <use x="63.623047" xlink:href="#DejaVuSans-53"/>
       <use x="127.246094" xlink:href="#DejaVuSans-48"/>
      </g>
     </g>
    </g>
    <g id="xtick_15">
     <g id="line2d_30">
      <g>
       <use style="stroke:#000000;stroke-width:0.8;" x="333.777159" xlink:href="#m2dae298409" y="384.48"/>
      </g>
     </g>
     <g id="text_27">
      <!-- 300 -->
      <g transform="translate(324.233409 399.078437)scale(0.1 -0.1)">
       <use xlink:href="#DejaVuSans-51"/>
       <use x="63.623047" xlink:href="#DejaVuSans-48"/>
       <use x="127.246094" xlink:href="#DejaVuSans-48"/>
      </g>
     </g>
    </g>
    <g id="xtick_16">
     <g id="line2d_31">
      <g>
       <use style="stroke:#000000;stroke-width:0.8;" x="380.406685" xlink:href="#m2dae298409" y="384.48"/>
      </g>
     </g>
     <g id="text_28">
      <!-- 350 -->
      <g transform="translate(370.862935 399.078437)scale(0.1 -0.1)">
       <use xlink:href="#DejaVuSans-51"/>
       <use x="63.623047" xlink:href="#DejaVuSans-53"/>
       <use x="127.246094" xlink:href="#DejaVuSans-48"/>
      </g>
     </g>
    </g>
    <g id="text_29">
     <!-- Operating time -->
     <defs>
      <path d="M 39.40625 66.21875 
Q 28.65625 66.21875 22.328125 58.203125 
Q 16.015625 50.203125 16.015625 36.375 
Q 16.015625 22.609375 22.328125 14.59375 
Q 28.65625 6.59375 39.40625 6.59375 
Q 50.140625 6.59375 56.421875 14.59375 
Q 62.703125 22.609375 62.703125 36.375 
Q 62.703125 50.203125 56.421875 58.203125 
Q 50.140625 66.21875 39.40625 66.21875 
z
M 39.40625 74.21875 
Q 54.734375 74.21875 63.90625 63.9375 
Q 73.09375 53.65625 73.09375 36.375 
Q 73.09375 19.140625 63.90625 8.859375 
Q 54.734375 -1.421875 39.40625 -1.421875 
Q 24.03125 -1.421875 14.8125 8.828125 
Q 5.609375 19.09375 5.609375 36.375 
Q 5.609375 53.65625 14.8125 63.9375 
Q 24.03125 74.21875 39.40625 74.21875 
z
" id="DejaVuSans-79"/>
      <path d="M 18.109375 8.203125 
L 18.109375 -20.796875 
L 9.078125 -20.796875 
L 9.078125 54.6875 
L 18.109375 54.6875 
L 18.109375 46.390625 
Q 20.953125 51.265625 25.265625 53.625 
Q 29.59375 56 35.59375 56 
Q 45.5625 56 51.78125 48.09375 
Q 58.015625 40.1875 58.015625 27.296875 
Q 58.015625 14.40625 51.78125 6.484375 
Q 45.5625 -1.421875 35.59375 -1.421875 
Q 29.59375 -1.421875 25.265625 0.953125 
Q 20.953125 3.328125 18.109375 8.203125 
z
M 48.6875 27.296875 
Q 48.6875 37.203125 44.609375 42.84375 
Q 40.53125 48.484375 33.40625 48.484375 
Q 26.265625 48.484375 22.1875 42.84375 
Q 18.109375 37.203125 18.109375 27.296875 
Q 18.109375 17.390625 22.1875 11.75 
Q 26.265625 6.109375 33.40625 6.109375 
Q 40.53125 6.109375 44.609375 11.75 
Q 48.6875 17.390625 48.6875 27.296875 
z
" id="DejaVuSans-112"/>
      <path d="M 34.28125 27.484375 
Q 23.390625 27.484375 19.1875 25 
Q 14.984375 22.515625 14.984375 16.5 
Q 14.984375 11.71875 18.140625 8.90625 
Q 21.296875 6.109375 26.703125 6.109375 
Q 34.1875 6.109375 38.703125 11.40625 
Q 43.21875 16.703125 43.21875 25.484375 
L 43.21875 27.484375 
z
M 52.203125 31.203125 
L 52.203125 0 
L 43.21875 0 
L 43.21875 8.296875 
Q 40.140625 3.328125 35.546875 0.953125 
Q 30.953125 -1.421875 24.3125 -1.421875 
Q 15.921875 -1.421875 10.953125 3.296875 
Q 6 8.015625 6 15.921875 
Q 6 25.140625 12.171875 29.828125 
Q 18.359375 34.515625 30.609375 34.515625 
L 43.21875 34.515625 
L 43.21875 35.40625 
Q 43.21875 41.609375 39.140625 45 
Q 35.0625 48.390625 27.6875 48.390625 
Q 23 48.390625 18.546875 47.265625 
Q 14.109375 46.140625 10.015625 43.890625 
L 10.015625 52.203125 
Q 14.9375 54.109375 19.578125 55.046875 
Q 24.21875 56 28.609375 56 
Q 40.484375 56 46.34375 49.84375 
Q 52.203125 43.703125 52.203125 31.203125 
z
" id="DejaVuSans-97"/>
      <path d="M 54.890625 33.015625 
L 54.890625 0 
L 45.90625 0 
L 45.90625 32.71875 
Q 45.90625 40.484375 42.875 44.328125 
Q 39.84375 48.1875 33.796875 48.1875 
Q 26.515625 48.1875 22.3125 43.546875 
Q 18.109375 38.921875 18.109375 30.90625 
L 18.109375 0 
L 9.078125 0 
L 9.078125 54.6875 
L 18.109375 54.6875 
L 18.109375 46.1875 
Q 21.34375 51.125 25.703125 53.5625 
Q 30.078125 56 35.796875 56 
Q 45.21875 56 50.046875 50.171875 
Q 54.890625 44.34375 54.890625 33.015625 
z
" id="DejaVuSans-110"/>
      <path d="M 45.40625 27.984375 
Q 45.40625 37.75 41.375 43.109375 
Q 37.359375 48.484375 30.078125 48.484375 
Q 22.859375 48.484375 18.828125 43.109375 
Q 14.796875 37.75 14.796875 27.984375 
Q 14.796875 18.265625 18.828125 12.890625 
Q 22.859375 7.515625 30.078125 7.515625 
Q 37.359375 7.515625 41.375 12.890625 
Q 45.40625 18.265625 45.40625 27.984375 
z
M 54.390625 6.78125 
Q 54.390625 -7.171875 48.1875 -13.984375 
Q 42 -20.796875 29.203125 -20.796875 
Q 24.46875 -20.796875 20.265625 -20.09375 
Q 16.0625 -19.390625 12.109375 -17.921875 
L 12.109375 -9.1875 
Q 16.0625 -11.328125 19.921875 -12.34375 
Q 23.78125 -13.375 27.78125 -13.375 
Q 36.625 -13.375 41.015625 -8.765625 
Q 45.40625 -4.15625 45.40625 5.171875 
L 45.40625 9.625 
Q 42.625 4.78125 38.28125 2.390625 
Q 33.9375 0 27.875 0 
Q 17.828125 0 11.671875 7.65625 
Q 5.515625 15.328125 5.515625 27.984375 
Q 5.515625 40.671875 11.671875 48.328125 
Q 17.828125 56 27.875 56 
Q 33.9375 56 38.28125 53.609375 
Q 42.625 51.21875 45.40625 46.390625 
L 45.40625 54.6875 
L 54.390625 54.6875 
z
" id="DejaVuSans-103"/>
      <path d="M 52 44.1875 
Q 55.375 50.25 60.0625 53.125 
Q 64.75 56 71.09375 56 
Q 79.640625 56 84.28125 50.015625 
Q 88.921875 44.046875 88.921875 33.015625 
L 88.921875 0 
L 79.890625 0 
L 79.890625 32.71875 
Q 79.890625 40.578125 77.09375 44.375 
Q 74.3125 48.1875 68.609375 48.1875 
Q 61.625 48.1875 57.5625 43.546875 
Q 53.515625 38.921875 53.515625 30.90625 
L 53.515625 0 
L 44.484375 0 
L 44.484375 32.71875 
Q 44.484375 40.625 41.703125 44.40625 
Q 38.921875 48.1875 33.109375 48.1875 
Q 26.21875 48.1875 22.15625 43.53125 
Q 18.109375 38.875 18.109375 30.90625 
L 18.109375 0 
L 9.078125 0 
L 9.078125 54.6875 
L 18.109375 54.6875 
L 18.109375 46.1875 
Q 21.1875 51.21875 25.484375 53.609375 
Q 29.78125 56 35.6875 56 
Q 41.65625 56 45.828125 52.96875 
Q 50 49.953125 52 44.1875 
z
" id="DejaVuSans-109"/>
     </defs>
     <g transform="translate(183.516406 412.756562)scale(0.1 -0.1)">
      <use xlink:href="#DejaVuSans-79"/>
      <use x="78.710938" xlink:href="#DejaVuSans-112"/>
      <use x="142.1875" xlink:href="#DejaVuSans-101"/>
      <use x="203.710938" xlink:href="#DejaVuSans-114"/>
      <use x="244.824219" xlink:href="#DejaVuSans-97"/>
      <use x="306.103516" xlink:href="#DejaVuSans-116"/>
      <use x="345.3125" xlink:href="#DejaVuSans-105"/>
      <use x="373.095703" xlink:href="#DejaVuSans-110"/>
      <use x="436.474609" xlink:href="#DejaVuSans-103"/>
      <use x="499.951172" xlink:href="#DejaVuSans-32"/>
      <use x="531.738281" xlink:href="#DejaVuSans-116"/>
      <use x="570.947266" xlink:href="#DejaVuSans-105"/>
      <use x="598.730469" xlink:href="#DejaVuSans-109"/>
      <use x="696.142578" xlink:href="#DejaVuSans-101"/>
     </g>
    </g>
   </g>
   <g id="matplotlib.axis_4">
    <g id="ytick_10">
     <g id="line2d_32">
      <g>
       <use style="stroke:#000000;stroke-width:0.8;" x="54" xlink:href="#mbfdf4b4113" y="368.604686"/>
      </g>
     </g>
     <g id="text_30">
      <!-- 5000 -->
      <g transform="translate(21.55 372.403905)scale(0.1 -0.1)">
       <use xlink:href="#DejaVuSans-53"/>
       <use x="63.623047" xlink:href="#DejaVuSans-48"/>
       <use x="127.246094" xlink:href="#DejaVuSans-48"/>
       <use x="190.869141" xlink:href="#DejaVuSans-48"/>
      </g>
     </g>
    </g>
    <g id="ytick_11">
     <g id="line2d_33">
      <g>
       <use style="stroke:#000000;stroke-width:0.8;" x="54" xlink:href="#mbfdf4b4113" y="331.998761"/>
      </g>
     </g>
     <g id="text_31">
      <!-- 10000 -->
      <g transform="translate(15.1875 335.79798)scale(0.1 -0.1)">
       <use xlink:href="#DejaVuSans-49"/>
       <use x="63.623047" xlink:href="#DejaVuSans-48"/>
       <use x="127.246094" xlink:href="#DejaVuSans-48"/>
       <use x="190.869141" xlink:href="#DejaVuSans-48"/>
       <use x="254.492188" xlink:href="#DejaVuSans-48"/>
      </g>
     </g>
    </g>
    <g id="text_32">
     <!-- Absolute error -->
     <defs>
      <path d="M 34.1875 63.1875 
L 20.796875 26.90625 
L 47.609375 26.90625 
z
M 28.609375 72.90625 
L 39.796875 72.90625 
L 67.578125 0 
L 57.328125 0 
L 50.6875 18.703125 
L 17.828125 18.703125 
L 11.1875 0 
L 0.78125 0 
z
" id="DejaVuSans-65"/>
      <path d="M 48.6875 27.296875 
Q 48.6875 37.203125 44.609375 42.84375 
Q 40.53125 48.484375 33.40625 48.484375 
Q 26.265625 48.484375 22.1875 42.84375 
Q 18.109375 37.203125 18.109375 27.296875 
Q 18.109375 17.390625 22.1875 11.75 
Q 26.265625 6.109375 33.40625 6.109375 
Q 40.53125 6.109375 44.609375 11.75 
Q 48.6875 17.390625 48.6875 27.296875 
z
M 18.109375 46.390625 
Q 20.953125 51.265625 25.265625 53.625 
Q 29.59375 56 35.59375 56 
Q 45.5625 56 51.78125 48.09375 
Q 58.015625 40.1875 58.015625 27.296875 
Q 58.015625 14.40625 51.78125 6.484375 
Q 45.5625 -1.421875 35.59375 -1.421875 
Q 29.59375 -1.421875 25.265625 0.953125 
Q 20.953125 3.328125 18.109375 8.203125 
L 18.109375 0 
L 9.078125 0 
L 9.078125 75.984375 
L 18.109375 75.984375 
z
" id="DejaVuSans-98"/>
      <path d="M 44.28125 53.078125 
L 44.28125 44.578125 
Q 40.484375 46.53125 36.375 47.5 
Q 32.28125 48.484375 27.875 48.484375 
Q 21.1875 48.484375 17.84375 46.4375 
Q 14.5 44.390625 14.5 40.28125 
Q 14.5 37.15625 16.890625 35.375 
Q 19.28125 33.59375 26.515625 31.984375 
L 29.59375 31.296875 
Q 39.15625 29.25 43.1875 25.515625 
Q 47.21875 21.78125 47.21875 15.09375 
Q 47.21875 7.46875 41.1875 3.015625 
Q 35.15625 -1.421875 24.609375 -1.421875 
Q 20.21875 -1.421875 15.453125 -0.5625 
Q 10.6875 0.296875 5.421875 2 
L 5.421875 11.28125 
Q 10.40625 8.6875 15.234375 7.390625 
Q 20.0625 6.109375 24.8125 6.109375 
Q 31.15625 6.109375 34.5625 8.28125 
Q 37.984375 10.453125 37.984375 14.40625 
Q 37.984375 18.0625 35.515625 20.015625 
Q 33.0625 21.96875 24.703125 23.78125 
L 21.578125 24.515625 
Q 13.234375 26.265625 9.515625 29.90625 
Q 5.8125 33.546875 5.8125 39.890625 
Q 5.8125 47.609375 11.28125 51.796875 
Q 16.75 56 26.8125 56 
Q 31.78125 56 36.171875 55.265625 
Q 40.578125 54.546875 44.28125 53.078125 
z
" id="DejaVuSans-115"/>
      <path d="M 30.609375 48.390625 
Q 23.390625 48.390625 19.1875 42.75 
Q 14.984375 37.109375 14.984375 27.296875 
Q 14.984375 17.484375 19.15625 11.84375 
Q 23.34375 6.203125 30.609375 6.203125 
Q 37.796875 6.203125 41.984375 11.859375 
Q 46.1875 17.53125 46.1875 27.296875 
Q 46.1875 37.015625 41.984375 42.703125 
Q 37.796875 48.390625 30.609375 48.390625 
z
M 30.609375 56 
Q 42.328125 56 49.015625 48.375 
Q 55.71875 40.765625 55.71875 27.296875 
Q 55.71875 13.875 49.015625 6.21875 
Q 42.328125 -1.421875 30.609375 -1.421875 
Q 18.84375 -1.421875 12.171875 6.21875 
Q 5.515625 13.875 5.515625 27.296875 
Q 5.515625 40.765625 12.171875 48.375 
Q 18.84375 56 30.609375 56 
z
" id="DejaVuSans-111"/>
      <path d="M 9.421875 75.984375 
L 18.40625 75.984375 
L 18.40625 0 
L 9.421875 0 
z
" id="DejaVuSans-108"/>
     </defs>
     <g transform="translate(9.107812 382.224531)rotate(-90)scale(0.1 -0.1)">
      <use xlink:href="#DejaVuSans-65"/>
      <use x="68.408203" xlink:href="#DejaVuSans-98"/>
      <use x="131.884766" xlink:href="#DejaVuSans-115"/>
      <use x="183.984375" xlink:href="#DejaVuSans-111"/>
      <use x="245.166016" xlink:href="#DejaVuSans-108"/>
      <use x="272.949219" xlink:href="#DejaVuSans-117"/>
      <use x="336.328125" xlink:href="#DejaVuSans-116"/>
      <use x="375.537109" xlink:href="#DejaVuSans-101"/>
      <use x="437.060547" xlink:href="#DejaVuSans-32"/>
      <use x="468.847656" xlink:href="#DejaVuSans-101"/>
      <use x="530.371094" xlink:href="#DejaVuSans-114"/>
      <use x="569.734375" xlink:href="#DejaVuSans-114"/>
      <use x="608.597656" xlink:href="#DejaVuSans-111"/>
      <use x="669.779297" xlink:href="#DejaVuSans-114"/>
     </g>
    </g>
   </g>
   <g id="line2d_34">
    <path clip-path="url(#p21e6eb538b)" d="M 54.932591 381.043636 
L 55.865181 373.130901 
L 56.797772 359.711827 
L 57.730362 351.229076 
L 58.662953 350.535737 
L 60.528134 341.489133 
L 61.460724 339.372853 
L 62.393315 345.787019 
L 63.325905 348.448156 
L 64.258496 350.270591 
L 65.191086 350.00607 
L 66.123677 354.269259 
L 67.056267 355.493216 
L 67.988858 357.554841 
L 68.921448 359.037066 
L 69.854039 361.379213 
L 71.71922 363.073266 
L 72.651811 362.597471 
L 74.516992 361.026795 
L 75.449582 359.860238 
L 76.382173 358.938237 
L 78.247354 357.410608 
L 79.179944 357.411802 
L 80.112535 355.962987 
L 81.045125 355.210836 
L 81.977716 354.11324 
L 82.910306 355.715239 
L 83.842897 357.093431 
L 84.775487 356.005391 
L 85.708078 354.745951 
L 86.640669 349.414906 
L 87.573259 349.949824 
L 88.50585 349.252113 
L 89.43844 347.533422 
L 90.371031 350.057733 
L 91.303621 349.515247 
L 92.236212 345.924163 
L 93.168802 344.551962 
L 94.101393 340.293721 
L 95.033983 342.350216 
L 95.966574 341.078096 
L 96.899164 343.677403 
L 97.831755 344.741212 
L 98.764345 347.251178 
L 99.696936 348.54717 
L 100.629526 347.391724 
L 101.562117 350.526339 
L 102.494708 351.28499 
L 103.427298 351.512561 
L 104.359889 350.276067 
L 105.292479 345.924249 
L 106.22507 343.502495 
L 107.15766 341.878936 
L 108.090251 337.997057 
L 109.022841 336.658488 
L 109.955432 336.620688 
L 110.888022 337.313727 
L 111.820613 335.798042 
L 112.753203 337.829799 
L 113.685794 340.245855 
L 114.618384 341.420133 
L 115.550975 341.755835 
L 116.483565 342.306825 
L 117.416156 338.062519 
L 118.348747 339.958205 
L 119.281337 336.823458 
L 120.213928 338.484745 
L 121.146518 337.754464 
L 122.079109 335.873692 
L 123.011699 337.107712 
L 123.94429 334.985397 
L 124.87688 333.446805 
L 125.809471 335.723593 
L 126.742061 335.886196 
L 127.674652 334.803261 
L 128.607242 337.033113 
L 129.539833 338.372554 
L 130.472423 341.28133 
L 131.405014 339.957926 
L 132.337604 342.00206 
L 133.270195 343.133912 
L 135.135376 347.652298 
L 136.067967 350.410884 
L 137.000557 351.310574 
L 137.933148 347.737757 
L 138.865738 345.938076 
L 139.798329 345.221829 
L 140.730919 346.620319 
L 141.66351 340.76854 
L 142.5961 338.446101 
L 143.528691 339.727159 
L 144.461281 337.229448 
L 145.393872 342.007043 
L 146.326462 340.037623 
L 147.259053 344.282015 
L 148.191643 345.480595 
L 149.124234 348.683327 
L 150.989415 351.15081 
L 151.922006 351.622161 
L 152.854596 353.662412 
L 153.787187 352.859291 
L 154.719777 354.820679 
L 155.652368 355.859182 
L 156.584958 354.205817 
L 157.517549 354.311352 
L 159.38273 356.281848 
L 160.31532 356.394008 
L 161.247911 359.331587 
L 162.180501 358.72144 
L 164.045682 351.441784 
L 164.978273 351.741888 
L 165.910864 350.659904 
L 166.843454 348.715522 
L 167.776045 345.965144 
L 168.708635 345.873586 
L 169.641226 345.583406 
L 170.573816 349.330887 
L 171.506407 349.460138 
L 172.438997 350.888784 
L 173.371588 348.815881 
L 174.304178 348.452824 
L 175.236769 348.99525 
L 176.169359 347.16293 
L 177.10195 346.458094 
L 178.03454 346.062307 
L 178.967131 346.465387 
L 179.899721 344.881237 
L 180.832312 345.107608 
L 181.764903 344.628449 
L 182.697493 345.420474 
L 183.630084 345.552727 
L 184.562674 347.66589 
L 185.495265 346.567834 
L 186.427855 347.650797 
L 187.360446 345.999148 
L 188.293036 350.723235 
L 189.225627 350.810875 
L 190.158217 351.225373 
L 191.090808 349.31563 
L 192.023398 346.535239 
L 192.955989 345.149533 
L 193.888579 345.629564 
L 194.82117 347.360009 
L 195.75376 344.443553 
L 196.686351 344.796822 
L 197.618942 343.615301 
L 198.551532 341.232799 
L 199.484123 340.933774 
L 200.416713 341.558849 
L 201.349304 343.542533 
L 202.281894 341.11616 
L 203.214485 341.984329 
L 204.147075 340.807148 
L 205.079666 340.323878 
L 206.012256 342.979016 
L 206.944847 342.007686 
L 207.877437 342.644486 
L 208.810028 342.616603 
L 209.742618 343.664769 
L 210.675209 342.700489 
L 211.607799 337.237062 
L 212.54039 334.108593 
L 213.472981 330.09441 
L 214.405571 328.95874 
L 215.338162 330.096984 
L 216.270752 329.083185 
L 217.203343 326.340501 
L 218.135933 328.198016 
L 219.068524 325.930457 
L 220.001114 325.183646 
L 220.933705 323.565586 
L 221.866295 325.615239 
L 222.798886 326.71712 
L 224.664067 331.589311 
L 225.596657 332.705392 
L 226.529248 331.795213 
L 227.461838 331.52548 
L 228.394429 333.454662 
L 229.327019 327.905454 
L 230.25961 326.431487 
L 231.192201 325.589836 
L 232.124791 327.526568 
L 233.057382 331.26502 
L 233.989972 331.543254 
L 234.922563 331.446277 
L 235.855153 332.609516 
L 236.787744 332.232246 
L 237.720334 333.510222 
L 238.652925 330.889759 
L 239.585515 329.567299 
L 241.450696 332.212999 
L 242.383287 332.289593 
L 243.315877 334.41674 
L 245.181058 335.335763 
L 246.113649 337.149744 
L 247.04624 333.977726 
L 247.97883 332.933292 
L 248.911421 335.222814 
L 249.844011 333.505474 
L 250.776602 331.283287 
L 251.709192 332.954476 
L 252.641783 332.752107 
L 253.574373 329.562509 
L 254.506964 328.34805 
L 255.439554 327.639318 
L 256.372145 326.567164 
L 257.304735 328.138388 
L 258.237326 328.674136 
L 259.169916 327.234458 
L 260.102507 325.199075 
L 261.035097 321.131514 
L 261.967688 323.707848 
L 262.900279 324.707598 
L 263.832869 324.409231 
L 264.76546 326.268068 
L 265.69805 329.378657 
L 266.630641 328.857544 
L 267.563231 327.678419 
L 268.495822 328.298589 
L 269.428412 326.125362 
L 270.361003 329.524566 
L 271.293593 327.516752 
L 272.226184 326.114881 
L 273.158774 326.794879 
L 274.091365 326.237339 
L 275.023955 328.200597 
L 275.956546 327.827159 
L 276.889136 326.916873 
L 277.821727 328.041854 
L 278.754318 329.642605 
L 279.686908 326.265866 
L 280.619499 327.418467 
L 281.552089 329.448901 
L 282.48468 329.921711 
L 283.41727 329.507764 
L 285.282451 329.771849 
L 286.215042 328.40845 
L 287.147632 331.887886 
L 288.080223 332.702103 
L 289.012813 333.764483 
L 290.877994 334.713234 
L 291.810585 336.104237 
L 293.675766 330.751343 
L 294.608357 332.004317 
L 295.540947 333.769687 
L 296.473538 332.661121 
L 297.406128 335.346623 
L 298.338719 336.823801 
L 299.271309 340.818859 
L 300.2039 342.878886 
L 301.13649 343.391505 
L 302.069081 342.536778 
L 303.001671 343.596634 
L 303.934262 340.953529 
L 304.866852 341.100689 
L 305.799443 342.54723 
L 307.664624 339.308664 
L 308.597214 338.676318 
L 309.529805 338.397641 
L 310.462396 335.487635 
L 311.394986 337.409096 
L 312.327577 334.708322 
L 313.260167 333.366357 
L 314.192758 333.703875 
L 315.125348 328.800448 
L 316.057939 329.103855 
L 316.990529 330.148597 
L 317.92312 329.97326 
L 318.85571 332.59862 
L 319.788301 332.353174 
L 320.720891 331.626139 
L 321.653482 333.350185 
L 322.586072 333.896021 
L 323.518663 336.203524 
L 324.451253 332.331654 
L 325.383844 332.026194 
L 326.316435 330.694082 
L 327.249025 330.84787 
L 328.181616 330.540645 
L 329.114206 331.598735 
L 330.046797 325.379409 
L 330.979387 324.028436 
L 331.911978 325.165258 
L 332.844568 321.260607 
L 333.777159 320.058188 
L 334.709749 321.848797 
L 335.64234 321.906787 
L 336.57493 322.36755 
L 337.507521 322.306428 
L 338.440111 321.884466 
L 339.372702 321.083275 
L 340.305292 322.087329 
L 341.237883 323.2779 
L 342.170474 326.565756 
L 343.103064 328.936361 
L 344.035655 327.020227 
L 344.968245 324.829334 
L 345.900836 325.527063 
L 346.833426 323.450585 
L 347.766017 324.464032 
L 348.698607 322.711996 
L 349.631198 322.373041 
L 350.563788 322.252956 
L 351.496379 324.890642 
L 352.428969 326.664642 
L 353.36156 325.3089 
L 354.29415 327.384199 
L 356.159331 332.011681 
L 357.091922 333.21588 
L 358.024513 329.214638 
L 358.957103 329.292561 
L 359.889694 329.101975 
L 360.822284 324.392637 
L 361.754875 321.298285 
L 362.687465 319.798657 
L 363.620056 320.640272 
L 364.552646 319.79406 
L 365.485237 320.09583 
L 367.350418 316.701296 
L 368.283008 316.852009 
L 369.215599 315.681034 
L 370.148189 312.316364 
L 371.08078 313.259309 
L 372.01337 315.870263 
L 372.945961 317.694997 
L 373.878552 319.180096 
L 374.811142 320.898873 
L 375.743733 322.992431 
L 376.676323 325.577453 
L 377.608914 330.010817 
L 378.541504 330.323118 
L 379.474095 325.943434 
L 380.406685 325.325501 
L 381.339276 324.054396 
L 382.271866 324.531489 
L 383.204457 323.52878 
L 384.137047 324.449798 
L 385.069638 328.801213 
L 386.002228 329.135449 
L 386.934819 333.506161 
L 387.867409 333.370254 
L 388.8 332.208209 
L 388.8 332.208209 
" style="fill:none;stroke:#000000;stroke-linecap:square;stroke-width:0.5;"/>
   </g>
   <g id="patch_9">
    <path d="M 54 384.48 
L 54 308.88 
" style="fill:none;stroke:#000000;stroke-linecap:square;stroke-linejoin:miter;stroke-width:0.8;"/>
   </g>
   <g id="patch_10">
    <path d="M 388.8 384.48 
L 388.8 308.88 
" style="fill:none;stroke:#000000;stroke-linecap:square;stroke-linejoin:miter;stroke-width:0.8;"/>
   </g>
   <g id="patch_11">
    <path d="M 54 384.48 
L 388.8 384.48 
" style="fill:none;stroke:#000000;stroke-linecap:square;stroke-linejoin:miter;stroke-width:0.8;"/>
   </g>
   <g id="patch_12">
    <path d="M 54 308.88 
L 388.8 308.88 
" style="fill:none;stroke:#000000;stroke-linecap:square;stroke-linejoin:miter;stroke-width:0.8;"/>
   </g>
  </g>
 </g>
 <defs>
  <clipPath id="p02dce94267">
   <rect height="226.8" width="334.8" x="54" y="51.84"/>
  </clipPath>
  <clipPath id="p21e6eb538b">
   <rect height="75.6" width="334.8" x="54" y="308.88"/>
  </clipPath>
 </defs>
</svg>
