<?xml version="1.0" encoding="utf-8" standalone="no"?>
<!DOCTYPE svg PUBLIC "-//W3C//DTD SVG 1.1//EN"
  "http://www.w3.org/Graphics/SVG/1.1/DTD/svg11.dtd">
<!-- Created with matplotlib (https://matplotlib.org/) -->
<svg height="432pt" version="1.1" viewBox="0 0 432 432" width="432pt" xmlns="http://www.w3.org/2000/svg" xmlns:xlink="http://www.w3.org/1999/xlink">
 <defs>
  <style type="text/css">
*{stroke-linecap:butt;stroke-linejoin:round;}
  </style>
 </defs>
 <g id="figure_1">
  <g id="patch_1">
   <path d="M 0 432 
L 432 432 
L 432 0 
L 0 0 
z
" style="fill:#ffffff;"/>
  </g>
  <g id="axes_1">
   <g id="patch_2">
    <path d="M 54 278.64 
L 388.8 278.64 
L 388.8 51.84 
L 54 51.84 
z
" style="fill:#ffffff;"/>
   </g>
   <g id="matplotlib.axis_1">
    <g id="xtick_1">
     <g id="line2d_1">
      <defs>
       <path d="M 0 0 
L 0 3.5 
" id="m8d1d4f5783" style="stroke:#000000;stroke-width:0.8;"/>
      </defs>
      <g>
       <use style="stroke:#000000;stroke-width:0.8;" x="54" xlink:href="#m8d1d4f5783" y="278.64"/>
      </g>
     </g>
     <g id="text_1">
      <!-- 0 -->
      <defs>
       <path d="M 31.78125 66.40625 
Q 24.171875 66.40625 20.328125 58.90625 
Q 16.5 51.421875 16.5 36.375 
Q 16.5 21.390625 20.328125 13.890625 
Q 24.171875 6.390625 31.78125 6.390625 
Q 39.453125 6.390625 43.28125 13.890625 
Q 47.125 21.390625 47.125 36.375 
Q 47.125 51.421875 43.28125 58.90625 
Q 39.453125 66.40625 31.78125 66.40625 
z
M 31.78125 74.21875 
Q 44.046875 74.21875 50.515625 64.515625 
Q 56.984375 54.828125 56.984375 36.375 
Q 56.984375 17.96875 50.515625 8.265625 
Q 44.046875 -1.421875 31.78125 -1.421875 
Q 19.53125 -1.421875 13.0625 8.265625 
Q 6.59375 17.96875 6.59375 36.375 
Q 6.59375 54.828125 13.0625 64.515625 
Q 19.53125 74.21875 31.78125 74.21875 
z
" id="DejaVuSans-48"/>
      </defs>
      <g transform="translate(50.81875 293.238437)scale(0.1 -0.1)">
       <use xlink:href="#DejaVuSans-48"/>
      </g>
     </g>
    </g>
    <g id="xtick_2">
     <g id="line2d_2">
      <g>
       <use style="stroke:#000000;stroke-width:0.8;" x="117.169811" xlink:href="#m8d1d4f5783" y="278.64"/>
      </g>
     </g>
     <g id="text_2">
      <!-- 20 -->
      <defs>
       <path d="M 19.1875 8.296875 
L 53.609375 8.296875 
L 53.609375 0 
L 7.328125 0 
L 7.328125 8.296875 
Q 12.9375 14.109375 22.625 23.890625 
Q 32.328125 33.6875 34.8125 36.53125 
Q 39.546875 41.84375 41.421875 45.53125 
Q 43.3125 49.21875 43.3125 52.78125 
Q 43.3125 58.59375 39.234375 62.25 
Q 35.15625 65.921875 28.609375 65.921875 
Q 23.96875 65.921875 18.8125 64.3125 
Q 13.671875 62.703125 7.8125 59.421875 
L 7.8125 69.390625 
Q 13.765625 71.78125 18.9375 73 
Q 24.125 74.21875 28.421875 74.21875 
Q 39.75 74.21875 46.484375 68.546875 
Q 53.21875 62.890625 53.21875 53.421875 
Q 53.21875 48.921875 51.53125 44.890625 
Q 49.859375 40.875 45.40625 35.40625 
Q 44.1875 33.984375 37.640625 27.21875 
Q 31.109375 20.453125 19.1875 8.296875 
z
" id="DejaVuSans-50"/>
      </defs>
      <g transform="translate(110.807311 293.238437)scale(0.1 -0.1)">
       <use xlink:href="#DejaVuSans-50"/>
       <use x="63.623047" xlink:href="#DejaVuSans-48"/>
      </g>
     </g>
    </g>
    <g id="xtick_3">
     <g id="line2d_3">
      <g>
       <use style="stroke:#000000;stroke-width:0.8;" x="180.339623" xlink:href="#m8d1d4f5783" y="278.64"/>
      </g>
     </g>
     <g id="text_3">
      <!-- 40 -->
      <defs>
       <path d="M 37.796875 64.3125 
L 12.890625 25.390625 
L 37.796875 25.390625 
z
M 35.203125 72.90625 
L 47.609375 72.90625 
L 47.609375 25.390625 
L 58.015625 25.390625 
L 58.015625 17.1875 
L 47.609375 17.1875 
L 47.609375 0 
L 37.796875 0 
L 37.796875 17.1875 
L 4.890625 17.1875 
L 4.890625 26.703125 
z
" id="DejaVuSans-52"/>
      </defs>
      <g transform="translate(173.977123 293.238437)scale(0.1 -0.1)">
       <use xlink:href="#DejaVuSans-52"/>
       <use x="63.623047" xlink:href="#DejaVuSans-48"/>
      </g>
     </g>
    </g>
    <g id="xtick_4">
     <g id="line2d_4">
      <g>
       <use style="stroke:#000000;stroke-width:0.8;" x="243.509434" xlink:href="#m8d1d4f5783" y="278.64"/>
      </g>
     </g>
     <g id="text_4">
      <!-- 60 -->
      <defs>
       <path d="M 33.015625 40.375 
Q 26.375 40.375 22.484375 35.828125 
Q 18.609375 31.296875 18.609375 23.390625 
Q 18.609375 15.53125 22.484375 10.953125 
Q 26.375 6.390625 33.015625 6.390625 
Q 39.65625 6.390625 43.53125 10.953125 
Q 47.40625 15.53125 47.40625 23.390625 
Q 47.40625 31.296875 43.53125 35.828125 
Q 39.65625 40.375 33.015625 40.375 
z
M 52.59375 71.296875 
L 52.59375 62.3125 
Q 48.875 64.0625 45.09375 64.984375 
Q 41.3125 65.921875 37.59375 65.921875 
Q 27.828125 65.921875 22.671875 59.328125 
Q 17.53125 52.734375 16.796875 39.40625 
Q 19.671875 43.65625 24.015625 45.921875 
Q 28.375 48.1875 33.59375 48.1875 
Q 44.578125 48.1875 50.953125 41.515625 
Q 57.328125 34.859375 57.328125 23.390625 
Q 57.328125 12.15625 50.6875 5.359375 
Q 44.046875 -1.421875 33.015625 -1.421875 
Q 20.359375 -1.421875 13.671875 8.265625 
Q 6.984375 17.96875 6.984375 36.375 
Q 6.984375 53.65625 15.1875 63.9375 
Q 23.390625 74.21875 37.203125 74.21875 
Q 40.921875 74.21875 44.703125 73.484375 
Q 48.484375 72.75 52.59375 71.296875 
z
" id="DejaVuSans-54"/>
      </defs>
      <g transform="translate(237.146934 293.238437)scale(0.1 -0.1)">
       <use xlink:href="#DejaVuSans-54"/>
       <use x="63.623047" xlink:href="#DejaVuSans-48"/>
      </g>
     </g>
    </g>
    <g id="xtick_5">
     <g id="line2d_5">
      <g>
       <use style="stroke:#000000;stroke-width:0.8;" x="306.679245" xlink:href="#m8d1d4f5783" y="278.64"/>
      </g>
     </g>
     <g id="text_5">
      <!-- 80 -->
      <defs>
       <path d="M 31.78125 34.625 
Q 24.75 34.625 20.71875 30.859375 
Q 16.703125 27.09375 16.703125 20.515625 
Q 16.703125 13.921875 20.71875 10.15625 
Q 24.75 6.390625 31.78125 6.390625 
Q 38.8125 6.390625 42.859375 10.171875 
Q 46.921875 13.96875 46.921875 20.515625 
Q 46.921875 27.09375 42.890625 30.859375 
Q 38.875 34.625 31.78125 34.625 
z
M 21.921875 38.8125 
Q 15.578125 40.375 12.03125 44.71875 
Q 8.5 49.078125 8.5 55.328125 
Q 8.5 64.0625 14.71875 69.140625 
Q 20.953125 74.21875 31.78125 74.21875 
Q 42.671875 74.21875 48.875 69.140625 
Q 55.078125 64.0625 55.078125 55.328125 
Q 55.078125 49.078125 51.53125 44.71875 
Q 48 40.375 41.703125 38.8125 
Q 48.828125 37.15625 52.796875 32.3125 
Q 56.78125 27.484375 56.78125 20.515625 
Q 56.78125 9.90625 50.3125 4.234375 
Q 43.84375 -1.421875 31.78125 -1.421875 
Q 19.734375 -1.421875 13.25 4.234375 
Q 6.78125 9.90625 6.78125 20.515625 
Q 6.78125 27.484375 10.78125 32.3125 
Q 14.796875 37.15625 21.921875 38.8125 
z
M 18.3125 54.390625 
Q 18.3125 48.734375 21.84375 45.5625 
Q 25.390625 42.390625 31.78125 42.390625 
Q 38.140625 42.390625 41.71875 45.5625 
Q 45.3125 48.734375 45.3125 54.390625 
Q 45.3125 60.0625 41.71875 63.234375 
Q 38.140625 66.40625 31.78125 66.40625 
Q 25.390625 66.40625 21.84375 63.234375 
Q 18.3125 60.0625 18.3125 54.390625 
z
" id="DejaVuSans-56"/>
      </defs>
      <g transform="translate(300.316745 293.238437)scale(0.1 -0.1)">
       <use xlink:href="#DejaVuSans-56"/>
       <use x="63.623047" xlink:href="#DejaVuSans-48"/>
      </g>
     </g>
    </g>
    <g id="xtick_6">
     <g id="line2d_6">
      <g>
       <use style="stroke:#000000;stroke-width:0.8;" x="369.849057" xlink:href="#m8d1d4f5783" y="278.64"/>
      </g>
     </g>
     <g id="text_6">
      <!-- 100 -->
      <defs>
       <path d="M 12.40625 8.296875 
L 28.515625 8.296875 
L 28.515625 63.921875 
L 10.984375 60.40625 
L 10.984375 69.390625 
L 28.421875 72.90625 
L 38.28125 72.90625 
L 38.28125 8.296875 
L 54.390625 8.296875 
L 54.390625 0 
L 12.40625 0 
z
" id="DejaVuSans-49"/>
      </defs>
      <g transform="translate(360.305307 293.238437)scale(0.1 -0.1)">
       <use xlink:href="#DejaVuSans-49"/>
       <use x="63.623047" xlink:href="#DejaVuSans-48"/>
       <use x="127.246094" xlink:href="#DejaVuSans-48"/>
      </g>
     </g>
    </g>
   </g>
   <g id="matplotlib.axis_2">
    <g id="ytick_1">
     <g id="line2d_7">
      <defs>
       <path d="M 0 0 
L -3.5 0 
" id="mbe2de38e15" style="stroke:#000000;stroke-width:0.8;"/>
      </defs>
      <g>
       <use style="stroke:#000000;stroke-width:0.8;" x="54" xlink:href="#mbe2de38e15" y="278.64"/>
      </g>
     </g>
     <g id="text_7">
      <!-- 0 -->
      <g transform="translate(40.6375 282.439219)scale(0.1 -0.1)">
       <use xlink:href="#DejaVuSans-48"/>
      </g>
     </g>
    </g>
    <g id="ytick_2">
     <g id="line2d_8">
      <g>
       <use style="stroke:#000000;stroke-width:0.8;" x="54" xlink:href="#mbe2de38e15" y="252.267907"/>
      </g>
     </g>
     <g id="text_8">
      <!-- 20 -->
      <g transform="translate(34.275 256.067126)scale(0.1 -0.1)">
       <use xlink:href="#DejaVuSans-50"/>
       <use x="63.623047" xlink:href="#DejaVuSans-48"/>
      </g>
     </g>
    </g>
    <g id="ytick_3">
     <g id="line2d_9">
      <g>
       <use style="stroke:#000000;stroke-width:0.8;" x="54" xlink:href="#mbe2de38e15" y="225.895814"/>
      </g>
     </g>
     <g id="text_9">
      <!-- 40 -->
      <g transform="translate(34.275 229.695033)scale(0.1 -0.1)">
       <use xlink:href="#DejaVuSans-52"/>
       <use x="63.623047" xlink:href="#DejaVuSans-48"/>
      </g>
     </g>
    </g>
    <g id="ytick_4">
     <g id="line2d_10">
      <g>
       <use style="stroke:#000000;stroke-width:0.8;" x="54" xlink:href="#mbe2de38e15" y="199.523721"/>
      </g>
     </g>
     <g id="text_10">
      <!-- 60 -->
      <g transform="translate(34.275 203.32294)scale(0.1 -0.1)">
       <use xlink:href="#DejaVuSans-54"/>
       <use x="63.623047" xlink:href="#DejaVuSans-48"/>
      </g>
     </g>
    </g>
    <g id="ytick_5">
     <g id="line2d_11">
      <g>
       <use style="stroke:#000000;stroke-width:0.8;" x="54" xlink:href="#mbe2de38e15" y="173.151628"/>
      </g>
     </g>
     <g id="text_11">
      <!-- 80 -->
      <g transform="translate(34.275 176.950847)scale(0.1 -0.1)">
       <use xlink:href="#DejaVuSans-56"/>
       <use x="63.623047" xlink:href="#DejaVuSans-48"/>
      </g>
     </g>
    </g>
    <g id="ytick_6">
     <g id="line2d_12">
      <g>
       <use style="stroke:#000000;stroke-width:0.8;" x="54" xlink:href="#mbe2de38e15" y="146.779535"/>
      </g>
     </g>
     <g id="text_12">
      <!-- 100 -->
      <g transform="translate(27.9125 150.578754)scale(0.1 -0.1)">
       <use xlink:href="#DejaVuSans-49"/>
       <use x="63.623047" xlink:href="#DejaVuSans-48"/>
       <use x="127.246094" xlink:href="#DejaVuSans-48"/>
      </g>
     </g>
    </g>
    <g id="ytick_7">
     <g id="line2d_13">
      <g>
       <use style="stroke:#000000;stroke-width:0.8;" x="54" xlink:href="#mbe2de38e15" y="120.407442"/>
      </g>
     </g>
     <g id="text_13">
      <!-- 120 -->
      <g transform="translate(27.9125 124.206661)scale(0.1 -0.1)">
       <use xlink:href="#DejaVuSans-49"/>
       <use x="63.623047" xlink:href="#DejaVuSans-50"/>
       <use x="127.246094" xlink:href="#DejaVuSans-48"/>
      </g>
     </g>
    </g>
    <g id="ytick_8">
     <g id="line2d_14">
      <g>
       <use style="stroke:#000000;stroke-width:0.8;" x="54" xlink:href="#mbe2de38e15" y="94.035349"/>
      </g>
     </g>
     <g id="text_14">
      <!-- 140 -->
      <g transform="translate(27.9125 97.834568)scale(0.1 -0.1)">
       <use xlink:href="#DejaVuSans-49"/>
       <use x="63.623047" xlink:href="#DejaVuSans-52"/>
       <use x="127.246094" xlink:href="#DejaVuSans-48"/>
      </g>
     </g>
    </g>
    <g id="ytick_9">
     <g id="line2d_15">
      <g>
       <use style="stroke:#000000;stroke-width:0.8;" x="54" xlink:href="#mbe2de38e15" y="67.663256"/>
      </g>
     </g>
     <g id="text_15">
      <!-- 160 -->
      <g transform="translate(27.9125 71.462475)scale(0.1 -0.1)">
       <use xlink:href="#DejaVuSans-49"/>
       <use x="63.623047" xlink:href="#DejaVuSans-54"/>
       <use x="127.246094" xlink:href="#DejaVuSans-48"/>
      </g>
     </g>
    </g>
    <g id="text_16">
     <!-- RUL -->
     <defs>
      <path d="M 44.390625 34.1875 
Q 47.5625 33.109375 50.5625 29.59375 
Q 53.5625 26.078125 56.59375 19.921875 
L 66.609375 0 
L 56 0 
L 46.6875 18.703125 
Q 43.0625 26.03125 39.671875 28.421875 
Q 36.28125 30.8125 30.421875 30.8125 
L 19.671875 30.8125 
L 19.671875 0 
L 9.8125 0 
L 9.8125 72.90625 
L 32.078125 72.90625 
Q 44.578125 72.90625 50.734375 67.671875 
Q 56.890625 62.453125 56.890625 51.90625 
Q 56.890625 45.015625 53.6875 40.46875 
Q 50.484375 35.9375 44.390625 34.1875 
z
M 19.671875 64.796875 
L 19.671875 38.921875 
L 32.078125 38.921875 
Q 39.203125 38.921875 42.84375 42.21875 
Q 46.484375 45.515625 46.484375 51.90625 
Q 46.484375 58.296875 42.84375 61.546875 
Q 39.203125 64.796875 32.078125 64.796875 
z
" id="DejaVuSans-82"/>
      <path d="M 8.6875 72.90625 
L 18.609375 72.90625 
L 18.609375 28.609375 
Q 18.609375 16.890625 22.84375 11.734375 
Q 27.09375 6.59375 36.625 6.59375 
Q 46.09375 6.59375 50.34375 11.734375 
Q 54.59375 16.890625 54.59375 28.609375 
L 54.59375 72.90625 
L 64.5 72.90625 
L 64.5 27.390625 
Q 64.5 13.140625 57.4375 5.859375 
Q 50.390625 -1.421875 36.625 -1.421875 
Q 22.796875 -1.421875 15.734375 5.859375 
Q 8.6875 13.140625 8.6875 27.390625 
z
" id="DejaVuSans-85"/>
      <path d="M 9.8125 72.90625 
L 19.671875 72.90625 
L 19.671875 8.296875 
L 55.171875 8.296875 
L 55.171875 0 
L 9.8125 0 
z
" id="DejaVuSans-76"/>
     </defs>
     <g transform="translate(21.832812 175.159531)rotate(-90)scale(0.1 -0.1)">
      <use xlink:href="#DejaVuSans-82"/>
      <use x="69.482422" xlink:href="#DejaVuSans-85"/>
      <use x="142.675781" xlink:href="#DejaVuSans-76"/>
     </g>
    </g>
   </g>
   <g id="line2d_16">
    <path clip-path="url(#pd86dd21426)" d="M 57.158491 270.728372 
L 60.316981 270.728372 
L 63.475472 269.409767 
L 66.633962 269.409767 
L 69.792453 269.409767 
L 72.950943 269.409767 
L 76.109434 268.091163 
L 79.267925 268.091163 
L 82.426415 268.091163 
L 85.584906 266.772558 
L 88.743396 265.453953 
L 91.901887 265.453953 
L 95.060377 265.453953 
L 98.218868 265.453953 
L 101.377358 264.135349 
L 104.535849 264.135349 
L 107.69434 264.135349 
L 110.85283 264.135349 
L 114.011321 262.816744 
L 117.169811 262.816744 
L 120.328302 262.816744 
L 123.486792 262.816744 
L 126.645283 262.816744 
L 129.803774 261.49814 
L 132.962264 261.49814 
L 136.120755 261.49814 
L 139.279245 261.49814 
L 142.437736 260.179535 
L 145.596226 260.179535 
L 148.754717 260.179535 
L 151.913208 260.179535 
L 155.071698 258.86093 
L 158.230189 258.86093 
L 161.388679 258.86093 
L 164.54717 258.86093 
L 167.70566 257.542326 
L 170.864151 256.223721 
L 174.022642 254.905116 
L 177.181132 254.905116 
L 180.339623 249.630698 
L 183.498113 249.630698 
L 186.656604 249.630698 
L 189.815094 249.630698 
L 192.973585 248.312093 
L 196.132075 248.312093 
L 199.290566 246.993488 
L 202.449057 246.993488 
L 205.607547 244.356279 
L 208.766038 244.356279 
L 211.924528 239.08186 
L 215.083019 237.763256 
L 218.241509 236.444651 
L 221.4 235.126047 
L 224.558491 235.126047 
L 227.716981 235.126047 
L 230.875472 233.807442 
L 234.033962 233.807442 
L 237.192453 232.488837 
L 240.350943 231.170233 
L 243.509434 231.170233 
L 246.667925 231.170233 
L 249.826415 229.851628 
L 252.984906 229.851628 
L 256.143396 227.214419 
L 259.301887 227.214419 
L 262.460377 224.577209 
L 265.618868 224.577209 
L 268.777358 221.94 
L 271.935849 219.302791 
L 275.09434 217.984186 
L 278.25283 217.984186 
L 281.411321 217.984186 
L 284.569811 212.709767 
L 287.728302 211.391163 
L 290.886792 208.753953 
L 294.045283 204.79814 
L 297.203774 203.479535 
L 300.362264 202.16093 
L 303.520755 200.842326 
L 306.679245 199.523721 
L 309.837736 194.249302 
L 312.996226 186.337674 
L 316.154717 185.01907 
L 319.313208 185.01907 
L 322.471698 182.38186 
L 325.630189 182.38186 
L 328.788679 178.426047 
L 331.94717 178.426047 
L 335.10566 170.514419 
L 338.264151 166.558605 
L 341.422642 165.24 
L 344.581132 165.24 
L 347.739623 162.602791 
L 350.898113 161.284186 
L 354.056604 150.735349 
L 357.215094 149.416744 
L 360.373585 146.779535 
L 363.532075 142.823721 
L 366.690566 141.505116 
L 369.849057 141.505116 
L 373.007547 138.867907 
L 376.166038 134.912093 
L 379.324528 134.912093 
L 382.483019 112.495814 
L 385.641509 112.495814 
L 388.8 51.84 
" style="fill:none;stroke:#1f77b4;stroke-linecap:square;stroke-width:1.5;"/>
   </g>
   <g id="line2d_17">
    <path clip-path="url(#pd86dd21426)" d="M 57.158491 263.538526 
L 60.316981 247.685036 
L 63.475472 247.14964 
L 66.633962 261.462166 
L 69.792453 264.261282 
L 72.950943 249.510252 
L 76.109434 247.630978 
L 79.267925 245.46276 
L 82.426415 253.298014 
L 85.584906 239.391366 
L 88.743396 235.522522 
L 91.901887 248.443489 
L 95.060377 262.961905 
L 98.218868 247.663605 
L 101.377358 253.247738 
L 104.535849 263.986924 
L 107.69434 228.599737 
L 110.85283 255.350839 
L 114.011321 250.478444 
L 117.169811 248.786754 
L 120.328302 227.512436 
L 123.486792 237.666278 
L 126.645283 253.198479 
L 129.803774 249.619264 
L 132.962264 267.442912 
L 136.120755 249.883381 
L 139.279245 241.67809 
L 142.437736 235.408717 
L 145.596226 239.335225 
L 148.754717 259.786389 
L 151.913208 239.413124 
L 155.071698 237.418977 
L 158.230189 253.012032 
L 161.388679 243.553461 
L 164.54717 239.959476 
L 167.70566 253.574065 
L 170.864151 255.129231 
L 174.022642 239.585799 
L 177.181132 252.40939 
L 180.339623 243.072903 
L 183.498113 259.056496 
L 186.656604 213.454008 
L 189.815094 251.344988 
L 192.973585 216.991229 
L 196.132075 235.535168 
L 199.290566 228.498255 
L 202.449057 223.71776 
L 205.607547 235.152193 
L 208.766038 230.25089 
L 211.924528 245.9439 
L 215.083019 251.965091 
L 218.241509 251.554212 
L 221.4 190.812331 
L 224.558491 202.481276 
L 227.716981 211.193576 
L 230.875472 231.515583 
L 234.033962 232.827034 
L 237.192453 220.201218 
L 240.350943 199.850792 
L 243.509434 235.919737 
L 246.667925 205.951501 
L 249.826415 256.340537 
L 252.984906 189.915377 
L 256.143396 218.658196 
L 259.301887 164.211933 
L 262.460377 231.650162 
L 265.618868 227.821413 
L 268.777358 171.76052 
L 271.935849 157.675709 
L 275.09434 200.57713 
L 278.25283 231.870475 
L 281.411321 204.726501 
L 284.569811 206.996847 
L 287.728302 230.574666 
L 290.886792 202.246225 
L 294.045283 167.187968 
L 297.203774 233.447479 
L 300.362264 191.346032 
L 303.520755 176.059274 
L 306.679245 228.951415 
L 309.837736 160.590005 
L 312.996226 210.754043 
L 316.154717 165.833237 
L 319.313208 160.97384 
L 322.471698 160.492552 
L 325.630189 166.121843 
L 328.788679 164.615989 
L 331.94717 165.13137 
L 335.10566 115.884255 
L 338.264151 169.43438 
L 341.422642 194.38516 
L 344.581132 188.34385 
L 347.739623 149.876332 
L 350.898113 188.647013 
L 354.056604 158.850202 
L 357.215094 238.738336 
L 360.373585 192.323557 
L 363.532075 190.069288 
L 366.690566 160.248855 
L 369.849057 160.350392 
L 373.007547 146.521321 
L 376.166038 188.966705 
L 379.324528 150.950697 
L 382.483019 134.52368 
L 385.641509 175.604233 
L 388.8 132.713778 
" style="fill:none;stroke:#ff0000;stroke-linecap:square;stroke-width:0.5;"/>
    <defs>
     <path d="M 0 1 
C 0.265203 1 0.51958 0.894634 0.707107 0.707107 
C 0.894634 0.51958 1 0.265203 1 0 
C 1 -0.265203 0.894634 -0.51958 0.707107 -0.707107 
C 0.51958 -0.894634 0.265203 -1 0 -1 
C -0.265203 -1 -0.51958 -0.894634 -0.707107 -0.707107 
C -0.894634 -0.51958 -1 -0.265203 -1 0 
C -1 0.265203 -0.894634 0.51958 -0.707107 0.707107 
C -0.51958 0.894634 -0.265203 1 0 1 
z
" id="m8020a58a36" style="stroke:#ff0000;"/>
    </defs>
    <g clip-path="url(#pd86dd21426)">
     <use style="fill:#ff0000;stroke:#ff0000;" x="57.158491" xlink:href="#m8020a58a36" y="263.538526"/>
     <use style="fill:#ff0000;stroke:#ff0000;" x="60.316981" xlink:href="#m8020a58a36" y="247.685036"/>
     <use style="fill:#ff0000;stroke:#ff0000;" x="63.475472" xlink:href="#m8020a58a36" y="247.14964"/>
     <use style="fill:#ff0000;stroke:#ff0000;" x="66.633962" xlink:href="#m8020a58a36" y="261.462166"/>
     <use style="fill:#ff0000;stroke:#ff0000;" x="69.792453" xlink:href="#m8020a58a36" y="264.261282"/>
     <use style="fill:#ff0000;stroke:#ff0000;" x="72.950943" xlink:href="#m8020a58a36" y="249.510252"/>
     <use style="fill:#ff0000;stroke:#ff0000;" x="76.109434" xlink:href="#m8020a58a36" y="247.630978"/>
     <use style="fill:#ff0000;stroke:#ff0000;" x="79.267925" xlink:href="#m8020a58a36" y="245.46276"/>
     <use style="fill:#ff0000;stroke:#ff0000;" x="82.426415" xlink:href="#m8020a58a36" y="253.298014"/>
     <use style="fill:#ff0000;stroke:#ff0000;" x="85.584906" xlink:href="#m8020a58a36" y="239.391366"/>
     <use style="fill:#ff0000;stroke:#ff0000;" x="88.743396" xlink:href="#m8020a58a36" y="235.522522"/>
     <use style="fill:#ff0000;stroke:#ff0000;" x="91.901887" xlink:href="#m8020a58a36" y="248.443489"/>
     <use style="fill:#ff0000;stroke:#ff0000;" x="95.060377" xlink:href="#m8020a58a36" y="262.961905"/>
     <use style="fill:#ff0000;stroke:#ff0000;" x="98.218868" xlink:href="#m8020a58a36" y="247.663605"/>
     <use style="fill:#ff0000;stroke:#ff0000;" x="101.377358" xlink:href="#m8020a58a36" y="253.247738"/>
     <use style="fill:#ff0000;stroke:#ff0000;" x="104.535849" xlink:href="#m8020a58a36" y="263.986924"/>
     <use style="fill:#ff0000;stroke:#ff0000;" x="107.69434" xlink:href="#m8020a58a36" y="228.599737"/>
     <use style="fill:#ff0000;stroke:#ff0000;" x="110.85283" xlink:href="#m8020a58a36" y="255.350839"/>
     <use style="fill:#ff0000;stroke:#ff0000;" x="114.011321" xlink:href="#m8020a58a36" y="250.478444"/>
     <use style="fill:#ff0000;stroke:#ff0000;" x="117.169811" xlink:href="#m8020a58a36" y="248.786754"/>
     <use style="fill:#ff0000;stroke:#ff0000;" x="120.328302" xlink:href="#m8020a58a36" y="227.512436"/>
     <use style="fill:#ff0000;stroke:#ff0000;" x="123.486792" xlink:href="#m8020a58a36" y="237.666278"/>
     <use style="fill:#ff0000;stroke:#ff0000;" x="126.645283" xlink:href="#m8020a58a36" y="253.198479"/>
     <use style="fill:#ff0000;stroke:#ff0000;" x="129.803774" xlink:href="#m8020a58a36" y="249.619264"/>
     <use style="fill:#ff0000;stroke:#ff0000;" x="132.962264" xlink:href="#m8020a58a36" y="267.442912"/>
     <use style="fill:#ff0000;stroke:#ff0000;" x="136.120755" xlink:href="#m8020a58a36" y="249.883381"/>
     <use style="fill:#ff0000;stroke:#ff0000;" x="139.279245" xlink:href="#m8020a58a36" y="241.67809"/>
     <use style="fill:#ff0000;stroke:#ff0000;" x="142.437736" xlink:href="#m8020a58a36" y="235.408717"/>
     <use style="fill:#ff0000;stroke:#ff0000;" x="145.596226" xlink:href="#m8020a58a36" y="239.335225"/>
     <use style="fill:#ff0000;stroke:#ff0000;" x="148.754717" xlink:href="#m8020a58a36" y="259.786389"/>
     <use style="fill:#ff0000;stroke:#ff0000;" x="151.913208" xlink:href="#m8020a58a36" y="239.413124"/>
     <use style="fill:#ff0000;stroke:#ff0000;" x="155.071698" xlink:href="#m8020a58a36" y="237.418977"/>
     <use style="fill:#ff0000;stroke:#ff0000;" x="158.230189" xlink:href="#m8020a58a36" y="253.012032"/>
     <use style="fill:#ff0000;stroke:#ff0000;" x="161.388679" xlink:href="#m8020a58a36" y="243.553461"/>
     <use style="fill:#ff0000;stroke:#ff0000;" x="164.54717" xlink:href="#m8020a58a36" y="239.959476"/>
     <use style="fill:#ff0000;stroke:#ff0000;" x="167.70566" xlink:href="#m8020a58a36" y="253.574065"/>
     <use style="fill:#ff0000;stroke:#ff0000;" x="170.864151" xlink:href="#m8020a58a36" y="255.129231"/>
     <use style="fill:#ff0000;stroke:#ff0000;" x="174.022642" xlink:href="#m8020a58a36" y="239.585799"/>
     <use style="fill:#ff0000;stroke:#ff0000;" x="177.181132" xlink:href="#m8020a58a36" y="252.40939"/>
     <use style="fill:#ff0000;stroke:#ff0000;" x="180.339623" xlink:href="#m8020a58a36" y="243.072903"/>
     <use style="fill:#ff0000;stroke:#ff0000;" x="183.498113" xlink:href="#m8020a58a36" y="259.056496"/>
     <use style="fill:#ff0000;stroke:#ff0000;" x="186.656604" xlink:href="#m8020a58a36" y="213.454008"/>
     <use style="fill:#ff0000;stroke:#ff0000;" x="189.815094" xlink:href="#m8020a58a36" y="251.344988"/>
     <use style="fill:#ff0000;stroke:#ff0000;" x="192.973585" xlink:href="#m8020a58a36" y="216.991229"/>
     <use style="fill:#ff0000;stroke:#ff0000;" x="196.132075" xlink:href="#m8020a58a36" y="235.535168"/>
     <use style="fill:#ff0000;stroke:#ff0000;" x="199.290566" xlink:href="#m8020a58a36" y="228.498255"/>
     <use style="fill:#ff0000;stroke:#ff0000;" x="202.449057" xlink:href="#m8020a58a36" y="223.71776"/>
     <use style="fill:#ff0000;stroke:#ff0000;" x="205.607547" xlink:href="#m8020a58a36" y="235.152193"/>
     <use style="fill:#ff0000;stroke:#ff0000;" x="208.766038" xlink:href="#m8020a58a36" y="230.25089"/>
     <use style="fill:#ff0000;stroke:#ff0000;" x="211.924528" xlink:href="#m8020a58a36" y="245.9439"/>
     <use style="fill:#ff0000;stroke:#ff0000;" x="215.083019" xlink:href="#m8020a58a36" y="251.965091"/>
     <use style="fill:#ff0000;stroke:#ff0000;" x="218.241509" xlink:href="#m8020a58a36" y="251.554212"/>
     <use style="fill:#ff0000;stroke:#ff0000;" x="221.4" xlink:href="#m8020a58a36" y="190.812331"/>
     <use style="fill:#ff0000;stroke:#ff0000;" x="224.558491" xlink:href="#m8020a58a36" y="202.481276"/>
     <use style="fill:#ff0000;stroke:#ff0000;" x="227.716981" xlink:href="#m8020a58a36" y="211.193576"/>
     <use style="fill:#ff0000;stroke:#ff0000;" x="230.875472" xlink:href="#m8020a58a36" y="231.515583"/>
     <use style="fill:#ff0000;stroke:#ff0000;" x="234.033962" xlink:href="#m8020a58a36" y="232.827034"/>
     <use style="fill:#ff0000;stroke:#ff0000;" x="237.192453" xlink:href="#m8020a58a36" y="220.201218"/>
     <use style="fill:#ff0000;stroke:#ff0000;" x="240.350943" xlink:href="#m8020a58a36" y="199.850792"/>
     <use style="fill:#ff0000;stroke:#ff0000;" x="243.509434" xlink:href="#m8020a58a36" y="235.919737"/>
     <use style="fill:#ff0000;stroke:#ff0000;" x="246.667925" xlink:href="#m8020a58a36" y="205.951501"/>
     <use style="fill:#ff0000;stroke:#ff0000;" x="249.826415" xlink:href="#m8020a58a36" y="256.340537"/>
     <use style="fill:#ff0000;stroke:#ff0000;" x="252.984906" xlink:href="#m8020a58a36" y="189.915377"/>
     <use style="fill:#ff0000;stroke:#ff0000;" x="256.143396" xlink:href="#m8020a58a36" y="218.658196"/>
     <use style="fill:#ff0000;stroke:#ff0000;" x="259.301887" xlink:href="#m8020a58a36" y="164.211933"/>
     <use style="fill:#ff0000;stroke:#ff0000;" x="262.460377" xlink:href="#m8020a58a36" y="231.650162"/>
     <use style="fill:#ff0000;stroke:#ff0000;" x="265.618868" xlink:href="#m8020a58a36" y="227.821413"/>
     <use style="fill:#ff0000;stroke:#ff0000;" x="268.777358" xlink:href="#m8020a58a36" y="171.76052"/>
     <use style="fill:#ff0000;stroke:#ff0000;" x="271.935849" xlink:href="#m8020a58a36" y="157.675709"/>
     <use style="fill:#ff0000;stroke:#ff0000;" x="275.09434" xlink:href="#m8020a58a36" y="200.57713"/>
     <use style="fill:#ff0000;stroke:#ff0000;" x="278.25283" xlink:href="#m8020a58a36" y="231.870475"/>
     <use style="fill:#ff0000;stroke:#ff0000;" x="281.411321" xlink:href="#m8020a58a36" y="204.726501"/>
     <use style="fill:#ff0000;stroke:#ff0000;" x="284.569811" xlink:href="#m8020a58a36" y="206.996847"/>
     <use style="fill:#ff0000;stroke:#ff0000;" x="287.728302" xlink:href="#m8020a58a36" y="230.574666"/>
     <use style="fill:#ff0000;stroke:#ff0000;" x="290.886792" xlink:href="#m8020a58a36" y="202.246225"/>
     <use style="fill:#ff0000;stroke:#ff0000;" x="294.045283" xlink:href="#m8020a58a36" y="167.187968"/>
     <use style="fill:#ff0000;stroke:#ff0000;" x="297.203774" xlink:href="#m8020a58a36" y="233.447479"/>
     <use style="fill:#ff0000;stroke:#ff0000;" x="300.362264" xlink:href="#m8020a58a36" y="191.346032"/>
     <use style="fill:#ff0000;stroke:#ff0000;" x="303.520755" xlink:href="#m8020a58a36" y="176.059274"/>
     <use style="fill:#ff0000;stroke:#ff0000;" x="306.679245" xlink:href="#m8020a58a36" y="228.951415"/>
     <use style="fill:#ff0000;stroke:#ff0000;" x="309.837736" xlink:href="#m8020a58a36" y="160.590005"/>
     <use style="fill:#ff0000;stroke:#ff0000;" x="312.996226" xlink:href="#m8020a58a36" y="210.754043"/>
     <use style="fill:#ff0000;stroke:#ff0000;" x="316.154717" xlink:href="#m8020a58a36" y="165.833237"/>
     <use style="fill:#ff0000;stroke:#ff0000;" x="319.313208" xlink:href="#m8020a58a36" y="160.97384"/>
     <use style="fill:#ff0000;stroke:#ff0000;" x="322.471698" xlink:href="#m8020a58a36" y="160.492552"/>
     <use style="fill:#ff0000;stroke:#ff0000;" x="325.630189" xlink:href="#m8020a58a36" y="166.121843"/>
     <use style="fill:#ff0000;stroke:#ff0000;" x="328.788679" xlink:href="#m8020a58a36" y="164.615989"/>
     <use style="fill:#ff0000;stroke:#ff0000;" x="331.94717" xlink:href="#m8020a58a36" y="165.13137"/>
     <use style="fill:#ff0000;stroke:#ff0000;" x="335.10566" xlink:href="#m8020a58a36" y="115.884255"/>
     <use style="fill:#ff0000;stroke:#ff0000;" x="338.264151" xlink:href="#m8020a58a36" y="169.43438"/>
     <use style="fill:#ff0000;stroke:#ff0000;" x="341.422642" xlink:href="#m8020a58a36" y="194.38516"/>
     <use style="fill:#ff0000;stroke:#ff0000;" x="344.581132" xlink:href="#m8020a58a36" y="188.34385"/>
     <use style="fill:#ff0000;stroke:#ff0000;" x="347.739623" xlink:href="#m8020a58a36" y="149.876332"/>
     <use style="fill:#ff0000;stroke:#ff0000;" x="350.898113" xlink:href="#m8020a58a36" y="188.647013"/>
     <use style="fill:#ff0000;stroke:#ff0000;" x="354.056604" xlink:href="#m8020a58a36" y="158.850202"/>
     <use style="fill:#ff0000;stroke:#ff0000;" x="357.215094" xlink:href="#m8020a58a36" y="238.738336"/>
     <use style="fill:#ff0000;stroke:#ff0000;" x="360.373585" xlink:href="#m8020a58a36" y="192.323557"/>
     <use style="fill:#ff0000;stroke:#ff0000;" x="363.532075" xlink:href="#m8020a58a36" y="190.069288"/>
     <use style="fill:#ff0000;stroke:#ff0000;" x="366.690566" xlink:href="#m8020a58a36" y="160.248855"/>
     <use style="fill:#ff0000;stroke:#ff0000;" x="369.849057" xlink:href="#m8020a58a36" y="160.350392"/>
     <use style="fill:#ff0000;stroke:#ff0000;" x="373.007547" xlink:href="#m8020a58a36" y="146.521321"/>
     <use style="fill:#ff0000;stroke:#ff0000;" x="376.166038" xlink:href="#m8020a58a36" y="188.966705"/>
     <use style="fill:#ff0000;stroke:#ff0000;" x="379.324528" xlink:href="#m8020a58a36" y="150.950697"/>
     <use style="fill:#ff0000;stroke:#ff0000;" x="382.483019" xlink:href="#m8020a58a36" y="134.52368"/>
     <use style="fill:#ff0000;stroke:#ff0000;" x="385.641509" xlink:href="#m8020a58a36" y="175.604233"/>
     <use style="fill:#ff0000;stroke:#ff0000;" x="388.8" xlink:href="#m8020a58a36" y="132.713778"/>
    </g>
   </g>
   <g id="patch_3">
    <path d="M 54 278.64 
L 54 51.84 
" style="fill:none;stroke:#000000;stroke-linecap:square;stroke-linejoin:miter;stroke-width:0.8;"/>
   </g>
   <g id="patch_4">
    <path d="M 388.8 278.64 
L 388.8 51.84 
" style="fill:none;stroke:#000000;stroke-linecap:square;stroke-linejoin:miter;stroke-width:0.8;"/>
   </g>
   <g id="patch_5">
    <path d="M 54 278.64 
L 388.8 278.64 
" style="fill:none;stroke:#000000;stroke-linecap:square;stroke-linejoin:miter;stroke-width:0.8;"/>
   </g>
   <g id="patch_6">
    <path d="M 54 51.84 
L 388.8 51.84 
" style="fill:none;stroke:#000000;stroke-linecap:square;stroke-linejoin:miter;stroke-width:0.8;"/>
   </g>
   <g id="legend_1">
    <g id="patch_7">
     <path d="M 279.842188 89.19625 
L 381.8 89.19625 
Q 383.8 89.19625 383.8 87.19625 
L 383.8 58.84 
Q 383.8 56.84 381.8 56.84 
L 279.842188 56.84 
Q 277.842188 56.84 277.842188 58.84 
L 277.842188 87.19625 
Q 277.842188 89.19625 279.842188 89.19625 
z
" style="fill:#ffffff;opacity:0.8;stroke:#cccccc;stroke-linejoin:miter;"/>
    </g>
    <g id="line2d_18">
     <path d="M 281.842188 64.938437 
L 301.842188 64.938437 
" style="fill:none;stroke:#1f77b4;stroke-linecap:square;stroke-width:1.5;"/>
    </g>
    <g id="line2d_19"/>
    <g id="text_17">
     <!-- True RUL -->
     <defs>
      <path d="M -0.296875 72.90625 
L 61.375 72.90625 
L 61.375 64.59375 
L 35.5 64.59375 
L 35.5 0 
L 25.59375 0 
L 25.59375 64.59375 
L -0.296875 64.59375 
z
" id="DejaVuSans-84"/>
      <path d="M 41.109375 46.296875 
Q 39.59375 47.171875 37.8125 47.578125 
Q 36.03125 48 33.890625 48 
Q 26.265625 48 22.1875 43.046875 
Q 18.109375 38.09375 18.109375 28.8125 
L 18.109375 0 
L 9.078125 0 
L 9.078125 54.6875 
L 18.109375 54.6875 
L 18.109375 46.1875 
Q 20.953125 51.171875 25.484375 53.578125 
Q 30.03125 56 36.53125 56 
Q 37.453125 56 38.578125 55.875 
Q 39.703125 55.765625 41.0625 55.515625 
z
" id="DejaVuSans-114"/>
      <path d="M 8.5 21.578125 
L 8.5 54.6875 
L 17.484375 54.6875 
L 17.484375 21.921875 
Q 17.484375 14.15625 20.5 10.265625 
Q 23.53125 6.390625 29.59375 6.390625 
Q 36.859375 6.390625 41.078125 11.03125 
Q 45.3125 15.671875 45.3125 23.6875 
L 45.3125 54.6875 
L 54.296875 54.6875 
L 54.296875 0 
L 45.3125 0 
L 45.3125 8.40625 
Q 42.046875 3.421875 37.71875 1 
Q 33.40625 -1.421875 27.6875 -1.421875 
Q 18.265625 -1.421875 13.375 4.4375 
Q 8.5 10.296875 8.5 21.578125 
z
M 31.109375 56 
z
" id="DejaVuSans-117"/>
      <path d="M 56.203125 29.59375 
L 56.203125 25.203125 
L 14.890625 25.203125 
Q 15.484375 15.921875 20.484375 11.0625 
Q 25.484375 6.203125 34.421875 6.203125 
Q 39.59375 6.203125 44.453125 7.46875 
Q 49.3125 8.734375 54.109375 11.28125 
L 54.109375 2.78125 
Q 49.265625 0.734375 44.1875 -0.34375 
Q 39.109375 -1.421875 33.890625 -1.421875 
Q 20.796875 -1.421875 13.15625 6.1875 
Q 5.515625 13.8125 5.515625 26.8125 
Q 5.515625 40.234375 12.765625 48.109375 
Q 20.015625 56 32.328125 56 
Q 43.359375 56 49.78125 48.890625 
Q 56.203125 41.796875 56.203125 29.59375 
z
M 47.21875 32.234375 
Q 47.125 39.59375 43.09375 43.984375 
Q 39.0625 48.390625 32.421875 48.390625 
Q 24.90625 48.390625 20.390625 44.140625 
Q 15.875 39.890625 15.1875 32.171875 
z
" id="DejaVuSans-101"/>
      <path id="DejaVuSans-32"/>
     </defs>
     <g transform="translate(309.842188 68.438437)scale(0.1 -0.1)">
      <use xlink:href="#DejaVuSans-84"/>
      <use x="46.333984" xlink:href="#DejaVuSans-114"/>
      <use x="87.447266" xlink:href="#DejaVuSans-117"/>
      <use x="150.826172" xlink:href="#DejaVuSans-101"/>
      <use x="212.349609" xlink:href="#DejaVuSans-32"/>
      <use x="244.136719" xlink:href="#DejaVuSans-82"/>
      <use x="313.619141" xlink:href="#DejaVuSans-85"/>
      <use x="386.8125" xlink:href="#DejaVuSans-76"/>
     </g>
    </g>
    <g id="line2d_20">
     <path d="M 281.842188 79.616562 
L 301.842188 79.616562 
" style="fill:none;stroke:#ff0000;stroke-linecap:square;stroke-width:0.5;"/>
    </g>
    <g id="line2d_21">
     <g>
      <use style="fill:#ff0000;stroke:#ff0000;" x="291.842188" xlink:href="#m8020a58a36" y="79.616562"/>
     </g>
    </g>
    <g id="text_18">
     <!-- Predicted RUL -->
     <defs>
      <path d="M 19.671875 64.796875 
L 19.671875 37.40625 
L 32.078125 37.40625 
Q 38.96875 37.40625 42.71875 40.96875 
Q 46.484375 44.53125 46.484375 51.125 
Q 46.484375 57.671875 42.71875 61.234375 
Q 38.96875 64.796875 32.078125 64.796875 
z
M 9.8125 72.90625 
L 32.078125 72.90625 
Q 44.34375 72.90625 50.609375 67.359375 
Q 56.890625 61.8125 56.890625 51.125 
Q 56.890625 40.328125 50.609375 34.8125 
Q 44.34375 29.296875 32.078125 29.296875 
L 19.671875 29.296875 
L 19.671875 0 
L 9.8125 0 
z
" id="DejaVuSans-80"/>
      <path d="M 45.40625 46.390625 
L 45.40625 75.984375 
L 54.390625 75.984375 
L 54.390625 0 
L 45.40625 0 
L 45.40625 8.203125 
Q 42.578125 3.328125 38.25 0.953125 
Q 33.9375 -1.421875 27.875 -1.421875 
Q 17.96875 -1.421875 11.734375 6.484375 
Q 5.515625 14.40625 5.515625 27.296875 
Q 5.515625 40.1875 11.734375 48.09375 
Q 17.96875 56 27.875 56 
Q 33.9375 56 38.25 53.625 
Q 42.578125 51.265625 45.40625 46.390625 
z
M 14.796875 27.296875 
Q 14.796875 17.390625 18.875 11.75 
Q 22.953125 6.109375 30.078125 6.109375 
Q 37.203125 6.109375 41.296875 11.75 
Q 45.40625 17.390625 45.40625 27.296875 
Q 45.40625 37.203125 41.296875 42.84375 
Q 37.203125 48.484375 30.078125 48.484375 
Q 22.953125 48.484375 18.875 42.84375 
Q 14.796875 37.203125 14.796875 27.296875 
z
" id="DejaVuSans-100"/>
      <path d="M 9.421875 54.6875 
L 18.40625 54.6875 
L 18.40625 0 
L 9.421875 0 
z
M 9.421875 75.984375 
L 18.40625 75.984375 
L 18.40625 64.59375 
L 9.421875 64.59375 
z
" id="DejaVuSans-105"/>
      <path d="M 48.78125 52.59375 
L 48.78125 44.1875 
Q 44.96875 46.296875 41.140625 47.34375 
Q 37.3125 48.390625 33.40625 48.390625 
Q 24.65625 48.390625 19.8125 42.84375 
Q 14.984375 37.3125 14.984375 27.296875 
Q 14.984375 17.28125 19.8125 11.734375 
Q 24.65625 6.203125 33.40625 6.203125 
Q 37.3125 6.203125 41.140625 7.25 
Q 44.96875 8.296875 48.78125 10.40625 
L 48.78125 2.09375 
Q 45.015625 0.34375 40.984375 -0.53125 
Q 36.96875 -1.421875 32.421875 -1.421875 
Q 20.0625 -1.421875 12.78125 6.34375 
Q 5.515625 14.109375 5.515625 27.296875 
Q 5.515625 40.671875 12.859375 48.328125 
Q 20.21875 56 33.015625 56 
Q 37.15625 56 41.109375 55.140625 
Q 45.0625 54.296875 48.78125 52.59375 
z
" id="DejaVuSans-99"/>
      <path d="M 18.3125 70.21875 
L 18.3125 54.6875 
L 36.8125 54.6875 
L 36.8125 47.703125 
L 18.3125 47.703125 
L 18.3125 18.015625 
Q 18.3125 11.328125 20.140625 9.421875 
Q 21.96875 7.515625 27.59375 7.515625 
L 36.8125 7.515625 
L 36.8125 0 
L 27.59375 0 
Q 17.1875 0 13.234375 3.875 
Q 9.28125 7.765625 9.28125 18.015625 
L 9.28125 47.703125 
L 2.6875 47.703125 
L 2.6875 54.6875 
L 9.28125 54.6875 
L 9.28125 70.21875 
z
" id="DejaVuSans-116"/>
     </defs>
     <g transform="translate(309.842188 83.116562)scale(0.1 -0.1)">
      <use xlink:href="#DejaVuSans-80"/>
      <use x="58.552734" xlink:href="#DejaVuSans-114"/>
      <use x="97.416016" xlink:href="#DejaVuSans-101"/>
      <use x="158.939453" xlink:href="#DejaVuSans-100"/>
      <use x="222.416016" xlink:href="#DejaVuSans-105"/>
      <use x="250.199219" xlink:href="#DejaVuSans-99"/>
      <use x="305.179688" xlink:href="#DejaVuSans-116"/>
      <use x="344.388672" xlink:href="#DejaVuSans-101"/>
      <use x="405.912109" xlink:href="#DejaVuSans-100"/>
      <use x="469.388672" xlink:href="#DejaVuSans-32"/>
      <use x="501.175781" xlink:href="#DejaVuSans-82"/>
      <use x="570.658203" xlink:href="#DejaVuSans-85"/>
      <use x="643.851562" xlink:href="#DejaVuSans-76"/>
     </g>
    </g>
   </g>
  </g>
  <g id="axes_2">
   <g id="patch_8">
    <path d="M 54 384.48 
L 388.8 384.48 
L 388.8 308.88 
L 54 308.88 
z
" style="fill:#ffffff;"/>
   </g>
   <g id="matplotlib.axis_3">
    <g id="xtick_7">
     <g id="line2d_22">
      <g>
       <use style="stroke:#000000;stroke-width:0.8;" x="54" xlink:href="#m8d1d4f5783" y="384.48"/>
      </g>
     </g>
     <g id="text_19">
      <!-- 0 -->
      <g transform="translate(50.81875 399.078437)scale(0.1 -0.1)">
       <use xlink:href="#DejaVuSans-48"/>
      </g>
     </g>
    </g>
    <g id="xtick_8">
     <g id="line2d_23">
      <g>
       <use style="stroke:#000000;stroke-width:0.8;" x="117.169811" xlink:href="#m8d1d4f5783" y="384.48"/>
      </g>
     </g>
     <g id="text_20">
      <!-- 20 -->
      <g transform="translate(110.807311 399.078437)scale(0.1 -0.1)">
       <use xlink:href="#DejaVuSans-50"/>
       <use x="63.623047" xlink:href="#DejaVuSans-48"/>
      </g>
     </g>
    </g>
    <g id="xtick_9">
     <g id="line2d_24">
      <g>
       <use style="stroke:#000000;stroke-width:0.8;" x="180.339623" xlink:href="#m8d1d4f5783" y="384.48"/>
      </g>
     </g>
     <g id="text_21">
      <!-- 40 -->
      <g transform="translate(173.977123 399.078437)scale(0.1 -0.1)">
       <use xlink:href="#DejaVuSans-52"/>
       <use x="63.623047" xlink:href="#DejaVuSans-48"/>
      </g>
     </g>
    </g>
    <g id="xtick_10">
     <g id="line2d_25">
      <g>
       <use style="stroke:#000000;stroke-width:0.8;" x="243.509434" xlink:href="#m8d1d4f5783" y="384.48"/>
      </g>
     </g>
     <g id="text_22">
      <!-- 60 -->
      <g transform="translate(237.146934 399.078437)scale(0.1 -0.1)">
       <use xlink:href="#DejaVuSans-54"/>
       <use x="63.623047" xlink:href="#DejaVuSans-48"/>
      </g>
     </g>
    </g>
    <g id="xtick_11">
     <g id="line2d_26">
      <g>
       <use style="stroke:#000000;stroke-width:0.8;" x="306.679245" xlink:href="#m8d1d4f5783" y="384.48"/>
      </g>
     </g>
     <g id="text_23">
      <!-- 80 -->
      <g transform="translate(300.316745 399.078437)scale(0.1 -0.1)">
       <use xlink:href="#DejaVuSans-56"/>
       <use x="63.623047" xlink:href="#DejaVuSans-48"/>
      </g>
     </g>
    </g>
    <g id="xtick_12">
     <g id="line2d_27">
      <g>
       <use style="stroke:#000000;stroke-width:0.8;" x="369.849057" xlink:href="#m8d1d4f5783" y="384.48"/>
      </g>
     </g>
     <g id="text_24">
      <!-- 100 -->
      <g transform="translate(360.305307 399.078437)scale(0.1 -0.1)">
       <use xlink:href="#DejaVuSans-49"/>
       <use x="63.623047" xlink:href="#DejaVuSans-48"/>
       <use x="127.246094" xlink:href="#DejaVuSans-48"/>
      </g>
     </g>
    </g>
    <g id="text_25">
     <!-- Engne sample -->
     <defs>
      <path d="M 9.8125 72.90625 
L 55.90625 72.90625 
L 55.90625 64.59375 
L 19.671875 64.59375 
L 19.671875 43.015625 
L 54.390625 43.015625 
L 54.390625 34.71875 
L 19.671875 34.71875 
L 19.671875 8.296875 
L 56.78125 8.296875 
L 56.78125 0 
L 9.8125 0 
z
" id="DejaVuSans-69"/>
      <path d="M 54.890625 33.015625 
L 54.890625 0 
L 45.90625 0 
L 45.90625 32.71875 
Q 45.90625 40.484375 42.875 44.328125 
Q 39.84375 48.1875 33.796875 48.1875 
Q 26.515625 48.1875 22.3125 43.546875 
Q 18.109375 38.921875 18.109375 30.90625 
L 18.109375 0 
L 9.078125 0 
L 9.078125 54.6875 
L 18.109375 54.6875 
L 18.109375 46.1875 
Q 21.34375 51.125 25.703125 53.5625 
Q 30.078125 56 35.796875 56 
Q 45.21875 56 50.046875 50.171875 
Q 54.890625 44.34375 54.890625 33.015625 
z
" id="DejaVuSans-110"/>
      <path d="M 45.40625 27.984375 
Q 45.40625 37.75 41.375 43.109375 
Q 37.359375 48.484375 30.078125 48.484375 
Q 22.859375 48.484375 18.828125 43.109375 
Q 14.796875 37.75 14.796875 27.984375 
Q 14.796875 18.265625 18.828125 12.890625 
Q 22.859375 7.515625 30.078125 7.515625 
Q 37.359375 7.515625 41.375 12.890625 
Q 45.40625 18.265625 45.40625 27.984375 
z
M 54.390625 6.78125 
Q 54.390625 -7.171875 48.1875 -13.984375 
Q 42 -20.796875 29.203125 -20.796875 
Q 24.46875 -20.796875 20.265625 -20.09375 
Q 16.0625 -19.390625 12.109375 -17.921875 
L 12.109375 -9.1875 
Q 16.0625 -11.328125 19.921875 -12.34375 
Q 23.78125 -13.375 27.78125 -13.375 
Q 36.625 -13.375 41.015625 -8.765625 
Q 45.40625 -4.15625 45.40625 5.171875 
L 45.40625 9.625 
Q 42.625 4.78125 38.28125 2.390625 
Q 33.9375 0 27.875 0 
Q 17.828125 0 11.671875 7.65625 
Q 5.515625 15.328125 5.515625 27.984375 
Q 5.515625 40.671875 11.671875 48.328125 
Q 17.828125 56 27.875 56 
Q 33.9375 56 38.28125 53.609375 
Q 42.625 51.21875 45.40625 46.390625 
L 45.40625 54.6875 
L 54.390625 54.6875 
z
" id="DejaVuSans-103"/>
      <path d="M 44.28125 53.078125 
L 44.28125 44.578125 
Q 40.484375 46.53125 36.375 47.5 
Q 32.28125 48.484375 27.875 48.484375 
Q 21.1875 48.484375 17.84375 46.4375 
Q 14.5 44.390625 14.5 40.28125 
Q 14.5 37.15625 16.890625 35.375 
Q 19.28125 33.59375 26.515625 31.984375 
L 29.59375 31.296875 
Q 39.15625 29.25 43.1875 25.515625 
Q 47.21875 21.78125 47.21875 15.09375 
Q 47.21875 7.46875 41.1875 3.015625 
Q 35.15625 -1.421875 24.609375 -1.421875 
Q 20.21875 -1.421875 15.453125 -0.5625 
Q 10.6875 0.296875 5.421875 2 
L 5.421875 11.28125 
Q 10.40625 8.6875 15.234375 7.390625 
Q 20.0625 6.109375 24.8125 6.109375 
Q 31.15625 6.109375 34.5625 8.28125 
Q 37.984375 10.453125 37.984375 14.40625 
Q 37.984375 18.0625 35.515625 20.015625 
Q 33.0625 21.96875 24.703125 23.78125 
L 21.578125 24.515625 
Q 13.234375 26.265625 9.515625 29.90625 
Q 5.8125 33.546875 5.8125 39.890625 
Q 5.8125 47.609375 11.28125 51.796875 
Q 16.75 56 26.8125 56 
Q 31.78125 56 36.171875 55.265625 
Q 40.578125 54.546875 44.28125 53.078125 
z
" id="DejaVuSans-115"/>
      <path d="M 34.28125 27.484375 
Q 23.390625 27.484375 19.1875 25 
Q 14.984375 22.515625 14.984375 16.5 
Q 14.984375 11.71875 18.140625 8.90625 
Q 21.296875 6.109375 26.703125 6.109375 
Q 34.1875 6.109375 38.703125 11.40625 
Q 43.21875 16.703125 43.21875 25.484375 
L 43.21875 27.484375 
z
M 52.203125 31.203125 
L 52.203125 0 
L 43.21875 0 
L 43.21875 8.296875 
Q 40.140625 3.328125 35.546875 0.953125 
Q 30.953125 -1.421875 24.3125 -1.421875 
Q 15.921875 -1.421875 10.953125 3.296875 
Q 6 8.015625 6 15.921875 
Q 6 25.140625 12.171875 29.828125 
Q 18.359375 34.515625 30.609375 34.515625 
L 43.21875 34.515625 
L 43.21875 35.40625 
Q 43.21875 41.609375 39.140625 45 
Q 35.0625 48.390625 27.6875 48.390625 
Q 23 48.390625 18.546875 47.265625 
Q 14.109375 46.140625 10.015625 43.890625 
L 10.015625 52.203125 
Q 14.9375 54.109375 19.578125 55.046875 
Q 24.21875 56 28.609375 56 
Q 40.484375 56 46.34375 49.84375 
Q 52.203125 43.703125 52.203125 31.203125 
z
" id="DejaVuSans-97"/>
      <path d="M 52 44.1875 
Q 55.375 50.25 60.0625 53.125 
Q 64.75 56 71.09375 56 
Q 79.640625 56 84.28125 50.015625 
Q 88.921875 44.046875 88.921875 33.015625 
L 88.921875 0 
L 79.890625 0 
L 79.890625 32.71875 
Q 79.890625 40.578125 77.09375 44.375 
Q 74.3125 48.1875 68.609375 48.1875 
Q 61.625 48.1875 57.5625 43.546875 
Q 53.515625 38.921875 53.515625 30.90625 
L 53.515625 0 
L 44.484375 0 
L 44.484375 32.71875 
Q 44.484375 40.625 41.703125 44.40625 
Q 38.921875 48.1875 33.109375 48.1875 
Q 26.21875 48.1875 22.15625 43.53125 
Q 18.109375 38.875 18.109375 30.90625 
L 18.109375 0 
L 9.078125 0 
L 9.078125 54.6875 
L 18.109375 54.6875 
L 18.109375 46.1875 
Q 21.1875 51.21875 25.484375 53.609375 
Q 29.78125 56 35.6875 56 
Q 41.65625 56 45.828125 52.96875 
Q 50 49.953125 52 44.1875 
z
" id="DejaVuSans-109"/>
      <path d="M 18.109375 8.203125 
L 18.109375 -20.796875 
L 9.078125 -20.796875 
L 9.078125 54.6875 
L 18.109375 54.6875 
L 18.109375 46.390625 
Q 20.953125 51.265625 25.265625 53.625 
Q 29.59375 56 35.59375 56 
Q 45.5625 56 51.78125 48.09375 
Q 58.015625 40.1875 58.015625 27.296875 
Q 58.015625 14.40625 51.78125 6.484375 
Q 45.5625 -1.421875 35.59375 -1.421875 
Q 29.59375 -1.421875 25.265625 0.953125 
Q 20.953125 3.328125 18.109375 8.203125 
z
M 48.6875 27.296875 
Q 48.6875 37.203125 44.609375 42.84375 
Q 40.53125 48.484375 33.40625 48.484375 
Q 26.265625 48.484375 22.1875 42.84375 
Q 18.109375 37.203125 18.109375 27.296875 
Q 18.109375 17.390625 22.1875 11.75 
Q 26.265625 6.109375 33.40625 6.109375 
Q 40.53125 6.109375 44.609375 11.75 
Q 48.6875 17.390625 48.6875 27.296875 
z
" id="DejaVuSans-112"/>
      <path d="M 9.421875 75.984375 
L 18.40625 75.984375 
L 18.40625 0 
L 9.421875 0 
z
" id="DejaVuSans-108"/>
     </defs>
     <g transform="translate(185.884375 412.756562)scale(0.1 -0.1)">
      <use xlink:href="#DejaVuSans-69"/>
      <use x="63.183594" xlink:href="#DejaVuSans-110"/>
      <use x="126.5625" xlink:href="#DejaVuSans-103"/>
      <use x="190.039062" xlink:href="#DejaVuSans-110"/>
      <use x="253.417969" xlink:href="#DejaVuSans-101"/>
      <use x="314.941406" xlink:href="#DejaVuSans-32"/>
      <use x="346.728516" xlink:href="#DejaVuSans-115"/>
      <use x="398.828125" xlink:href="#DejaVuSans-97"/>
      <use x="460.107422" xlink:href="#DejaVuSans-109"/>
      <use x="557.519531" xlink:href="#DejaVuSans-112"/>
      <use x="620.996094" xlink:href="#DejaVuSans-108"/>
      <use x="648.779297" xlink:href="#DejaVuSans-101"/>
     </g>
    </g>
   </g>
   <g id="matplotlib.axis_4">
    <g id="ytick_10">
     <g id="line2d_28">
      <g>
       <use style="stroke:#000000;stroke-width:0.8;" x="54" xlink:href="#mbe2de38e15" y="381.15803"/>
      </g>
     </g>
     <g id="text_26">
      <!-- 0 -->
      <g transform="translate(40.6375 384.957249)scale(0.1 -0.1)">
       <use xlink:href="#DejaVuSans-48"/>
      </g>
     </g>
    </g>
    <g id="ytick_11">
     <g id="line2d_29">
      <g>
       <use style="stroke:#000000;stroke-width:0.8;" x="54" xlink:href="#mbe2de38e15" y="355.751256"/>
      </g>
     </g>
     <g id="text_27">
      <!-- 25 -->
      <defs>
       <path d="M 10.796875 72.90625 
L 49.515625 72.90625 
L 49.515625 64.59375 
L 19.828125 64.59375 
L 19.828125 46.734375 
Q 21.96875 47.46875 24.109375 47.828125 
Q 26.265625 48.1875 28.421875 48.1875 
Q 40.625 48.1875 47.75 41.5 
Q 54.890625 34.8125 54.890625 23.390625 
Q 54.890625 11.625 47.5625 5.09375 
Q 40.234375 -1.421875 26.90625 -1.421875 
Q 22.3125 -1.421875 17.546875 -0.640625 
Q 12.796875 0.140625 7.71875 1.703125 
L 7.71875 11.625 
Q 12.109375 9.234375 16.796875 8.0625 
Q 21.484375 6.890625 26.703125 6.890625 
Q 35.15625 6.890625 40.078125 11.328125 
Q 45.015625 15.765625 45.015625 23.390625 
Q 45.015625 31 40.078125 35.4375 
Q 35.15625 39.890625 26.703125 39.890625 
Q 22.75 39.890625 18.8125 39.015625 
Q 14.890625 38.140625 10.796875 36.28125 
z
" id="DejaVuSans-53"/>
      </defs>
      <g transform="translate(34.275 359.550474)scale(0.1 -0.1)">
       <use xlink:href="#DejaVuSans-50"/>
       <use x="63.623047" xlink:href="#DejaVuSans-53"/>
      </g>
     </g>
    </g>
    <g id="ytick_12">
     <g id="line2d_30">
      <g>
       <use style="stroke:#000000;stroke-width:0.8;" x="54" xlink:href="#mbe2de38e15" y="330.344481"/>
      </g>
     </g>
     <g id="text_28">
      <!-- 50 -->
      <g transform="translate(34.275 334.1437)scale(0.1 -0.1)">
       <use xlink:href="#DejaVuSans-53"/>
       <use x="63.623047" xlink:href="#DejaVuSans-48"/>
      </g>
     </g>
    </g>
    <g id="text_29">
     <!-- Absolute error -->
     <defs>
      <path d="M 34.1875 63.1875 
L 20.796875 26.90625 
L 47.609375 26.90625 
z
M 28.609375 72.90625 
L 39.796875 72.90625 
L 67.578125 0 
L 57.328125 0 
L 50.6875 18.703125 
L 17.828125 18.703125 
L 11.1875 0 
L 0.78125 0 
z
" id="DejaVuSans-65"/>
      <path d="M 48.6875 27.296875 
Q 48.6875 37.203125 44.609375 42.84375 
Q 40.53125 48.484375 33.40625 48.484375 
Q 26.265625 48.484375 22.1875 42.84375 
Q 18.109375 37.203125 18.109375 27.296875 
Q 18.109375 17.390625 22.1875 11.75 
Q 26.265625 6.109375 33.40625 6.109375 
Q 40.53125 6.109375 44.609375 11.75 
Q 48.6875 17.390625 48.6875 27.296875 
z
M 18.109375 46.390625 
Q 20.953125 51.265625 25.265625 53.625 
Q 29.59375 56 35.59375 56 
Q 45.5625 56 51.78125 48.09375 
Q 58.015625 40.1875 58.015625 27.296875 
Q 58.015625 14.40625 51.78125 6.484375 
Q 45.5625 -1.421875 35.59375 -1.421875 
Q 29.59375 -1.421875 25.265625 0.953125 
Q 20.953125 3.328125 18.109375 8.203125 
L 18.109375 0 
L 9.078125 0 
L 9.078125 75.984375 
L 18.109375 75.984375 
z
" id="DejaVuSans-98"/>
      <path d="M 30.609375 48.390625 
Q 23.390625 48.390625 19.1875 42.75 
Q 14.984375 37.109375 14.984375 27.296875 
Q 14.984375 17.484375 19.15625 11.84375 
Q 23.34375 6.203125 30.609375 6.203125 
Q 37.796875 6.203125 41.984375 11.859375 
Q 46.1875 17.53125 46.1875 27.296875 
Q 46.1875 37.015625 41.984375 42.703125 
Q 37.796875 48.390625 30.609375 48.390625 
z
M 30.609375 56 
Q 42.328125 56 49.015625 48.375 
Q 55.71875 40.765625 55.71875 27.296875 
Q 55.71875 13.875 49.015625 6.21875 
Q 42.328125 -1.421875 30.609375 -1.421875 
Q 18.84375 -1.421875 12.171875 6.21875 
Q 5.515625 13.875 5.515625 27.296875 
Q 5.515625 40.765625 12.171875 48.375 
Q 18.84375 56 30.609375 56 
z
" id="DejaVuSans-111"/>
     </defs>
     <g transform="translate(28.195312 382.224531)rotate(-90)scale(0.1 -0.1)">
      <use xlink:href="#DejaVuSans-65"/>
      <use x="68.408203" xlink:href="#DejaVuSans-98"/>
      <use x="131.884766" xlink:href="#DejaVuSans-115"/>
      <use x="183.984375" xlink:href="#DejaVuSans-111"/>
      <use x="245.166016" xlink:href="#DejaVuSans-108"/>
      <use x="272.949219" xlink:href="#DejaVuSans-117"/>
      <use x="336.328125" xlink:href="#DejaVuSans-116"/>
      <use x="375.537109" xlink:href="#DejaVuSans-101"/>
      <use x="437.060547" xlink:href="#DejaVuSans-32"/>
      <use x="468.847656" xlink:href="#DejaVuSans-101"/>
      <use x="530.371094" xlink:href="#DejaVuSans-114"/>
      <use x="569.734375" xlink:href="#DejaVuSans-114"/>
      <use x="608.597656" xlink:href="#DejaVuSans-111"/>
      <use x="669.779297" xlink:href="#DejaVuSans-114"/>
     </g>
    </g>
   </g>
   <g id="line2d_31">
    <path clip-path="url(#pffd713ddeb)" d="M 57.158491 375.616694 
L 60.316981 363.39814 
L 63.475472 364.001772 
L 66.633962 375.032679 
L 69.792453 377.190005 
L 72.950943 365.821136 
L 76.109434 365.389018 
L 79.267925 363.717936 
L 82.426415 369.756699 
L 85.584906 360.054881 
L 88.743396 358.089368 
L 91.901887 368.047776 
L 95.060377 379.237366 
L 98.218868 367.446707 
L 101.377358 372.766764 
L 104.535849 381.043636 
L 107.69434 353.770131 
L 110.85283 374.387659 
L 114.011321 371.648693 
L 117.169811 370.344878 
L 120.328302 353.9484 
L 123.486792 361.774139 
L 126.645283 373.74507 
L 129.803774 372.002779 
L 132.962264 376.576293 
L 136.120755 372.206339 
L 139.279245 365.882381 
L 142.437736 362.06674 
L 145.596226 365.092967 
L 148.754717 380.855026 
L 151.913208 365.153005 
L 155.071698 364.632353 
L 158.230189 376.650185 
L 161.388679 369.360304 
L 164.54717 366.590358 
L 167.70566 378.099624 
L 170.864151 380.314488 
L 174.022642 369.351172 
L 177.181132 379.234532 
L 180.339623 376.103826 
L 183.498113 373.893407 
L 186.656604 353.276041 
L 189.815094 379.836797 
L 192.973585 357.018508 
L 196.132075 371.310637 
L 199.290566 366.90344 
L 202.449057 363.219031 
L 205.607547 374.064285 
L 208.766038 370.286768 
L 211.924528 375.86934 
L 215.083019 370.212435 
L 218.241509 369.512835 
L 221.4 347.004698 
L 224.558491 355.998151 
L 227.716981 362.712869 
L 230.875472 379.391655 
L 234.033962 380.402413 
L 237.192453 371.687753 
L 240.350943 357.019606 
L 243.509434 377.497506 
L 246.667925 361.721526 
L 249.826415 360.742578 
L 252.984906 350.378484 
L 256.143396 374.563604 
L 259.301887 332.600945 
L 262.460377 375.706785 
L 265.618868 378.657667 
L 268.777358 342.483853 
L 271.935849 333.660993 
L 275.09434 367.742117 
L 278.25283 370.455632 
L 281.411321 370.940107 
L 284.569811 376.754985 
L 287.728302 366.372978 
L 290.886792 376.142413 
L 294.045283 352.171233 
L 297.203774 358.061227 
L 300.362264 372.822805 
L 303.520755 362.057312 
L 306.679245 358.477607 
L 309.837736 355.216239 
L 312.996226 362.33992 
L 316.154717 366.371183 
L 319.313208 362.625964 
L 322.471698 364.287569 
L 325.630189 368.626159 
L 328.788679 370.514384 
L 331.94717 370.911598 
L 335.10566 339.053636 
L 338.264151 378.941621 
L 341.422642 358.695361 
L 344.581132 363.351501 
L 347.739623 371.349533 
L 350.898113 360.069035 
L 354.056604 374.903775 
L 357.215094 312.316364 
L 360.373585 346.056479 
L 363.532075 344.74507 
L 366.690566 366.711912 
L 369.849057 366.633656 
L 373.007547 375.259414 
L 376.166038 339.497224 
L 379.324528 368.796806 
L 382.483019 364.18078 
L 385.641509 332.519301 
L 388.8 318.827237 
" style="fill:none;stroke:#000000;stroke-linecap:square;stroke-width:0.5;"/>
   </g>
   <g id="patch_9">
    <path d="M 54 384.48 
L 54 308.88 
" style="fill:none;stroke:#000000;stroke-linecap:square;stroke-linejoin:miter;stroke-width:0.8;"/>
   </g>
   <g id="patch_10">
    <path d="M 388.8 384.48 
L 388.8 308.88 
" style="fill:none;stroke:#000000;stroke-linecap:square;stroke-linejoin:miter;stroke-width:0.8;"/>
   </g>
   <g id="patch_11">
    <path d="M 54 384.48 
L 388.8 384.48 
" style="fill:none;stroke:#000000;stroke-linecap:square;stroke-linejoin:miter;stroke-width:0.8;"/>
   </g>
   <g id="patch_12">
    <path d="M 54 308.88 
L 388.8 308.88 
" style="fill:none;stroke:#000000;stroke-linecap:square;stroke-linejoin:miter;stroke-width:0.8;"/>
   </g>
  </g>
 </g>
 <defs>
  <clipPath id="pd86dd21426">
   <rect height="226.8" width="334.8" x="54" y="51.84"/>
  </clipPath>
  <clipPath id="pffd713ddeb">
   <rect height="75.6" width="334.8" x="54" y="308.88"/>
  </clipPath>
 </defs>
</svg>
