<?xml version="1.0" encoding="utf-8" standalone="no"?>
<!DOCTYPE svg PUBLIC "-//W3C//DTD SVG 1.1//EN"
  "http://www.w3.org/Graphics/SVG/1.1/DTD/svg11.dtd">
<!-- Created with matplotlib (https://matplotlib.org/) -->
<svg height="432pt" version="1.1" viewBox="0 0 432 432" width="432pt" xmlns="http://www.w3.org/2000/svg" xmlns:xlink="http://www.w3.org/1999/xlink">
 <defs>
  <style type="text/css">
*{stroke-linecap:butt;stroke-linejoin:round;}
  </style>
 </defs>
 <g id="figure_1">
  <g id="patch_1">
   <path d="M 0 432 
L 432 432 
L 432 0 
L 0 0 
z
" style="fill:#ffffff;"/>
  </g>
  <g id="axes_1">
   <g id="patch_2">
    <path d="M 54 278.64 
L 388.8 278.64 
L 388.8 51.84 
L 54 51.84 
z
" style="fill:#ffffff;"/>
   </g>
   <g id="matplotlib.axis_1">
    <g id="xtick_1">
     <g id="line2d_1">
      <defs>
       <path d="M 0 0 
L 0 3.5 
" id="m6af1f34b84" style="stroke:#000000;stroke-width:0.8;"/>
      </defs>
      <g>
       <use style="stroke:#000000;stroke-width:0.8;" x="54" xlink:href="#m6af1f34b84" y="278.64"/>
      </g>
     </g>
     <g id="text_1">
      <!-- 0 -->
      <defs>
       <path d="M 31.78125 66.40625 
Q 24.171875 66.40625 20.328125 58.90625 
Q 16.5 51.421875 16.5 36.375 
Q 16.5 21.390625 20.328125 13.890625 
Q 24.171875 6.390625 31.78125 6.390625 
Q 39.453125 6.390625 43.28125 13.890625 
Q 47.125 21.390625 47.125 36.375 
Q 47.125 51.421875 43.28125 58.90625 
Q 39.453125 66.40625 31.78125 66.40625 
z
M 31.78125 74.21875 
Q 44.046875 74.21875 50.515625 64.515625 
Q 56.984375 54.828125 56.984375 36.375 
Q 56.984375 17.96875 50.515625 8.265625 
Q 44.046875 -1.421875 31.78125 -1.421875 
Q 19.53125 -1.421875 13.0625 8.265625 
Q 6.59375 17.96875 6.59375 36.375 
Q 6.59375 54.828125 13.0625 64.515625 
Q 19.53125 74.21875 31.78125 74.21875 
z
" id="DejaVuSans-48"/>
      </defs>
      <g transform="translate(50.81875 293.238437)scale(0.1 -0.1)">
       <use xlink:href="#DejaVuSans-48"/>
      </g>
     </g>
    </g>
    <g id="xtick_2">
     <g id="line2d_2">
      <g>
       <use style="stroke:#000000;stroke-width:0.8;" x="124.484211" xlink:href="#m6af1f34b84" y="278.64"/>
      </g>
     </g>
     <g id="text_2">
      <!-- 20 -->
      <defs>
       <path d="M 19.1875 8.296875 
L 53.609375 8.296875 
L 53.609375 0 
L 7.328125 0 
L 7.328125 8.296875 
Q 12.9375 14.109375 22.625 23.890625 
Q 32.328125 33.6875 34.8125 36.53125 
Q 39.546875 41.84375 41.421875 45.53125 
Q 43.3125 49.21875 43.3125 52.78125 
Q 43.3125 58.59375 39.234375 62.25 
Q 35.15625 65.921875 28.609375 65.921875 
Q 23.96875 65.921875 18.8125 64.3125 
Q 13.671875 62.703125 7.8125 59.421875 
L 7.8125 69.390625 
Q 13.765625 71.78125 18.9375 73 
Q 24.125 74.21875 28.421875 74.21875 
Q 39.75 74.21875 46.484375 68.546875 
Q 53.21875 62.890625 53.21875 53.421875 
Q 53.21875 48.921875 51.53125 44.890625 
Q 49.859375 40.875 45.40625 35.40625 
Q 44.1875 33.984375 37.640625 27.21875 
Q 31.109375 20.453125 19.1875 8.296875 
z
" id="DejaVuSans-50"/>
      </defs>
      <g transform="translate(118.121711 293.238437)scale(0.1 -0.1)">
       <use xlink:href="#DejaVuSans-50"/>
       <use x="63.623047" xlink:href="#DejaVuSans-48"/>
      </g>
     </g>
    </g>
    <g id="xtick_3">
     <g id="line2d_3">
      <g>
       <use style="stroke:#000000;stroke-width:0.8;" x="194.968421" xlink:href="#m6af1f34b84" y="278.64"/>
      </g>
     </g>
     <g id="text_3">
      <!-- 40 -->
      <defs>
       <path d="M 37.796875 64.3125 
L 12.890625 25.390625 
L 37.796875 25.390625 
z
M 35.203125 72.90625 
L 47.609375 72.90625 
L 47.609375 25.390625 
L 58.015625 25.390625 
L 58.015625 17.1875 
L 47.609375 17.1875 
L 47.609375 0 
L 37.796875 0 
L 37.796875 17.1875 
L 4.890625 17.1875 
L 4.890625 26.703125 
z
" id="DejaVuSans-52"/>
      </defs>
      <g transform="translate(188.605921 293.238437)scale(0.1 -0.1)">
       <use xlink:href="#DejaVuSans-52"/>
       <use x="63.623047" xlink:href="#DejaVuSans-48"/>
      </g>
     </g>
    </g>
    <g id="xtick_4">
     <g id="line2d_4">
      <g>
       <use style="stroke:#000000;stroke-width:0.8;" x="265.452632" xlink:href="#m6af1f34b84" y="278.64"/>
      </g>
     </g>
     <g id="text_4">
      <!-- 60 -->
      <defs>
       <path d="M 33.015625 40.375 
Q 26.375 40.375 22.484375 35.828125 
Q 18.609375 31.296875 18.609375 23.390625 
Q 18.609375 15.53125 22.484375 10.953125 
Q 26.375 6.390625 33.015625 6.390625 
Q 39.65625 6.390625 43.53125 10.953125 
Q 47.40625 15.53125 47.40625 23.390625 
Q 47.40625 31.296875 43.53125 35.828125 
Q 39.65625 40.375 33.015625 40.375 
z
M 52.59375 71.296875 
L 52.59375 62.3125 
Q 48.875 64.0625 45.09375 64.984375 
Q 41.3125 65.921875 37.59375 65.921875 
Q 27.828125 65.921875 22.671875 59.328125 
Q 17.53125 52.734375 16.796875 39.40625 
Q 19.671875 43.65625 24.015625 45.921875 
Q 28.375 48.1875 33.59375 48.1875 
Q 44.578125 48.1875 50.953125 41.515625 
Q 57.328125 34.859375 57.328125 23.390625 
Q 57.328125 12.15625 50.6875 5.359375 
Q 44.046875 -1.421875 33.015625 -1.421875 
Q 20.359375 -1.421875 13.671875 8.265625 
Q 6.984375 17.96875 6.984375 36.375 
Q 6.984375 53.65625 15.1875 63.9375 
Q 23.390625 74.21875 37.203125 74.21875 
Q 40.921875 74.21875 44.703125 73.484375 
Q 48.484375 72.75 52.59375 71.296875 
z
" id="DejaVuSans-54"/>
      </defs>
      <g transform="translate(259.090132 293.238437)scale(0.1 -0.1)">
       <use xlink:href="#DejaVuSans-54"/>
       <use x="63.623047" xlink:href="#DejaVuSans-48"/>
      </g>
     </g>
    </g>
    <g id="xtick_5">
     <g id="line2d_5">
      <g>
       <use style="stroke:#000000;stroke-width:0.8;" x="335.936842" xlink:href="#m6af1f34b84" y="278.64"/>
      </g>
     </g>
     <g id="text_5">
      <!-- 80 -->
      <defs>
       <path d="M 31.78125 34.625 
Q 24.75 34.625 20.71875 30.859375 
Q 16.703125 27.09375 16.703125 20.515625 
Q 16.703125 13.921875 20.71875 10.15625 
Q 24.75 6.390625 31.78125 6.390625 
Q 38.8125 6.390625 42.859375 10.171875 
Q 46.921875 13.96875 46.921875 20.515625 
Q 46.921875 27.09375 42.890625 30.859375 
Q 38.875 34.625 31.78125 34.625 
z
M 21.921875 38.8125 
Q 15.578125 40.375 12.03125 44.71875 
Q 8.5 49.078125 8.5 55.328125 
Q 8.5 64.0625 14.71875 69.140625 
Q 20.953125 74.21875 31.78125 74.21875 
Q 42.671875 74.21875 48.875 69.140625 
Q 55.078125 64.0625 55.078125 55.328125 
Q 55.078125 49.078125 51.53125 44.71875 
Q 48 40.375 41.703125 38.8125 
Q 48.828125 37.15625 52.796875 32.3125 
Q 56.78125 27.484375 56.78125 20.515625 
Q 56.78125 9.90625 50.3125 4.234375 
Q 43.84375 -1.421875 31.78125 -1.421875 
Q 19.734375 -1.421875 13.25 4.234375 
Q 6.78125 9.90625 6.78125 20.515625 
Q 6.78125 27.484375 10.78125 32.3125 
Q 14.796875 37.15625 21.921875 38.8125 
z
M 18.3125 54.390625 
Q 18.3125 48.734375 21.84375 45.5625 
Q 25.390625 42.390625 31.78125 42.390625 
Q 38.140625 42.390625 41.71875 45.5625 
Q 45.3125 48.734375 45.3125 54.390625 
Q 45.3125 60.0625 41.71875 63.234375 
Q 38.140625 66.40625 31.78125 66.40625 
Q 25.390625 66.40625 21.84375 63.234375 
Q 18.3125 60.0625 18.3125 54.390625 
z
" id="DejaVuSans-56"/>
      </defs>
      <g transform="translate(329.574342 293.238437)scale(0.1 -0.1)">
       <use xlink:href="#DejaVuSans-56"/>
       <use x="63.623047" xlink:href="#DejaVuSans-48"/>
      </g>
     </g>
    </g>
   </g>
   <g id="matplotlib.axis_2">
    <g id="ytick_1">
     <g id="line2d_6">
      <defs>
       <path d="M 0 0 
L -3.5 0 
" id="m545e10e977" style="stroke:#000000;stroke-width:0.8;"/>
      </defs>
      <g>
       <use style="stroke:#000000;stroke-width:0.8;" x="54" xlink:href="#m545e10e977" y="278.64"/>
      </g>
     </g>
     <g id="text_6">
      <!-- 0 -->
      <g transform="translate(40.6375 282.439219)scale(0.1 -0.1)">
       <use xlink:href="#DejaVuSans-48"/>
      </g>
     </g>
    </g>
    <g id="ytick_2">
     <g id="line2d_7">
      <g>
       <use style="stroke:#000000;stroke-width:0.8;" x="54" xlink:href="#m545e10e977" y="232.354286"/>
      </g>
     </g>
     <g id="text_7">
      <!-- 20 -->
      <g transform="translate(34.275 236.153504)scale(0.1 -0.1)">
       <use xlink:href="#DejaVuSans-50"/>
       <use x="63.623047" xlink:href="#DejaVuSans-48"/>
      </g>
     </g>
    </g>
    <g id="ytick_3">
     <g id="line2d_8">
      <g>
       <use style="stroke:#000000;stroke-width:0.8;" x="54" xlink:href="#m545e10e977" y="186.068571"/>
      </g>
     </g>
     <g id="text_8">
      <!-- 40 -->
      <g transform="translate(34.275 189.86779)scale(0.1 -0.1)">
       <use xlink:href="#DejaVuSans-52"/>
       <use x="63.623047" xlink:href="#DejaVuSans-48"/>
      </g>
     </g>
    </g>
    <g id="ytick_4">
     <g id="line2d_9">
      <g>
       <use style="stroke:#000000;stroke-width:0.8;" x="54" xlink:href="#m545e10e977" y="139.782857"/>
      </g>
     </g>
     <g id="text_9">
      <!-- 60 -->
      <g transform="translate(34.275 143.582076)scale(0.1 -0.1)">
       <use xlink:href="#DejaVuSans-54"/>
       <use x="63.623047" xlink:href="#DejaVuSans-48"/>
      </g>
     </g>
    </g>
    <g id="ytick_5">
     <g id="line2d_10">
      <g>
       <use style="stroke:#000000;stroke-width:0.8;" x="54" xlink:href="#m545e10e977" y="93.497143"/>
      </g>
     </g>
     <g id="text_10">
      <!-- 80 -->
      <g transform="translate(34.275 97.296362)scale(0.1 -0.1)">
       <use xlink:href="#DejaVuSans-56"/>
       <use x="63.623047" xlink:href="#DejaVuSans-48"/>
      </g>
     </g>
    </g>
    <g id="text_11">
     <!-- RUL -->
     <defs>
      <path d="M 44.390625 34.1875 
Q 47.5625 33.109375 50.5625 29.59375 
Q 53.5625 26.078125 56.59375 19.921875 
L 66.609375 0 
L 56 0 
L 46.6875 18.703125 
Q 43.0625 26.03125 39.671875 28.421875 
Q 36.28125 30.8125 30.421875 30.8125 
L 19.671875 30.8125 
L 19.671875 0 
L 9.8125 0 
L 9.8125 72.90625 
L 32.078125 72.90625 
Q 44.578125 72.90625 50.734375 67.671875 
Q 56.890625 62.453125 56.890625 51.90625 
Q 56.890625 45.015625 53.6875 40.46875 
Q 50.484375 35.9375 44.390625 34.1875 
z
M 19.671875 64.796875 
L 19.671875 38.921875 
L 32.078125 38.921875 
Q 39.203125 38.921875 42.84375 42.21875 
Q 46.484375 45.515625 46.484375 51.90625 
Q 46.484375 58.296875 42.84375 61.546875 
Q 39.203125 64.796875 32.078125 64.796875 
z
" id="DejaVuSans-82"/>
      <path d="M 8.6875 72.90625 
L 18.609375 72.90625 
L 18.609375 28.609375 
Q 18.609375 16.890625 22.84375 11.734375 
Q 27.09375 6.59375 36.625 6.59375 
Q 46.09375 6.59375 50.34375 11.734375 
Q 54.59375 16.890625 54.59375 28.609375 
L 54.59375 72.90625 
L 64.5 72.90625 
L 64.5 27.390625 
Q 64.5 13.140625 57.4375 5.859375 
Q 50.390625 -1.421875 36.625 -1.421875 
Q 22.796875 -1.421875 15.734375 5.859375 
Q 8.6875 13.140625 8.6875 27.390625 
z
" id="DejaVuSans-85"/>
      <path d="M 9.8125 72.90625 
L 19.671875 72.90625 
L 19.671875 8.296875 
L 55.171875 8.296875 
L 55.171875 0 
L 9.8125 0 
z
" id="DejaVuSans-76"/>
     </defs>
     <g transform="translate(28.195312 175.159531)rotate(-90)scale(0.1 -0.1)">
      <use xlink:href="#DejaVuSans-82"/>
      <use x="69.482422" xlink:href="#DejaVuSans-85"/>
      <use x="142.675781" xlink:href="#DejaVuSans-76"/>
     </g>
    </g>
   </g>
   <g id="line2d_11">
    <path clip-path="url(#p2e91b96558)" d="M 57.524211 264.754286 
L 61.048421 264.754286 
L 64.572632 264.754286 
L 68.096842 264.754286 
L 71.621053 264.754286 
L 75.145263 262.44 
L 78.669474 262.44 
L 82.193684 262.44 
L 85.717895 260.125714 
L 89.242105 260.125714 
L 92.766316 260.125714 
L 96.290526 260.125714 
L 99.814737 260.125714 
L 103.338947 260.125714 
L 106.863158 257.811429 
L 110.387368 257.811429 
L 113.911579 257.811429 
L 117.435789 257.811429 
L 120.96 257.811429 
L 124.484211 255.497143 
L 128.008421 255.497143 
L 131.532632 255.497143 
L 135.056842 253.182857 
L 138.581053 253.182857 
L 142.105263 253.182857 
L 145.629474 253.182857 
L 149.153684 253.182857 
L 152.677895 253.182857 
L 156.202105 250.868571 
L 159.726316 250.868571 
L 163.250526 250.868571 
L 166.774737 248.554286 
L 170.298947 248.554286 
L 173.823158 248.554286 
L 177.347368 246.24 
L 180.871579 246.24 
L 184.395789 246.24 
L 187.92 246.24 
L 191.444211 246.24 
L 194.968421 246.24 
L 198.492632 243.925714 
L 202.016842 243.925714 
L 205.541053 243.925714 
L 209.065263 243.925714 
L 212.589474 243.925714 
L 216.113684 241.611429 
L 219.637895 239.297143 
L 223.162105 239.297143 
L 226.686316 239.297143 
L 230.210526 236.982857 
L 233.734737 236.982857 
L 237.258947 234.668571 
L 240.783158 227.725714 
L 244.307368 225.411429 
L 247.831579 225.411429 
L 251.355789 218.468571 
L 254.88 216.154286 
L 258.404211 206.897143 
L 261.928421 199.954286 
L 265.452632 197.64 
L 268.976842 195.325714 
L 272.501053 195.325714 
L 276.025263 193.011429 
L 279.549474 193.011429 
L 283.073684 190.697143 
L 286.597895 188.382857 
L 290.122105 183.754286 
L 293.646316 181.44 
L 297.170526 179.125714 
L 300.694737 176.811429 
L 304.218947 169.868571 
L 307.743158 169.868571 
L 311.267368 167.554286 
L 314.791579 167.554286 
L 318.315789 165.24 
L 321.84 160.611429 
L 325.364211 158.297143 
L 328.888421 158.297143 
L 332.412632 155.982857 
L 335.936842 151.354286 
L 339.461053 149.04 
L 342.985263 149.04 
L 346.509474 149.04 
L 350.033684 135.154286 
L 353.557895 123.582857 
L 357.082105 121.268571 
L 360.606316 109.697143 
L 364.130526 100.44 
L 367.654737 98.125714 
L 371.178947 95.811429 
L 374.703158 93.497143 
L 378.227368 81.925714 
L 381.751579 74.982857 
L 385.275789 74.982857 
L 388.8 51.84 
" style="fill:none;stroke:#1f77b4;stroke-linecap:square;stroke-width:1.5;"/>
   </g>
   <g id="line2d_12">
    <path clip-path="url(#p2e91b96558)" d="M 57.524211 243.769601 
L 61.048421 241.225023 
L 64.572632 230.61896 
L 68.096842 268.501157 
L 71.621053 243.062168 
L 75.145263 259.934935 
L 78.669474 256.894822 
L 82.193684 265.011078 
L 85.717895 253.342133 
L 89.242105 267.174618 
L 92.766316 267.197066 
L 96.290526 247.283198 
L 99.814737 267.107282 
L 103.338947 255.132724 
L 106.863158 247.793295 
L 110.387368 179.851259 
L 113.911579 261.916109 
L 117.435789 233.45442 
L 120.96 250.422928 
L 124.484211 250.495724 
L 128.008421 234.107326 
L 131.532632 244.712064 
L 135.056842 246.144659 
L 138.581053 260.476359 
L 142.105263 232.951644 
L 145.629474 249.952942 
L 149.153684 259.371045 
L 152.677895 245.627276 
L 156.202105 263.027865 
L 159.726316 232.603968 
L 163.250526 245.864301 
L 166.774737 239.727196 
L 170.298947 251.208291 
L 173.823158 219.733623 
L 177.347368 233.148312 
L 180.871579 255.550486 
L 184.395789 248.087882 
L 187.92 241.99026 
L 191.444211 224.9911 
L 194.968421 235.182299 
L 198.492632 240.494658 
L 202.016842 238.962533 
L 205.541053 210.952259 
L 209.065263 235.22806 
L 212.589474 261.54608 
L 216.113684 257.380711 
L 219.637895 227.920171 
L 223.162105 252.254994 
L 226.686316 242.157653 
L 230.210526 249.209573 
L 233.734737 192.032229 
L 237.258947 248.029218 
L 240.783158 214.285525 
L 244.307368 206.891563 
L 247.831579 253.049839 
L 251.355789 229.385858 
L 254.88 195.123652 
L 258.404211 234.050983 
L 261.928421 199.931226 
L 265.452632 182.63295 
L 268.976842 211.567755 
L 272.501053 212.632214 
L 276.025263 216.957957 
L 279.549474 202.483638 
L 283.073684 161.721428 
L 286.597895 221.374892 
L 290.122105 147.250486 
L 293.646316 190.324085 
L 297.170526 167.081336 
L 300.694737 201.206156 
L 304.218947 200.387835 
L 307.743158 187.791529 
L 311.267368 196.952011 
L 314.791579 183.278237 
L 318.315789 194.410096 
L 321.84 148.173847 
L 325.364211 163.554607 
L 328.888421 103.509935 
L 332.412632 204.842458 
L 335.936842 194.317461 
L 339.461053 153.205863 
L 342.985263 116.100255 
L 346.509474 197.59118 
L 350.033684 210.793447 
L 353.557895 116.671958 
L 357.082105 157.210229 
L 360.606316 69.411618 
L 364.130526 82.282325 
L 367.654737 132.712228 
L 371.178947 94.416716 
L 374.703158 130.701459 
L 378.227368 130.032036 
L 381.751579 84.245668 
L 385.275789 112.727951 
L 388.8 75.701251 
" style="fill:none;stroke:#ff0000;stroke-linecap:square;stroke-width:0.5;"/>
    <defs>
     <path d="M 0 1 
C 0.265203 1 0.51958 0.894634 0.707107 0.707107 
C 0.894634 0.51958 1 0.265203 1 0 
C 1 -0.265203 0.894634 -0.51958 0.707107 -0.707107 
C 0.51958 -0.894634 0.265203 -1 0 -1 
C -0.265203 -1 -0.51958 -0.894634 -0.707107 -0.707107 
C -0.894634 -0.51958 -1 -0.265203 -1 0 
C -1 0.265203 -0.894634 0.51958 -0.707107 0.707107 
C -0.51958 0.894634 -0.265203 1 0 1 
z
" id="m827a250d17" style="stroke:#ff0000;"/>
    </defs>
    <g clip-path="url(#p2e91b96558)">
     <use style="fill:#ff0000;stroke:#ff0000;" x="57.524211" xlink:href="#m827a250d17" y="243.769601"/>
     <use style="fill:#ff0000;stroke:#ff0000;" x="61.048421" xlink:href="#m827a250d17" y="241.225023"/>
     <use style="fill:#ff0000;stroke:#ff0000;" x="64.572632" xlink:href="#m827a250d17" y="230.61896"/>
     <use style="fill:#ff0000;stroke:#ff0000;" x="68.096842" xlink:href="#m827a250d17" y="268.501157"/>
     <use style="fill:#ff0000;stroke:#ff0000;" x="71.621053" xlink:href="#m827a250d17" y="243.062168"/>
     <use style="fill:#ff0000;stroke:#ff0000;" x="75.145263" xlink:href="#m827a250d17" y="259.934935"/>
     <use style="fill:#ff0000;stroke:#ff0000;" x="78.669474" xlink:href="#m827a250d17" y="256.894822"/>
     <use style="fill:#ff0000;stroke:#ff0000;" x="82.193684" xlink:href="#m827a250d17" y="265.011078"/>
     <use style="fill:#ff0000;stroke:#ff0000;" x="85.717895" xlink:href="#m827a250d17" y="253.342133"/>
     <use style="fill:#ff0000;stroke:#ff0000;" x="89.242105" xlink:href="#m827a250d17" y="267.174618"/>
     <use style="fill:#ff0000;stroke:#ff0000;" x="92.766316" xlink:href="#m827a250d17" y="267.197066"/>
     <use style="fill:#ff0000;stroke:#ff0000;" x="96.290526" xlink:href="#m827a250d17" y="247.283198"/>
     <use style="fill:#ff0000;stroke:#ff0000;" x="99.814737" xlink:href="#m827a250d17" y="267.107282"/>
     <use style="fill:#ff0000;stroke:#ff0000;" x="103.338947" xlink:href="#m827a250d17" y="255.132724"/>
     <use style="fill:#ff0000;stroke:#ff0000;" x="106.863158" xlink:href="#m827a250d17" y="247.793295"/>
     <use style="fill:#ff0000;stroke:#ff0000;" x="110.387368" xlink:href="#m827a250d17" y="179.851259"/>
     <use style="fill:#ff0000;stroke:#ff0000;" x="113.911579" xlink:href="#m827a250d17" y="261.916109"/>
     <use style="fill:#ff0000;stroke:#ff0000;" x="117.435789" xlink:href="#m827a250d17" y="233.45442"/>
     <use style="fill:#ff0000;stroke:#ff0000;" x="120.96" xlink:href="#m827a250d17" y="250.422928"/>
     <use style="fill:#ff0000;stroke:#ff0000;" x="124.484211" xlink:href="#m827a250d17" y="250.495724"/>
     <use style="fill:#ff0000;stroke:#ff0000;" x="128.008421" xlink:href="#m827a250d17" y="234.107326"/>
     <use style="fill:#ff0000;stroke:#ff0000;" x="131.532632" xlink:href="#m827a250d17" y="244.712064"/>
     <use style="fill:#ff0000;stroke:#ff0000;" x="135.056842" xlink:href="#m827a250d17" y="246.144659"/>
     <use style="fill:#ff0000;stroke:#ff0000;" x="138.581053" xlink:href="#m827a250d17" y="260.476359"/>
     <use style="fill:#ff0000;stroke:#ff0000;" x="142.105263" xlink:href="#m827a250d17" y="232.951644"/>
     <use style="fill:#ff0000;stroke:#ff0000;" x="145.629474" xlink:href="#m827a250d17" y="249.952942"/>
     <use style="fill:#ff0000;stroke:#ff0000;" x="149.153684" xlink:href="#m827a250d17" y="259.371045"/>
     <use style="fill:#ff0000;stroke:#ff0000;" x="152.677895" xlink:href="#m827a250d17" y="245.627276"/>
     <use style="fill:#ff0000;stroke:#ff0000;" x="156.202105" xlink:href="#m827a250d17" y="263.027865"/>
     <use style="fill:#ff0000;stroke:#ff0000;" x="159.726316" xlink:href="#m827a250d17" y="232.603968"/>
     <use style="fill:#ff0000;stroke:#ff0000;" x="163.250526" xlink:href="#m827a250d17" y="245.864301"/>
     <use style="fill:#ff0000;stroke:#ff0000;" x="166.774737" xlink:href="#m827a250d17" y="239.727196"/>
     <use style="fill:#ff0000;stroke:#ff0000;" x="170.298947" xlink:href="#m827a250d17" y="251.208291"/>
     <use style="fill:#ff0000;stroke:#ff0000;" x="173.823158" xlink:href="#m827a250d17" y="219.733623"/>
     <use style="fill:#ff0000;stroke:#ff0000;" x="177.347368" xlink:href="#m827a250d17" y="233.148312"/>
     <use style="fill:#ff0000;stroke:#ff0000;" x="180.871579" xlink:href="#m827a250d17" y="255.550486"/>
     <use style="fill:#ff0000;stroke:#ff0000;" x="184.395789" xlink:href="#m827a250d17" y="248.087882"/>
     <use style="fill:#ff0000;stroke:#ff0000;" x="187.92" xlink:href="#m827a250d17" y="241.99026"/>
     <use style="fill:#ff0000;stroke:#ff0000;" x="191.444211" xlink:href="#m827a250d17" y="224.9911"/>
     <use style="fill:#ff0000;stroke:#ff0000;" x="194.968421" xlink:href="#m827a250d17" y="235.182299"/>
     <use style="fill:#ff0000;stroke:#ff0000;" x="198.492632" xlink:href="#m827a250d17" y="240.494658"/>
     <use style="fill:#ff0000;stroke:#ff0000;" x="202.016842" xlink:href="#m827a250d17" y="238.962533"/>
     <use style="fill:#ff0000;stroke:#ff0000;" x="205.541053" xlink:href="#m827a250d17" y="210.952259"/>
     <use style="fill:#ff0000;stroke:#ff0000;" x="209.065263" xlink:href="#m827a250d17" y="235.22806"/>
     <use style="fill:#ff0000;stroke:#ff0000;" x="212.589474" xlink:href="#m827a250d17" y="261.54608"/>
     <use style="fill:#ff0000;stroke:#ff0000;" x="216.113684" xlink:href="#m827a250d17" y="257.380711"/>
     <use style="fill:#ff0000;stroke:#ff0000;" x="219.637895" xlink:href="#m827a250d17" y="227.920171"/>
     <use style="fill:#ff0000;stroke:#ff0000;" x="223.162105" xlink:href="#m827a250d17" y="252.254994"/>
     <use style="fill:#ff0000;stroke:#ff0000;" x="226.686316" xlink:href="#m827a250d17" y="242.157653"/>
     <use style="fill:#ff0000;stroke:#ff0000;" x="230.210526" xlink:href="#m827a250d17" y="249.209573"/>
     <use style="fill:#ff0000;stroke:#ff0000;" x="233.734737" xlink:href="#m827a250d17" y="192.032229"/>
     <use style="fill:#ff0000;stroke:#ff0000;" x="237.258947" xlink:href="#m827a250d17" y="248.029218"/>
     <use style="fill:#ff0000;stroke:#ff0000;" x="240.783158" xlink:href="#m827a250d17" y="214.285525"/>
     <use style="fill:#ff0000;stroke:#ff0000;" x="244.307368" xlink:href="#m827a250d17" y="206.891563"/>
     <use style="fill:#ff0000;stroke:#ff0000;" x="247.831579" xlink:href="#m827a250d17" y="253.049839"/>
     <use style="fill:#ff0000;stroke:#ff0000;" x="251.355789" xlink:href="#m827a250d17" y="229.385858"/>
     <use style="fill:#ff0000;stroke:#ff0000;" x="254.88" xlink:href="#m827a250d17" y="195.123652"/>
     <use style="fill:#ff0000;stroke:#ff0000;" x="258.404211" xlink:href="#m827a250d17" y="234.050983"/>
     <use style="fill:#ff0000;stroke:#ff0000;" x="261.928421" xlink:href="#m827a250d17" y="199.931226"/>
     <use style="fill:#ff0000;stroke:#ff0000;" x="265.452632" xlink:href="#m827a250d17" y="182.63295"/>
     <use style="fill:#ff0000;stroke:#ff0000;" x="268.976842" xlink:href="#m827a250d17" y="211.567755"/>
     <use style="fill:#ff0000;stroke:#ff0000;" x="272.501053" xlink:href="#m827a250d17" y="212.632214"/>
     <use style="fill:#ff0000;stroke:#ff0000;" x="276.025263" xlink:href="#m827a250d17" y="216.957957"/>
     <use style="fill:#ff0000;stroke:#ff0000;" x="279.549474" xlink:href="#m827a250d17" y="202.483638"/>
     <use style="fill:#ff0000;stroke:#ff0000;" x="283.073684" xlink:href="#m827a250d17" y="161.721428"/>
     <use style="fill:#ff0000;stroke:#ff0000;" x="286.597895" xlink:href="#m827a250d17" y="221.374892"/>
     <use style="fill:#ff0000;stroke:#ff0000;" x="290.122105" xlink:href="#m827a250d17" y="147.250486"/>
     <use style="fill:#ff0000;stroke:#ff0000;" x="293.646316" xlink:href="#m827a250d17" y="190.324085"/>
     <use style="fill:#ff0000;stroke:#ff0000;" x="297.170526" xlink:href="#m827a250d17" y="167.081336"/>
     <use style="fill:#ff0000;stroke:#ff0000;" x="300.694737" xlink:href="#m827a250d17" y="201.206156"/>
     <use style="fill:#ff0000;stroke:#ff0000;" x="304.218947" xlink:href="#m827a250d17" y="200.387835"/>
     <use style="fill:#ff0000;stroke:#ff0000;" x="307.743158" xlink:href="#m827a250d17" y="187.791529"/>
     <use style="fill:#ff0000;stroke:#ff0000;" x="311.267368" xlink:href="#m827a250d17" y="196.952011"/>
     <use style="fill:#ff0000;stroke:#ff0000;" x="314.791579" xlink:href="#m827a250d17" y="183.278237"/>
     <use style="fill:#ff0000;stroke:#ff0000;" x="318.315789" xlink:href="#m827a250d17" y="194.410096"/>
     <use style="fill:#ff0000;stroke:#ff0000;" x="321.84" xlink:href="#m827a250d17" y="148.173847"/>
     <use style="fill:#ff0000;stroke:#ff0000;" x="325.364211" xlink:href="#m827a250d17" y="163.554607"/>
     <use style="fill:#ff0000;stroke:#ff0000;" x="328.888421" xlink:href="#m827a250d17" y="103.509935"/>
     <use style="fill:#ff0000;stroke:#ff0000;" x="332.412632" xlink:href="#m827a250d17" y="204.842458"/>
     <use style="fill:#ff0000;stroke:#ff0000;" x="335.936842" xlink:href="#m827a250d17" y="194.317461"/>
     <use style="fill:#ff0000;stroke:#ff0000;" x="339.461053" xlink:href="#m827a250d17" y="153.205863"/>
     <use style="fill:#ff0000;stroke:#ff0000;" x="342.985263" xlink:href="#m827a250d17" y="116.100255"/>
     <use style="fill:#ff0000;stroke:#ff0000;" x="346.509474" xlink:href="#m827a250d17" y="197.59118"/>
     <use style="fill:#ff0000;stroke:#ff0000;" x="350.033684" xlink:href="#m827a250d17" y="210.793447"/>
     <use style="fill:#ff0000;stroke:#ff0000;" x="353.557895" xlink:href="#m827a250d17" y="116.671958"/>
     <use style="fill:#ff0000;stroke:#ff0000;" x="357.082105" xlink:href="#m827a250d17" y="157.210229"/>
     <use style="fill:#ff0000;stroke:#ff0000;" x="360.606316" xlink:href="#m827a250d17" y="69.411618"/>
     <use style="fill:#ff0000;stroke:#ff0000;" x="364.130526" xlink:href="#m827a250d17" y="82.282325"/>
     <use style="fill:#ff0000;stroke:#ff0000;" x="367.654737" xlink:href="#m827a250d17" y="132.712228"/>
     <use style="fill:#ff0000;stroke:#ff0000;" x="371.178947" xlink:href="#m827a250d17" y="94.416716"/>
     <use style="fill:#ff0000;stroke:#ff0000;" x="374.703158" xlink:href="#m827a250d17" y="130.701459"/>
     <use style="fill:#ff0000;stroke:#ff0000;" x="378.227368" xlink:href="#m827a250d17" y="130.032036"/>
     <use style="fill:#ff0000;stroke:#ff0000;" x="381.751579" xlink:href="#m827a250d17" y="84.245668"/>
     <use style="fill:#ff0000;stroke:#ff0000;" x="385.275789" xlink:href="#m827a250d17" y="112.727951"/>
     <use style="fill:#ff0000;stroke:#ff0000;" x="388.8" xlink:href="#m827a250d17" y="75.701251"/>
    </g>
   </g>
   <g id="patch_3">
    <path d="M 54 278.64 
L 54 51.84 
" style="fill:none;stroke:#000000;stroke-linecap:square;stroke-linejoin:miter;stroke-width:0.8;"/>
   </g>
   <g id="patch_4">
    <path d="M 388.8 278.64 
L 388.8 51.84 
" style="fill:none;stroke:#000000;stroke-linecap:square;stroke-linejoin:miter;stroke-width:0.8;"/>
   </g>
   <g id="patch_5">
    <path d="M 54 278.64 
L 388.8 278.64 
" style="fill:none;stroke:#000000;stroke-linecap:square;stroke-linejoin:miter;stroke-width:0.8;"/>
   </g>
   <g id="patch_6">
    <path d="M 54 51.84 
L 388.8 51.84 
" style="fill:none;stroke:#000000;stroke-linecap:square;stroke-linejoin:miter;stroke-width:0.8;"/>
   </g>
   <g id="legend_1">
    <g id="patch_7">
     <path d="M 61 89.19625 
L 162.957812 89.19625 
Q 164.957812 89.19625 164.957812 87.19625 
L 164.957812 58.84 
Q 164.957812 56.84 162.957812 56.84 
L 61 56.84 
Q 59 56.84 59 58.84 
L 59 87.19625 
Q 59 89.19625 61 89.19625 
z
" style="fill:#ffffff;opacity:0.8;stroke:#cccccc;stroke-linejoin:miter;"/>
    </g>
    <g id="line2d_13">
     <path d="M 63 64.938437 
L 83 64.938437 
" style="fill:none;stroke:#1f77b4;stroke-linecap:square;stroke-width:1.5;"/>
    </g>
    <g id="line2d_14"/>
    <g id="text_12">
     <!-- True RUL -->
     <defs>
      <path d="M -0.296875 72.90625 
L 61.375 72.90625 
L 61.375 64.59375 
L 35.5 64.59375 
L 35.5 0 
L 25.59375 0 
L 25.59375 64.59375 
L -0.296875 64.59375 
z
" id="DejaVuSans-84"/>
      <path d="M 41.109375 46.296875 
Q 39.59375 47.171875 37.8125 47.578125 
Q 36.03125 48 33.890625 48 
Q 26.265625 48 22.1875 43.046875 
Q 18.109375 38.09375 18.109375 28.8125 
L 18.109375 0 
L 9.078125 0 
L 9.078125 54.6875 
L 18.109375 54.6875 
L 18.109375 46.1875 
Q 20.953125 51.171875 25.484375 53.578125 
Q 30.03125 56 36.53125 56 
Q 37.453125 56 38.578125 55.875 
Q 39.703125 55.765625 41.0625 55.515625 
z
" id="DejaVuSans-114"/>
      <path d="M 8.5 21.578125 
L 8.5 54.6875 
L 17.484375 54.6875 
L 17.484375 21.921875 
Q 17.484375 14.15625 20.5 10.265625 
Q 23.53125 6.390625 29.59375 6.390625 
Q 36.859375 6.390625 41.078125 11.03125 
Q 45.3125 15.671875 45.3125 23.6875 
L 45.3125 54.6875 
L 54.296875 54.6875 
L 54.296875 0 
L 45.3125 0 
L 45.3125 8.40625 
Q 42.046875 3.421875 37.71875 1 
Q 33.40625 -1.421875 27.6875 -1.421875 
Q 18.265625 -1.421875 13.375 4.4375 
Q 8.5 10.296875 8.5 21.578125 
z
M 31.109375 56 
z
" id="DejaVuSans-117"/>
      <path d="M 56.203125 29.59375 
L 56.203125 25.203125 
L 14.890625 25.203125 
Q 15.484375 15.921875 20.484375 11.0625 
Q 25.484375 6.203125 34.421875 6.203125 
Q 39.59375 6.203125 44.453125 7.46875 
Q 49.3125 8.734375 54.109375 11.28125 
L 54.109375 2.78125 
Q 49.265625 0.734375 44.1875 -0.34375 
Q 39.109375 -1.421875 33.890625 -1.421875 
Q 20.796875 -1.421875 13.15625 6.1875 
Q 5.515625 13.8125 5.515625 26.8125 
Q 5.515625 40.234375 12.765625 48.109375 
Q 20.015625 56 32.328125 56 
Q 43.359375 56 49.78125 48.890625 
Q 56.203125 41.796875 56.203125 29.59375 
z
M 47.21875 32.234375 
Q 47.125 39.59375 43.09375 43.984375 
Q 39.0625 48.390625 32.421875 48.390625 
Q 24.90625 48.390625 20.390625 44.140625 
Q 15.875 39.890625 15.1875 32.171875 
z
" id="DejaVuSans-101"/>
      <path id="DejaVuSans-32"/>
     </defs>
     <g transform="translate(91 68.438437)scale(0.1 -0.1)">
      <use xlink:href="#DejaVuSans-84"/>
      <use x="46.333984" xlink:href="#DejaVuSans-114"/>
      <use x="87.447266" xlink:href="#DejaVuSans-117"/>
      <use x="150.826172" xlink:href="#DejaVuSans-101"/>
      <use x="212.349609" xlink:href="#DejaVuSans-32"/>
      <use x="244.136719" xlink:href="#DejaVuSans-82"/>
      <use x="313.619141" xlink:href="#DejaVuSans-85"/>
      <use x="386.8125" xlink:href="#DejaVuSans-76"/>
     </g>
    </g>
    <g id="line2d_15">
     <path d="M 63 79.616562 
L 83 79.616562 
" style="fill:none;stroke:#ff0000;stroke-linecap:square;stroke-width:0.5;"/>
    </g>
    <g id="line2d_16">
     <g>
      <use style="fill:#ff0000;stroke:#ff0000;" x="73" xlink:href="#m827a250d17" y="79.616562"/>
     </g>
    </g>
    <g id="text_13">
     <!-- Predicted RUL -->
     <defs>
      <path d="M 19.671875 64.796875 
L 19.671875 37.40625 
L 32.078125 37.40625 
Q 38.96875 37.40625 42.71875 40.96875 
Q 46.484375 44.53125 46.484375 51.125 
Q 46.484375 57.671875 42.71875 61.234375 
Q 38.96875 64.796875 32.078125 64.796875 
z
M 9.8125 72.90625 
L 32.078125 72.90625 
Q 44.34375 72.90625 50.609375 67.359375 
Q 56.890625 61.8125 56.890625 51.125 
Q 56.890625 40.328125 50.609375 34.8125 
Q 44.34375 29.296875 32.078125 29.296875 
L 19.671875 29.296875 
L 19.671875 0 
L 9.8125 0 
z
" id="DejaVuSans-80"/>
      <path d="M 45.40625 46.390625 
L 45.40625 75.984375 
L 54.390625 75.984375 
L 54.390625 0 
L 45.40625 0 
L 45.40625 8.203125 
Q 42.578125 3.328125 38.25 0.953125 
Q 33.9375 -1.421875 27.875 -1.421875 
Q 17.96875 -1.421875 11.734375 6.484375 
Q 5.515625 14.40625 5.515625 27.296875 
Q 5.515625 40.1875 11.734375 48.09375 
Q 17.96875 56 27.875 56 
Q 33.9375 56 38.25 53.625 
Q 42.578125 51.265625 45.40625 46.390625 
z
M 14.796875 27.296875 
Q 14.796875 17.390625 18.875 11.75 
Q 22.953125 6.109375 30.078125 6.109375 
Q 37.203125 6.109375 41.296875 11.75 
Q 45.40625 17.390625 45.40625 27.296875 
Q 45.40625 37.203125 41.296875 42.84375 
Q 37.203125 48.484375 30.078125 48.484375 
Q 22.953125 48.484375 18.875 42.84375 
Q 14.796875 37.203125 14.796875 27.296875 
z
" id="DejaVuSans-100"/>
      <path d="M 9.421875 54.6875 
L 18.40625 54.6875 
L 18.40625 0 
L 9.421875 0 
z
M 9.421875 75.984375 
L 18.40625 75.984375 
L 18.40625 64.59375 
L 9.421875 64.59375 
z
" id="DejaVuSans-105"/>
      <path d="M 48.78125 52.59375 
L 48.78125 44.1875 
Q 44.96875 46.296875 41.140625 47.34375 
Q 37.3125 48.390625 33.40625 48.390625 
Q 24.65625 48.390625 19.8125 42.84375 
Q 14.984375 37.3125 14.984375 27.296875 
Q 14.984375 17.28125 19.8125 11.734375 
Q 24.65625 6.203125 33.40625 6.203125 
Q 37.3125 6.203125 41.140625 7.25 
Q 44.96875 8.296875 48.78125 10.40625 
L 48.78125 2.09375 
Q 45.015625 0.34375 40.984375 -0.53125 
Q 36.96875 -1.421875 32.421875 -1.421875 
Q 20.0625 -1.421875 12.78125 6.34375 
Q 5.515625 14.109375 5.515625 27.296875 
Q 5.515625 40.671875 12.859375 48.328125 
Q 20.21875 56 33.015625 56 
Q 37.15625 56 41.109375 55.140625 
Q 45.0625 54.296875 48.78125 52.59375 
z
" id="DejaVuSans-99"/>
      <path d="M 18.3125 70.21875 
L 18.3125 54.6875 
L 36.8125 54.6875 
L 36.8125 47.703125 
L 18.3125 47.703125 
L 18.3125 18.015625 
Q 18.3125 11.328125 20.140625 9.421875 
Q 21.96875 7.515625 27.59375 7.515625 
L 36.8125 7.515625 
L 36.8125 0 
L 27.59375 0 
Q 17.1875 0 13.234375 3.875 
Q 9.28125 7.765625 9.28125 18.015625 
L 9.28125 47.703125 
L 2.6875 47.703125 
L 2.6875 54.6875 
L 9.28125 54.6875 
L 9.28125 70.21875 
z
" id="DejaVuSans-116"/>
     </defs>
     <g transform="translate(91 83.116562)scale(0.1 -0.1)">
      <use xlink:href="#DejaVuSans-80"/>
      <use x="58.552734" xlink:href="#DejaVuSans-114"/>
      <use x="97.416016" xlink:href="#DejaVuSans-101"/>
      <use x="158.939453" xlink:href="#DejaVuSans-100"/>
      <use x="222.416016" xlink:href="#DejaVuSans-105"/>
      <use x="250.199219" xlink:href="#DejaVuSans-99"/>
      <use x="305.179688" xlink:href="#DejaVuSans-116"/>
      <use x="344.388672" xlink:href="#DejaVuSans-101"/>
      <use x="405.912109" xlink:href="#DejaVuSans-100"/>
      <use x="469.388672" xlink:href="#DejaVuSans-32"/>
      <use x="501.175781" xlink:href="#DejaVuSans-82"/>
      <use x="570.658203" xlink:href="#DejaVuSans-85"/>
      <use x="643.851562" xlink:href="#DejaVuSans-76"/>
     </g>
    </g>
   </g>
  </g>
  <g id="axes_2">
   <g id="patch_8">
    <path d="M 54 384.48 
L 388.8 384.48 
L 388.8 308.88 
L 54 308.88 
z
" style="fill:#ffffff;"/>
   </g>
   <g id="matplotlib.axis_3">
    <g id="xtick_6">
     <g id="line2d_17">
      <g>
       <use style="stroke:#000000;stroke-width:0.8;" x="54" xlink:href="#m6af1f34b84" y="384.48"/>
      </g>
     </g>
     <g id="text_14">
      <!-- 0 -->
      <g transform="translate(50.81875 399.078437)scale(0.1 -0.1)">
       <use xlink:href="#DejaVuSans-48"/>
      </g>
     </g>
    </g>
    <g id="xtick_7">
     <g id="line2d_18">
      <g>
       <use style="stroke:#000000;stroke-width:0.8;" x="124.484211" xlink:href="#m6af1f34b84" y="384.48"/>
      </g>
     </g>
     <g id="text_15">
      <!-- 20 -->
      <g transform="translate(118.121711 399.078437)scale(0.1 -0.1)">
       <use xlink:href="#DejaVuSans-50"/>
       <use x="63.623047" xlink:href="#DejaVuSans-48"/>
      </g>
     </g>
    </g>
    <g id="xtick_8">
     <g id="line2d_19">
      <g>
       <use style="stroke:#000000;stroke-width:0.8;" x="194.968421" xlink:href="#m6af1f34b84" y="384.48"/>
      </g>
     </g>
     <g id="text_16">
      <!-- 40 -->
      <g transform="translate(188.605921 399.078437)scale(0.1 -0.1)">
       <use xlink:href="#DejaVuSans-52"/>
       <use x="63.623047" xlink:href="#DejaVuSans-48"/>
      </g>
     </g>
    </g>
    <g id="xtick_9">
     <g id="line2d_20">
      <g>
       <use style="stroke:#000000;stroke-width:0.8;" x="265.452632" xlink:href="#m6af1f34b84" y="384.48"/>
      </g>
     </g>
     <g id="text_17">
      <!-- 60 -->
      <g transform="translate(259.090132 399.078437)scale(0.1 -0.1)">
       <use xlink:href="#DejaVuSans-54"/>
       <use x="63.623047" xlink:href="#DejaVuSans-48"/>
      </g>
     </g>
    </g>
    <g id="xtick_10">
     <g id="line2d_21">
      <g>
       <use style="stroke:#000000;stroke-width:0.8;" x="335.936842" xlink:href="#m6af1f34b84" y="384.48"/>
      </g>
     </g>
     <g id="text_18">
      <!-- 80 -->
      <g transform="translate(329.574342 399.078437)scale(0.1 -0.1)">
       <use xlink:href="#DejaVuSans-56"/>
       <use x="63.623047" xlink:href="#DejaVuSans-48"/>
      </g>
     </g>
    </g>
    <g id="text_19">
     <!-- Engne sample -->
     <defs>
      <path d="M 9.8125 72.90625 
L 55.90625 72.90625 
L 55.90625 64.59375 
L 19.671875 64.59375 
L 19.671875 43.015625 
L 54.390625 43.015625 
L 54.390625 34.71875 
L 19.671875 34.71875 
L 19.671875 8.296875 
L 56.78125 8.296875 
L 56.78125 0 
L 9.8125 0 
z
" id="DejaVuSans-69"/>
      <path d="M 54.890625 33.015625 
L 54.890625 0 
L 45.90625 0 
L 45.90625 32.71875 
Q 45.90625 40.484375 42.875 44.328125 
Q 39.84375 48.1875 33.796875 48.1875 
Q 26.515625 48.1875 22.3125 43.546875 
Q 18.109375 38.921875 18.109375 30.90625 
L 18.109375 0 
L 9.078125 0 
L 9.078125 54.6875 
L 18.109375 54.6875 
L 18.109375 46.1875 
Q 21.34375 51.125 25.703125 53.5625 
Q 30.078125 56 35.796875 56 
Q 45.21875 56 50.046875 50.171875 
Q 54.890625 44.34375 54.890625 33.015625 
z
" id="DejaVuSans-110"/>
      <path d="M 45.40625 27.984375 
Q 45.40625 37.75 41.375 43.109375 
Q 37.359375 48.484375 30.078125 48.484375 
Q 22.859375 48.484375 18.828125 43.109375 
Q 14.796875 37.75 14.796875 27.984375 
Q 14.796875 18.265625 18.828125 12.890625 
Q 22.859375 7.515625 30.078125 7.515625 
Q 37.359375 7.515625 41.375 12.890625 
Q 45.40625 18.265625 45.40625 27.984375 
z
M 54.390625 6.78125 
Q 54.390625 -7.171875 48.1875 -13.984375 
Q 42 -20.796875 29.203125 -20.796875 
Q 24.46875 -20.796875 20.265625 -20.09375 
Q 16.0625 -19.390625 12.109375 -17.921875 
L 12.109375 -9.1875 
Q 16.0625 -11.328125 19.921875 -12.34375 
Q 23.78125 -13.375 27.78125 -13.375 
Q 36.625 -13.375 41.015625 -8.765625 
Q 45.40625 -4.15625 45.40625 5.171875 
L 45.40625 9.625 
Q 42.625 4.78125 38.28125 2.390625 
Q 33.9375 0 27.875 0 
Q 17.828125 0 11.671875 7.65625 
Q 5.515625 15.328125 5.515625 27.984375 
Q 5.515625 40.671875 11.671875 48.328125 
Q 17.828125 56 27.875 56 
Q 33.9375 56 38.28125 53.609375 
Q 42.625 51.21875 45.40625 46.390625 
L 45.40625 54.6875 
L 54.390625 54.6875 
z
" id="DejaVuSans-103"/>
      <path d="M 44.28125 53.078125 
L 44.28125 44.578125 
Q 40.484375 46.53125 36.375 47.5 
Q 32.28125 48.484375 27.875 48.484375 
Q 21.1875 48.484375 17.84375 46.4375 
Q 14.5 44.390625 14.5 40.28125 
Q 14.5 37.15625 16.890625 35.375 
Q 19.28125 33.59375 26.515625 31.984375 
L 29.59375 31.296875 
Q 39.15625 29.25 43.1875 25.515625 
Q 47.21875 21.78125 47.21875 15.09375 
Q 47.21875 7.46875 41.1875 3.015625 
Q 35.15625 -1.421875 24.609375 -1.421875 
Q 20.21875 -1.421875 15.453125 -0.5625 
Q 10.6875 0.296875 5.421875 2 
L 5.421875 11.28125 
Q 10.40625 8.6875 15.234375 7.390625 
Q 20.0625 6.109375 24.8125 6.109375 
Q 31.15625 6.109375 34.5625 8.28125 
Q 37.984375 10.453125 37.984375 14.40625 
Q 37.984375 18.0625 35.515625 20.015625 
Q 33.0625 21.96875 24.703125 23.78125 
L 21.578125 24.515625 
Q 13.234375 26.265625 9.515625 29.90625 
Q 5.8125 33.546875 5.8125 39.890625 
Q 5.8125 47.609375 11.28125 51.796875 
Q 16.75 56 26.8125 56 
Q 31.78125 56 36.171875 55.265625 
Q 40.578125 54.546875 44.28125 53.078125 
z
" id="DejaVuSans-115"/>
      <path d="M 34.28125 27.484375 
Q 23.390625 27.484375 19.1875 25 
Q 14.984375 22.515625 14.984375 16.5 
Q 14.984375 11.71875 18.140625 8.90625 
Q 21.296875 6.109375 26.703125 6.109375 
Q 34.1875 6.109375 38.703125 11.40625 
Q 43.21875 16.703125 43.21875 25.484375 
L 43.21875 27.484375 
z
M 52.203125 31.203125 
L 52.203125 0 
L 43.21875 0 
L 43.21875 8.296875 
Q 40.140625 3.328125 35.546875 0.953125 
Q 30.953125 -1.421875 24.3125 -1.421875 
Q 15.921875 -1.421875 10.953125 3.296875 
Q 6 8.015625 6 15.921875 
Q 6 25.140625 12.171875 29.828125 
Q 18.359375 34.515625 30.609375 34.515625 
L 43.21875 34.515625 
L 43.21875 35.40625 
Q 43.21875 41.609375 39.140625 45 
Q 35.0625 48.390625 27.6875 48.390625 
Q 23 48.390625 18.546875 47.265625 
Q 14.109375 46.140625 10.015625 43.890625 
L 10.015625 52.203125 
Q 14.9375 54.109375 19.578125 55.046875 
Q 24.21875 56 28.609375 56 
Q 40.484375 56 46.34375 49.84375 
Q 52.203125 43.703125 52.203125 31.203125 
z
" id="DejaVuSans-97"/>
      <path d="M 52 44.1875 
Q 55.375 50.25 60.0625 53.125 
Q 64.75 56 71.09375 56 
Q 79.640625 56 84.28125 50.015625 
Q 88.921875 44.046875 88.921875 33.015625 
L 88.921875 0 
L 79.890625 0 
L 79.890625 32.71875 
Q 79.890625 40.578125 77.09375 44.375 
Q 74.3125 48.1875 68.609375 48.1875 
Q 61.625 48.1875 57.5625 43.546875 
Q 53.515625 38.921875 53.515625 30.90625 
L 53.515625 0 
L 44.484375 0 
L 44.484375 32.71875 
Q 44.484375 40.625 41.703125 44.40625 
Q 38.921875 48.1875 33.109375 48.1875 
Q 26.21875 48.1875 22.15625 43.53125 
Q 18.109375 38.875 18.109375 30.90625 
L 18.109375 0 
L 9.078125 0 
L 9.078125 54.6875 
L 18.109375 54.6875 
L 18.109375 46.1875 
Q 21.1875 51.21875 25.484375 53.609375 
Q 29.78125 56 35.6875 56 
Q 41.65625 56 45.828125 52.96875 
Q 50 49.953125 52 44.1875 
z
" id="DejaVuSans-109"/>
      <path d="M 18.109375 8.203125 
L 18.109375 -20.796875 
L 9.078125 -20.796875 
L 9.078125 54.6875 
L 18.109375 54.6875 
L 18.109375 46.390625 
Q 20.953125 51.265625 25.265625 53.625 
Q 29.59375 56 35.59375 56 
Q 45.5625 56 51.78125 48.09375 
Q 58.015625 40.1875 58.015625 27.296875 
Q 58.015625 14.40625 51.78125 6.484375 
Q 45.5625 -1.421875 35.59375 -1.421875 
Q 29.59375 -1.421875 25.265625 0.953125 
Q 20.953125 3.328125 18.109375 8.203125 
z
M 48.6875 27.296875 
Q 48.6875 37.203125 44.609375 42.84375 
Q 40.53125 48.484375 33.40625 48.484375 
Q 26.265625 48.484375 22.1875 42.84375 
Q 18.109375 37.203125 18.109375 27.296875 
Q 18.109375 17.390625 22.1875 11.75 
Q 26.265625 6.109375 33.40625 6.109375 
Q 40.53125 6.109375 44.609375 11.75 
Q 48.6875 17.390625 48.6875 27.296875 
z
" id="DejaVuSans-112"/>
      <path d="M 9.421875 75.984375 
L 18.40625 75.984375 
L 18.40625 0 
L 9.421875 0 
z
" id="DejaVuSans-108"/>
     </defs>
     <g transform="translate(185.884375 412.756562)scale(0.1 -0.1)">
      <use xlink:href="#DejaVuSans-69"/>
      <use x="63.183594" xlink:href="#DejaVuSans-110"/>
      <use x="126.5625" xlink:href="#DejaVuSans-103"/>
      <use x="190.039062" xlink:href="#DejaVuSans-110"/>
      <use x="253.417969" xlink:href="#DejaVuSans-101"/>
      <use x="314.941406" xlink:href="#DejaVuSans-32"/>
      <use x="346.728516" xlink:href="#DejaVuSans-115"/>
      <use x="398.828125" xlink:href="#DejaVuSans-97"/>
      <use x="460.107422" xlink:href="#DejaVuSans-109"/>
      <use x="557.519531" xlink:href="#DejaVuSans-112"/>
      <use x="620.996094" xlink:href="#DejaVuSans-108"/>
      <use x="648.779297" xlink:href="#DejaVuSans-101"/>
     </g>
    </g>
   </g>
   <g id="matplotlib.axis_4">
    <g id="ytick_6">
     <g id="line2d_22">
      <g>
       <use style="stroke:#000000;stroke-width:0.8;" x="54" xlink:href="#m545e10e977" y="381.063971"/>
      </g>
     </g>
     <g id="text_20">
      <!-- 0 -->
      <g transform="translate(40.6375 384.86319)scale(0.1 -0.1)">
       <use xlink:href="#DejaVuSans-48"/>
      </g>
     </g>
    </g>
    <g id="ytick_7">
     <g id="line2d_23">
      <g>
       <use style="stroke:#000000;stroke-width:0.8;" x="54" xlink:href="#m545e10e977" y="340.247845"/>
      </g>
     </g>
     <g id="text_21">
      <!-- 20 -->
      <g transform="translate(34.275 344.047063)scale(0.1 -0.1)">
       <use xlink:href="#DejaVuSans-50"/>
       <use x="63.623047" xlink:href="#DejaVuSans-48"/>
      </g>
     </g>
    </g>
    <g id="text_22">
     <!-- Absolute error -->
     <defs>
      <path d="M 34.1875 63.1875 
L 20.796875 26.90625 
L 47.609375 26.90625 
z
M 28.609375 72.90625 
L 39.796875 72.90625 
L 67.578125 0 
L 57.328125 0 
L 50.6875 18.703125 
L 17.828125 18.703125 
L 11.1875 0 
L 0.78125 0 
z
" id="DejaVuSans-65"/>
      <path d="M 48.6875 27.296875 
Q 48.6875 37.203125 44.609375 42.84375 
Q 40.53125 48.484375 33.40625 48.484375 
Q 26.265625 48.484375 22.1875 42.84375 
Q 18.109375 37.203125 18.109375 27.296875 
Q 18.109375 17.390625 22.1875 11.75 
Q 26.265625 6.109375 33.40625 6.109375 
Q 40.53125 6.109375 44.609375 11.75 
Q 48.6875 17.390625 48.6875 27.296875 
z
M 18.109375 46.390625 
Q 20.953125 51.265625 25.265625 53.625 
Q 29.59375 56 35.59375 56 
Q 45.5625 56 51.78125 48.09375 
Q 58.015625 40.1875 58.015625 27.296875 
Q 58.015625 14.40625 51.78125 6.484375 
Q 45.5625 -1.421875 35.59375 -1.421875 
Q 29.59375 -1.421875 25.265625 0.953125 
Q 20.953125 3.328125 18.109375 8.203125 
L 18.109375 0 
L 9.078125 0 
L 9.078125 75.984375 
L 18.109375 75.984375 
z
" id="DejaVuSans-98"/>
      <path d="M 30.609375 48.390625 
Q 23.390625 48.390625 19.1875 42.75 
Q 14.984375 37.109375 14.984375 27.296875 
Q 14.984375 17.484375 19.15625 11.84375 
Q 23.34375 6.203125 30.609375 6.203125 
Q 37.796875 6.203125 41.984375 11.859375 
Q 46.1875 17.53125 46.1875 27.296875 
Q 46.1875 37.015625 41.984375 42.703125 
Q 37.796875 48.390625 30.609375 48.390625 
z
M 30.609375 56 
Q 42.328125 56 49.015625 48.375 
Q 55.71875 40.765625 55.71875 27.296875 
Q 55.71875 13.875 49.015625 6.21875 
Q 42.328125 -1.421875 30.609375 -1.421875 
Q 18.84375 -1.421875 12.171875 6.21875 
Q 5.515625 13.875 5.515625 27.296875 
Q 5.515625 40.765625 12.171875 48.375 
Q 18.84375 56 30.609375 56 
z
" id="DejaVuSans-111"/>
     </defs>
     <g transform="translate(28.195312 382.224531)rotate(-90)scale(0.1 -0.1)">
      <use xlink:href="#DejaVuSans-65"/>
      <use x="68.408203" xlink:href="#DejaVuSans-98"/>
      <use x="131.884766" xlink:href="#DejaVuSans-115"/>
      <use x="183.984375" xlink:href="#DejaVuSans-111"/>
      <use x="245.166016" xlink:href="#DejaVuSans-108"/>
      <use x="272.949219" xlink:href="#DejaVuSans-117"/>
      <use x="336.328125" xlink:href="#DejaVuSans-116"/>
      <use x="375.537109" xlink:href="#DejaVuSans-101"/>
      <use x="437.060547" xlink:href="#DejaVuSans-32"/>
      <use x="468.847656" xlink:href="#DejaVuSans-101"/>
      <use x="530.371094" xlink:href="#DejaVuSans-114"/>
      <use x="569.734375" xlink:href="#DejaVuSans-114"/>
      <use x="608.597656" xlink:href="#DejaVuSans-111"/>
      <use x="669.779297" xlink:href="#DejaVuSans-114"/>
     </g>
    </g>
   </g>
   <g id="line2d_24">
    <path clip-path="url(#pe267e80e2f)" d="M 57.524211 362.559049 
L 61.048421 360.315164 
L 64.572632 350.96242 
L 68.096842 377.759868 
L 71.621053 361.935213 
L 75.145263 378.85493 
L 78.669474 376.174067 
L 82.193684 378.796718 
L 85.717895 375.082006 
L 89.242105 374.848037 
L 92.766316 374.828241 
L 96.290526 369.739056 
L 99.814737 374.907415 
L 103.338947 376.661003 
L 106.863158 372.229681 
L 110.387368 312.316364 
L 113.911579 377.444341 
L 117.435789 359.585233 
L 120.96 374.54857 
L 124.484211 376.65357 
L 128.008421 362.201791 
L 131.532632 371.553366 
L 135.056842 374.857477 
L 138.581053 374.632343 
L 142.105263 363.223482 
L 145.629474 378.215735 
L 149.153684 375.607042 
L 152.677895 374.401234 
L 156.202105 370.341542 
L 159.726316 364.957697 
L 163.250526 376.651055 
L 166.774737 373.279979 
L 170.298947 378.72359 
L 173.823158 355.649049 
L 177.347368 369.519329 
L 180.871579 372.853706 
L 184.395789 379.434453 
L 187.92 377.316423 
L 191.444211 362.326056 
L 194.968421 371.31296 
L 198.492632 378.038363 
L 202.016842 376.687289 
L 205.541053 351.986992 
L 209.065263 373.39412 
L 212.589474 365.525806 
L 216.113684 367.158146 
L 219.637895 371.031417 
L 223.162105 369.63735 
L 226.686316 378.541488 
L 230.210526 370.282088 
L 233.734737 341.425164 
L 237.258947 369.282153 
L 240.783158 369.21201 
L 244.307368 364.7326 
L 247.831579 356.691595 
L 251.355789 371.436781 
L 254.88 362.51853 
L 258.404211 357.118903 
L 261.928421 381.043636 
L 265.452632 367.830306 
L 268.976842 366.741254 
L 272.501053 365.802583 
L 276.025263 359.947207 
L 279.549474 372.711094 
L 283.073684 355.51232 
L 286.597895 351.970609 
L 290.122105 348.873829 
L 293.646316 373.229719 
L 297.170526 370.442878 
L 300.694737 359.551971 
L 304.218947 354.151172 
L 307.743158 365.258971 
L 311.267368 355.140179 
L 314.791579 367.19812 
L 318.315789 355.340908 
L 321.84 370.09614 
L 325.364211 376.427782 
L 328.888421 332.750974 
L 332.412632 337.978115 
L 335.936842 343.177759 
L 339.461053 377.390389 
L 342.985263 352.01672 
L 346.509474 338.25009 
L 350.033684 314.363098 
L 353.557895 374.969734 
L 357.082105 349.369543 
L 360.606316 345.538991 
L 364.130526 365.05199 
L 367.654737 350.564549 
L 371.178947 379.834072 
L 374.703158 348.256093 
L 378.227368 338.642379 
L 381.751579 372.895748 
L 385.275789 347.779219 
L 388.8 360.022407 
" style="fill:none;stroke:#000000;stroke-linecap:square;stroke-width:0.5;"/>
   </g>
   <g id="patch_9">
    <path d="M 54 384.48 
L 54 308.88 
" style="fill:none;stroke:#000000;stroke-linecap:square;stroke-linejoin:miter;stroke-width:0.8;"/>
   </g>
   <g id="patch_10">
    <path d="M 388.8 384.48 
L 388.8 308.88 
" style="fill:none;stroke:#000000;stroke-linecap:square;stroke-linejoin:miter;stroke-width:0.8;"/>
   </g>
   <g id="patch_11">
    <path d="M 54 384.48 
L 388.8 384.48 
" style="fill:none;stroke:#000000;stroke-linecap:square;stroke-linejoin:miter;stroke-width:0.8;"/>
   </g>
   <g id="patch_12">
    <path d="M 54 308.88 
L 388.8 308.88 
" style="fill:none;stroke:#000000;stroke-linecap:square;stroke-linejoin:miter;stroke-width:0.8;"/>
   </g>
  </g>
 </g>
 <defs>
  <clipPath id="p2e91b96558">
   <rect height="226.8" width="334.8" x="54" y="51.84"/>
  </clipPath>
  <clipPath id="pe267e80e2f">
   <rect height="75.6" width="334.8" x="54" y="308.88"/>
  </clipPath>
 </defs>
</svg>
