<?xml version="1.0" encoding="utf-8" standalone="no"?>
<!DOCTYPE svg PUBLIC "-//W3C//DTD SVG 1.1//EN"
  "http://www.w3.org/Graphics/SVG/1.1/DTD/svg11.dtd">
<!-- Created with matplotlib (https://matplotlib.org/) -->
<svg height="432pt" version="1.1" viewBox="0 0 432 432" width="432pt" xmlns="http://www.w3.org/2000/svg" xmlns:xlink="http://www.w3.org/1999/xlink">
 <defs>
  <style type="text/css">
*{stroke-linecap:butt;stroke-linejoin:round;}
  </style>
 </defs>
 <g id="figure_1">
  <g id="patch_1">
   <path d="M 0 432 
L 432 432 
L 432 0 
L 0 0 
z
" style="fill:#ffffff;"/>
  </g>
  <g id="axes_1">
   <g id="patch_2">
    <path d="M 54 278.64 
L 388.8 278.64 
L 388.8 51.84 
L 54 51.84 
z
" style="fill:#ffffff;"/>
   </g>
   <g id="matplotlib.axis_1">
    <g id="xtick_1">
     <g id="line2d_1">
      <defs>
       <path d="M 0 0 
L 0 3.5 
" id="mbab70a39bd" style="stroke:#000000;stroke-width:0.8;"/>
      </defs>
      <g>
       <use style="stroke:#000000;stroke-width:0.8;" x="54" xlink:href="#mbab70a39bd" y="278.64"/>
      </g>
     </g>
     <g id="text_1">
      <!-- 0 -->
      <defs>
       <path d="M 31.78125 66.40625 
Q 24.171875 66.40625 20.328125 58.90625 
Q 16.5 51.421875 16.5 36.375 
Q 16.5 21.390625 20.328125 13.890625 
Q 24.171875 6.390625 31.78125 6.390625 
Q 39.453125 6.390625 43.28125 13.890625 
Q 47.125 21.390625 47.125 36.375 
Q 47.125 51.421875 43.28125 58.90625 
Q 39.453125 66.40625 31.78125 66.40625 
z
M 31.78125 74.21875 
Q 44.046875 74.21875 50.515625 64.515625 
Q 56.984375 54.828125 56.984375 36.375 
Q 56.984375 17.96875 50.515625 8.265625 
Q 44.046875 -1.421875 31.78125 -1.421875 
Q 19.53125 -1.421875 13.0625 8.265625 
Q 6.59375 17.96875 6.59375 36.375 
Q 6.59375 54.828125 13.0625 64.515625 
Q 19.53125 74.21875 31.78125 74.21875 
z
" id="DejaVuSans-48"/>
      </defs>
      <g transform="translate(50.81875 293.238437)scale(0.1 -0.1)">
       <use xlink:href="#DejaVuSans-48"/>
      </g>
     </g>
    </g>
    <g id="xtick_2">
     <g id="line2d_2">
      <g>
       <use style="stroke:#000000;stroke-width:0.8;" x="92.930233" xlink:href="#mbab70a39bd" y="278.64"/>
      </g>
     </g>
     <g id="text_2">
      <!-- 10 -->
      <defs>
       <path d="M 12.40625 8.296875 
L 28.515625 8.296875 
L 28.515625 63.921875 
L 10.984375 60.40625 
L 10.984375 69.390625 
L 28.421875 72.90625 
L 38.28125 72.90625 
L 38.28125 8.296875 
L 54.390625 8.296875 
L 54.390625 0 
L 12.40625 0 
z
" id="DejaVuSans-49"/>
      </defs>
      <g transform="translate(86.567733 293.238437)scale(0.1 -0.1)">
       <use xlink:href="#DejaVuSans-49"/>
       <use x="63.623047" xlink:href="#DejaVuSans-48"/>
      </g>
     </g>
    </g>
    <g id="xtick_3">
     <g id="line2d_3">
      <g>
       <use style="stroke:#000000;stroke-width:0.8;" x="131.860465" xlink:href="#mbab70a39bd" y="278.64"/>
      </g>
     </g>
     <g id="text_3">
      <!-- 20 -->
      <defs>
       <path d="M 19.1875 8.296875 
L 53.609375 8.296875 
L 53.609375 0 
L 7.328125 0 
L 7.328125 8.296875 
Q 12.9375 14.109375 22.625 23.890625 
Q 32.328125 33.6875 34.8125 36.53125 
Q 39.546875 41.84375 41.421875 45.53125 
Q 43.3125 49.21875 43.3125 52.78125 
Q 43.3125 58.59375 39.234375 62.25 
Q 35.15625 65.921875 28.609375 65.921875 
Q 23.96875 65.921875 18.8125 64.3125 
Q 13.671875 62.703125 7.8125 59.421875 
L 7.8125 69.390625 
Q 13.765625 71.78125 18.9375 73 
Q 24.125 74.21875 28.421875 74.21875 
Q 39.75 74.21875 46.484375 68.546875 
Q 53.21875 62.890625 53.21875 53.421875 
Q 53.21875 48.921875 51.53125 44.890625 
Q 49.859375 40.875 45.40625 35.40625 
Q 44.1875 33.984375 37.640625 27.21875 
Q 31.109375 20.453125 19.1875 8.296875 
z
" id="DejaVuSans-50"/>
      </defs>
      <g transform="translate(125.497965 293.238437)scale(0.1 -0.1)">
       <use xlink:href="#DejaVuSans-50"/>
       <use x="63.623047" xlink:href="#DejaVuSans-48"/>
      </g>
     </g>
    </g>
    <g id="xtick_4">
     <g id="line2d_4">
      <g>
       <use style="stroke:#000000;stroke-width:0.8;" x="170.790698" xlink:href="#mbab70a39bd" y="278.64"/>
      </g>
     </g>
     <g id="text_4">
      <!-- 30 -->
      <defs>
       <path d="M 40.578125 39.3125 
Q 47.65625 37.796875 51.625 33 
Q 55.609375 28.21875 55.609375 21.1875 
Q 55.609375 10.40625 48.1875 4.484375 
Q 40.765625 -1.421875 27.09375 -1.421875 
Q 22.515625 -1.421875 17.65625 -0.515625 
Q 12.796875 0.390625 7.625 2.203125 
L 7.625 11.71875 
Q 11.71875 9.328125 16.59375 8.109375 
Q 21.484375 6.890625 26.8125 6.890625 
Q 36.078125 6.890625 40.9375 10.546875 
Q 45.796875 14.203125 45.796875 21.1875 
Q 45.796875 27.640625 41.28125 31.265625 
Q 36.765625 34.90625 28.71875 34.90625 
L 20.21875 34.90625 
L 20.21875 43.015625 
L 29.109375 43.015625 
Q 36.375 43.015625 40.234375 45.921875 
Q 44.09375 48.828125 44.09375 54.296875 
Q 44.09375 59.90625 40.109375 62.90625 
Q 36.140625 65.921875 28.71875 65.921875 
Q 24.65625 65.921875 20.015625 65.03125 
Q 15.375 64.15625 9.8125 62.3125 
L 9.8125 71.09375 
Q 15.4375 72.65625 20.34375 73.4375 
Q 25.25 74.21875 29.59375 74.21875 
Q 40.828125 74.21875 47.359375 69.109375 
Q 53.90625 64.015625 53.90625 55.328125 
Q 53.90625 49.265625 50.4375 45.09375 
Q 46.96875 40.921875 40.578125 39.3125 
z
" id="DejaVuSans-51"/>
      </defs>
      <g transform="translate(164.428198 293.238437)scale(0.1 -0.1)">
       <use xlink:href="#DejaVuSans-51"/>
       <use x="63.623047" xlink:href="#DejaVuSans-48"/>
      </g>
     </g>
    </g>
    <g id="xtick_5">
     <g id="line2d_5">
      <g>
       <use style="stroke:#000000;stroke-width:0.8;" x="209.72093" xlink:href="#mbab70a39bd" y="278.64"/>
      </g>
     </g>
     <g id="text_5">
      <!-- 40 -->
      <defs>
       <path d="M 37.796875 64.3125 
L 12.890625 25.390625 
L 37.796875 25.390625 
z
M 35.203125 72.90625 
L 47.609375 72.90625 
L 47.609375 25.390625 
L 58.015625 25.390625 
L 58.015625 17.1875 
L 47.609375 17.1875 
L 47.609375 0 
L 37.796875 0 
L 37.796875 17.1875 
L 4.890625 17.1875 
L 4.890625 26.703125 
z
" id="DejaVuSans-52"/>
      </defs>
      <g transform="translate(203.35843 293.238437)scale(0.1 -0.1)">
       <use xlink:href="#DejaVuSans-52"/>
       <use x="63.623047" xlink:href="#DejaVuSans-48"/>
      </g>
     </g>
    </g>
    <g id="xtick_6">
     <g id="line2d_6">
      <g>
       <use style="stroke:#000000;stroke-width:0.8;" x="248.651163" xlink:href="#mbab70a39bd" y="278.64"/>
      </g>
     </g>
     <g id="text_6">
      <!-- 50 -->
      <defs>
       <path d="M 10.796875 72.90625 
L 49.515625 72.90625 
L 49.515625 64.59375 
L 19.828125 64.59375 
L 19.828125 46.734375 
Q 21.96875 47.46875 24.109375 47.828125 
Q 26.265625 48.1875 28.421875 48.1875 
Q 40.625 48.1875 47.75 41.5 
Q 54.890625 34.8125 54.890625 23.390625 
Q 54.890625 11.625 47.5625 5.09375 
Q 40.234375 -1.421875 26.90625 -1.421875 
Q 22.3125 -1.421875 17.546875 -0.640625 
Q 12.796875 0.140625 7.71875 1.703125 
L 7.71875 11.625 
Q 12.109375 9.234375 16.796875 8.0625 
Q 21.484375 6.890625 26.703125 6.890625 
Q 35.15625 6.890625 40.078125 11.328125 
Q 45.015625 15.765625 45.015625 23.390625 
Q 45.015625 31 40.078125 35.4375 
Q 35.15625 39.890625 26.703125 39.890625 
Q 22.75 39.890625 18.8125 39.015625 
Q 14.890625 38.140625 10.796875 36.28125 
z
" id="DejaVuSans-53"/>
      </defs>
      <g transform="translate(242.288663 293.238437)scale(0.1 -0.1)">
       <use xlink:href="#DejaVuSans-53"/>
       <use x="63.623047" xlink:href="#DejaVuSans-48"/>
      </g>
     </g>
    </g>
    <g id="xtick_7">
     <g id="line2d_7">
      <g>
       <use style="stroke:#000000;stroke-width:0.8;" x="287.581395" xlink:href="#mbab70a39bd" y="278.64"/>
      </g>
     </g>
     <g id="text_7">
      <!-- 60 -->
      <defs>
       <path d="M 33.015625 40.375 
Q 26.375 40.375 22.484375 35.828125 
Q 18.609375 31.296875 18.609375 23.390625 
Q 18.609375 15.53125 22.484375 10.953125 
Q 26.375 6.390625 33.015625 6.390625 
Q 39.65625 6.390625 43.53125 10.953125 
Q 47.40625 15.53125 47.40625 23.390625 
Q 47.40625 31.296875 43.53125 35.828125 
Q 39.65625 40.375 33.015625 40.375 
z
M 52.59375 71.296875 
L 52.59375 62.3125 
Q 48.875 64.0625 45.09375 64.984375 
Q 41.3125 65.921875 37.59375 65.921875 
Q 27.828125 65.921875 22.671875 59.328125 
Q 17.53125 52.734375 16.796875 39.40625 
Q 19.671875 43.65625 24.015625 45.921875 
Q 28.375 48.1875 33.59375 48.1875 
Q 44.578125 48.1875 50.953125 41.515625 
Q 57.328125 34.859375 57.328125 23.390625 
Q 57.328125 12.15625 50.6875 5.359375 
Q 44.046875 -1.421875 33.015625 -1.421875 
Q 20.359375 -1.421875 13.671875 8.265625 
Q 6.984375 17.96875 6.984375 36.375 
Q 6.984375 53.65625 15.1875 63.9375 
Q 23.390625 74.21875 37.203125 74.21875 
Q 40.921875 74.21875 44.703125 73.484375 
Q 48.484375 72.75 52.59375 71.296875 
z
" id="DejaVuSans-54"/>
      </defs>
      <g transform="translate(281.218895 293.238437)scale(0.1 -0.1)">
       <use xlink:href="#DejaVuSans-54"/>
       <use x="63.623047" xlink:href="#DejaVuSans-48"/>
      </g>
     </g>
    </g>
    <g id="xtick_8">
     <g id="line2d_8">
      <g>
       <use style="stroke:#000000;stroke-width:0.8;" x="326.511628" xlink:href="#mbab70a39bd" y="278.64"/>
      </g>
     </g>
     <g id="text_8">
      <!-- 70 -->
      <defs>
       <path d="M 8.203125 72.90625 
L 55.078125 72.90625 
L 55.078125 68.703125 
L 28.609375 0 
L 18.3125 0 
L 43.21875 64.59375 
L 8.203125 64.59375 
z
" id="DejaVuSans-55"/>
      </defs>
      <g transform="translate(320.149128 293.238437)scale(0.1 -0.1)">
       <use xlink:href="#DejaVuSans-55"/>
       <use x="63.623047" xlink:href="#DejaVuSans-48"/>
      </g>
     </g>
    </g>
    <g id="xtick_9">
     <g id="line2d_9">
      <g>
       <use style="stroke:#000000;stroke-width:0.8;" x="365.44186" xlink:href="#mbab70a39bd" y="278.64"/>
      </g>
     </g>
     <g id="text_9">
      <!-- 80 -->
      <defs>
       <path d="M 31.78125 34.625 
Q 24.75 34.625 20.71875 30.859375 
Q 16.703125 27.09375 16.703125 20.515625 
Q 16.703125 13.921875 20.71875 10.15625 
Q 24.75 6.390625 31.78125 6.390625 
Q 38.8125 6.390625 42.859375 10.171875 
Q 46.921875 13.96875 46.921875 20.515625 
Q 46.921875 27.09375 42.890625 30.859375 
Q 38.875 34.625 31.78125 34.625 
z
M 21.921875 38.8125 
Q 15.578125 40.375 12.03125 44.71875 
Q 8.5 49.078125 8.5 55.328125 
Q 8.5 64.0625 14.71875 69.140625 
Q 20.953125 74.21875 31.78125 74.21875 
Q 42.671875 74.21875 48.875 69.140625 
Q 55.078125 64.0625 55.078125 55.328125 
Q 55.078125 49.078125 51.53125 44.71875 
Q 48 40.375 41.703125 38.8125 
Q 48.828125 37.15625 52.796875 32.3125 
Q 56.78125 27.484375 56.78125 20.515625 
Q 56.78125 9.90625 50.3125 4.234375 
Q 43.84375 -1.421875 31.78125 -1.421875 
Q 19.734375 -1.421875 13.25 4.234375 
Q 6.78125 9.90625 6.78125 20.515625 
Q 6.78125 27.484375 10.78125 32.3125 
Q 14.796875 37.15625 21.921875 38.8125 
z
M 18.3125 54.390625 
Q 18.3125 48.734375 21.84375 45.5625 
Q 25.390625 42.390625 31.78125 42.390625 
Q 38.140625 42.390625 41.71875 45.5625 
Q 45.3125 48.734375 45.3125 54.390625 
Q 45.3125 60.0625 41.71875 63.234375 
Q 38.140625 66.40625 31.78125 66.40625 
Q 25.390625 66.40625 21.84375 63.234375 
Q 18.3125 60.0625 18.3125 54.390625 
z
" id="DejaVuSans-56"/>
      </defs>
      <g transform="translate(359.07936 293.238437)scale(0.1 -0.1)">
       <use xlink:href="#DejaVuSans-56"/>
       <use x="63.623047" xlink:href="#DejaVuSans-48"/>
      </g>
     </g>
    </g>
   </g>
   <g id="matplotlib.axis_2">
    <g id="ytick_1">
     <g id="line2d_10">
      <defs>
       <path d="M 0 0 
L -3.5 0 
" id="mad64e095e5" style="stroke:#000000;stroke-width:0.8;"/>
      </defs>
      <g>
       <use style="stroke:#000000;stroke-width:0.8;" x="54" xlink:href="#mad64e095e5" y="278.64"/>
      </g>
     </g>
     <g id="text_10">
      <!-- 0 -->
      <g transform="translate(40.6375 282.439219)scale(0.1 -0.1)">
       <use xlink:href="#DejaVuSans-48"/>
      </g>
     </g>
    </g>
    <g id="ytick_2">
     <g id="line2d_11">
      <g>
       <use style="stroke:#000000;stroke-width:0.8;" x="54" xlink:href="#mad64e095e5" y="233.252094"/>
      </g>
     </g>
     <g id="text_11">
      <!-- 2000 -->
      <g transform="translate(21.55 237.051312)scale(0.1 -0.1)">
       <use xlink:href="#DejaVuSans-50"/>
       <use x="63.623047" xlink:href="#DejaVuSans-48"/>
       <use x="127.246094" xlink:href="#DejaVuSans-48"/>
       <use x="190.869141" xlink:href="#DejaVuSans-48"/>
      </g>
     </g>
    </g>
    <g id="ytick_3">
     <g id="line2d_12">
      <g>
       <use style="stroke:#000000;stroke-width:0.8;" x="54" xlink:href="#mad64e095e5" y="187.864187"/>
      </g>
     </g>
     <g id="text_12">
      <!-- 4000 -->
      <g transform="translate(21.55 191.663406)scale(0.1 -0.1)">
       <use xlink:href="#DejaVuSans-52"/>
       <use x="63.623047" xlink:href="#DejaVuSans-48"/>
       <use x="127.246094" xlink:href="#DejaVuSans-48"/>
       <use x="190.869141" xlink:href="#DejaVuSans-48"/>
      </g>
     </g>
    </g>
    <g id="ytick_4">
     <g id="line2d_13">
      <g>
       <use style="stroke:#000000;stroke-width:0.8;" x="54" xlink:href="#mad64e095e5" y="142.476281"/>
      </g>
     </g>
     <g id="text_13">
      <!-- 6000 -->
      <g transform="translate(21.55 146.275499)scale(0.1 -0.1)">
       <use xlink:href="#DejaVuSans-54"/>
       <use x="63.623047" xlink:href="#DejaVuSans-48"/>
       <use x="127.246094" xlink:href="#DejaVuSans-48"/>
       <use x="190.869141" xlink:href="#DejaVuSans-48"/>
      </g>
     </g>
    </g>
    <g id="ytick_5">
     <g id="line2d_14">
      <g>
       <use style="stroke:#000000;stroke-width:0.8;" x="54" xlink:href="#mad64e095e5" y="97.088374"/>
      </g>
     </g>
     <g id="text_14">
      <!-- 8000 -->
      <g transform="translate(21.55 100.887593)scale(0.1 -0.1)">
       <use xlink:href="#DejaVuSans-56"/>
       <use x="63.623047" xlink:href="#DejaVuSans-48"/>
       <use x="127.246094" xlink:href="#DejaVuSans-48"/>
       <use x="190.869141" xlink:href="#DejaVuSans-48"/>
      </g>
     </g>
    </g>
    <g id="text_15">
     <!-- RUL -->
     <defs>
      <path d="M 44.390625 34.1875 
Q 47.5625 33.109375 50.5625 29.59375 
Q 53.5625 26.078125 56.59375 19.921875 
L 66.609375 0 
L 56 0 
L 46.6875 18.703125 
Q 43.0625 26.03125 39.671875 28.421875 
Q 36.28125 30.8125 30.421875 30.8125 
L 19.671875 30.8125 
L 19.671875 0 
L 9.8125 0 
L 9.8125 72.90625 
L 32.078125 72.90625 
Q 44.578125 72.90625 50.734375 67.671875 
Q 56.890625 62.453125 56.890625 51.90625 
Q 56.890625 45.015625 53.6875 40.46875 
Q 50.484375 35.9375 44.390625 34.1875 
z
M 19.671875 64.796875 
L 19.671875 38.921875 
L 32.078125 38.921875 
Q 39.203125 38.921875 42.84375 42.21875 
Q 46.484375 45.515625 46.484375 51.90625 
Q 46.484375 58.296875 42.84375 61.546875 
Q 39.203125 64.796875 32.078125 64.796875 
z
" id="DejaVuSans-82"/>
      <path d="M 8.6875 72.90625 
L 18.609375 72.90625 
L 18.609375 28.609375 
Q 18.609375 16.890625 22.84375 11.734375 
Q 27.09375 6.59375 36.625 6.59375 
Q 46.09375 6.59375 50.34375 11.734375 
Q 54.59375 16.890625 54.59375 28.609375 
L 54.59375 72.90625 
L 64.5 72.90625 
L 64.5 27.390625 
Q 64.5 13.140625 57.4375 5.859375 
Q 50.390625 -1.421875 36.625 -1.421875 
Q 22.796875 -1.421875 15.734375 5.859375 
Q 8.6875 13.140625 8.6875 27.390625 
z
" id="DejaVuSans-85"/>
      <path d="M 9.8125 72.90625 
L 19.671875 72.90625 
L 19.671875 8.296875 
L 55.171875 8.296875 
L 55.171875 0 
L 9.8125 0 
z
" id="DejaVuSans-76"/>
     </defs>
     <g transform="translate(15.470312 175.159531)rotate(-90)scale(0.1 -0.1)">
      <use xlink:href="#DejaVuSans-82"/>
      <use x="69.482422" xlink:href="#DejaVuSans-85"/>
      <use x="142.675781" xlink:href="#DejaVuSans-76"/>
     </g>
    </g>
   </g>
   <g id="line2d_15">
    <path clip-path="url(#p848e6ea14c)" d="M 57.893023 278.41306 
L 61.786047 278.186121 
L 65.67907 277.959181 
L 69.572093 277.732242 
L 73.465116 277.505302 
L 77.35814 277.278363 
L 81.251163 277.051423 
L 85.144186 276.824484 
L 89.037209 276.597544 
L 92.930233 276.370605 
L 96.823256 276.143665 
L 100.716279 275.916726 
L 104.609302 275.689786 
L 108.502326 275.462847 
L 112.395349 275.235907 
L 116.288372 275.008967 
L 120.181395 274.782028 
L 124.074419 274.555088 
L 127.967442 274.328149 
L 131.860465 274.101209 
L 135.753488 273.87427 
L 139.646512 273.64733 
L 143.539535 273.420391 
L 147.432558 273.193451 
L 151.325581 272.966512 
L 155.218605 272.739572 
L 159.111628 272.512633 
L 163.004651 272.285693 
L 166.897674 272.058754 
L 170.790698 271.831814 
L 174.683721 271.604874 
L 178.576744 271.377935 
L 182.469767 271.150995 
L 186.362791 270.924056 
L 190.255814 270.697116 
L 194.148837 270.470177 
L 198.04186 270.243237 
L 201.934884 270.016298 
L 205.827907 269.789358 
L 209.72093 269.562419 
L 213.613953 269.335479 
L 217.506977 269.10854 
L 221.4 268.8816 
L 225.293023 268.654661 
L 229.186047 268.427721 
L 233.07907 268.200782 
L 236.972093 267.973842 
L 240.865116 267.746902 
L 244.75814 267.519963 
L 248.651163 267.293023 
L 252.544186 267.066084 
L 256.437209 266.839144 
L 260.330233 266.612205 
L 264.223256 266.385265 
L 268.116279 266.158326 
L 272.009302 265.931386 
L 275.902326 265.704447 
L 279.795349 265.477507 
L 283.688372 265.250568 
L 287.581395 265.023628 
L 291.474419 264.796689 
L 295.367442 264.569749 
L 299.260465 264.342809 
L 303.153488 264.11587 
L 307.046512 263.88893 
L 310.939535 263.661991 
L 314.832558 263.435051 
L 318.725581 263.208112 
L 322.618605 262.981172 
L 326.511628 262.754233 
L 330.404651 262.527293 
L 334.297674 262.300354 
L 338.190698 262.073414 
L 342.083721 261.846475 
L 345.976744 261.619535 
L 349.869767 261.392596 
L 353.762791 261.165656 
L 357.655814 260.938716 
L 361.548837 260.711777 
L 365.44186 260.484837 
L 369.334884 260.257898 
L 373.227907 260.030958 
L 377.12093 259.804019 
L 381.013953 259.577079 
L 384.906977 259.35014 
L 388.8 259.1232 
" style="fill:none;stroke:#1f77b4;stroke-linecap:square;stroke-width:1.5;"/>
   </g>
   <g id="line2d_16">
    <path clip-path="url(#p848e6ea14c)" d="M 57.893023 232.819435 
L 61.786047 234.607747 
L 65.67907 236.787807 
L 69.572093 236.134372 
L 73.465116 236.518363 
L 77.35814 233.778401 
L 81.251163 232.837746 
L 85.144186 231.259569 
L 89.037209 220.221193 
L 92.930233 207.207059 
L 96.823256 191.280137 
L 100.716279 191.947758 
L 104.609302 189.565735 
L 108.502326 196.494499 
L 112.395349 203.127976 
L 116.288372 203.870893 
L 120.181395 209.354291 
L 124.074419 212.867898 
L 127.967442 216.37423 
L 131.860465 213.821271 
L 135.753488 213.719575 
L 139.646512 217.743109 
L 143.539535 211.197206 
L 147.432558 213.706195 
L 151.325581 207.798703 
L 155.218605 204.615527 
L 159.111628 210.437235 
L 163.004651 211.489313 
L 166.897674 215.837731 
L 170.790698 214.52233 
L 174.683721 206.737866 
L 178.576744 190.029349 
L 182.469767 186.58143 
L 186.362791 182.399986 
L 190.255814 177.220136 
L 194.148837 167.189674 
L 198.04186 168.855397 
L 201.934884 169.389281 
L 205.827907 170.61594 
L 209.72093 170.577101 
L 213.613953 167.203902 
L 217.506977 174.980438 
L 221.4 175.991947 
L 225.293023 180.29541 
L 229.186047 180.725387 
L 233.07907 182.919077 
L 236.972093 192.459624 
L 240.865116 183.3773 
L 244.75814 181.163487 
L 248.651163 170.573744 
L 252.544186 170.494448 
L 256.437209 167.783618 
L 260.330233 170.163192 
L 264.223256 172.420287 
L 268.116279 160.798423 
L 272.009302 159.324613 
L 275.902326 157.239584 
L 279.795349 160.184678 
L 283.688372 161.440248 
L 287.581395 169.968177 
L 291.474419 170.394918 
L 295.367442 174.195668 
L 299.260465 171.391147 
L 303.153488 163.941159 
L 307.046512 146.090703 
L 310.939535 141.681172 
L 314.832558 128.62242 
L 318.725581 126.40987 
L 322.618605 120.896115 
L 326.511628 120.903229 
L 330.404651 125.293312 
L 334.297674 126.347639 
L 338.190698 123.543385 
L 342.083721 125.643573 
L 345.976744 127.463798 
L 349.869767 106.151473 
L 353.762791 84.700933 
L 357.655814 79.395978 
L 361.548837 51.84 
L 365.44186 82.714658 
L 369.334884 88.312197 
L 373.227907 87.10401 
L 377.12093 105.084657 
L 381.013953 104.586786 
L 384.906977 94.973426 
L 388.8 101.566097 
" style="fill:none;stroke:#ff0000;stroke-linecap:square;stroke-width:0.5;"/>
    <defs>
     <path d="M 0 1 
C 0.265203 1 0.51958 0.894634 0.707107 0.707107 
C 0.894634 0.51958 1 0.265203 1 0 
C 1 -0.265203 0.894634 -0.51958 0.707107 -0.707107 
C 0.51958 -0.894634 0.265203 -1 0 -1 
C -0.265203 -1 -0.51958 -0.894634 -0.707107 -0.707107 
C -0.894634 -0.51958 -1 -0.265203 -1 0 
C -1 0.265203 -0.894634 0.51958 -0.707107 0.707107 
C -0.51958 0.894634 -0.265203 1 0 1 
z
" id="mbfcc839500" style="stroke:#ff0000;"/>
    </defs>
    <g clip-path="url(#p848e6ea14c)">
     <use style="fill:#ff0000;stroke:#ff0000;" x="57.893023" xlink:href="#mbfcc839500" y="232.819435"/>
     <use style="fill:#ff0000;stroke:#ff0000;" x="61.786047" xlink:href="#mbfcc839500" y="234.607747"/>
     <use style="fill:#ff0000;stroke:#ff0000;" x="65.67907" xlink:href="#mbfcc839500" y="236.787807"/>
     <use style="fill:#ff0000;stroke:#ff0000;" x="69.572093" xlink:href="#mbfcc839500" y="236.134372"/>
     <use style="fill:#ff0000;stroke:#ff0000;" x="73.465116" xlink:href="#mbfcc839500" y="236.518363"/>
     <use style="fill:#ff0000;stroke:#ff0000;" x="77.35814" xlink:href="#mbfcc839500" y="233.778401"/>
     <use style="fill:#ff0000;stroke:#ff0000;" x="81.251163" xlink:href="#mbfcc839500" y="232.837746"/>
     <use style="fill:#ff0000;stroke:#ff0000;" x="85.144186" xlink:href="#mbfcc839500" y="231.259569"/>
     <use style="fill:#ff0000;stroke:#ff0000;" x="89.037209" xlink:href="#mbfcc839500" y="220.221193"/>
     <use style="fill:#ff0000;stroke:#ff0000;" x="92.930233" xlink:href="#mbfcc839500" y="207.207059"/>
     <use style="fill:#ff0000;stroke:#ff0000;" x="96.823256" xlink:href="#mbfcc839500" y="191.280137"/>
     <use style="fill:#ff0000;stroke:#ff0000;" x="100.716279" xlink:href="#mbfcc839500" y="191.947758"/>
     <use style="fill:#ff0000;stroke:#ff0000;" x="104.609302" xlink:href="#mbfcc839500" y="189.565735"/>
     <use style="fill:#ff0000;stroke:#ff0000;" x="108.502326" xlink:href="#mbfcc839500" y="196.494499"/>
     <use style="fill:#ff0000;stroke:#ff0000;" x="112.395349" xlink:href="#mbfcc839500" y="203.127976"/>
     <use style="fill:#ff0000;stroke:#ff0000;" x="116.288372" xlink:href="#mbfcc839500" y="203.870893"/>
     <use style="fill:#ff0000;stroke:#ff0000;" x="120.181395" xlink:href="#mbfcc839500" y="209.354291"/>
     <use style="fill:#ff0000;stroke:#ff0000;" x="124.074419" xlink:href="#mbfcc839500" y="212.867898"/>
     <use style="fill:#ff0000;stroke:#ff0000;" x="127.967442" xlink:href="#mbfcc839500" y="216.37423"/>
     <use style="fill:#ff0000;stroke:#ff0000;" x="131.860465" xlink:href="#mbfcc839500" y="213.821271"/>
     <use style="fill:#ff0000;stroke:#ff0000;" x="135.753488" xlink:href="#mbfcc839500" y="213.719575"/>
     <use style="fill:#ff0000;stroke:#ff0000;" x="139.646512" xlink:href="#mbfcc839500" y="217.743109"/>
     <use style="fill:#ff0000;stroke:#ff0000;" x="143.539535" xlink:href="#mbfcc839500" y="211.197206"/>
     <use style="fill:#ff0000;stroke:#ff0000;" x="147.432558" xlink:href="#mbfcc839500" y="213.706195"/>
     <use style="fill:#ff0000;stroke:#ff0000;" x="151.325581" xlink:href="#mbfcc839500" y="207.798703"/>
     <use style="fill:#ff0000;stroke:#ff0000;" x="155.218605" xlink:href="#mbfcc839500" y="204.615527"/>
     <use style="fill:#ff0000;stroke:#ff0000;" x="159.111628" xlink:href="#mbfcc839500" y="210.437235"/>
     <use style="fill:#ff0000;stroke:#ff0000;" x="163.004651" xlink:href="#mbfcc839500" y="211.489313"/>
     <use style="fill:#ff0000;stroke:#ff0000;" x="166.897674" xlink:href="#mbfcc839500" y="215.837731"/>
     <use style="fill:#ff0000;stroke:#ff0000;" x="170.790698" xlink:href="#mbfcc839500" y="214.52233"/>
     <use style="fill:#ff0000;stroke:#ff0000;" x="174.683721" xlink:href="#mbfcc839500" y="206.737866"/>
     <use style="fill:#ff0000;stroke:#ff0000;" x="178.576744" xlink:href="#mbfcc839500" y="190.029349"/>
     <use style="fill:#ff0000;stroke:#ff0000;" x="182.469767" xlink:href="#mbfcc839500" y="186.58143"/>
     <use style="fill:#ff0000;stroke:#ff0000;" x="186.362791" xlink:href="#mbfcc839500" y="182.399986"/>
     <use style="fill:#ff0000;stroke:#ff0000;" x="190.255814" xlink:href="#mbfcc839500" y="177.220136"/>
     <use style="fill:#ff0000;stroke:#ff0000;" x="194.148837" xlink:href="#mbfcc839500" y="167.189674"/>
     <use style="fill:#ff0000;stroke:#ff0000;" x="198.04186" xlink:href="#mbfcc839500" y="168.855397"/>
     <use style="fill:#ff0000;stroke:#ff0000;" x="201.934884" xlink:href="#mbfcc839500" y="169.389281"/>
     <use style="fill:#ff0000;stroke:#ff0000;" x="205.827907" xlink:href="#mbfcc839500" y="170.61594"/>
     <use style="fill:#ff0000;stroke:#ff0000;" x="209.72093" xlink:href="#mbfcc839500" y="170.577101"/>
     <use style="fill:#ff0000;stroke:#ff0000;" x="213.613953" xlink:href="#mbfcc839500" y="167.203902"/>
     <use style="fill:#ff0000;stroke:#ff0000;" x="217.506977" xlink:href="#mbfcc839500" y="174.980438"/>
     <use style="fill:#ff0000;stroke:#ff0000;" x="221.4" xlink:href="#mbfcc839500" y="175.991947"/>
     <use style="fill:#ff0000;stroke:#ff0000;" x="225.293023" xlink:href="#mbfcc839500" y="180.29541"/>
     <use style="fill:#ff0000;stroke:#ff0000;" x="229.186047" xlink:href="#mbfcc839500" y="180.725387"/>
     <use style="fill:#ff0000;stroke:#ff0000;" x="233.07907" xlink:href="#mbfcc839500" y="182.919077"/>
     <use style="fill:#ff0000;stroke:#ff0000;" x="236.972093" xlink:href="#mbfcc839500" y="192.459624"/>
     <use style="fill:#ff0000;stroke:#ff0000;" x="240.865116" xlink:href="#mbfcc839500" y="183.3773"/>
     <use style="fill:#ff0000;stroke:#ff0000;" x="244.75814" xlink:href="#mbfcc839500" y="181.163487"/>
     <use style="fill:#ff0000;stroke:#ff0000;" x="248.651163" xlink:href="#mbfcc839500" y="170.573744"/>
     <use style="fill:#ff0000;stroke:#ff0000;" x="252.544186" xlink:href="#mbfcc839500" y="170.494448"/>
     <use style="fill:#ff0000;stroke:#ff0000;" x="256.437209" xlink:href="#mbfcc839500" y="167.783618"/>
     <use style="fill:#ff0000;stroke:#ff0000;" x="260.330233" xlink:href="#mbfcc839500" y="170.163192"/>
     <use style="fill:#ff0000;stroke:#ff0000;" x="264.223256" xlink:href="#mbfcc839500" y="172.420287"/>
     <use style="fill:#ff0000;stroke:#ff0000;" x="268.116279" xlink:href="#mbfcc839500" y="160.798423"/>
     <use style="fill:#ff0000;stroke:#ff0000;" x="272.009302" xlink:href="#mbfcc839500" y="159.324613"/>
     <use style="fill:#ff0000;stroke:#ff0000;" x="275.902326" xlink:href="#mbfcc839500" y="157.239584"/>
     <use style="fill:#ff0000;stroke:#ff0000;" x="279.795349" xlink:href="#mbfcc839500" y="160.184678"/>
     <use style="fill:#ff0000;stroke:#ff0000;" x="283.688372" xlink:href="#mbfcc839500" y="161.440248"/>
     <use style="fill:#ff0000;stroke:#ff0000;" x="287.581395" xlink:href="#mbfcc839500" y="169.968177"/>
     <use style="fill:#ff0000;stroke:#ff0000;" x="291.474419" xlink:href="#mbfcc839500" y="170.394918"/>
     <use style="fill:#ff0000;stroke:#ff0000;" x="295.367442" xlink:href="#mbfcc839500" y="174.195668"/>
     <use style="fill:#ff0000;stroke:#ff0000;" x="299.260465" xlink:href="#mbfcc839500" y="171.391147"/>
     <use style="fill:#ff0000;stroke:#ff0000;" x="303.153488" xlink:href="#mbfcc839500" y="163.941159"/>
     <use style="fill:#ff0000;stroke:#ff0000;" x="307.046512" xlink:href="#mbfcc839500" y="146.090703"/>
     <use style="fill:#ff0000;stroke:#ff0000;" x="310.939535" xlink:href="#mbfcc839500" y="141.681172"/>
     <use style="fill:#ff0000;stroke:#ff0000;" x="314.832558" xlink:href="#mbfcc839500" y="128.62242"/>
     <use style="fill:#ff0000;stroke:#ff0000;" x="318.725581" xlink:href="#mbfcc839500" y="126.40987"/>
     <use style="fill:#ff0000;stroke:#ff0000;" x="322.618605" xlink:href="#mbfcc839500" y="120.896115"/>
     <use style="fill:#ff0000;stroke:#ff0000;" x="326.511628" xlink:href="#mbfcc839500" y="120.903229"/>
     <use style="fill:#ff0000;stroke:#ff0000;" x="330.404651" xlink:href="#mbfcc839500" y="125.293312"/>
     <use style="fill:#ff0000;stroke:#ff0000;" x="334.297674" xlink:href="#mbfcc839500" y="126.347639"/>
     <use style="fill:#ff0000;stroke:#ff0000;" x="338.190698" xlink:href="#mbfcc839500" y="123.543385"/>
     <use style="fill:#ff0000;stroke:#ff0000;" x="342.083721" xlink:href="#mbfcc839500" y="125.643573"/>
     <use style="fill:#ff0000;stroke:#ff0000;" x="345.976744" xlink:href="#mbfcc839500" y="127.463798"/>
     <use style="fill:#ff0000;stroke:#ff0000;" x="349.869767" xlink:href="#mbfcc839500" y="106.151473"/>
     <use style="fill:#ff0000;stroke:#ff0000;" x="353.762791" xlink:href="#mbfcc839500" y="84.700933"/>
     <use style="fill:#ff0000;stroke:#ff0000;" x="357.655814" xlink:href="#mbfcc839500" y="79.395978"/>
     <use style="fill:#ff0000;stroke:#ff0000;" x="361.548837" xlink:href="#mbfcc839500" y="51.84"/>
     <use style="fill:#ff0000;stroke:#ff0000;" x="365.44186" xlink:href="#mbfcc839500" y="82.714658"/>
     <use style="fill:#ff0000;stroke:#ff0000;" x="369.334884" xlink:href="#mbfcc839500" y="88.312197"/>
     <use style="fill:#ff0000;stroke:#ff0000;" x="373.227907" xlink:href="#mbfcc839500" y="87.10401"/>
     <use style="fill:#ff0000;stroke:#ff0000;" x="377.12093" xlink:href="#mbfcc839500" y="105.084657"/>
     <use style="fill:#ff0000;stroke:#ff0000;" x="381.013953" xlink:href="#mbfcc839500" y="104.586786"/>
     <use style="fill:#ff0000;stroke:#ff0000;" x="384.906977" xlink:href="#mbfcc839500" y="94.973426"/>
     <use style="fill:#ff0000;stroke:#ff0000;" x="388.8" xlink:href="#mbfcc839500" y="101.566097"/>
    </g>
   </g>
   <g id="patch_3">
    <path d="M 54 278.64 
L 54 51.84 
" style="fill:none;stroke:#000000;stroke-linecap:square;stroke-linejoin:miter;stroke-width:0.8;"/>
   </g>
   <g id="patch_4">
    <path d="M 388.8 278.64 
L 388.8 51.84 
" style="fill:none;stroke:#000000;stroke-linecap:square;stroke-linejoin:miter;stroke-width:0.8;"/>
   </g>
   <g id="patch_5">
    <path d="M 54 278.64 
L 388.8 278.64 
" style="fill:none;stroke:#000000;stroke-linecap:square;stroke-linejoin:miter;stroke-width:0.8;"/>
   </g>
   <g id="patch_6">
    <path d="M 54 51.84 
L 388.8 51.84 
" style="fill:none;stroke:#000000;stroke-linecap:square;stroke-linejoin:miter;stroke-width:0.8;"/>
   </g>
   <g id="legend_1">
    <g id="patch_7">
     <path d="M 61 89.19625 
L 162.957812 89.19625 
Q 164.957812 89.19625 164.957812 87.19625 
L 164.957812 58.84 
Q 164.957812 56.84 162.957812 56.84 
L 61 56.84 
Q 59 56.84 59 58.84 
L 59 87.19625 
Q 59 89.19625 61 89.19625 
z
" style="fill:#ffffff;opacity:0.8;stroke:#cccccc;stroke-linejoin:miter;"/>
    </g>
    <g id="line2d_17">
     <path d="M 63 64.938437 
L 83 64.938437 
" style="fill:none;stroke:#1f77b4;stroke-linecap:square;stroke-width:1.5;"/>
    </g>
    <g id="line2d_18"/>
    <g id="text_16">
     <!-- True RUL -->
     <defs>
      <path d="M -0.296875 72.90625 
L 61.375 72.90625 
L 61.375 64.59375 
L 35.5 64.59375 
L 35.5 0 
L 25.59375 0 
L 25.59375 64.59375 
L -0.296875 64.59375 
z
" id="DejaVuSans-84"/>
      <path d="M 41.109375 46.296875 
Q 39.59375 47.171875 37.8125 47.578125 
Q 36.03125 48 33.890625 48 
Q 26.265625 48 22.1875 43.046875 
Q 18.109375 38.09375 18.109375 28.8125 
L 18.109375 0 
L 9.078125 0 
L 9.078125 54.6875 
L 18.109375 54.6875 
L 18.109375 46.1875 
Q 20.953125 51.171875 25.484375 53.578125 
Q 30.03125 56 36.53125 56 
Q 37.453125 56 38.578125 55.875 
Q 39.703125 55.765625 41.0625 55.515625 
z
" id="DejaVuSans-114"/>
      <path d="M 8.5 21.578125 
L 8.5 54.6875 
L 17.484375 54.6875 
L 17.484375 21.921875 
Q 17.484375 14.15625 20.5 10.265625 
Q 23.53125 6.390625 29.59375 6.390625 
Q 36.859375 6.390625 41.078125 11.03125 
Q 45.3125 15.671875 45.3125 23.6875 
L 45.3125 54.6875 
L 54.296875 54.6875 
L 54.296875 0 
L 45.3125 0 
L 45.3125 8.40625 
Q 42.046875 3.421875 37.71875 1 
Q 33.40625 -1.421875 27.6875 -1.421875 
Q 18.265625 -1.421875 13.375 4.4375 
Q 8.5 10.296875 8.5 21.578125 
z
M 31.109375 56 
z
" id="DejaVuSans-117"/>
      <path d="M 56.203125 29.59375 
L 56.203125 25.203125 
L 14.890625 25.203125 
Q 15.484375 15.921875 20.484375 11.0625 
Q 25.484375 6.203125 34.421875 6.203125 
Q 39.59375 6.203125 44.453125 7.46875 
Q 49.3125 8.734375 54.109375 11.28125 
L 54.109375 2.78125 
Q 49.265625 0.734375 44.1875 -0.34375 
Q 39.109375 -1.421875 33.890625 -1.421875 
Q 20.796875 -1.421875 13.15625 6.1875 
Q 5.515625 13.8125 5.515625 26.8125 
Q 5.515625 40.234375 12.765625 48.109375 
Q 20.015625 56 32.328125 56 
Q 43.359375 56 49.78125 48.890625 
Q 56.203125 41.796875 56.203125 29.59375 
z
M 47.21875 32.234375 
Q 47.125 39.59375 43.09375 43.984375 
Q 39.0625 48.390625 32.421875 48.390625 
Q 24.90625 48.390625 20.390625 44.140625 
Q 15.875 39.890625 15.1875 32.171875 
z
" id="DejaVuSans-101"/>
      <path id="DejaVuSans-32"/>
     </defs>
     <g transform="translate(91 68.438437)scale(0.1 -0.1)">
      <use xlink:href="#DejaVuSans-84"/>
      <use x="46.333984" xlink:href="#DejaVuSans-114"/>
      <use x="87.447266" xlink:href="#DejaVuSans-117"/>
      <use x="150.826172" xlink:href="#DejaVuSans-101"/>
      <use x="212.349609" xlink:href="#DejaVuSans-32"/>
      <use x="244.136719" xlink:href="#DejaVuSans-82"/>
      <use x="313.619141" xlink:href="#DejaVuSans-85"/>
      <use x="386.8125" xlink:href="#DejaVuSans-76"/>
     </g>
    </g>
    <g id="line2d_19">
     <path d="M 63 79.616562 
L 83 79.616562 
" style="fill:none;stroke:#ff0000;stroke-linecap:square;stroke-width:0.5;"/>
    </g>
    <g id="line2d_20">
     <g>
      <use style="fill:#ff0000;stroke:#ff0000;" x="73" xlink:href="#mbfcc839500" y="79.616562"/>
     </g>
    </g>
    <g id="text_17">
     <!-- Predicted RUL -->
     <defs>
      <path d="M 19.671875 64.796875 
L 19.671875 37.40625 
L 32.078125 37.40625 
Q 38.96875 37.40625 42.71875 40.96875 
Q 46.484375 44.53125 46.484375 51.125 
Q 46.484375 57.671875 42.71875 61.234375 
Q 38.96875 64.796875 32.078125 64.796875 
z
M 9.8125 72.90625 
L 32.078125 72.90625 
Q 44.34375 72.90625 50.609375 67.359375 
Q 56.890625 61.8125 56.890625 51.125 
Q 56.890625 40.328125 50.609375 34.8125 
Q 44.34375 29.296875 32.078125 29.296875 
L 19.671875 29.296875 
L 19.671875 0 
L 9.8125 0 
z
" id="DejaVuSans-80"/>
      <path d="M 45.40625 46.390625 
L 45.40625 75.984375 
L 54.390625 75.984375 
L 54.390625 0 
L 45.40625 0 
L 45.40625 8.203125 
Q 42.578125 3.328125 38.25 0.953125 
Q 33.9375 -1.421875 27.875 -1.421875 
Q 17.96875 -1.421875 11.734375 6.484375 
Q 5.515625 14.40625 5.515625 27.296875 
Q 5.515625 40.1875 11.734375 48.09375 
Q 17.96875 56 27.875 56 
Q 33.9375 56 38.25 53.625 
Q 42.578125 51.265625 45.40625 46.390625 
z
M 14.796875 27.296875 
Q 14.796875 17.390625 18.875 11.75 
Q 22.953125 6.109375 30.078125 6.109375 
Q 37.203125 6.109375 41.296875 11.75 
Q 45.40625 17.390625 45.40625 27.296875 
Q 45.40625 37.203125 41.296875 42.84375 
Q 37.203125 48.484375 30.078125 48.484375 
Q 22.953125 48.484375 18.875 42.84375 
Q 14.796875 37.203125 14.796875 27.296875 
z
" id="DejaVuSans-100"/>
      <path d="M 9.421875 54.6875 
L 18.40625 54.6875 
L 18.40625 0 
L 9.421875 0 
z
M 9.421875 75.984375 
L 18.40625 75.984375 
L 18.40625 64.59375 
L 9.421875 64.59375 
z
" id="DejaVuSans-105"/>
      <path d="M 48.78125 52.59375 
L 48.78125 44.1875 
Q 44.96875 46.296875 41.140625 47.34375 
Q 37.3125 48.390625 33.40625 48.390625 
Q 24.65625 48.390625 19.8125 42.84375 
Q 14.984375 37.3125 14.984375 27.296875 
Q 14.984375 17.28125 19.8125 11.734375 
Q 24.65625 6.203125 33.40625 6.203125 
Q 37.3125 6.203125 41.140625 7.25 
Q 44.96875 8.296875 48.78125 10.40625 
L 48.78125 2.09375 
Q 45.015625 0.34375 40.984375 -0.53125 
Q 36.96875 -1.421875 32.421875 -1.421875 
Q 20.0625 -1.421875 12.78125 6.34375 
Q 5.515625 14.109375 5.515625 27.296875 
Q 5.515625 40.671875 12.859375 48.328125 
Q 20.21875 56 33.015625 56 
Q 37.15625 56 41.109375 55.140625 
Q 45.0625 54.296875 48.78125 52.59375 
z
" id="DejaVuSans-99"/>
      <path d="M 18.3125 70.21875 
L 18.3125 54.6875 
L 36.8125 54.6875 
L 36.8125 47.703125 
L 18.3125 47.703125 
L 18.3125 18.015625 
Q 18.3125 11.328125 20.140625 9.421875 
Q 21.96875 7.515625 27.59375 7.515625 
L 36.8125 7.515625 
L 36.8125 0 
L 27.59375 0 
Q 17.1875 0 13.234375 3.875 
Q 9.28125 7.765625 9.28125 18.015625 
L 9.28125 47.703125 
L 2.6875 47.703125 
L 2.6875 54.6875 
L 9.28125 54.6875 
L 9.28125 70.21875 
z
" id="DejaVuSans-116"/>
     </defs>
     <g transform="translate(91 83.116562)scale(0.1 -0.1)">
      <use xlink:href="#DejaVuSans-80"/>
      <use x="58.552734" xlink:href="#DejaVuSans-114"/>
      <use x="97.416016" xlink:href="#DejaVuSans-101"/>
      <use x="158.939453" xlink:href="#DejaVuSans-100"/>
      <use x="222.416016" xlink:href="#DejaVuSans-105"/>
      <use x="250.199219" xlink:href="#DejaVuSans-99"/>
      <use x="305.179688" xlink:href="#DejaVuSans-116"/>
      <use x="344.388672" xlink:href="#DejaVuSans-101"/>
      <use x="405.912109" xlink:href="#DejaVuSans-100"/>
      <use x="469.388672" xlink:href="#DejaVuSans-32"/>
      <use x="501.175781" xlink:href="#DejaVuSans-82"/>
      <use x="570.658203" xlink:href="#DejaVuSans-85"/>
      <use x="643.851562" xlink:href="#DejaVuSans-76"/>
     </g>
    </g>
   </g>
  </g>
  <g id="axes_2">
   <g id="patch_8">
    <path d="M 54 384.48 
L 388.8 384.48 
L 388.8 308.88 
L 54 308.88 
z
" style="fill:#ffffff;"/>
   </g>
   <g id="matplotlib.axis_3">
    <g id="xtick_10">
     <g id="line2d_21">
      <g>
       <use style="stroke:#000000;stroke-width:0.8;" x="54" xlink:href="#mbab70a39bd" y="384.48"/>
      </g>
     </g>
     <g id="text_18">
      <!-- 0 -->
      <g transform="translate(50.81875 399.078437)scale(0.1 -0.1)">
       <use xlink:href="#DejaVuSans-48"/>
      </g>
     </g>
    </g>
    <g id="xtick_11">
     <g id="line2d_22">
      <g>
       <use style="stroke:#000000;stroke-width:0.8;" x="92.930233" xlink:href="#mbab70a39bd" y="384.48"/>
      </g>
     </g>
     <g id="text_19">
      <!-- 10 -->
      <g transform="translate(86.567733 399.078437)scale(0.1 -0.1)">
       <use xlink:href="#DejaVuSans-49"/>
       <use x="63.623047" xlink:href="#DejaVuSans-48"/>
      </g>
     </g>
    </g>
    <g id="xtick_12">
     <g id="line2d_23">
      <g>
       <use style="stroke:#000000;stroke-width:0.8;" x="131.860465" xlink:href="#mbab70a39bd" y="384.48"/>
      </g>
     </g>
     <g id="text_20">
      <!-- 20 -->
      <g transform="translate(125.497965 399.078437)scale(0.1 -0.1)">
       <use xlink:href="#DejaVuSans-50"/>
       <use x="63.623047" xlink:href="#DejaVuSans-48"/>
      </g>
     </g>
    </g>
    <g id="xtick_13">
     <g id="line2d_24">
      <g>
       <use style="stroke:#000000;stroke-width:0.8;" x="170.790698" xlink:href="#mbab70a39bd" y="384.48"/>
      </g>
     </g>
     <g id="text_21">
      <!-- 30 -->
      <g transform="translate(164.428198 399.078437)scale(0.1 -0.1)">
       <use xlink:href="#DejaVuSans-51"/>
       <use x="63.623047" xlink:href="#DejaVuSans-48"/>
      </g>
     </g>
    </g>
    <g id="xtick_14">
     <g id="line2d_25">
      <g>
       <use style="stroke:#000000;stroke-width:0.8;" x="209.72093" xlink:href="#mbab70a39bd" y="384.48"/>
      </g>
     </g>
     <g id="text_22">
      <!-- 40 -->
      <g transform="translate(203.35843 399.078437)scale(0.1 -0.1)">
       <use xlink:href="#DejaVuSans-52"/>
       <use x="63.623047" xlink:href="#DejaVuSans-48"/>
      </g>
     </g>
    </g>
    <g id="xtick_15">
     <g id="line2d_26">
      <g>
       <use style="stroke:#000000;stroke-width:0.8;" x="248.651163" xlink:href="#mbab70a39bd" y="384.48"/>
      </g>
     </g>
     <g id="text_23">
      <!-- 50 -->
      <g transform="translate(242.288663 399.078437)scale(0.1 -0.1)">
       <use xlink:href="#DejaVuSans-53"/>
       <use x="63.623047" xlink:href="#DejaVuSans-48"/>
      </g>
     </g>
    </g>
    <g id="xtick_16">
     <g id="line2d_27">
      <g>
       <use style="stroke:#000000;stroke-width:0.8;" x="287.581395" xlink:href="#mbab70a39bd" y="384.48"/>
      </g>
     </g>
     <g id="text_24">
      <!-- 60 -->
      <g transform="translate(281.218895 399.078437)scale(0.1 -0.1)">
       <use xlink:href="#DejaVuSans-54"/>
       <use x="63.623047" xlink:href="#DejaVuSans-48"/>
      </g>
     </g>
    </g>
    <g id="xtick_17">
     <g id="line2d_28">
      <g>
       <use style="stroke:#000000;stroke-width:0.8;" x="326.511628" xlink:href="#mbab70a39bd" y="384.48"/>
      </g>
     </g>
     <g id="text_25">
      <!-- 70 -->
      <g transform="translate(320.149128 399.078437)scale(0.1 -0.1)">
       <use xlink:href="#DejaVuSans-55"/>
       <use x="63.623047" xlink:href="#DejaVuSans-48"/>
      </g>
     </g>
    </g>
    <g id="xtick_18">
     <g id="line2d_29">
      <g>
       <use style="stroke:#000000;stroke-width:0.8;" x="365.44186" xlink:href="#mbab70a39bd" y="384.48"/>
      </g>
     </g>
     <g id="text_26">
      <!-- 80 -->
      <g transform="translate(359.07936 399.078437)scale(0.1 -0.1)">
       <use xlink:href="#DejaVuSans-56"/>
       <use x="63.623047" xlink:href="#DejaVuSans-48"/>
      </g>
     </g>
    </g>
    <g id="text_27">
     <!-- Operating time -->
     <defs>
      <path d="M 39.40625 66.21875 
Q 28.65625 66.21875 22.328125 58.203125 
Q 16.015625 50.203125 16.015625 36.375 
Q 16.015625 22.609375 22.328125 14.59375 
Q 28.65625 6.59375 39.40625 6.59375 
Q 50.140625 6.59375 56.421875 14.59375 
Q 62.703125 22.609375 62.703125 36.375 
Q 62.703125 50.203125 56.421875 58.203125 
Q 50.140625 66.21875 39.40625 66.21875 
z
M 39.40625 74.21875 
Q 54.734375 74.21875 63.90625 63.9375 
Q 73.09375 53.65625 73.09375 36.375 
Q 73.09375 19.140625 63.90625 8.859375 
Q 54.734375 -1.421875 39.40625 -1.421875 
Q 24.03125 -1.421875 14.8125 8.828125 
Q 5.609375 19.09375 5.609375 36.375 
Q 5.609375 53.65625 14.8125 63.9375 
Q 24.03125 74.21875 39.40625 74.21875 
z
" id="DejaVuSans-79"/>
      <path d="M 18.109375 8.203125 
L 18.109375 -20.796875 
L 9.078125 -20.796875 
L 9.078125 54.6875 
L 18.109375 54.6875 
L 18.109375 46.390625 
Q 20.953125 51.265625 25.265625 53.625 
Q 29.59375 56 35.59375 56 
Q 45.5625 56 51.78125 48.09375 
Q 58.015625 40.1875 58.015625 27.296875 
Q 58.015625 14.40625 51.78125 6.484375 
Q 45.5625 -1.421875 35.59375 -1.421875 
Q 29.59375 -1.421875 25.265625 0.953125 
Q 20.953125 3.328125 18.109375 8.203125 
z
M 48.6875 27.296875 
Q 48.6875 37.203125 44.609375 42.84375 
Q 40.53125 48.484375 33.40625 48.484375 
Q 26.265625 48.484375 22.1875 42.84375 
Q 18.109375 37.203125 18.109375 27.296875 
Q 18.109375 17.390625 22.1875 11.75 
Q 26.265625 6.109375 33.40625 6.109375 
Q 40.53125 6.109375 44.609375 11.75 
Q 48.6875 17.390625 48.6875 27.296875 
z
" id="DejaVuSans-112"/>
      <path d="M 34.28125 27.484375 
Q 23.390625 27.484375 19.1875 25 
Q 14.984375 22.515625 14.984375 16.5 
Q 14.984375 11.71875 18.140625 8.90625 
Q 21.296875 6.109375 26.703125 6.109375 
Q 34.1875 6.109375 38.703125 11.40625 
Q 43.21875 16.703125 43.21875 25.484375 
L 43.21875 27.484375 
z
M 52.203125 31.203125 
L 52.203125 0 
L 43.21875 0 
L 43.21875 8.296875 
Q 40.140625 3.328125 35.546875 0.953125 
Q 30.953125 -1.421875 24.3125 -1.421875 
Q 15.921875 -1.421875 10.953125 3.296875 
Q 6 8.015625 6 15.921875 
Q 6 25.140625 12.171875 29.828125 
Q 18.359375 34.515625 30.609375 34.515625 
L 43.21875 34.515625 
L 43.21875 35.40625 
Q 43.21875 41.609375 39.140625 45 
Q 35.0625 48.390625 27.6875 48.390625 
Q 23 48.390625 18.546875 47.265625 
Q 14.109375 46.140625 10.015625 43.890625 
L 10.015625 52.203125 
Q 14.9375 54.109375 19.578125 55.046875 
Q 24.21875 56 28.609375 56 
Q 40.484375 56 46.34375 49.84375 
Q 52.203125 43.703125 52.203125 31.203125 
z
" id="DejaVuSans-97"/>
      <path d="M 54.890625 33.015625 
L 54.890625 0 
L 45.90625 0 
L 45.90625 32.71875 
Q 45.90625 40.484375 42.875 44.328125 
Q 39.84375 48.1875 33.796875 48.1875 
Q 26.515625 48.1875 22.3125 43.546875 
Q 18.109375 38.921875 18.109375 30.90625 
L 18.109375 0 
L 9.078125 0 
L 9.078125 54.6875 
L 18.109375 54.6875 
L 18.109375 46.1875 
Q 21.34375 51.125 25.703125 53.5625 
Q 30.078125 56 35.796875 56 
Q 45.21875 56 50.046875 50.171875 
Q 54.890625 44.34375 54.890625 33.015625 
z
" id="DejaVuSans-110"/>
      <path d="M 45.40625 27.984375 
Q 45.40625 37.75 41.375 43.109375 
Q 37.359375 48.484375 30.078125 48.484375 
Q 22.859375 48.484375 18.828125 43.109375 
Q 14.796875 37.75 14.796875 27.984375 
Q 14.796875 18.265625 18.828125 12.890625 
Q 22.859375 7.515625 30.078125 7.515625 
Q 37.359375 7.515625 41.375 12.890625 
Q 45.40625 18.265625 45.40625 27.984375 
z
M 54.390625 6.78125 
Q 54.390625 -7.171875 48.1875 -13.984375 
Q 42 -20.796875 29.203125 -20.796875 
Q 24.46875 -20.796875 20.265625 -20.09375 
Q 16.0625 -19.390625 12.109375 -17.921875 
L 12.109375 -9.1875 
Q 16.0625 -11.328125 19.921875 -12.34375 
Q 23.78125 -13.375 27.78125 -13.375 
Q 36.625 -13.375 41.015625 -8.765625 
Q 45.40625 -4.15625 45.40625 5.171875 
L 45.40625 9.625 
Q 42.625 4.78125 38.28125 2.390625 
Q 33.9375 0 27.875 0 
Q 17.828125 0 11.671875 7.65625 
Q 5.515625 15.328125 5.515625 27.984375 
Q 5.515625 40.671875 11.671875 48.328125 
Q 17.828125 56 27.875 56 
Q 33.9375 56 38.28125 53.609375 
Q 42.625 51.21875 45.40625 46.390625 
L 45.40625 54.6875 
L 54.390625 54.6875 
z
" id="DejaVuSans-103"/>
      <path d="M 52 44.1875 
Q 55.375 50.25 60.0625 53.125 
Q 64.75 56 71.09375 56 
Q 79.640625 56 84.28125 50.015625 
Q 88.921875 44.046875 88.921875 33.015625 
L 88.921875 0 
L 79.890625 0 
L 79.890625 32.71875 
Q 79.890625 40.578125 77.09375 44.375 
Q 74.3125 48.1875 68.609375 48.1875 
Q 61.625 48.1875 57.5625 43.546875 
Q 53.515625 38.921875 53.515625 30.90625 
L 53.515625 0 
L 44.484375 0 
L 44.484375 32.71875 
Q 44.484375 40.625 41.703125 44.40625 
Q 38.921875 48.1875 33.109375 48.1875 
Q 26.21875 48.1875 22.15625 43.53125 
Q 18.109375 38.875 18.109375 30.90625 
L 18.109375 0 
L 9.078125 0 
L 9.078125 54.6875 
L 18.109375 54.6875 
L 18.109375 46.1875 
Q 21.1875 51.21875 25.484375 53.609375 
Q 29.78125 56 35.6875 56 
Q 41.65625 56 45.828125 52.96875 
Q 50 49.953125 52 44.1875 
z
" id="DejaVuSans-109"/>
     </defs>
     <g transform="translate(183.516406 412.756562)scale(0.1 -0.1)">
      <use xlink:href="#DejaVuSans-79"/>
      <use x="78.710938" xlink:href="#DejaVuSans-112"/>
      <use x="142.1875" xlink:href="#DejaVuSans-101"/>
      <use x="203.710938" xlink:href="#DejaVuSans-114"/>
      <use x="244.824219" xlink:href="#DejaVuSans-97"/>
      <use x="306.103516" xlink:href="#DejaVuSans-116"/>
      <use x="345.3125" xlink:href="#DejaVuSans-105"/>
      <use x="373.095703" xlink:href="#DejaVuSans-110"/>
      <use x="436.474609" xlink:href="#DejaVuSans-103"/>
      <use x="499.951172" xlink:href="#DejaVuSans-32"/>
      <use x="531.738281" xlink:href="#DejaVuSans-116"/>
      <use x="570.947266" xlink:href="#DejaVuSans-105"/>
      <use x="598.730469" xlink:href="#DejaVuSans-109"/>
      <use x="696.142578" xlink:href="#DejaVuSans-101"/>
     </g>
    </g>
   </g>
   <g id="matplotlib.axis_4">
    <g id="ytick_6">
     <g id="line2d_30">
      <g>
       <use style="stroke:#000000;stroke-width:0.8;" x="54" xlink:href="#mad64e095e5" y="374.596876"/>
      </g>
     </g>
     <g id="text_28">
      <!-- 2500 -->
      <g transform="translate(21.55 378.396095)scale(0.1 -0.1)">
       <use xlink:href="#DejaVuSans-50"/>
       <use x="63.623047" xlink:href="#DejaVuSans-53"/>
       <use x="127.246094" xlink:href="#DejaVuSans-48"/>
       <use x="190.869141" xlink:href="#DejaVuSans-48"/>
      </g>
     </g>
    </g>
    <g id="ytick_7">
     <g id="line2d_31">
      <g>
       <use style="stroke:#000000;stroke-width:0.8;" x="54" xlink:href="#mad64e095e5" y="351.371231"/>
      </g>
     </g>
     <g id="text_29">
      <!-- 5000 -->
      <g transform="translate(21.55 355.170449)scale(0.1 -0.1)">
       <use xlink:href="#DejaVuSans-53"/>
       <use x="63.623047" xlink:href="#DejaVuSans-48"/>
       <use x="127.246094" xlink:href="#DejaVuSans-48"/>
       <use x="190.869141" xlink:href="#DejaVuSans-48"/>
      </g>
     </g>
    </g>
    <g id="ytick_8">
     <g id="line2d_32">
      <g>
       <use style="stroke:#000000;stroke-width:0.8;" x="54" xlink:href="#mad64e095e5" y="328.145585"/>
      </g>
     </g>
     <g id="text_30">
      <!-- 7500 -->
      <g transform="translate(21.55 331.944804)scale(0.1 -0.1)">
       <use xlink:href="#DejaVuSans-55"/>
       <use x="63.623047" xlink:href="#DejaVuSans-53"/>
       <use x="127.246094" xlink:href="#DejaVuSans-48"/>
       <use x="190.869141" xlink:href="#DejaVuSans-48"/>
      </g>
     </g>
    </g>
    <g id="text_31">
     <!-- Absolute error -->
     <defs>
      <path d="M 34.1875 63.1875 
L 20.796875 26.90625 
L 47.609375 26.90625 
z
M 28.609375 72.90625 
L 39.796875 72.90625 
L 67.578125 0 
L 57.328125 0 
L 50.6875 18.703125 
L 17.828125 18.703125 
L 11.1875 0 
L 0.78125 0 
z
" id="DejaVuSans-65"/>
      <path d="M 48.6875 27.296875 
Q 48.6875 37.203125 44.609375 42.84375 
Q 40.53125 48.484375 33.40625 48.484375 
Q 26.265625 48.484375 22.1875 42.84375 
Q 18.109375 37.203125 18.109375 27.296875 
Q 18.109375 17.390625 22.1875 11.75 
Q 26.265625 6.109375 33.40625 6.109375 
Q 40.53125 6.109375 44.609375 11.75 
Q 48.6875 17.390625 48.6875 27.296875 
z
M 18.109375 46.390625 
Q 20.953125 51.265625 25.265625 53.625 
Q 29.59375 56 35.59375 56 
Q 45.5625 56 51.78125 48.09375 
Q 58.015625 40.1875 58.015625 27.296875 
Q 58.015625 14.40625 51.78125 6.484375 
Q 45.5625 -1.421875 35.59375 -1.421875 
Q 29.59375 -1.421875 25.265625 0.953125 
Q 20.953125 3.328125 18.109375 8.203125 
L 18.109375 0 
L 9.078125 0 
L 9.078125 75.984375 
L 18.109375 75.984375 
z
" id="DejaVuSans-98"/>
      <path d="M 44.28125 53.078125 
L 44.28125 44.578125 
Q 40.484375 46.53125 36.375 47.5 
Q 32.28125 48.484375 27.875 48.484375 
Q 21.1875 48.484375 17.84375 46.4375 
Q 14.5 44.390625 14.5 40.28125 
Q 14.5 37.15625 16.890625 35.375 
Q 19.28125 33.59375 26.515625 31.984375 
L 29.59375 31.296875 
Q 39.15625 29.25 43.1875 25.515625 
Q 47.21875 21.78125 47.21875 15.09375 
Q 47.21875 7.46875 41.1875 3.015625 
Q 35.15625 -1.421875 24.609375 -1.421875 
Q 20.21875 -1.421875 15.453125 -0.5625 
Q 10.6875 0.296875 5.421875 2 
L 5.421875 11.28125 
Q 10.40625 8.6875 15.234375 7.390625 
Q 20.0625 6.109375 24.8125 6.109375 
Q 31.15625 6.109375 34.5625 8.28125 
Q 37.984375 10.453125 37.984375 14.40625 
Q 37.984375 18.0625 35.515625 20.015625 
Q 33.0625 21.96875 24.703125 23.78125 
L 21.578125 24.515625 
Q 13.234375 26.265625 9.515625 29.90625 
Q 5.8125 33.546875 5.8125 39.890625 
Q 5.8125 47.609375 11.28125 51.796875 
Q 16.75 56 26.8125 56 
Q 31.78125 56 36.171875 55.265625 
Q 40.578125 54.546875 44.28125 53.078125 
z
" id="DejaVuSans-115"/>
      <path d="M 30.609375 48.390625 
Q 23.390625 48.390625 19.1875 42.75 
Q 14.984375 37.109375 14.984375 27.296875 
Q 14.984375 17.484375 19.15625 11.84375 
Q 23.34375 6.203125 30.609375 6.203125 
Q 37.796875 6.203125 41.984375 11.859375 
Q 46.1875 17.53125 46.1875 27.296875 
Q 46.1875 37.015625 41.984375 42.703125 
Q 37.796875 48.390625 30.609375 48.390625 
z
M 30.609375 56 
Q 42.328125 56 49.015625 48.375 
Q 55.71875 40.765625 55.71875 27.296875 
Q 55.71875 13.875 49.015625 6.21875 
Q 42.328125 -1.421875 30.609375 -1.421875 
Q 18.84375 -1.421875 12.171875 6.21875 
Q 5.515625 13.875 5.515625 27.296875 
Q 5.515625 40.765625 12.171875 48.375 
Q 18.84375 56 30.609375 56 
z
" id="DejaVuSans-111"/>
      <path d="M 9.421875 75.984375 
L 18.40625 75.984375 
L 18.40625 0 
L 9.421875 0 
z
" id="DejaVuSans-108"/>
     </defs>
     <g transform="translate(15.470312 382.224531)rotate(-90)scale(0.1 -0.1)">
      <use xlink:href="#DejaVuSans-65"/>
      <use x="68.408203" xlink:href="#DejaVuSans-98"/>
      <use x="131.884766" xlink:href="#DejaVuSans-115"/>
      <use x="183.984375" xlink:href="#DejaVuSans-111"/>
      <use x="245.166016" xlink:href="#DejaVuSans-108"/>
      <use x="272.949219" xlink:href="#DejaVuSans-117"/>
      <use x="336.328125" xlink:href="#DejaVuSans-116"/>
      <use x="375.537109" xlink:href="#DejaVuSans-101"/>
      <use x="437.060547" xlink:href="#DejaVuSans-32"/>
      <use x="468.847656" xlink:href="#DejaVuSans-101"/>
      <use x="530.371094" xlink:href="#DejaVuSans-114"/>
      <use x="569.734375" xlink:href="#DejaVuSans-114"/>
      <use x="608.597656" xlink:href="#DejaVuSans-111"/>
      <use x="669.779297" xlink:href="#DejaVuSans-114"/>
     </g>
    </g>
   </g>
   <g id="line2d_33">
    <path clip-path="url(#pca9db95348)" d="M 57.893023 379.15779 
L 61.786047 379.982777 
L 65.67907 380.968134 
L 69.572093 380.793539 
L 73.465116 381.043636 
L 77.35814 380.014876 
L 81.251163 379.722702 
L 85.144186 379.169543 
L 89.037209 374.743649 
L 92.930233 369.508936 
L 96.823256 363.08181 
L 100.716279 363.448018 
L 104.609302 362.565788 
L 108.502326 365.495129 
L 112.395349 368.303588 
L 116.288372 368.70062 
L 120.181395 371.03827 
L 124.074419 372.569543 
L 127.967442 374.097838 
L 131.860465 373.145632 
L 135.753488 373.196903 
L 139.646512 374.936926 
L 143.539535 372.350122 
L 147.432558 373.470133 
L 151.325581 371.144677 
L 155.218605 369.934478 
L 159.111628 372.410622 
L 163.004651 372.934215 
L 166.897674 374.807236 
L 170.790698 374.361651 
L 174.683721 371.267816 
L 178.576744 364.520727 
L 182.469767 363.20215 
L 186.362791 361.583288 
L 190.255814 359.555708 
L 194.148837 355.542425 
L 198.04186 356.317227 
L 201.934884 356.628687 
L 205.827907 357.223749 
L 209.72093 357.300752 
L 213.613953 356.012762 
L 217.506977 359.289157 
L 221.4 359.796143 
L 225.293023 361.650761 
L 229.186047 361.919684 
L 233.07907 362.910621 
L 236.972093 366.909151 
L 240.865116 363.284009 
L 244.75814 362.47064 
L 248.651163 358.228403 
L 252.544186 358.288844 
L 256.437209 357.27201 
L 260.330233 358.339042 
L 264.223256 359.355935 
L 268.116279 354.691178 
L 272.009302 354.180744 
L 275.902326 353.420095 
L 279.795349 354.718636 
L 283.688372 355.325533 
L 287.581395 358.909527 
L 291.474419 359.177125 
L 295.367442 360.825946 
L 299.260465 359.770758 
L 303.153488 356.813848 
L 307.046512 349.599282 
L 310.939535 347.887048 
L 314.832558 342.634069 
L 318.725581 341.821217 
L 322.618605 339.656945 
L 326.511628 339.75276 
L 330.404651 341.642838 
L 334.297674 342.167352 
L 338.190698 341.112272 
L 342.083721 342.064932 
L 345.976744 342.902983 
L 349.869767 334.271226 
L 353.762791 325.582889 
L 357.655814 323.504094 
L 361.548837 312.316364 
L 365.44186 325.048472 
L 369.334884 327.432848 
L 373.227907 327.031153 
L 377.12093 334.484821 
L 381.013953 334.373909 
L 384.906977 330.531376 
L 388.8 333.32313 
" style="fill:none;stroke:#000000;stroke-linecap:square;stroke-width:0.5;"/>
   </g>
   <g id="patch_9">
    <path d="M 54 384.48 
L 54 308.88 
" style="fill:none;stroke:#000000;stroke-linecap:square;stroke-linejoin:miter;stroke-width:0.8;"/>
   </g>
   <g id="patch_10">
    <path d="M 388.8 384.48 
L 388.8 308.88 
" style="fill:none;stroke:#000000;stroke-linecap:square;stroke-linejoin:miter;stroke-width:0.8;"/>
   </g>
   <g id="patch_11">
    <path d="M 54 384.48 
L 388.8 384.48 
" style="fill:none;stroke:#000000;stroke-linecap:square;stroke-linejoin:miter;stroke-width:0.8;"/>
   </g>
   <g id="patch_12">
    <path d="M 54 308.88 
L 388.8 308.88 
" style="fill:none;stroke:#000000;stroke-linecap:square;stroke-linejoin:miter;stroke-width:0.8;"/>
   </g>
  </g>
 </g>
 <defs>
  <clipPath id="p848e6ea14c">
   <rect height="226.8" width="334.8" x="54" y="51.84"/>
  </clipPath>
  <clipPath id="pca9db95348">
   <rect height="75.6" width="334.8" x="54" y="308.88"/>
  </clipPath>
 </defs>
</svg>
