<?xml version="1.0" encoding="utf-8" standalone="no"?>
<!DOCTYPE svg PUBLIC "-//W3C//DTD SVG 1.1//EN"
  "http://www.w3.org/Graphics/SVG/1.1/DTD/svg11.dtd">
<!-- Created with matplotlib (https://matplotlib.org/) -->
<svg height="432pt" version="1.1" viewBox="0 0 432 432" width="432pt" xmlns="http://www.w3.org/2000/svg" xmlns:xlink="http://www.w3.org/1999/xlink">
 <defs>
  <style type="text/css">
*{stroke-linecap:butt;stroke-linejoin:round;}
  </style>
 </defs>
 <g id="figure_1">
  <g id="patch_1">
   <path d="M 0 432 
L 432 432 
L 432 0 
L 0 0 
z
" style="fill:#ffffff;"/>
  </g>
  <g id="axes_1">
   <g id="patch_2">
    <path d="M 54 278.64 
L 388.8 278.64 
L 388.8 51.84 
L 54 51.84 
z
" style="fill:#ffffff;"/>
   </g>
   <g id="matplotlib.axis_1">
    <g id="xtick_1">
     <g id="line2d_1">
      <defs>
       <path d="M 0 0 
L 0 3.5 
" id="mda22ea9f89" style="stroke:#000000;stroke-width:0.8;"/>
      </defs>
      <g>
       <use style="stroke:#000000;stroke-width:0.8;" x="54" xlink:href="#mda22ea9f89" y="278.64"/>
      </g>
     </g>
     <g id="text_1">
      <!-- 0 -->
      <defs>
       <path d="M 31.78125 66.40625 
Q 24.171875 66.40625 20.328125 58.90625 
Q 16.5 51.421875 16.5 36.375 
Q 16.5 21.390625 20.328125 13.890625 
Q 24.171875 6.390625 31.78125 6.390625 
Q 39.453125 6.390625 43.28125 13.890625 
Q 47.125 21.390625 47.125 36.375 
Q 47.125 51.421875 43.28125 58.90625 
Q 39.453125 66.40625 31.78125 66.40625 
z
M 31.78125 74.21875 
Q 44.046875 74.21875 50.515625 64.515625 
Q 56.984375 54.828125 56.984375 36.375 
Q 56.984375 17.96875 50.515625 8.265625 
Q 44.046875 -1.421875 31.78125 -1.421875 
Q 19.53125 -1.421875 13.0625 8.265625 
Q 6.59375 17.96875 6.59375 36.375 
Q 6.59375 54.828125 13.0625 64.515625 
Q 19.53125 74.21875 31.78125 74.21875 
z
" id="DejaVuSans-48"/>
      </defs>
      <g transform="translate(50.81875 293.238437)scale(0.1 -0.1)">
       <use xlink:href="#DejaVuSans-48"/>
      </g>
     </g>
    </g>
    <g id="xtick_2">
     <g id="line2d_2">
      <g>
       <use style="stroke:#000000;stroke-width:0.8;" x="97.367876" xlink:href="#mda22ea9f89" y="278.64"/>
      </g>
     </g>
     <g id="text_2">
      <!-- 25 -->
      <defs>
       <path d="M 19.1875 8.296875 
L 53.609375 8.296875 
L 53.609375 0 
L 7.328125 0 
L 7.328125 8.296875 
Q 12.9375 14.109375 22.625 23.890625 
Q 32.328125 33.6875 34.8125 36.53125 
Q 39.546875 41.84375 41.421875 45.53125 
Q 43.3125 49.21875 43.3125 52.78125 
Q 43.3125 58.59375 39.234375 62.25 
Q 35.15625 65.921875 28.609375 65.921875 
Q 23.96875 65.921875 18.8125 64.3125 
Q 13.671875 62.703125 7.8125 59.421875 
L 7.8125 69.390625 
Q 13.765625 71.78125 18.9375 73 
Q 24.125 74.21875 28.421875 74.21875 
Q 39.75 74.21875 46.484375 68.546875 
Q 53.21875 62.890625 53.21875 53.421875 
Q 53.21875 48.921875 51.53125 44.890625 
Q 49.859375 40.875 45.40625 35.40625 
Q 44.1875 33.984375 37.640625 27.21875 
Q 31.109375 20.453125 19.1875 8.296875 
z
" id="DejaVuSans-50"/>
       <path d="M 10.796875 72.90625 
L 49.515625 72.90625 
L 49.515625 64.59375 
L 19.828125 64.59375 
L 19.828125 46.734375 
Q 21.96875 47.46875 24.109375 47.828125 
Q 26.265625 48.1875 28.421875 48.1875 
Q 40.625 48.1875 47.75 41.5 
Q 54.890625 34.8125 54.890625 23.390625 
Q 54.890625 11.625 47.5625 5.09375 
Q 40.234375 -1.421875 26.90625 -1.421875 
Q 22.3125 -1.421875 17.546875 -0.640625 
Q 12.796875 0.140625 7.71875 1.703125 
L 7.71875 11.625 
Q 12.109375 9.234375 16.796875 8.0625 
Q 21.484375 6.890625 26.703125 6.890625 
Q 35.15625 6.890625 40.078125 11.328125 
Q 45.015625 15.765625 45.015625 23.390625 
Q 45.015625 31 40.078125 35.4375 
Q 35.15625 39.890625 26.703125 39.890625 
Q 22.75 39.890625 18.8125 39.015625 
Q 14.890625 38.140625 10.796875 36.28125 
z
" id="DejaVuSans-53"/>
      </defs>
      <g transform="translate(91.005376 293.238437)scale(0.1 -0.1)">
       <use xlink:href="#DejaVuSans-50"/>
       <use x="63.623047" xlink:href="#DejaVuSans-53"/>
      </g>
     </g>
    </g>
    <g id="xtick_3">
     <g id="line2d_3">
      <g>
       <use style="stroke:#000000;stroke-width:0.8;" x="140.735751" xlink:href="#mda22ea9f89" y="278.64"/>
      </g>
     </g>
     <g id="text_3">
      <!-- 50 -->
      <g transform="translate(134.373251 293.238437)scale(0.1 -0.1)">
       <use xlink:href="#DejaVuSans-53"/>
       <use x="63.623047" xlink:href="#DejaVuSans-48"/>
      </g>
     </g>
    </g>
    <g id="xtick_4">
     <g id="line2d_4">
      <g>
       <use style="stroke:#000000;stroke-width:0.8;" x="184.103627" xlink:href="#mda22ea9f89" y="278.64"/>
      </g>
     </g>
     <g id="text_4">
      <!-- 75 -->
      <defs>
       <path d="M 8.203125 72.90625 
L 55.078125 72.90625 
L 55.078125 68.703125 
L 28.609375 0 
L 18.3125 0 
L 43.21875 64.59375 
L 8.203125 64.59375 
z
" id="DejaVuSans-55"/>
      </defs>
      <g transform="translate(177.741127 293.238437)scale(0.1 -0.1)">
       <use xlink:href="#DejaVuSans-55"/>
       <use x="63.623047" xlink:href="#DejaVuSans-53"/>
      </g>
     </g>
    </g>
    <g id="xtick_5">
     <g id="line2d_5">
      <g>
       <use style="stroke:#000000;stroke-width:0.8;" x="227.471503" xlink:href="#mda22ea9f89" y="278.64"/>
      </g>
     </g>
     <g id="text_5">
      <!-- 100 -->
      <defs>
       <path d="M 12.40625 8.296875 
L 28.515625 8.296875 
L 28.515625 63.921875 
L 10.984375 60.40625 
L 10.984375 69.390625 
L 28.421875 72.90625 
L 38.28125 72.90625 
L 38.28125 8.296875 
L 54.390625 8.296875 
L 54.390625 0 
L 12.40625 0 
z
" id="DejaVuSans-49"/>
      </defs>
      <g transform="translate(217.927753 293.238437)scale(0.1 -0.1)">
       <use xlink:href="#DejaVuSans-49"/>
       <use x="63.623047" xlink:href="#DejaVuSans-48"/>
       <use x="127.246094" xlink:href="#DejaVuSans-48"/>
      </g>
     </g>
    </g>
    <g id="xtick_6">
     <g id="line2d_6">
      <g>
       <use style="stroke:#000000;stroke-width:0.8;" x="270.839378" xlink:href="#mda22ea9f89" y="278.64"/>
      </g>
     </g>
     <g id="text_6">
      <!-- 125 -->
      <g transform="translate(261.295628 293.238437)scale(0.1 -0.1)">
       <use xlink:href="#DejaVuSans-49"/>
       <use x="63.623047" xlink:href="#DejaVuSans-50"/>
       <use x="127.246094" xlink:href="#DejaVuSans-53"/>
      </g>
     </g>
    </g>
    <g id="xtick_7">
     <g id="line2d_7">
      <g>
       <use style="stroke:#000000;stroke-width:0.8;" x="314.207254" xlink:href="#mda22ea9f89" y="278.64"/>
      </g>
     </g>
     <g id="text_7">
      <!-- 150 -->
      <g transform="translate(304.663504 293.238437)scale(0.1 -0.1)">
       <use xlink:href="#DejaVuSans-49"/>
       <use x="63.623047" xlink:href="#DejaVuSans-53"/>
       <use x="127.246094" xlink:href="#DejaVuSans-48"/>
      </g>
     </g>
    </g>
    <g id="xtick_8">
     <g id="line2d_8">
      <g>
       <use style="stroke:#000000;stroke-width:0.8;" x="357.57513" xlink:href="#mda22ea9f89" y="278.64"/>
      </g>
     </g>
     <g id="text_8">
      <!-- 175 -->
      <g transform="translate(348.03138 293.238437)scale(0.1 -0.1)">
       <use xlink:href="#DejaVuSans-49"/>
       <use x="63.623047" xlink:href="#DejaVuSans-55"/>
       <use x="127.246094" xlink:href="#DejaVuSans-53"/>
      </g>
     </g>
    </g>
   </g>
   <g id="matplotlib.axis_2">
    <g id="ytick_1">
     <g id="line2d_9">
      <defs>
       <path d="M 0 0 
L -3.5 0 
" id="m1f81ba1982" style="stroke:#000000;stroke-width:0.8;"/>
      </defs>
      <g>
       <use style="stroke:#000000;stroke-width:0.8;" x="54" xlink:href="#m1f81ba1982" y="278.64"/>
      </g>
     </g>
     <g id="text_9">
      <!-- 0 -->
      <g transform="translate(40.6375 282.439219)scale(0.1 -0.1)">
       <use xlink:href="#DejaVuSans-48"/>
      </g>
     </g>
    </g>
    <g id="ytick_2">
     <g id="line2d_10">
      <g>
       <use style="stroke:#000000;stroke-width:0.8;" x="54" xlink:href="#m1f81ba1982" y="242.522551"/>
      </g>
     </g>
     <g id="text_10">
      <!-- 2000 -->
      <g transform="translate(21.55 246.321769)scale(0.1 -0.1)">
       <use xlink:href="#DejaVuSans-50"/>
       <use x="63.623047" xlink:href="#DejaVuSans-48"/>
       <use x="127.246094" xlink:href="#DejaVuSans-48"/>
       <use x="190.869141" xlink:href="#DejaVuSans-48"/>
      </g>
     </g>
    </g>
    <g id="ytick_3">
     <g id="line2d_11">
      <g>
       <use style="stroke:#000000;stroke-width:0.8;" x="54" xlink:href="#m1f81ba1982" y="206.405101"/>
      </g>
     </g>
     <g id="text_11">
      <!-- 4000 -->
      <defs>
       <path d="M 37.796875 64.3125 
L 12.890625 25.390625 
L 37.796875 25.390625 
z
M 35.203125 72.90625 
L 47.609375 72.90625 
L 47.609375 25.390625 
L 58.015625 25.390625 
L 58.015625 17.1875 
L 47.609375 17.1875 
L 47.609375 0 
L 37.796875 0 
L 37.796875 17.1875 
L 4.890625 17.1875 
L 4.890625 26.703125 
z
" id="DejaVuSans-52"/>
      </defs>
      <g transform="translate(21.55 210.20432)scale(0.1 -0.1)">
       <use xlink:href="#DejaVuSans-52"/>
       <use x="63.623047" xlink:href="#DejaVuSans-48"/>
       <use x="127.246094" xlink:href="#DejaVuSans-48"/>
       <use x="190.869141" xlink:href="#DejaVuSans-48"/>
      </g>
     </g>
    </g>
    <g id="ytick_4">
     <g id="line2d_12">
      <g>
       <use style="stroke:#000000;stroke-width:0.8;" x="54" xlink:href="#m1f81ba1982" y="170.287652"/>
      </g>
     </g>
     <g id="text_12">
      <!-- 6000 -->
      <defs>
       <path d="M 33.015625 40.375 
Q 26.375 40.375 22.484375 35.828125 
Q 18.609375 31.296875 18.609375 23.390625 
Q 18.609375 15.53125 22.484375 10.953125 
Q 26.375 6.390625 33.015625 6.390625 
Q 39.65625 6.390625 43.53125 10.953125 
Q 47.40625 15.53125 47.40625 23.390625 
Q 47.40625 31.296875 43.53125 35.828125 
Q 39.65625 40.375 33.015625 40.375 
z
M 52.59375 71.296875 
L 52.59375 62.3125 
Q 48.875 64.0625 45.09375 64.984375 
Q 41.3125 65.921875 37.59375 65.921875 
Q 27.828125 65.921875 22.671875 59.328125 
Q 17.53125 52.734375 16.796875 39.40625 
Q 19.671875 43.65625 24.015625 45.921875 
Q 28.375 48.1875 33.59375 48.1875 
Q 44.578125 48.1875 50.953125 41.515625 
Q 57.328125 34.859375 57.328125 23.390625 
Q 57.328125 12.15625 50.6875 5.359375 
Q 44.046875 -1.421875 33.015625 -1.421875 
Q 20.359375 -1.421875 13.671875 8.265625 
Q 6.984375 17.96875 6.984375 36.375 
Q 6.984375 53.65625 15.1875 63.9375 
Q 23.390625 74.21875 37.203125 74.21875 
Q 40.921875 74.21875 44.703125 73.484375 
Q 48.484375 72.75 52.59375 71.296875 
z
" id="DejaVuSans-54"/>
      </defs>
      <g transform="translate(21.55 174.08687)scale(0.1 -0.1)">
       <use xlink:href="#DejaVuSans-54"/>
       <use x="63.623047" xlink:href="#DejaVuSans-48"/>
       <use x="127.246094" xlink:href="#DejaVuSans-48"/>
       <use x="190.869141" xlink:href="#DejaVuSans-48"/>
      </g>
     </g>
    </g>
    <g id="ytick_5">
     <g id="line2d_13">
      <g>
       <use style="stroke:#000000;stroke-width:0.8;" x="54" xlink:href="#m1f81ba1982" y="134.170202"/>
      </g>
     </g>
     <g id="text_13">
      <!-- 8000 -->
      <defs>
       <path d="M 31.78125 34.625 
Q 24.75 34.625 20.71875 30.859375 
Q 16.703125 27.09375 16.703125 20.515625 
Q 16.703125 13.921875 20.71875 10.15625 
Q 24.75 6.390625 31.78125 6.390625 
Q 38.8125 6.390625 42.859375 10.171875 
Q 46.921875 13.96875 46.921875 20.515625 
Q 46.921875 27.09375 42.890625 30.859375 
Q 38.875 34.625 31.78125 34.625 
z
M 21.921875 38.8125 
Q 15.578125 40.375 12.03125 44.71875 
Q 8.5 49.078125 8.5 55.328125 
Q 8.5 64.0625 14.71875 69.140625 
Q 20.953125 74.21875 31.78125 74.21875 
Q 42.671875 74.21875 48.875 69.140625 
Q 55.078125 64.0625 55.078125 55.328125 
Q 55.078125 49.078125 51.53125 44.71875 
Q 48 40.375 41.703125 38.8125 
Q 48.828125 37.15625 52.796875 32.3125 
Q 56.78125 27.484375 56.78125 20.515625 
Q 56.78125 9.90625 50.3125 4.234375 
Q 43.84375 -1.421875 31.78125 -1.421875 
Q 19.734375 -1.421875 13.25 4.234375 
Q 6.78125 9.90625 6.78125 20.515625 
Q 6.78125 27.484375 10.78125 32.3125 
Q 14.796875 37.15625 21.921875 38.8125 
z
M 18.3125 54.390625 
Q 18.3125 48.734375 21.84375 45.5625 
Q 25.390625 42.390625 31.78125 42.390625 
Q 38.140625 42.390625 41.71875 45.5625 
Q 45.3125 48.734375 45.3125 54.390625 
Q 45.3125 60.0625 41.71875 63.234375 
Q 38.140625 66.40625 31.78125 66.40625 
Q 25.390625 66.40625 21.84375 63.234375 
Q 18.3125 60.0625 18.3125 54.390625 
z
" id="DejaVuSans-56"/>
      </defs>
      <g transform="translate(21.55 137.969421)scale(0.1 -0.1)">
       <use xlink:href="#DejaVuSans-56"/>
       <use x="63.623047" xlink:href="#DejaVuSans-48"/>
       <use x="127.246094" xlink:href="#DejaVuSans-48"/>
       <use x="190.869141" xlink:href="#DejaVuSans-48"/>
      </g>
     </g>
    </g>
    <g id="ytick_6">
     <g id="line2d_14">
      <g>
       <use style="stroke:#000000;stroke-width:0.8;" x="54" xlink:href="#m1f81ba1982" y="98.052753"/>
      </g>
     </g>
     <g id="text_14">
      <!-- 10000 -->
      <g transform="translate(15.1875 101.851971)scale(0.1 -0.1)">
       <use xlink:href="#DejaVuSans-49"/>
       <use x="63.623047" xlink:href="#DejaVuSans-48"/>
       <use x="127.246094" xlink:href="#DejaVuSans-48"/>
       <use x="190.869141" xlink:href="#DejaVuSans-48"/>
       <use x="254.492188" xlink:href="#DejaVuSans-48"/>
      </g>
     </g>
    </g>
    <g id="ytick_7">
     <g id="line2d_15">
      <g>
       <use style="stroke:#000000;stroke-width:0.8;" x="54" xlink:href="#m1f81ba1982" y="61.935303"/>
      </g>
     </g>
     <g id="text_15">
      <!-- 12000 -->
      <g transform="translate(15.1875 65.734522)scale(0.1 -0.1)">
       <use xlink:href="#DejaVuSans-49"/>
       <use x="63.623047" xlink:href="#DejaVuSans-50"/>
       <use x="127.246094" xlink:href="#DejaVuSans-48"/>
       <use x="190.869141" xlink:href="#DejaVuSans-48"/>
       <use x="254.492188" xlink:href="#DejaVuSans-48"/>
      </g>
     </g>
    </g>
    <g id="text_16">
     <!-- RUL -->
     <defs>
      <path d="M 44.390625 34.1875 
Q 47.5625 33.109375 50.5625 29.59375 
Q 53.5625 26.078125 56.59375 19.921875 
L 66.609375 0 
L 56 0 
L 46.6875 18.703125 
Q 43.0625 26.03125 39.671875 28.421875 
Q 36.28125 30.8125 30.421875 30.8125 
L 19.671875 30.8125 
L 19.671875 0 
L 9.8125 0 
L 9.8125 72.90625 
L 32.078125 72.90625 
Q 44.578125 72.90625 50.734375 67.671875 
Q 56.890625 62.453125 56.890625 51.90625 
Q 56.890625 45.015625 53.6875 40.46875 
Q 50.484375 35.9375 44.390625 34.1875 
z
M 19.671875 64.796875 
L 19.671875 38.921875 
L 32.078125 38.921875 
Q 39.203125 38.921875 42.84375 42.21875 
Q 46.484375 45.515625 46.484375 51.90625 
Q 46.484375 58.296875 42.84375 61.546875 
Q 39.203125 64.796875 32.078125 64.796875 
z
" id="DejaVuSans-82"/>
      <path d="M 8.6875 72.90625 
L 18.609375 72.90625 
L 18.609375 28.609375 
Q 18.609375 16.890625 22.84375 11.734375 
Q 27.09375 6.59375 36.625 6.59375 
Q 46.09375 6.59375 50.34375 11.734375 
Q 54.59375 16.890625 54.59375 28.609375 
L 54.59375 72.90625 
L 64.5 72.90625 
L 64.5 27.390625 
Q 64.5 13.140625 57.4375 5.859375 
Q 50.390625 -1.421875 36.625 -1.421875 
Q 22.796875 -1.421875 15.734375 5.859375 
Q 8.6875 13.140625 8.6875 27.390625 
z
" id="DejaVuSans-85"/>
      <path d="M 9.8125 72.90625 
L 19.671875 72.90625 
L 19.671875 8.296875 
L 55.171875 8.296875 
L 55.171875 0 
L 9.8125 0 
z
" id="DejaVuSans-76"/>
     </defs>
     <g transform="translate(9.107812 175.159531)rotate(-90)scale(0.1 -0.1)">
      <use xlink:href="#DejaVuSans-82"/>
      <use x="69.482422" xlink:href="#DejaVuSans-85"/>
      <use x="142.675781" xlink:href="#DejaVuSans-76"/>
     </g>
    </g>
   </g>
   <g id="line2d_16">
    <path clip-path="url(#pb8f8e80612)" d="M 55.734715 278.459413 
L 388.8 243.786661 
L 388.8 243.786661 
" style="fill:none;stroke:#1f77b4;stroke-linecap:square;stroke-width:1.5;"/>
   </g>
   <g id="line2d_17">
    <path clip-path="url(#pb8f8e80612)" d="M 55.734715 265.088497 
L 57.46943 265.909613 
L 59.204145 262.31173 
L 60.93886 261.513911 
L 62.673575 262.155409 
L 64.40829 260.421652 
L 66.143005 260.832617 
L 67.87772 262.049251 
L 69.612435 259.938868 
L 71.34715 259.802634 
L 73.081865 258.314795 
L 74.81658 255.07897 
L 76.551295 253.2408 
L 78.28601 254.057671 
L 80.020725 254.486008 
L 81.75544 254.505182 
L 83.490155 253.650671 
L 86.959585 253.435452 
L 88.694301 251.774986 
L 90.429016 249.74791 
L 92.163731 248.331411 
L 93.898446 245.880043 
L 99.102591 241.156577 
L 100.837306 239.118521 
L 104.306736 236.753652 
L 106.041451 236.534919 
L 107.776166 234.734188 
L 109.510881 233.132578 
L 111.245596 232.340595 
L 112.980311 231.214478 
L 114.715026 228.635215 
L 116.449741 224.419724 
L 118.184456 219.838037 
L 119.919171 214.147396 
L 121.653886 208.870849 
L 123.388601 204.267073 
L 125.123316 189.948824 
L 126.858031 189.697712 
L 128.592746 188.385474 
L 130.327461 186.216514 
L 133.796891 183.686617 
L 135.531606 183.993342 
L 137.266321 180.723337 
L 139.001036 178.021151 
L 140.735751 174.055259 
L 142.470466 167.139005 
L 144.205181 158.80896 
L 145.939896 148.504579 
L 147.674611 132.217611 
L 149.409326 124.729545 
L 151.144041 128.264135 
L 152.878756 129.854044 
L 154.613472 117.137192 
L 156.348187 123.400078 
L 158.082902 126.746991 
L 159.817617 126.844532 
L 161.552332 130.291245 
L 163.287047 134.742685 
L 165.021762 140.091224 
L 166.756477 148.045061 
L 168.491192 149.602273 
L 170.225907 147.353045 
L 171.960622 150.607239 
L 173.695337 151.104119 
L 175.430052 148.390681 
L 177.164767 144.49817 
L 178.899482 145.047127 
L 180.634197 147.640247 
L 182.368912 141.813743 
L 184.103627 142.304988 
L 185.838342 131.266768 
L 187.573057 122.11909 
L 189.307772 121.387006 
L 191.042487 119.110302 
L 192.777202 116.5967 
L 194.511917 120.680599 
L 196.246632 122.906002 
L 197.981347 126.613613 
L 199.716062 120.277064 
L 201.450777 118.821679 
L 203.185492 118.210011 
L 204.920207 104.805728 
L 206.654922 108.129927 
L 208.389637 108.65042 
L 210.124352 111.926791 
L 211.859067 111.305106 
L 213.593782 112.347274 
L 215.328497 98.174102 
L 217.063212 101.948147 
L 218.797927 94.689351 
L 220.532642 100.332561 
L 222.267358 105.208734 
L 224.002073 108.078167 
L 225.736788 105.587315 
L 227.471503 94.380148 
L 229.206218 97.865393 
L 230.940933 97.710995 
L 232.675648 91.323938 
L 234.410363 54.22749 
L 236.145078 56.48767 
L 237.879793 51.84 
L 239.614508 56.977725 
L 241.349223 60.195828 
L 243.083938 66.474321 
L 244.818653 70.878587 
L 246.553368 76.3022 
L 248.288083 83.173704 
L 250.022798 80.307287 
L 251.757513 87.742685 
L 253.492228 92.063517 
L 255.226943 100.983857 
L 256.961658 107.557197 
L 258.696373 116.856365 
L 260.431088 124.594652 
L 262.165803 142.580912 
L 263.900518 162.991936 
L 267.369948 193.92445 
L 269.104663 213.647567 
L 270.839378 214.348749 
L 272.574093 212.54826 
L 274.308808 217.476731 
L 276.043523 216.070756 
L 277.778238 214.876177 
L 279.512953 214.810767 
L 281.247668 214.123998 
L 282.982383 211.854881 
L 284.717098 214.30664 
L 286.451813 212.339147 
L 288.186528 212.281695 
L 289.921244 210.137032 
L 291.655959 213.017597 
L 293.390674 211.824315 
L 295.125389 211.437507 
L 296.860104 209.07785 
L 298.594819 210.095324 
L 300.329534 208.314295 
L 302.064249 206.726058 
L 303.798964 204.817327 
L 305.533679 202.430074 
L 307.268394 197.073229 
L 309.003109 192.390772 
L 310.737824 184.806134 
L 312.472539 192.059984 
L 314.207254 190.407425 
L 315.941969 188.165657 
L 317.676684 178.404502 
L 319.411399 170.915228 
L 321.146114 169.318097 
L 322.880829 168.850237 
L 324.615544 160.230044 
L 326.350259 162.894826 
L 328.084974 152.884032 
L 329.819689 146.494444 
L 331.554404 150.084885 
L 333.289119 156.715568 
L 335.023834 152.344545 
L 336.758549 153.955722 
L 338.493264 161.024663 
L 340.227979 156.582649 
L 341.962694 162.335781 
L 343.697409 173.777862 
L 345.432124 169.177111 
L 347.166839 165.722912 
L 348.901554 167.552099 
L 350.636269 156.984482 
L 352.370984 163.488656 
L 354.105699 153.097994 
L 355.840415 144.699902 
L 359.309845 132.048761 
L 361.04456 141.622821 
L 362.779275 144.800548 
L 364.51399 139.658053 
L 366.248705 138.243917 
L 367.98342 133.705966 
L 369.718135 133.952695 
L 371.45285 131.667385 
L 373.187565 131.896355 
L 374.92228 142.52812 
L 376.656995 139.158466 
L 378.39171 141.456377 
L 380.126425 143.383952 
L 381.86114 158.869018 
L 383.595855 152.284875 
L 385.33057 154.17061 
L 387.065285 162.838763 
L 388.8 161.611863 
L 388.8 161.611863 
" style="fill:none;stroke:#ff0000;stroke-linecap:square;stroke-width:0.5;"/>
    <defs>
     <path d="M 0 1 
C 0.265203 1 0.51958 0.894634 0.707107 0.707107 
C 0.894634 0.51958 1 0.265203 1 0 
C 1 -0.265203 0.894634 -0.51958 0.707107 -0.707107 
C 0.51958 -0.894634 0.265203 -1 0 -1 
C -0.265203 -1 -0.51958 -0.894634 -0.707107 -0.707107 
C -0.894634 -0.51958 -1 -0.265203 -1 0 
C -1 0.265203 -0.894634 0.51958 -0.707107 0.707107 
C -0.51958 0.894634 -0.265203 1 0 1 
z
" id="m1a52f162e1" style="stroke:#ff0000;"/>
    </defs>
    <g clip-path="url(#pb8f8e80612)">
     <use style="fill:#ff0000;stroke:#ff0000;" x="55.734715" xlink:href="#m1a52f162e1" y="265.088497"/>
     <use style="fill:#ff0000;stroke:#ff0000;" x="57.46943" xlink:href="#m1a52f162e1" y="265.909613"/>
     <use style="fill:#ff0000;stroke:#ff0000;" x="59.204145" xlink:href="#m1a52f162e1" y="262.31173"/>
     <use style="fill:#ff0000;stroke:#ff0000;" x="60.93886" xlink:href="#m1a52f162e1" y="261.513911"/>
     <use style="fill:#ff0000;stroke:#ff0000;" x="62.673575" xlink:href="#m1a52f162e1" y="262.155409"/>
     <use style="fill:#ff0000;stroke:#ff0000;" x="64.40829" xlink:href="#m1a52f162e1" y="260.421652"/>
     <use style="fill:#ff0000;stroke:#ff0000;" x="66.143005" xlink:href="#m1a52f162e1" y="260.832617"/>
     <use style="fill:#ff0000;stroke:#ff0000;" x="67.87772" xlink:href="#m1a52f162e1" y="262.049251"/>
     <use style="fill:#ff0000;stroke:#ff0000;" x="69.612435" xlink:href="#m1a52f162e1" y="259.938868"/>
     <use style="fill:#ff0000;stroke:#ff0000;" x="71.34715" xlink:href="#m1a52f162e1" y="259.802634"/>
     <use style="fill:#ff0000;stroke:#ff0000;" x="73.081865" xlink:href="#m1a52f162e1" y="258.314795"/>
     <use style="fill:#ff0000;stroke:#ff0000;" x="74.81658" xlink:href="#m1a52f162e1" y="255.07897"/>
     <use style="fill:#ff0000;stroke:#ff0000;" x="76.551295" xlink:href="#m1a52f162e1" y="253.2408"/>
     <use style="fill:#ff0000;stroke:#ff0000;" x="78.28601" xlink:href="#m1a52f162e1" y="254.057671"/>
     <use style="fill:#ff0000;stroke:#ff0000;" x="80.020725" xlink:href="#m1a52f162e1" y="254.486008"/>
     <use style="fill:#ff0000;stroke:#ff0000;" x="81.75544" xlink:href="#m1a52f162e1" y="254.505182"/>
     <use style="fill:#ff0000;stroke:#ff0000;" x="83.490155" xlink:href="#m1a52f162e1" y="253.650671"/>
     <use style="fill:#ff0000;stroke:#ff0000;" x="85.22487" xlink:href="#m1a52f162e1" y="253.581996"/>
     <use style="fill:#ff0000;stroke:#ff0000;" x="86.959585" xlink:href="#m1a52f162e1" y="253.435452"/>
     <use style="fill:#ff0000;stroke:#ff0000;" x="88.694301" xlink:href="#m1a52f162e1" y="251.774986"/>
     <use style="fill:#ff0000;stroke:#ff0000;" x="90.429016" xlink:href="#m1a52f162e1" y="249.74791"/>
     <use style="fill:#ff0000;stroke:#ff0000;" x="92.163731" xlink:href="#m1a52f162e1" y="248.331411"/>
     <use style="fill:#ff0000;stroke:#ff0000;" x="93.898446" xlink:href="#m1a52f162e1" y="245.880043"/>
     <use style="fill:#ff0000;stroke:#ff0000;" x="95.633161" xlink:href="#m1a52f162e1" y="244.259226"/>
     <use style="fill:#ff0000;stroke:#ff0000;" x="97.367876" xlink:href="#m1a52f162e1" y="242.501536"/>
     <use style="fill:#ff0000;stroke:#ff0000;" x="99.102591" xlink:href="#m1a52f162e1" y="241.156577"/>
     <use style="fill:#ff0000;stroke:#ff0000;" x="100.837306" xlink:href="#m1a52f162e1" y="239.118521"/>
     <use style="fill:#ff0000;stroke:#ff0000;" x="102.572021" xlink:href="#m1a52f162e1" y="237.917408"/>
     <use style="fill:#ff0000;stroke:#ff0000;" x="104.306736" xlink:href="#m1a52f162e1" y="236.753652"/>
     <use style="fill:#ff0000;stroke:#ff0000;" x="106.041451" xlink:href="#m1a52f162e1" y="236.534919"/>
     <use style="fill:#ff0000;stroke:#ff0000;" x="107.776166" xlink:href="#m1a52f162e1" y="234.734188"/>
     <use style="fill:#ff0000;stroke:#ff0000;" x="109.510881" xlink:href="#m1a52f162e1" y="233.132578"/>
     <use style="fill:#ff0000;stroke:#ff0000;" x="111.245596" xlink:href="#m1a52f162e1" y="232.340595"/>
     <use style="fill:#ff0000;stroke:#ff0000;" x="112.980311" xlink:href="#m1a52f162e1" y="231.214478"/>
     <use style="fill:#ff0000;stroke:#ff0000;" x="114.715026" xlink:href="#m1a52f162e1" y="228.635215"/>
     <use style="fill:#ff0000;stroke:#ff0000;" x="116.449741" xlink:href="#m1a52f162e1" y="224.419724"/>
     <use style="fill:#ff0000;stroke:#ff0000;" x="118.184456" xlink:href="#m1a52f162e1" y="219.838037"/>
     <use style="fill:#ff0000;stroke:#ff0000;" x="119.919171" xlink:href="#m1a52f162e1" y="214.147396"/>
     <use style="fill:#ff0000;stroke:#ff0000;" x="121.653886" xlink:href="#m1a52f162e1" y="208.870849"/>
     <use style="fill:#ff0000;stroke:#ff0000;" x="123.388601" xlink:href="#m1a52f162e1" y="204.267073"/>
     <use style="fill:#ff0000;stroke:#ff0000;" x="125.123316" xlink:href="#m1a52f162e1" y="189.948824"/>
     <use style="fill:#ff0000;stroke:#ff0000;" x="126.858031" xlink:href="#m1a52f162e1" y="189.697712"/>
     <use style="fill:#ff0000;stroke:#ff0000;" x="128.592746" xlink:href="#m1a52f162e1" y="188.385474"/>
     <use style="fill:#ff0000;stroke:#ff0000;" x="130.327461" xlink:href="#m1a52f162e1" y="186.216514"/>
     <use style="fill:#ff0000;stroke:#ff0000;" x="132.062176" xlink:href="#m1a52f162e1" y="184.893386"/>
     <use style="fill:#ff0000;stroke:#ff0000;" x="133.796891" xlink:href="#m1a52f162e1" y="183.686617"/>
     <use style="fill:#ff0000;stroke:#ff0000;" x="135.531606" xlink:href="#m1a52f162e1" y="183.993342"/>
     <use style="fill:#ff0000;stroke:#ff0000;" x="137.266321" xlink:href="#m1a52f162e1" y="180.723337"/>
     <use style="fill:#ff0000;stroke:#ff0000;" x="139.001036" xlink:href="#m1a52f162e1" y="178.021151"/>
     <use style="fill:#ff0000;stroke:#ff0000;" x="140.735751" xlink:href="#m1a52f162e1" y="174.055259"/>
     <use style="fill:#ff0000;stroke:#ff0000;" x="142.470466" xlink:href="#m1a52f162e1" y="167.139005"/>
     <use style="fill:#ff0000;stroke:#ff0000;" x="144.205181" xlink:href="#m1a52f162e1" y="158.80896"/>
     <use style="fill:#ff0000;stroke:#ff0000;" x="145.939896" xlink:href="#m1a52f162e1" y="148.504579"/>
     <use style="fill:#ff0000;stroke:#ff0000;" x="147.674611" xlink:href="#m1a52f162e1" y="132.217611"/>
     <use style="fill:#ff0000;stroke:#ff0000;" x="149.409326" xlink:href="#m1a52f162e1" y="124.729545"/>
     <use style="fill:#ff0000;stroke:#ff0000;" x="151.144041" xlink:href="#m1a52f162e1" y="128.264135"/>
     <use style="fill:#ff0000;stroke:#ff0000;" x="152.878756" xlink:href="#m1a52f162e1" y="129.854044"/>
     <use style="fill:#ff0000;stroke:#ff0000;" x="154.613472" xlink:href="#m1a52f162e1" y="117.137192"/>
     <use style="fill:#ff0000;stroke:#ff0000;" x="156.348187" xlink:href="#m1a52f162e1" y="123.400078"/>
     <use style="fill:#ff0000;stroke:#ff0000;" x="158.082902" xlink:href="#m1a52f162e1" y="126.746991"/>
     <use style="fill:#ff0000;stroke:#ff0000;" x="159.817617" xlink:href="#m1a52f162e1" y="126.844532"/>
     <use style="fill:#ff0000;stroke:#ff0000;" x="161.552332" xlink:href="#m1a52f162e1" y="130.291245"/>
     <use style="fill:#ff0000;stroke:#ff0000;" x="163.287047" xlink:href="#m1a52f162e1" y="134.742685"/>
     <use style="fill:#ff0000;stroke:#ff0000;" x="165.021762" xlink:href="#m1a52f162e1" y="140.091224"/>
     <use style="fill:#ff0000;stroke:#ff0000;" x="166.756477" xlink:href="#m1a52f162e1" y="148.045061"/>
     <use style="fill:#ff0000;stroke:#ff0000;" x="168.491192" xlink:href="#m1a52f162e1" y="149.602273"/>
     <use style="fill:#ff0000;stroke:#ff0000;" x="170.225907" xlink:href="#m1a52f162e1" y="147.353045"/>
     <use style="fill:#ff0000;stroke:#ff0000;" x="171.960622" xlink:href="#m1a52f162e1" y="150.607239"/>
     <use style="fill:#ff0000;stroke:#ff0000;" x="173.695337" xlink:href="#m1a52f162e1" y="151.104119"/>
     <use style="fill:#ff0000;stroke:#ff0000;" x="175.430052" xlink:href="#m1a52f162e1" y="148.390681"/>
     <use style="fill:#ff0000;stroke:#ff0000;" x="177.164767" xlink:href="#m1a52f162e1" y="144.49817"/>
     <use style="fill:#ff0000;stroke:#ff0000;" x="178.899482" xlink:href="#m1a52f162e1" y="145.047127"/>
     <use style="fill:#ff0000;stroke:#ff0000;" x="180.634197" xlink:href="#m1a52f162e1" y="147.640247"/>
     <use style="fill:#ff0000;stroke:#ff0000;" x="182.368912" xlink:href="#m1a52f162e1" y="141.813743"/>
     <use style="fill:#ff0000;stroke:#ff0000;" x="184.103627" xlink:href="#m1a52f162e1" y="142.304988"/>
     <use style="fill:#ff0000;stroke:#ff0000;" x="185.838342" xlink:href="#m1a52f162e1" y="131.266768"/>
     <use style="fill:#ff0000;stroke:#ff0000;" x="187.573057" xlink:href="#m1a52f162e1" y="122.11909"/>
     <use style="fill:#ff0000;stroke:#ff0000;" x="189.307772" xlink:href="#m1a52f162e1" y="121.387006"/>
     <use style="fill:#ff0000;stroke:#ff0000;" x="191.042487" xlink:href="#m1a52f162e1" y="119.110302"/>
     <use style="fill:#ff0000;stroke:#ff0000;" x="192.777202" xlink:href="#m1a52f162e1" y="116.5967"/>
     <use style="fill:#ff0000;stroke:#ff0000;" x="194.511917" xlink:href="#m1a52f162e1" y="120.680599"/>
     <use style="fill:#ff0000;stroke:#ff0000;" x="196.246632" xlink:href="#m1a52f162e1" y="122.906002"/>
     <use style="fill:#ff0000;stroke:#ff0000;" x="197.981347" xlink:href="#m1a52f162e1" y="126.613613"/>
     <use style="fill:#ff0000;stroke:#ff0000;" x="199.716062" xlink:href="#m1a52f162e1" y="120.277064"/>
     <use style="fill:#ff0000;stroke:#ff0000;" x="201.450777" xlink:href="#m1a52f162e1" y="118.821679"/>
     <use style="fill:#ff0000;stroke:#ff0000;" x="203.185492" xlink:href="#m1a52f162e1" y="118.210011"/>
     <use style="fill:#ff0000;stroke:#ff0000;" x="204.920207" xlink:href="#m1a52f162e1" y="104.805728"/>
     <use style="fill:#ff0000;stroke:#ff0000;" x="206.654922" xlink:href="#m1a52f162e1" y="108.129927"/>
     <use style="fill:#ff0000;stroke:#ff0000;" x="208.389637" xlink:href="#m1a52f162e1" y="108.65042"/>
     <use style="fill:#ff0000;stroke:#ff0000;" x="210.124352" xlink:href="#m1a52f162e1" y="111.926791"/>
     <use style="fill:#ff0000;stroke:#ff0000;" x="211.859067" xlink:href="#m1a52f162e1" y="111.305106"/>
     <use style="fill:#ff0000;stroke:#ff0000;" x="213.593782" xlink:href="#m1a52f162e1" y="112.347274"/>
     <use style="fill:#ff0000;stroke:#ff0000;" x="215.328497" xlink:href="#m1a52f162e1" y="98.174102"/>
     <use style="fill:#ff0000;stroke:#ff0000;" x="217.063212" xlink:href="#m1a52f162e1" y="101.948147"/>
     <use style="fill:#ff0000;stroke:#ff0000;" x="218.797927" xlink:href="#m1a52f162e1" y="94.689351"/>
     <use style="fill:#ff0000;stroke:#ff0000;" x="220.532642" xlink:href="#m1a52f162e1" y="100.332561"/>
     <use style="fill:#ff0000;stroke:#ff0000;" x="222.267358" xlink:href="#m1a52f162e1" y="105.208734"/>
     <use style="fill:#ff0000;stroke:#ff0000;" x="224.002073" xlink:href="#m1a52f162e1" y="108.078167"/>
     <use style="fill:#ff0000;stroke:#ff0000;" x="225.736788" xlink:href="#m1a52f162e1" y="105.587315"/>
     <use style="fill:#ff0000;stroke:#ff0000;" x="227.471503" xlink:href="#m1a52f162e1" y="94.380148"/>
     <use style="fill:#ff0000;stroke:#ff0000;" x="229.206218" xlink:href="#m1a52f162e1" y="97.865393"/>
     <use style="fill:#ff0000;stroke:#ff0000;" x="230.940933" xlink:href="#m1a52f162e1" y="97.710995"/>
     <use style="fill:#ff0000;stroke:#ff0000;" x="232.675648" xlink:href="#m1a52f162e1" y="91.323938"/>
     <use style="fill:#ff0000;stroke:#ff0000;" x="234.410363" xlink:href="#m1a52f162e1" y="54.22749"/>
     <use style="fill:#ff0000;stroke:#ff0000;" x="236.145078" xlink:href="#m1a52f162e1" y="56.48767"/>
     <use style="fill:#ff0000;stroke:#ff0000;" x="237.879793" xlink:href="#m1a52f162e1" y="51.84"/>
     <use style="fill:#ff0000;stroke:#ff0000;" x="239.614508" xlink:href="#m1a52f162e1" y="56.977725"/>
     <use style="fill:#ff0000;stroke:#ff0000;" x="241.349223" xlink:href="#m1a52f162e1" y="60.195828"/>
     <use style="fill:#ff0000;stroke:#ff0000;" x="243.083938" xlink:href="#m1a52f162e1" y="66.474321"/>
     <use style="fill:#ff0000;stroke:#ff0000;" x="244.818653" xlink:href="#m1a52f162e1" y="70.878587"/>
     <use style="fill:#ff0000;stroke:#ff0000;" x="246.553368" xlink:href="#m1a52f162e1" y="76.3022"/>
     <use style="fill:#ff0000;stroke:#ff0000;" x="248.288083" xlink:href="#m1a52f162e1" y="83.173704"/>
     <use style="fill:#ff0000;stroke:#ff0000;" x="250.022798" xlink:href="#m1a52f162e1" y="80.307287"/>
     <use style="fill:#ff0000;stroke:#ff0000;" x="251.757513" xlink:href="#m1a52f162e1" y="87.742685"/>
     <use style="fill:#ff0000;stroke:#ff0000;" x="253.492228" xlink:href="#m1a52f162e1" y="92.063517"/>
     <use style="fill:#ff0000;stroke:#ff0000;" x="255.226943" xlink:href="#m1a52f162e1" y="100.983857"/>
     <use style="fill:#ff0000;stroke:#ff0000;" x="256.961658" xlink:href="#m1a52f162e1" y="107.557197"/>
     <use style="fill:#ff0000;stroke:#ff0000;" x="258.696373" xlink:href="#m1a52f162e1" y="116.856365"/>
     <use style="fill:#ff0000;stroke:#ff0000;" x="260.431088" xlink:href="#m1a52f162e1" y="124.594652"/>
     <use style="fill:#ff0000;stroke:#ff0000;" x="262.165803" xlink:href="#m1a52f162e1" y="142.580912"/>
     <use style="fill:#ff0000;stroke:#ff0000;" x="263.900518" xlink:href="#m1a52f162e1" y="162.991936"/>
     <use style="fill:#ff0000;stroke:#ff0000;" x="265.635233" xlink:href="#m1a52f162e1" y="178.302789"/>
     <use style="fill:#ff0000;stroke:#ff0000;" x="267.369948" xlink:href="#m1a52f162e1" y="193.92445"/>
     <use style="fill:#ff0000;stroke:#ff0000;" x="269.104663" xlink:href="#m1a52f162e1" y="213.647567"/>
     <use style="fill:#ff0000;stroke:#ff0000;" x="270.839378" xlink:href="#m1a52f162e1" y="214.348749"/>
     <use style="fill:#ff0000;stroke:#ff0000;" x="272.574093" xlink:href="#m1a52f162e1" y="212.54826"/>
     <use style="fill:#ff0000;stroke:#ff0000;" x="274.308808" xlink:href="#m1a52f162e1" y="217.476731"/>
     <use style="fill:#ff0000;stroke:#ff0000;" x="276.043523" xlink:href="#m1a52f162e1" y="216.070756"/>
     <use style="fill:#ff0000;stroke:#ff0000;" x="277.778238" xlink:href="#m1a52f162e1" y="214.876177"/>
     <use style="fill:#ff0000;stroke:#ff0000;" x="279.512953" xlink:href="#m1a52f162e1" y="214.810767"/>
     <use style="fill:#ff0000;stroke:#ff0000;" x="281.247668" xlink:href="#m1a52f162e1" y="214.123998"/>
     <use style="fill:#ff0000;stroke:#ff0000;" x="282.982383" xlink:href="#m1a52f162e1" y="211.854881"/>
     <use style="fill:#ff0000;stroke:#ff0000;" x="284.717098" xlink:href="#m1a52f162e1" y="214.30664"/>
     <use style="fill:#ff0000;stroke:#ff0000;" x="286.451813" xlink:href="#m1a52f162e1" y="212.339147"/>
     <use style="fill:#ff0000;stroke:#ff0000;" x="288.186528" xlink:href="#m1a52f162e1" y="212.281695"/>
     <use style="fill:#ff0000;stroke:#ff0000;" x="289.921244" xlink:href="#m1a52f162e1" y="210.137032"/>
     <use style="fill:#ff0000;stroke:#ff0000;" x="291.655959" xlink:href="#m1a52f162e1" y="213.017597"/>
     <use style="fill:#ff0000;stroke:#ff0000;" x="293.390674" xlink:href="#m1a52f162e1" y="211.824315"/>
     <use style="fill:#ff0000;stroke:#ff0000;" x="295.125389" xlink:href="#m1a52f162e1" y="211.437507"/>
     <use style="fill:#ff0000;stroke:#ff0000;" x="296.860104" xlink:href="#m1a52f162e1" y="209.07785"/>
     <use style="fill:#ff0000;stroke:#ff0000;" x="298.594819" xlink:href="#m1a52f162e1" y="210.095324"/>
     <use style="fill:#ff0000;stroke:#ff0000;" x="300.329534" xlink:href="#m1a52f162e1" y="208.314295"/>
     <use style="fill:#ff0000;stroke:#ff0000;" x="302.064249" xlink:href="#m1a52f162e1" y="206.726058"/>
     <use style="fill:#ff0000;stroke:#ff0000;" x="303.798964" xlink:href="#m1a52f162e1" y="204.817327"/>
     <use style="fill:#ff0000;stroke:#ff0000;" x="305.533679" xlink:href="#m1a52f162e1" y="202.430074"/>
     <use style="fill:#ff0000;stroke:#ff0000;" x="307.268394" xlink:href="#m1a52f162e1" y="197.073229"/>
     <use style="fill:#ff0000;stroke:#ff0000;" x="309.003109" xlink:href="#m1a52f162e1" y="192.390772"/>
     <use style="fill:#ff0000;stroke:#ff0000;" x="310.737824" xlink:href="#m1a52f162e1" y="184.806134"/>
     <use style="fill:#ff0000;stroke:#ff0000;" x="312.472539" xlink:href="#m1a52f162e1" y="192.059984"/>
     <use style="fill:#ff0000;stroke:#ff0000;" x="314.207254" xlink:href="#m1a52f162e1" y="190.407425"/>
     <use style="fill:#ff0000;stroke:#ff0000;" x="315.941969" xlink:href="#m1a52f162e1" y="188.165657"/>
     <use style="fill:#ff0000;stroke:#ff0000;" x="317.676684" xlink:href="#m1a52f162e1" y="178.404502"/>
     <use style="fill:#ff0000;stroke:#ff0000;" x="319.411399" xlink:href="#m1a52f162e1" y="170.915228"/>
     <use style="fill:#ff0000;stroke:#ff0000;" x="321.146114" xlink:href="#m1a52f162e1" y="169.318097"/>
     <use style="fill:#ff0000;stroke:#ff0000;" x="322.880829" xlink:href="#m1a52f162e1" y="168.850237"/>
     <use style="fill:#ff0000;stroke:#ff0000;" x="324.615544" xlink:href="#m1a52f162e1" y="160.230044"/>
     <use style="fill:#ff0000;stroke:#ff0000;" x="326.350259" xlink:href="#m1a52f162e1" y="162.894826"/>
     <use style="fill:#ff0000;stroke:#ff0000;" x="328.084974" xlink:href="#m1a52f162e1" y="152.884032"/>
     <use style="fill:#ff0000;stroke:#ff0000;" x="329.819689" xlink:href="#m1a52f162e1" y="146.494444"/>
     <use style="fill:#ff0000;stroke:#ff0000;" x="331.554404" xlink:href="#m1a52f162e1" y="150.084885"/>
     <use style="fill:#ff0000;stroke:#ff0000;" x="333.289119" xlink:href="#m1a52f162e1" y="156.715568"/>
     <use style="fill:#ff0000;stroke:#ff0000;" x="335.023834" xlink:href="#m1a52f162e1" y="152.344545"/>
     <use style="fill:#ff0000;stroke:#ff0000;" x="336.758549" xlink:href="#m1a52f162e1" y="153.955722"/>
     <use style="fill:#ff0000;stroke:#ff0000;" x="338.493264" xlink:href="#m1a52f162e1" y="161.024663"/>
     <use style="fill:#ff0000;stroke:#ff0000;" x="340.227979" xlink:href="#m1a52f162e1" y="156.582649"/>
     <use style="fill:#ff0000;stroke:#ff0000;" x="341.962694" xlink:href="#m1a52f162e1" y="162.335781"/>
     <use style="fill:#ff0000;stroke:#ff0000;" x="343.697409" xlink:href="#m1a52f162e1" y="173.777862"/>
     <use style="fill:#ff0000;stroke:#ff0000;" x="345.432124" xlink:href="#m1a52f162e1" y="169.177111"/>
     <use style="fill:#ff0000;stroke:#ff0000;" x="347.166839" xlink:href="#m1a52f162e1" y="165.722912"/>
     <use style="fill:#ff0000;stroke:#ff0000;" x="348.901554" xlink:href="#m1a52f162e1" y="167.552099"/>
     <use style="fill:#ff0000;stroke:#ff0000;" x="350.636269" xlink:href="#m1a52f162e1" y="156.984482"/>
     <use style="fill:#ff0000;stroke:#ff0000;" x="352.370984" xlink:href="#m1a52f162e1" y="163.488656"/>
     <use style="fill:#ff0000;stroke:#ff0000;" x="354.105699" xlink:href="#m1a52f162e1" y="153.097994"/>
     <use style="fill:#ff0000;stroke:#ff0000;" x="355.840415" xlink:href="#m1a52f162e1" y="144.699902"/>
     <use style="fill:#ff0000;stroke:#ff0000;" x="357.57513" xlink:href="#m1a52f162e1" y="138.288314"/>
     <use style="fill:#ff0000;stroke:#ff0000;" x="359.309845" xlink:href="#m1a52f162e1" y="132.048761"/>
     <use style="fill:#ff0000;stroke:#ff0000;" x="361.04456" xlink:href="#m1a52f162e1" y="141.622821"/>
     <use style="fill:#ff0000;stroke:#ff0000;" x="362.779275" xlink:href="#m1a52f162e1" y="144.800548"/>
     <use style="fill:#ff0000;stroke:#ff0000;" x="364.51399" xlink:href="#m1a52f162e1" y="139.658053"/>
     <use style="fill:#ff0000;stroke:#ff0000;" x="366.248705" xlink:href="#m1a52f162e1" y="138.243917"/>
     <use style="fill:#ff0000;stroke:#ff0000;" x="367.98342" xlink:href="#m1a52f162e1" y="133.705966"/>
     <use style="fill:#ff0000;stroke:#ff0000;" x="369.718135" xlink:href="#m1a52f162e1" y="133.952695"/>
     <use style="fill:#ff0000;stroke:#ff0000;" x="371.45285" xlink:href="#m1a52f162e1" y="131.667385"/>
     <use style="fill:#ff0000;stroke:#ff0000;" x="373.187565" xlink:href="#m1a52f162e1" y="131.896355"/>
     <use style="fill:#ff0000;stroke:#ff0000;" x="374.92228" xlink:href="#m1a52f162e1" y="142.52812"/>
     <use style="fill:#ff0000;stroke:#ff0000;" x="376.656995" xlink:href="#m1a52f162e1" y="139.158466"/>
     <use style="fill:#ff0000;stroke:#ff0000;" x="378.39171" xlink:href="#m1a52f162e1" y="141.456377"/>
     <use style="fill:#ff0000;stroke:#ff0000;" x="380.126425" xlink:href="#m1a52f162e1" y="143.383952"/>
     <use style="fill:#ff0000;stroke:#ff0000;" x="381.86114" xlink:href="#m1a52f162e1" y="158.869018"/>
     <use style="fill:#ff0000;stroke:#ff0000;" x="383.595855" xlink:href="#m1a52f162e1" y="152.284875"/>
     <use style="fill:#ff0000;stroke:#ff0000;" x="385.33057" xlink:href="#m1a52f162e1" y="154.17061"/>
     <use style="fill:#ff0000;stroke:#ff0000;" x="387.065285" xlink:href="#m1a52f162e1" y="162.838763"/>
     <use style="fill:#ff0000;stroke:#ff0000;" x="388.8" xlink:href="#m1a52f162e1" y="161.611863"/>
    </g>
   </g>
   <g id="patch_3">
    <path d="M 54 278.64 
L 54 51.84 
" style="fill:none;stroke:#000000;stroke-linecap:square;stroke-linejoin:miter;stroke-width:0.8;"/>
   </g>
   <g id="patch_4">
    <path d="M 388.8 278.64 
L 388.8 51.84 
" style="fill:none;stroke:#000000;stroke-linecap:square;stroke-linejoin:miter;stroke-width:0.8;"/>
   </g>
   <g id="patch_5">
    <path d="M 54 278.64 
L 388.8 278.64 
" style="fill:none;stroke:#000000;stroke-linecap:square;stroke-linejoin:miter;stroke-width:0.8;"/>
   </g>
   <g id="patch_6">
    <path d="M 54 51.84 
L 388.8 51.84 
" style="fill:none;stroke:#000000;stroke-linecap:square;stroke-linejoin:miter;stroke-width:0.8;"/>
   </g>
   <g id="legend_1">
    <g id="patch_7">
     <path d="M 279.842188 89.19625 
L 381.8 89.19625 
Q 383.8 89.19625 383.8 87.19625 
L 383.8 58.84 
Q 383.8 56.84 381.8 56.84 
L 279.842188 56.84 
Q 277.842188 56.84 277.842188 58.84 
L 277.842188 87.19625 
Q 277.842188 89.19625 279.842188 89.19625 
z
" style="fill:#ffffff;opacity:0.8;stroke:#cccccc;stroke-linejoin:miter;"/>
    </g>
    <g id="line2d_18">
     <path d="M 281.842188 64.938437 
L 301.842188 64.938437 
" style="fill:none;stroke:#1f77b4;stroke-linecap:square;stroke-width:1.5;"/>
    </g>
    <g id="line2d_19"/>
    <g id="text_17">
     <!-- True RUL -->
     <defs>
      <path d="M -0.296875 72.90625 
L 61.375 72.90625 
L 61.375 64.59375 
L 35.5 64.59375 
L 35.5 0 
L 25.59375 0 
L 25.59375 64.59375 
L -0.296875 64.59375 
z
" id="DejaVuSans-84"/>
      <path d="M 41.109375 46.296875 
Q 39.59375 47.171875 37.8125 47.578125 
Q 36.03125 48 33.890625 48 
Q 26.265625 48 22.1875 43.046875 
Q 18.109375 38.09375 18.109375 28.8125 
L 18.109375 0 
L 9.078125 0 
L 9.078125 54.6875 
L 18.109375 54.6875 
L 18.109375 46.1875 
Q 20.953125 51.171875 25.484375 53.578125 
Q 30.03125 56 36.53125 56 
Q 37.453125 56 38.578125 55.875 
Q 39.703125 55.765625 41.0625 55.515625 
z
" id="DejaVuSans-114"/>
      <path d="M 8.5 21.578125 
L 8.5 54.6875 
L 17.484375 54.6875 
L 17.484375 21.921875 
Q 17.484375 14.15625 20.5 10.265625 
Q 23.53125 6.390625 29.59375 6.390625 
Q 36.859375 6.390625 41.078125 11.03125 
Q 45.3125 15.671875 45.3125 23.6875 
L 45.3125 54.6875 
L 54.296875 54.6875 
L 54.296875 0 
L 45.3125 0 
L 45.3125 8.40625 
Q 42.046875 3.421875 37.71875 1 
Q 33.40625 -1.421875 27.6875 -1.421875 
Q 18.265625 -1.421875 13.375 4.4375 
Q 8.5 10.296875 8.5 21.578125 
z
M 31.109375 56 
z
" id="DejaVuSans-117"/>
      <path d="M 56.203125 29.59375 
L 56.203125 25.203125 
L 14.890625 25.203125 
Q 15.484375 15.921875 20.484375 11.0625 
Q 25.484375 6.203125 34.421875 6.203125 
Q 39.59375 6.203125 44.453125 7.46875 
Q 49.3125 8.734375 54.109375 11.28125 
L 54.109375 2.78125 
Q 49.265625 0.734375 44.1875 -0.34375 
Q 39.109375 -1.421875 33.890625 -1.421875 
Q 20.796875 -1.421875 13.15625 6.1875 
Q 5.515625 13.8125 5.515625 26.8125 
Q 5.515625 40.234375 12.765625 48.109375 
Q 20.015625 56 32.328125 56 
Q 43.359375 56 49.78125 48.890625 
Q 56.203125 41.796875 56.203125 29.59375 
z
M 47.21875 32.234375 
Q 47.125 39.59375 43.09375 43.984375 
Q 39.0625 48.390625 32.421875 48.390625 
Q 24.90625 48.390625 20.390625 44.140625 
Q 15.875 39.890625 15.1875 32.171875 
z
" id="DejaVuSans-101"/>
      <path id="DejaVuSans-32"/>
     </defs>
     <g transform="translate(309.842188 68.438437)scale(0.1 -0.1)">
      <use xlink:href="#DejaVuSans-84"/>
      <use x="46.333984" xlink:href="#DejaVuSans-114"/>
      <use x="87.447266" xlink:href="#DejaVuSans-117"/>
      <use x="150.826172" xlink:href="#DejaVuSans-101"/>
      <use x="212.349609" xlink:href="#DejaVuSans-32"/>
      <use x="244.136719" xlink:href="#DejaVuSans-82"/>
      <use x="313.619141" xlink:href="#DejaVuSans-85"/>
      <use x="386.8125" xlink:href="#DejaVuSans-76"/>
     </g>
    </g>
    <g id="line2d_20">
     <path d="M 281.842188 79.616562 
L 301.842188 79.616562 
" style="fill:none;stroke:#ff0000;stroke-linecap:square;stroke-width:0.5;"/>
    </g>
    <g id="line2d_21">
     <g>
      <use style="fill:#ff0000;stroke:#ff0000;" x="291.842188" xlink:href="#m1a52f162e1" y="79.616562"/>
     </g>
    </g>
    <g id="text_18">
     <!-- Predicted RUL -->
     <defs>
      <path d="M 19.671875 64.796875 
L 19.671875 37.40625 
L 32.078125 37.40625 
Q 38.96875 37.40625 42.71875 40.96875 
Q 46.484375 44.53125 46.484375 51.125 
Q 46.484375 57.671875 42.71875 61.234375 
Q 38.96875 64.796875 32.078125 64.796875 
z
M 9.8125 72.90625 
L 32.078125 72.90625 
Q 44.34375 72.90625 50.609375 67.359375 
Q 56.890625 61.8125 56.890625 51.125 
Q 56.890625 40.328125 50.609375 34.8125 
Q 44.34375 29.296875 32.078125 29.296875 
L 19.671875 29.296875 
L 19.671875 0 
L 9.8125 0 
z
" id="DejaVuSans-80"/>
      <path d="M 45.40625 46.390625 
L 45.40625 75.984375 
L 54.390625 75.984375 
L 54.390625 0 
L 45.40625 0 
L 45.40625 8.203125 
Q 42.578125 3.328125 38.25 0.953125 
Q 33.9375 -1.421875 27.875 -1.421875 
Q 17.96875 -1.421875 11.734375 6.484375 
Q 5.515625 14.40625 5.515625 27.296875 
Q 5.515625 40.1875 11.734375 48.09375 
Q 17.96875 56 27.875 56 
Q 33.9375 56 38.25 53.625 
Q 42.578125 51.265625 45.40625 46.390625 
z
M 14.796875 27.296875 
Q 14.796875 17.390625 18.875 11.75 
Q 22.953125 6.109375 30.078125 6.109375 
Q 37.203125 6.109375 41.296875 11.75 
Q 45.40625 17.390625 45.40625 27.296875 
Q 45.40625 37.203125 41.296875 42.84375 
Q 37.203125 48.484375 30.078125 48.484375 
Q 22.953125 48.484375 18.875 42.84375 
Q 14.796875 37.203125 14.796875 27.296875 
z
" id="DejaVuSans-100"/>
      <path d="M 9.421875 54.6875 
L 18.40625 54.6875 
L 18.40625 0 
L 9.421875 0 
z
M 9.421875 75.984375 
L 18.40625 75.984375 
L 18.40625 64.59375 
L 9.421875 64.59375 
z
" id="DejaVuSans-105"/>
      <path d="M 48.78125 52.59375 
L 48.78125 44.1875 
Q 44.96875 46.296875 41.140625 47.34375 
Q 37.3125 48.390625 33.40625 48.390625 
Q 24.65625 48.390625 19.8125 42.84375 
Q 14.984375 37.3125 14.984375 27.296875 
Q 14.984375 17.28125 19.8125 11.734375 
Q 24.65625 6.203125 33.40625 6.203125 
Q 37.3125 6.203125 41.140625 7.25 
Q 44.96875 8.296875 48.78125 10.40625 
L 48.78125 2.09375 
Q 45.015625 0.34375 40.984375 -0.53125 
Q 36.96875 -1.421875 32.421875 -1.421875 
Q 20.0625 -1.421875 12.78125 6.34375 
Q 5.515625 14.109375 5.515625 27.296875 
Q 5.515625 40.671875 12.859375 48.328125 
Q 20.21875 56 33.015625 56 
Q 37.15625 56 41.109375 55.140625 
Q 45.0625 54.296875 48.78125 52.59375 
z
" id="DejaVuSans-99"/>
      <path d="M 18.3125 70.21875 
L 18.3125 54.6875 
L 36.8125 54.6875 
L 36.8125 47.703125 
L 18.3125 47.703125 
L 18.3125 18.015625 
Q 18.3125 11.328125 20.140625 9.421875 
Q 21.96875 7.515625 27.59375 7.515625 
L 36.8125 7.515625 
L 36.8125 0 
L 27.59375 0 
Q 17.1875 0 13.234375 3.875 
Q 9.28125 7.765625 9.28125 18.015625 
L 9.28125 47.703125 
L 2.6875 47.703125 
L 2.6875 54.6875 
L 9.28125 54.6875 
L 9.28125 70.21875 
z
" id="DejaVuSans-116"/>
     </defs>
     <g transform="translate(309.842188 83.116562)scale(0.1 -0.1)">
      <use xlink:href="#DejaVuSans-80"/>
      <use x="58.552734" xlink:href="#DejaVuSans-114"/>
      <use x="97.416016" xlink:href="#DejaVuSans-101"/>
      <use x="158.939453" xlink:href="#DejaVuSans-100"/>
      <use x="222.416016" xlink:href="#DejaVuSans-105"/>
      <use x="250.199219" xlink:href="#DejaVuSans-99"/>
      <use x="305.179688" xlink:href="#DejaVuSans-116"/>
      <use x="344.388672" xlink:href="#DejaVuSans-101"/>
      <use x="405.912109" xlink:href="#DejaVuSans-100"/>
      <use x="469.388672" xlink:href="#DejaVuSans-32"/>
      <use x="501.175781" xlink:href="#DejaVuSans-82"/>
      <use x="570.658203" xlink:href="#DejaVuSans-85"/>
      <use x="643.851562" xlink:href="#DejaVuSans-76"/>
     </g>
    </g>
   </g>
  </g>
  <g id="axes_2">
   <g id="patch_8">
    <path d="M 54 384.48 
L 388.8 384.48 
L 388.8 308.88 
L 54 308.88 
z
" style="fill:#ffffff;"/>
   </g>
   <g id="matplotlib.axis_3">
    <g id="xtick_9">
     <g id="line2d_22">
      <g>
       <use style="stroke:#000000;stroke-width:0.8;" x="54" xlink:href="#mda22ea9f89" y="384.48"/>
      </g>
     </g>
     <g id="text_19">
      <!-- 0 -->
      <g transform="translate(50.81875 399.078437)scale(0.1 -0.1)">
       <use xlink:href="#DejaVuSans-48"/>
      </g>
     </g>
    </g>
    <g id="xtick_10">
     <g id="line2d_23">
      <g>
       <use style="stroke:#000000;stroke-width:0.8;" x="97.367876" xlink:href="#mda22ea9f89" y="384.48"/>
      </g>
     </g>
     <g id="text_20">
      <!-- 25 -->
      <g transform="translate(91.005376 399.078437)scale(0.1 -0.1)">
       <use xlink:href="#DejaVuSans-50"/>
       <use x="63.623047" xlink:href="#DejaVuSans-53"/>
      </g>
     </g>
    </g>
    <g id="xtick_11">
     <g id="line2d_24">
      <g>
       <use style="stroke:#000000;stroke-width:0.8;" x="140.735751" xlink:href="#mda22ea9f89" y="384.48"/>
      </g>
     </g>
     <g id="text_21">
      <!-- 50 -->
      <g transform="translate(134.373251 399.078437)scale(0.1 -0.1)">
       <use xlink:href="#DejaVuSans-53"/>
       <use x="63.623047" xlink:href="#DejaVuSans-48"/>
      </g>
     </g>
    </g>
    <g id="xtick_12">
     <g id="line2d_25">
      <g>
       <use style="stroke:#000000;stroke-width:0.8;" x="184.103627" xlink:href="#mda22ea9f89" y="384.48"/>
      </g>
     </g>
     <g id="text_22">
      <!-- 75 -->
      <g transform="translate(177.741127 399.078437)scale(0.1 -0.1)">
       <use xlink:href="#DejaVuSans-55"/>
       <use x="63.623047" xlink:href="#DejaVuSans-53"/>
      </g>
     </g>
    </g>
    <g id="xtick_13">
     <g id="line2d_26">
      <g>
       <use style="stroke:#000000;stroke-width:0.8;" x="227.471503" xlink:href="#mda22ea9f89" y="384.48"/>
      </g>
     </g>
     <g id="text_23">
      <!-- 100 -->
      <g transform="translate(217.927753 399.078437)scale(0.1 -0.1)">
       <use xlink:href="#DejaVuSans-49"/>
       <use x="63.623047" xlink:href="#DejaVuSans-48"/>
       <use x="127.246094" xlink:href="#DejaVuSans-48"/>
      </g>
     </g>
    </g>
    <g id="xtick_14">
     <g id="line2d_27">
      <g>
       <use style="stroke:#000000;stroke-width:0.8;" x="270.839378" xlink:href="#mda22ea9f89" y="384.48"/>
      </g>
     </g>
     <g id="text_24">
      <!-- 125 -->
      <g transform="translate(261.295628 399.078437)scale(0.1 -0.1)">
       <use xlink:href="#DejaVuSans-49"/>
       <use x="63.623047" xlink:href="#DejaVuSans-50"/>
       <use x="127.246094" xlink:href="#DejaVuSans-53"/>
      </g>
     </g>
    </g>
    <g id="xtick_15">
     <g id="line2d_28">
      <g>
       <use style="stroke:#000000;stroke-width:0.8;" x="314.207254" xlink:href="#mda22ea9f89" y="384.48"/>
      </g>
     </g>
     <g id="text_25">
      <!-- 150 -->
      <g transform="translate(304.663504 399.078437)scale(0.1 -0.1)">
       <use xlink:href="#DejaVuSans-49"/>
       <use x="63.623047" xlink:href="#DejaVuSans-53"/>
       <use x="127.246094" xlink:href="#DejaVuSans-48"/>
      </g>
     </g>
    </g>
    <g id="xtick_16">
     <g id="line2d_29">
      <g>
       <use style="stroke:#000000;stroke-width:0.8;" x="357.57513" xlink:href="#mda22ea9f89" y="384.48"/>
      </g>
     </g>
     <g id="text_26">
      <!-- 175 -->
      <g transform="translate(348.03138 399.078437)scale(0.1 -0.1)">
       <use xlink:href="#DejaVuSans-49"/>
       <use x="63.623047" xlink:href="#DejaVuSans-55"/>
       <use x="127.246094" xlink:href="#DejaVuSans-53"/>
      </g>
     </g>
    </g>
    <g id="text_27">
     <!-- Operating time -->
     <defs>
      <path d="M 39.40625 66.21875 
Q 28.65625 66.21875 22.328125 58.203125 
Q 16.015625 50.203125 16.015625 36.375 
Q 16.015625 22.609375 22.328125 14.59375 
Q 28.65625 6.59375 39.40625 6.59375 
Q 50.140625 6.59375 56.421875 14.59375 
Q 62.703125 22.609375 62.703125 36.375 
Q 62.703125 50.203125 56.421875 58.203125 
Q 50.140625 66.21875 39.40625 66.21875 
z
M 39.40625 74.21875 
Q 54.734375 74.21875 63.90625 63.9375 
Q 73.09375 53.65625 73.09375 36.375 
Q 73.09375 19.140625 63.90625 8.859375 
Q 54.734375 -1.421875 39.40625 -1.421875 
Q 24.03125 -1.421875 14.8125 8.828125 
Q 5.609375 19.09375 5.609375 36.375 
Q 5.609375 53.65625 14.8125 63.9375 
Q 24.03125 74.21875 39.40625 74.21875 
z
" id="DejaVuSans-79"/>
      <path d="M 18.109375 8.203125 
L 18.109375 -20.796875 
L 9.078125 -20.796875 
L 9.078125 54.6875 
L 18.109375 54.6875 
L 18.109375 46.390625 
Q 20.953125 51.265625 25.265625 53.625 
Q 29.59375 56 35.59375 56 
Q 45.5625 56 51.78125 48.09375 
Q 58.015625 40.1875 58.015625 27.296875 
Q 58.015625 14.40625 51.78125 6.484375 
Q 45.5625 -1.421875 35.59375 -1.421875 
Q 29.59375 -1.421875 25.265625 0.953125 
Q 20.953125 3.328125 18.109375 8.203125 
z
M 48.6875 27.296875 
Q 48.6875 37.203125 44.609375 42.84375 
Q 40.53125 48.484375 33.40625 48.484375 
Q 26.265625 48.484375 22.1875 42.84375 
Q 18.109375 37.203125 18.109375 27.296875 
Q 18.109375 17.390625 22.1875 11.75 
Q 26.265625 6.109375 33.40625 6.109375 
Q 40.53125 6.109375 44.609375 11.75 
Q 48.6875 17.390625 48.6875 27.296875 
z
" id="DejaVuSans-112"/>
      <path d="M 34.28125 27.484375 
Q 23.390625 27.484375 19.1875 25 
Q 14.984375 22.515625 14.984375 16.5 
Q 14.984375 11.71875 18.140625 8.90625 
Q 21.296875 6.109375 26.703125 6.109375 
Q 34.1875 6.109375 38.703125 11.40625 
Q 43.21875 16.703125 43.21875 25.484375 
L 43.21875 27.484375 
z
M 52.203125 31.203125 
L 52.203125 0 
L 43.21875 0 
L 43.21875 8.296875 
Q 40.140625 3.328125 35.546875 0.953125 
Q 30.953125 -1.421875 24.3125 -1.421875 
Q 15.921875 -1.421875 10.953125 3.296875 
Q 6 8.015625 6 15.921875 
Q 6 25.140625 12.171875 29.828125 
Q 18.359375 34.515625 30.609375 34.515625 
L 43.21875 34.515625 
L 43.21875 35.40625 
Q 43.21875 41.609375 39.140625 45 
Q 35.0625 48.390625 27.6875 48.390625 
Q 23 48.390625 18.546875 47.265625 
Q 14.109375 46.140625 10.015625 43.890625 
L 10.015625 52.203125 
Q 14.9375 54.109375 19.578125 55.046875 
Q 24.21875 56 28.609375 56 
Q 40.484375 56 46.34375 49.84375 
Q 52.203125 43.703125 52.203125 31.203125 
z
" id="DejaVuSans-97"/>
      <path d="M 54.890625 33.015625 
L 54.890625 0 
L 45.90625 0 
L 45.90625 32.71875 
Q 45.90625 40.484375 42.875 44.328125 
Q 39.84375 48.1875 33.796875 48.1875 
Q 26.515625 48.1875 22.3125 43.546875 
Q 18.109375 38.921875 18.109375 30.90625 
L 18.109375 0 
L 9.078125 0 
L 9.078125 54.6875 
L 18.109375 54.6875 
L 18.109375 46.1875 
Q 21.34375 51.125 25.703125 53.5625 
Q 30.078125 56 35.796875 56 
Q 45.21875 56 50.046875 50.171875 
Q 54.890625 44.34375 54.890625 33.015625 
z
" id="DejaVuSans-110"/>
      <path d="M 45.40625 27.984375 
Q 45.40625 37.75 41.375 43.109375 
Q 37.359375 48.484375 30.078125 48.484375 
Q 22.859375 48.484375 18.828125 43.109375 
Q 14.796875 37.75 14.796875 27.984375 
Q 14.796875 18.265625 18.828125 12.890625 
Q 22.859375 7.515625 30.078125 7.515625 
Q 37.359375 7.515625 41.375 12.890625 
Q 45.40625 18.265625 45.40625 27.984375 
z
M 54.390625 6.78125 
Q 54.390625 -7.171875 48.1875 -13.984375 
Q 42 -20.796875 29.203125 -20.796875 
Q 24.46875 -20.796875 20.265625 -20.09375 
Q 16.0625 -19.390625 12.109375 -17.921875 
L 12.109375 -9.1875 
Q 16.0625 -11.328125 19.921875 -12.34375 
Q 23.78125 -13.375 27.78125 -13.375 
Q 36.625 -13.375 41.015625 -8.765625 
Q 45.40625 -4.15625 45.40625 5.171875 
L 45.40625 9.625 
Q 42.625 4.78125 38.28125 2.390625 
Q 33.9375 0 27.875 0 
Q 17.828125 0 11.671875 7.65625 
Q 5.515625 15.328125 5.515625 27.984375 
Q 5.515625 40.671875 11.671875 48.328125 
Q 17.828125 56 27.875 56 
Q 33.9375 56 38.28125 53.609375 
Q 42.625 51.21875 45.40625 46.390625 
L 45.40625 54.6875 
L 54.390625 54.6875 
z
" id="DejaVuSans-103"/>
      <path d="M 52 44.1875 
Q 55.375 50.25 60.0625 53.125 
Q 64.75 56 71.09375 56 
Q 79.640625 56 84.28125 50.015625 
Q 88.921875 44.046875 88.921875 33.015625 
L 88.921875 0 
L 79.890625 0 
L 79.890625 32.71875 
Q 79.890625 40.578125 77.09375 44.375 
Q 74.3125 48.1875 68.609375 48.1875 
Q 61.625 48.1875 57.5625 43.546875 
Q 53.515625 38.921875 53.515625 30.90625 
L 53.515625 0 
L 44.484375 0 
L 44.484375 32.71875 
Q 44.484375 40.625 41.703125 44.40625 
Q 38.921875 48.1875 33.109375 48.1875 
Q 26.21875 48.1875 22.15625 43.53125 
Q 18.109375 38.875 18.109375 30.90625 
L 18.109375 0 
L 9.078125 0 
L 9.078125 54.6875 
L 18.109375 54.6875 
L 18.109375 46.1875 
Q 21.1875 51.21875 25.484375 53.609375 
Q 29.78125 56 35.6875 56 
Q 41.65625 56 45.828125 52.96875 
Q 50 49.953125 52 44.1875 
z
" id="DejaVuSans-109"/>
     </defs>
     <g transform="translate(183.516406 412.756562)scale(0.1 -0.1)">
      <use xlink:href="#DejaVuSans-79"/>
      <use x="78.710938" xlink:href="#DejaVuSans-112"/>
      <use x="142.1875" xlink:href="#DejaVuSans-101"/>
      <use x="203.710938" xlink:href="#DejaVuSans-114"/>
      <use x="244.824219" xlink:href="#DejaVuSans-97"/>
      <use x="306.103516" xlink:href="#DejaVuSans-116"/>
      <use x="345.3125" xlink:href="#DejaVuSans-105"/>
      <use x="373.095703" xlink:href="#DejaVuSans-110"/>
      <use x="436.474609" xlink:href="#DejaVuSans-103"/>
      <use x="499.951172" xlink:href="#DejaVuSans-32"/>
      <use x="531.738281" xlink:href="#DejaVuSans-116"/>
      <use x="570.947266" xlink:href="#DejaVuSans-105"/>
      <use x="598.730469" xlink:href="#DejaVuSans-109"/>
      <use x="696.142578" xlink:href="#DejaVuSans-101"/>
     </g>
    </g>
   </g>
   <g id="matplotlib.axis_4">
    <g id="ytick_8">
     <g id="line2d_30">
      <g>
       <use style="stroke:#000000;stroke-width:0.8;" x="54" xlink:href="#m1f81ba1982" y="353.619947"/>
      </g>
     </g>
     <g id="text_28">
      <!-- 5000 -->
      <g transform="translate(21.55 357.419166)scale(0.1 -0.1)">
       <use xlink:href="#DejaVuSans-53"/>
       <use x="63.623047" xlink:href="#DejaVuSans-48"/>
       <use x="127.246094" xlink:href="#DejaVuSans-48"/>
       <use x="190.869141" xlink:href="#DejaVuSans-48"/>
      </g>
     </g>
    </g>
    <g id="ytick_9">
     <g id="line2d_31">
      <g>
       <use style="stroke:#000000;stroke-width:0.8;" x="54" xlink:href="#m1f81ba1982" y="321.8432"/>
      </g>
     </g>
     <g id="text_29">
      <!-- 10000 -->
      <g transform="translate(15.1875 325.642419)scale(0.1 -0.1)">
       <use xlink:href="#DejaVuSans-49"/>
       <use x="63.623047" xlink:href="#DejaVuSans-48"/>
       <use x="127.246094" xlink:href="#DejaVuSans-48"/>
       <use x="190.869141" xlink:href="#DejaVuSans-48"/>
       <use x="254.492188" xlink:href="#DejaVuSans-48"/>
      </g>
     </g>
    </g>
    <g id="text_30">
     <!-- Absolute error -->
     <defs>
      <path d="M 34.1875 63.1875 
L 20.796875 26.90625 
L 47.609375 26.90625 
z
M 28.609375 72.90625 
L 39.796875 72.90625 
L 67.578125 0 
L 57.328125 0 
L 50.6875 18.703125 
L 17.828125 18.703125 
L 11.1875 0 
L 0.78125 0 
z
" id="DejaVuSans-65"/>
      <path d="M 48.6875 27.296875 
Q 48.6875 37.203125 44.609375 42.84375 
Q 40.53125 48.484375 33.40625 48.484375 
Q 26.265625 48.484375 22.1875 42.84375 
Q 18.109375 37.203125 18.109375 27.296875 
Q 18.109375 17.390625 22.1875 11.75 
Q 26.265625 6.109375 33.40625 6.109375 
Q 40.53125 6.109375 44.609375 11.75 
Q 48.6875 17.390625 48.6875 27.296875 
z
M 18.109375 46.390625 
Q 20.953125 51.265625 25.265625 53.625 
Q 29.59375 56 35.59375 56 
Q 45.5625 56 51.78125 48.09375 
Q 58.015625 40.1875 58.015625 27.296875 
Q 58.015625 14.40625 51.78125 6.484375 
Q 45.5625 -1.421875 35.59375 -1.421875 
Q 29.59375 -1.421875 25.265625 0.953125 
Q 20.953125 3.328125 18.109375 8.203125 
L 18.109375 0 
L 9.078125 0 
L 9.078125 75.984375 
L 18.109375 75.984375 
z
" id="DejaVuSans-98"/>
      <path d="M 44.28125 53.078125 
L 44.28125 44.578125 
Q 40.484375 46.53125 36.375 47.5 
Q 32.28125 48.484375 27.875 48.484375 
Q 21.1875 48.484375 17.84375 46.4375 
Q 14.5 44.390625 14.5 40.28125 
Q 14.5 37.15625 16.890625 35.375 
Q 19.28125 33.59375 26.515625 31.984375 
L 29.59375 31.296875 
Q 39.15625 29.25 43.1875 25.515625 
Q 47.21875 21.78125 47.21875 15.09375 
Q 47.21875 7.46875 41.1875 3.015625 
Q 35.15625 -1.421875 24.609375 -1.421875 
Q 20.21875 -1.421875 15.453125 -0.5625 
Q 10.6875 0.296875 5.421875 2 
L 5.421875 11.28125 
Q 10.40625 8.6875 15.234375 7.390625 
Q 20.0625 6.109375 24.8125 6.109375 
Q 31.15625 6.109375 34.5625 8.28125 
Q 37.984375 10.453125 37.984375 14.40625 
Q 37.984375 18.0625 35.515625 20.015625 
Q 33.0625 21.96875 24.703125 23.78125 
L 21.578125 24.515625 
Q 13.234375 26.265625 9.515625 29.90625 
Q 5.8125 33.546875 5.8125 39.890625 
Q 5.8125 47.609375 11.28125 51.796875 
Q 16.75 56 26.8125 56 
Q 31.78125 56 36.171875 55.265625 
Q 40.578125 54.546875 44.28125 53.078125 
z
" id="DejaVuSans-115"/>
      <path d="M 30.609375 48.390625 
Q 23.390625 48.390625 19.1875 42.75 
Q 14.984375 37.109375 14.984375 27.296875 
Q 14.984375 17.484375 19.15625 11.84375 
Q 23.34375 6.203125 30.609375 6.203125 
Q 37.796875 6.203125 41.984375 11.859375 
Q 46.1875 17.53125 46.1875 27.296875 
Q 46.1875 37.015625 41.984375 42.703125 
Q 37.796875 48.390625 30.609375 48.390625 
z
M 30.609375 56 
Q 42.328125 56 49.015625 48.375 
Q 55.71875 40.765625 55.71875 27.296875 
Q 55.71875 13.875 49.015625 6.21875 
Q 42.328125 -1.421875 30.609375 -1.421875 
Q 18.84375 -1.421875 12.171875 6.21875 
Q 5.515625 13.875 5.515625 27.296875 
Q 5.515625 40.765625 12.171875 48.375 
Q 18.84375 56 30.609375 56 
z
" id="DejaVuSans-111"/>
      <path d="M 9.421875 75.984375 
L 18.40625 75.984375 
L 18.40625 0 
L 9.421875 0 
z
" id="DejaVuSans-108"/>
     </defs>
     <g transform="translate(9.107812 382.224531)rotate(-90)scale(0.1 -0.1)">
      <use xlink:href="#DejaVuSans-65"/>
      <use x="68.408203" xlink:href="#DejaVuSans-98"/>
      <use x="131.884766" xlink:href="#DejaVuSans-115"/>
      <use x="183.984375" xlink:href="#DejaVuSans-111"/>
      <use x="245.166016" xlink:href="#DejaVuSans-108"/>
      <use x="272.949219" xlink:href="#DejaVuSans-117"/>
      <use x="336.328125" xlink:href="#DejaVuSans-116"/>
      <use x="375.537109" xlink:href="#DejaVuSans-101"/>
      <use x="437.060547" xlink:href="#DejaVuSans-32"/>
      <use x="468.847656" xlink:href="#DejaVuSans-101"/>
      <use x="530.371094" xlink:href="#DejaVuSans-114"/>
      <use x="569.734375" xlink:href="#DejaVuSans-114"/>
      <use x="608.597656" xlink:href="#DejaVuSans-111"/>
      <use x="669.779297" xlink:href="#DejaVuSans-114"/>
     </g>
    </g>
   </g>
   <g id="line2d_32">
    <path clip-path="url(#p610b248398)" d="M 55.734715 380.69111 
L 57.46943 381.043636 
L 59.204145 379.840998 
L 60.93886 379.623778 
L 62.673575 379.913092 
L 64.40829 379.36649 
L 66.143005 379.574673 
L 67.87772 380.066392 
L 69.612435 379.387246 
L 71.34715 379.402855 
L 73.081865 378.942798 
L 74.81658 377.867578 
L 76.551295 377.28423 
L 78.28601 377.635262 
L 80.020725 377.849559 
L 81.75544 377.91986 
L 83.490155 377.682688 
L 86.959585 377.734054 
L 88.694301 377.213245 
L 90.429016 376.563416 
L 92.163731 376.128466 
L 93.898446 375.329317 
L 102.572021 372.84482 
L 104.306736 372.498816 
L 106.041451 372.485392 
L 109.510881 371.415124 
L 111.245596 371.199957 
L 112.980311 370.8672 
L 114.715026 370.023042 
L 118.184456 367.054186 
L 121.653886 363.321645 
L 123.388601 361.765007 
L 125.123316 356.789584 
L 126.858031 356.764765 
L 128.592746 356.366507 
L 130.327461 355.666745 
L 133.796891 354.903513 
L 135.531606 355.075012 
L 137.266321 353.987763 
L 139.001036 353.100344 
L 140.735751 351.768194 
L 142.470466 349.397733 
L 144.205181 346.52972 
L 145.939896 342.966886 
L 147.674611 337.298618 
L 149.409326 334.726921 
L 151.144041 336.034391 
L 152.878756 336.657476 
L 154.613472 332.245628 
L 156.348187 334.513259 
L 158.082902 335.754681 
L 159.817617 335.852562 
L 161.552332 337.129106 
L 163.287047 338.759241 
L 165.021762 340.705089 
L 166.756477 343.567811 
L 168.491192 344.179389 
L 170.225907 343.451379 
L 171.960622 344.66017 
L 173.695337 344.898589 
L 175.430052 344.007211 
L 177.164767 342.700886 
L 178.899482 342.957632 
L 180.634197 343.933774 
L 182.368912 341.946824 
L 184.103627 342.18326 
L 185.838342 338.362168 
L 187.573057 335.206408 
L 189.307772 335.012322 
L 192.777202 333.453592 
L 194.511917 334.954379 
L 196.246632 335.801111 
L 197.981347 337.169473 
L 199.716062 335.003025 
L 201.450777 334.554389 
L 203.185492 334.40268 
L 204.920207 329.748907 
L 206.654922 330.982335 
L 208.389637 331.229064 
L 210.124352 332.445661 
L 211.859067 332.290426 
L 213.593782 332.720747 
L 215.328497 327.796381 
L 217.063212 329.188122 
L 218.797927 326.69711 
L 220.532642 328.746661 
L 222.267358 330.526271 
L 224.002073 331.599654 
L 225.736788 330.78661 
L 227.471503 326.906061 
L 229.206218 328.196166 
L 230.940933 328.205383 
L 232.675648 326.021159 
L 234.410363 313.029479 
L 236.145078 313.88845 
L 237.879793 312.316364 
L 239.614508 314.18802 
L 241.349223 315.384111 
L 243.083938 317.657234 
L 244.818653 319.270767 
L 246.553368 321.243035 
L 248.288083 323.724855 
L 250.022798 322.77964 
L 251.757513 325.459909 
L 253.492228 327.044079 
L 255.226943 330.246939 
L 256.961658 332.623828 
L 258.696373 335.960007 
L 260.431088 338.746872 
L 262.165803 345.140272 
L 263.900518 352.387012 
L 267.369948 363.4001 
L 269.104663 370.404747 
L 270.839378 370.715066 
L 272.574093 370.144979 
L 274.308808 371.942993 
L 277.778238 371.154896 
L 279.512953 371.19543 
L 281.247668 371.017291 
L 282.982383 370.282281 
L 284.717098 371.208674 
L 286.451813 370.579814 
L 288.186528 370.623149 
L 289.921244 369.931938 
L 291.655959 371.009239 
L 293.390674 370.652845 
L 295.125389 370.58027 
L 296.860104 369.813397 
L 298.594819 370.235027 
L 303.798964 368.568219 
L 305.533679 367.791634 
L 307.268394 365.96997 
L 309.003109 364.385642 
L 310.737824 361.779958 
L 312.472539 364.396335 
L 314.207254 363.878309 
L 315.941969 363.152924 
L 317.676684 359.781266 
L 319.411399 357.209143 
L 321.146114 356.710623 
L 322.880829 356.609524 
L 324.615544 353.639401 
L 326.350259 354.640762 
L 328.084974 351.181249 
L 329.819689 348.996135 
L 331.554404 350.323261 
L 333.289119 352.72033 
L 335.023834 351.245603 
L 336.758549 351.876173 
L 338.493264 354.427477 
L 340.227979 352.927766 
L 341.962694 355.016001 
L 343.697409 359.106329 
L 345.432124 357.550755 
L 347.166839 356.398684 
L 348.901554 357.105977 
L 350.636269 353.450503 
L 352.370984 355.80305 
L 354.105699 352.209851 
L 355.840415 349.31789 
L 359.309845 344.992721 
L 361.04456 348.425643 
L 362.779275 349.607524 
L 364.51399 347.861296 
L 366.248705 347.427177 
L 367.98342 345.893704 
L 369.718135 346.044088 
L 371.45285 345.303379 
L 373.187565 345.447514 
L 374.92228 349.252671 
L 376.656995 348.130352 
L 378.39171 349.002602 
L 380.126425 349.744521 
L 381.86114 355.257684 
L 383.595855 353.004102 
L 385.33057 353.731296 
L 387.065285 356.845405 
L 388.8 356.477179 
L 388.8 356.477179 
" style="fill:none;stroke:#000000;stroke-linecap:square;stroke-width:0.5;"/>
   </g>
   <g id="patch_9">
    <path d="M 54 384.48 
L 54 308.88 
" style="fill:none;stroke:#000000;stroke-linecap:square;stroke-linejoin:miter;stroke-width:0.8;"/>
   </g>
   <g id="patch_10">
    <path d="M 388.8 384.48 
L 388.8 308.88 
" style="fill:none;stroke:#000000;stroke-linecap:square;stroke-linejoin:miter;stroke-width:0.8;"/>
   </g>
   <g id="patch_11">
    <path d="M 54 384.48 
L 388.8 384.48 
" style="fill:none;stroke:#000000;stroke-linecap:square;stroke-linejoin:miter;stroke-width:0.8;"/>
   </g>
   <g id="patch_12">
    <path d="M 54 308.88 
L 388.8 308.88 
" style="fill:none;stroke:#000000;stroke-linecap:square;stroke-linejoin:miter;stroke-width:0.8;"/>
   </g>
  </g>
 </g>
 <defs>
  <clipPath id="pb8f8e80612">
   <rect height="226.8" width="334.8" x="54" y="51.84"/>
  </clipPath>
  <clipPath id="p610b248398">
   <rect height="75.6" width="334.8" x="54" y="308.88"/>
  </clipPath>
 </defs>
</svg>
